<?xml version="1.0" standalone="no"?>
<!DOCTYPE svg PUBLIC "-//W3C//DTD SVG 1.1//EN" "http://www.w3.org/Graphics/SVG/1.1/DTD/svg11.dtd" >
<svg xmlns="http://www.w3.org/2000/svg">
<metadata></metadata>
<defs>
<font id="ropa_soft_proregular" horiz-adv-x="1179" >
<font-face units-per-em="2048" ascent="1638" descent="-410" />
<missing-glyph horiz-adv-x="368" />
<glyph horiz-adv-x="0" />
<glyph horiz-adv-x="0" />
<glyph unicode="&#xd;" horiz-adv-x="368" />
<glyph unicode=" "  horiz-adv-x="368" />
<glyph unicode="&#x09;" horiz-adv-x="368" />
<glyph unicode="&#xa0;" horiz-adv-x="368" />
<glyph unicode="!" horiz-adv-x="432" d="M170 1423h92q51 0 51 -51l-14 -911q0 -51 -51 -51h-64q-51 0 -51 51l-14 911q0 51 51 51zM215 221q56 0 85.5 -24t29.5 -70v-59q0 -44 -30 -68.5t-85 -24.5q-54 0 -83.5 24.5t-29.5 68.5v59q0 46 29.5 70t83.5 24z" />
<glyph unicode="&#x22;" horiz-adv-x="645" d="M143 1399h72q51 0 51 -51v-418q0 -51 -51 -51h-72q-51 0 -51 51v418q0 51 51 51zM430 1399h72q51 0 51 -51v-418q0 -51 -51 -51h-72q-51 0 -51 51v418q0 51 51 51z" />
<glyph unicode="#" horiz-adv-x="1138" d="M780 1255h72q51 0 51 -51v-205h113q51 0 51 -51v-41q0 -51 -51 -51h-113v-457h113q51 0 51 -51v-41q0 -51 -51 -51h-113v-205q0 -51 -51 -51h-72q-51 0 -51 51v205h-319v-205q0 -51 -52 -51h-71q-51 0 -51 51v205h-113q-51 0 -51 51v41q0 51 51 51h113v457h-113 q-51 0 -51 51v41q0 51 51 51h113v205q0 51 51 51h71q52 0 52 -51v-205h319v205q0 51 51 51zM729 856h-319v-457h319v457z" />
<glyph unicode="$" horiz-adv-x="903" d="M444 1423h52q51 0 51 -51v-119q89 -6 182 -22q45 -9 45 -55v-50q0 -26 -15 -38t-42 -7q-137 25 -219 25q-131 0 -186.5 -43.5t-55.5 -132.5v-41q0 -77 28.5 -110.5t127.5 -63.5l129 -39q175 -53 238 -125.5t63 -222.5v-11q0 -143 -68.5 -226t-226.5 -105v-127 q0 -52 -51 -52h-52q-51 0 -51 52v116q-105 3 -219 29q-45 12 -45 55v54q0 28 15.5 39.5t41.5 5.5q147 -31 220 -31q143 0 202.5 42.5t59.5 131.5v41q0 68 -34.5 101.5t-144.5 66.5l-127 39q-165 50 -222.5 121.5t-57.5 232.5v10q0 153 73.5 235.5t237.5 100.5v123 q0 51 51 51z" />
<glyph unicode="%" horiz-adv-x="1761" d="M416 1280q159 0 240 -84.5t81 -243.5v-61q0 -159 -81 -243.5t-240 -84.5q-160 0 -242 85t-82 243v61q0 158 82 243t242 85zM1192 1255h68q31 0 40.5 -16.5t-4.5 -44.5l-632 -1157q-19 -37 -62 -37h-67q-31 0 -41 16.5t4 44.5l632 1158q19 36 62 36zM416 1126 q-75 0 -112.5 -41.5t-37.5 -132.5v-61q0 -91 37 -132.5t113 -41.5q75 0 111 41.5t36 132.5v61q0 92 -36 133t-111 41zM1378 692q160 0 241 -84t81 -243v-62q0 -159 -81.5 -243.5t-240.5 -84.5q-160 0 -241.5 85t-81.5 243v62q0 158 81.5 242.5t241.5 84.5zM1378 539 q-75 0 -112 -41.5t-37 -132.5v-62q0 -91 36.5 -132.5t112.5 -41.5q75 0 111.5 41.5t36.5 132.5v62q0 92 -36.5 133t-111.5 41z" />
<glyph unicode="&#x26;" horiz-adv-x="1105" d="M512 1366q77 0 197 -20q48 -9 45 -56v-41q-2 -26 -16.5 -38.5t-39.5 -8.5q-108 19 -186 19q-209 0 -209 -197v-45q0 -106 66 -166.5t190 -60.5h207v98q0 51 51 51h66q51 0 51 -51v-98h100q51 0 51 -52v-38q0 -52 -51 -52h-100v-522q0 -32 -12.5 -49.5t-44.5 -24.5 q-167 -39 -318 -39q-132 0 -226 25.5t-148 74t-78.5 111.5t-24.5 146v45q0 115 63 199.5t177 119.5q-189 83 -189 297v45q0 143 100 235.5t279 92.5zM766 610h-219q-145 0 -218 -59.5t-73 -165.5v-55q0 -99 75 -153t228 -54q84 0 207 27v460z" />
<glyph unicode="'" horiz-adv-x="358" d="M143 1399h72q51 0 51 -51v-418q0 -51 -51 -51h-72q-51 0 -51 51v418q0 51 51 51z" />
<glyph unicode="(" horiz-adv-x="473" d="M440 1534q54 0 54 -51v-43q0 -48 -52 -54q-80 -10 -102.5 -44t-22.5 -136v-1071q0 -102 22 -136.5t103 -43.5q52 -6 52 -53v-43q0 -52 -54 -52q-94 4 -150.5 22.5t-90 64.5t-45 112.5t-11.5 177.5v973q0 111 11.5 177.5t45 112.5t90 64.5t150.5 22.5z" />
<glyph unicode=")" horiz-adv-x="473" d="M-20 1440v43q0 51 53 51q94 -4 150.5 -22.5t90 -64.5t45 -112.5t11.5 -177.5v-973q0 -111 -11.5 -177.5t-45 -112.5t-90 -64.5t-150.5 -22.5q-53 0 -53 52v43q0 47 51 53q81 9 103 43.5t22 136.5v1071q0 102 -22.5 136t-102.5 44q-51 6 -51 54z" />
<glyph unicode="*" horiz-adv-x="839" d="M401 1423h35q52 0 49 -53l-16 -176l162 70q49 19 67 -29l13 -35q15 -51 -37 -63l-174 -39l116 -131q36 -43 -8 -72l-30 -23q-46 -30 -70 17l-90 149l-90 -151q-25 -48 -70 -15l-29 21q-45 31 -8 74l117 133l-172 37q-53 12 -35 63l12 33q15 51 66 31l160 -68l-17 174 q-3 53 49 53z" />
<glyph unicode="+" horiz-adv-x="798" d="M373 999h53q51 0 51 -51v-260h236q51 0 51 -51v-43q0 -51 -51 -51h-236v-260q0 -52 -51 -52h-53q-51 0 -51 52v260h-236q-51 0 -51 51v43q0 51 51 51h236v260q0 51 51 51z" />
<glyph unicode="," horiz-adv-x="450" d="M225 225q55 0 84 -24t29 -68v-65q0 -59 -14 -105l-78 -258q-8 -35 -45 -35h-41q-46 0 -37 45l63 269q-71 15 -71 88v61q0 44 28 68t82 24z" />
<glyph unicode="-" horiz-adv-x="716" d="M184 672h348q52 0 52 -51v-31q0 -51 -52 -51h-348q-51 0 -51 51v31q0 51 51 51z" />
<glyph unicode="." horiz-adv-x="456" d="M227 225q117 0 117 -96v-59q0 -46 -30 -70.5t-87 -24.5q-55 0 -84.5 24.5t-29.5 70.5v59q0 96 114 96z" />
<glyph unicode="/" horiz-adv-x="522" d="M430 1399h70q28 0 39.5 -16t3.5 -42l-391 -1298q-12 -43 -58 -43h-69q-28 0 -39.5 15.5t-3.5 41.5l391 1299q12 43 57 43z" />
<glyph unicode="0" horiz-adv-x="1024" d="M512 1255q184 0 281.5 -105t97.5 -314v-441q0 -210 -97.5 -315t-281.5 -105t-281.5 105t-97.5 315v441q0 209 97.5 314t281.5 105zM512 1108q-205 0 -205 -256v-473q0 -256 205 -256t205 256v473q0 256 -205 256z" />
<glyph unicode="1" horiz-adv-x="638" d="M365 1231h69q51 0 51 -51v-1129q0 -51 -51 -51h-72q-51 0 -51 51v1012h-4l-221 -94q-51 -22 -63 32l-13 48q-12 46 35 65l256 105q30 12 64 12z" />
<glyph unicode="2" horiz-adv-x="798" d="M324 1255q372 0 372 -319v-45q0 -96 -33 -177.5t-137 -205.5l-297 -358h437q51 0 51 -52v-47q0 -51 -51 -51h-594q-52 0 -52 51v47q0 35 23 64l387 489q57 72 74.5 118t17.5 120v37q0 97 -47.5 139.5t-150.5 42.5q-100 0 -222 -35q-26 -8 -41.5 3.5t-15.5 39.5v47 q0 46 53 60q132 32 226 32z" />
<glyph unicode="3" horiz-adv-x="802" d="M330 1255q171 0 262.5 -83.5t91.5 -235.5v-21q0 -196 -158 -272q85 -35 135 -113t50 -176v-20q0 -162 -98 -260.5t-281 -98.5q-101 0 -223 25q-48 9 -48 53v43q0 26 15 38.5t41 8.5q121 -22 215 -22q97 0 151 54t54 149v32q0 209 -215 209h-138q-51 0 -51 51v37 q0 52 51 52h138q97 0 142.5 48.5t45.5 153.5v39q0 166 -184 166q-78 0 -209 -25q-26 -4 -41 9t-15 39v43q0 46 56 55q136 22 213 22z" />
<glyph unicode="4" horiz-adv-x="862" d="M559 1231h107q51 0 51 -51v-772h74q51 0 51 -52v-41q0 -51 -51 -51h-74v-213q0 -51 -51 -51h-68q-51 0 -51 51v213h-506q-51 0 -51 51v35q0 38 18 64l490 782q20 35 61 35zM549 1032l-373 -624h373v624z" />
<glyph unicode="5" horiz-adv-x="903" d="M154 1237h528q51 0 51 -51v-47q0 -52 -51 -52h-412v-399q117 94 279 94q141 0 211.5 -82.5t70.5 -265.5v-74q0 -385 -399 -385q-136 0 -272 35q-43 12 -43 56v47q0 28 14.5 40.5t40.5 6.5q169 -37 256 -37q113 0 171 60.5t58 176.5v80q0 197 -151 197q-140 0 -244 -107 q-29 -26 -61 -26h-47q-52 0 -52 51v629q0 53 52 53z" />
<glyph unicode="6" horiz-adv-x="972" d="M727 1239q53 3 53 -49v-47q0 -50 -51 -53q-229 -10 -330.5 -88.5t-101.5 -227.5v-115q146 138 274 138q146 0 228 -91.5t82 -271.5v-80q0 -186 -97.5 -282.5t-283.5 -96.5q-183 0 -280 101.5t-97 288.5v376q0 232 152 359t452 139zM541 645q-100 0 -244 -133v-158 q0 -231 203 -231q207 0 207 221v96q0 101 -44 153t-122 52z" />
<glyph unicode="7" horiz-adv-x="774" d="M61 1229h637q52 0 52 -51v-35q0 -27 -13 -64l-430 -1040q-14 -39 -59 -39h-78q-29 0 -40.5 16.5t-0.5 42.5l434 1014v4h-502q-51 0 -51 51v50q0 51 51 51z" />
<glyph unicode="8" horiz-adv-x="942" d="M471 1255q163 0 256.5 -84t93.5 -239v-10q0 -188 -133 -265q182 -82 182 -292v-31q0 -169 -103 -264t-296 -95q-192 0 -295.5 94.5t-103.5 264.5v31q0 212 182 292q-133 77 -133 265v10q0 154 93.5 238.5t256.5 84.5zM471 1120q-93 0 -136.5 -44.5t-43.5 -133.5v-39 q0 -96 41.5 -138t138.5 -42q99 0 139.5 42t40.5 138v39q0 92 -44.5 135t-135.5 43zM471 588q-106 0 -165.5 -57.5t-59.5 -161.5v-52q0 -90 58.5 -143t166.5 -53t166.5 53t58.5 143v52q0 105 -60 162t-165 57z" />
<glyph unicode="9" horiz-adv-x="972" d="M473 1255q184 0 280.5 -100t96.5 -291v-438q0 -233 -104 -342t-314 -109q-124 0 -219 25q-45 12 -45 55v43q0 54 55 45q110 -22 209 -22q125 0 184.5 68.5t59.5 224.5v155q-143 -137 -279 -137q-145 0 -225 92t-80 271v79q0 184 96.5 282.5t284.5 98.5zM473 1108 q-207 0 -207 -223v-97q0 -100 43.5 -152t122.5 -52q100 0 244 133v157q0 234 -203 234z" />
<glyph unicode=":" horiz-adv-x="452" d="M227 225q117 0 117 -96v-59q0 -46 -30 -70.5t-87 -24.5q-55 0 -84.5 24.5t-29.5 70.5v59q0 96 114 96zM227 979q117 0 117 -96v-60q0 -94 -117 -94q-114 0 -114 94v60q0 96 114 96z" />
<glyph unicode=";" horiz-adv-x="452" d="M225 225q55 0 84 -24t29 -68v-65q0 -59 -14 -105l-78 -258q-8 -35 -45 -35h-41q-46 0 -37 45l63 269q-71 15 -71 88v61q0 44 28 68t82 24zM225 979q117 0 117 -96v-60q0 -94 -117 -94q-114 0 -114 94v60q0 96 114 96z" />
<glyph unicode="&#x3c;" horiz-adv-x="798" d="M70 700l639 285q26 12 42.5 1t16.5 -40v-61q0 -46 -39 -60l-526 -217l526 -219q39 -14 39 -59v-62q0 -29 -16.5 -40t-42.5 1l-639 285q-39 14 -39 59v68q0 45 39 59z" />
<glyph unicode="=" horiz-adv-x="860" d="M119 862h622q52 0 52 -51v-41q0 -51 -52 -51h-622q-51 0 -51 51v41q0 51 51 51zM119 512h622q52 0 52 -51v-41q0 -51 -52 -51h-622q-51 0 -51 51v41q0 51 51 51z" />
<glyph unicode="&#x3e;" horiz-adv-x="798" d="M31 885v61q0 29 16.5 40t42.5 -1l639 -285q39 -16 39 -59v-68q0 -45 -39 -59l-639 -285q-26 -12 -42.5 -1t-16.5 40v62q0 45 39 59l526 219l-526 217q-39 14 -39 60z" />
<glyph unicode="?" horiz-adv-x="815" d="M334 1423q193 0 280.5 -71.5t87.5 -210.5v-51q0 -93 -41 -175.5t-137 -183.5l-67 -74q-34 -35 -45 -64.5t-11 -90.5v-41q0 -51 -51 -51h-63q-51 0 -51 51v14q0 101 14 144.5t67 105.5l119 139q56 66 74 112t18 118v45q0 76 -44.5 110.5t-159.5 34.5q-81 0 -218 -29 q-26 -6 -40.5 5.5t-14.5 39.5v39q0 46 55 58q124 26 228 26zM322 221q114 0 114 -94v-59q0 -45 -29.5 -69t-84.5 -24q-54 0 -83.5 24.5t-29.5 68.5v59q0 46 29.5 70t83.5 24z" />
<glyph unicode="@" horiz-adv-x="1904" d="M932 1423q431 0 640.5 -193.5t209.5 -578.5v-102q0 -230 -117.5 -374t-318.5 -144q-114 0 -180.5 50t-78.5 142q-73 -89 -156.5 -140.5t-158.5 -51.5q-130 0 -189.5 89.5t-37.5 252.5l37 282q22 166 106 255t217 89q67 0 136 -32.5t114 -77.5l4 37q6 47 55 47h60 q55 0 49 -55l-78 -601q-3 -67 18 -100t85 -33q109 0 184.5 103.5t75.5 261.5v102q0 304 -170 460.5t-506 156.5q-301 0 -468 -176.5t-167 -501.5v-205q0 -299 160 -453.5t475 -154.5h225q51 0 51 -51v-54q0 -51 -51 -51h-225q-809 0 -809 764v205q0 186 48.5 337 t145.5 262.5t253.5 172.5t361.5 61zM932 844q-72 0 -118.5 -52t-61.5 -161l-31 -236q-28 -209 104 -209q61 0 128 48.5t126 138.5l45 370q-37 44 -91 72.5t-101 28.5z" />
<glyph unicode="A" horiz-adv-x="1089" d="M481 1341h125q46 0 58 -43l380 -1241q9 -27 -1 -42t-39 -15h-84q-46 0 -58 43l-76 268h-493l-76 -268q-12 -43 -57 -43h-74q-29 0 -39.5 15t-1.5 42l379 1241q12 43 57 43zM541 1182l-205 -715h407z" />
<glyph unicode="B" horiz-adv-x="1081" d="M514 1366q215 0 327.5 -88.5t112.5 -239.5v-45q0 -215 -188 -297q115 -25 179.5 -105.5t64.5 -199.5v-45q0 -169 -120.5 -270t-361.5 -101q-106 0 -323 11q-51 3 -51 51v1272q0 26 9.5 38t33.5 13q120 6 317 6zM487 1217q-59 0 -159 -7v-458h200q123 0 187.5 59t64.5 166 v35q0 101 -69.5 153t-223.5 52zM541 610h-213v-471q133 -12 200 -12q157 0 232.5 61t75.5 168v43q0 211 -295 211z" />
<glyph unicode="C" horiz-adv-x="983" d="M582 1366q107 0 241 -31q45 -12 45 -55v-53q0 -26 -15.5 -38.5t-41.5 -6.5q-135 30 -229 30q-142 0 -203.5 -57t-61.5 -190v-586q0 -132 61.5 -189t203.5 -57q85 0 231 31q52 9 55 -45l2 -58q3 -45 -47 -55q-151 -31 -241 -31q-238 0 -338.5 101t-100.5 313v563 q0 214 101 314t338 100z" />
<glyph unicode="D" horiz-adv-x="1169" d="M528 1366q244 0 376 -138.5t132 -398.5v-335q0 -251 -131.5 -385t-386.5 -134q-124 0 -315 11q-49 3 -49 51v1270q0 25 8 37.5t28 13.5q168 8 338 8zM518 1219q-83 0 -190 -7v-1075q120 -12 190 -12q158 0 251 91.5t93 262.5v363q0 186 -90.5 281.5t-253.5 95.5z" />
<glyph unicode="E" horiz-adv-x="993" d="M205 1341h604q51 0 51 -51v-55q0 -51 -51 -51h-481v-424h440q51 0 51 -51v-54q0 -51 -51 -51h-440v-446h481q51 0 51 -52v-55q0 -51 -51 -51h-604q-51 0 -51 51v1239q0 51 51 51z" />
<glyph unicode="F" horiz-adv-x="942" d="M205 1341h604q51 0 51 -51v-55q0 -51 -51 -51h-481v-424h350q51 0 51 -51v-54q0 -51 -51 -51h-350v-553q0 -51 -52 -51h-71q-51 0 -51 51v1239q0 51 51 51z" />
<glyph unicode="G" horiz-adv-x="1136" d="M584 1366q112 0 311 -39q46 -9 43 -55l-2 -53q-3 -57 -55 -45q-178 40 -297 40q-146 0 -206.5 -56t-60.5 -187v-594q0 -132 61 -190t202 -58q87 0 239 29v452h-205q-51 0 -51 52v61q0 51 51 51h328q51 0 51 -51v-614q0 -32 -11.5 -48.5t-43.5 -25.5q-209 -60 -358 -60 q-237 0 -337 101t-100 313v563q0 218 103.5 316t337.5 98z" />
<glyph unicode="H" horiz-adv-x="1187" d="M911 1341h72q51 0 51 -51v-1239q0 -51 -51 -51h-72q-51 0 -51 51v563h-532v-563q0 -51 -52 -51h-71q-51 0 -51 51v1239q0 51 51 51h71q52 0 52 -51v-520h532v520q0 51 51 51z" />
<glyph unicode="I" horiz-adv-x="481" d="M205 1341h71q52 0 52 -51v-1239q0 -51 -52 -51h-71q-51 0 -51 51v1239q0 51 51 51z" />
<glyph unicode="J" horiz-adv-x="593" d="M317 1341h72q51 0 51 -51v-1005q0 -158 -74 -234t-231 -76q-47 0 -100 11q-45 9 -45 55v43q0 58 53 49q54 -8 100 -8q123 0 123 145v1020q0 51 51 51z" />
<glyph unicode="K" horiz-adv-x="1075" d="M866 1341h76q32 0 41.5 -18.5t-10.5 -44.5l-465 -586l516 -629q20 -26 11.5 -44.5t-42.5 -18.5h-102q-40 0 -64 31l-499 626v-606q0 -51 -52 -51h-71q-51 0 -51 51v1239q0 51 51 51h71q52 0 52 -51v-596l475 617q23 30 63 30z" />
<glyph unicode="L" horiz-adv-x="927" d="M205 1341h71q52 0 52 -51v-1136h487q51 0 51 -52v-51q0 -51 -51 -51h-610q-51 0 -51 51v1239q0 51 51 51z" />
<glyph unicode="M" horiz-adv-x="1431" d="M1237 0h-68q-51 0 -51 51l-10 1051l-272 -920q-12 -43 -58 -43h-125q-45 0 -57 43l-272 920l-11 -1051q0 -51 -51 -51h-67q-52 0 -52 51l13 1239q0 51 51 51h162q45 0 57 -43l291 -1003l289 1003q12 43 57 43h162q51 0 51 -51l12 -1239q0 -51 -51 -51z" />
<glyph unicode="N" horiz-adv-x="1191" d="M987 0h-176q-42 0 -59 41l-426 1092v-1082q0 -51 -52 -51h-69q-51 0 -51 51v1239q0 51 51 51h184q43 0 60 -41l417 -1091v1081q0 51 52 51h69q51 0 51 -51v-1239q0 -51 -51 -51z" />
<glyph unicode="O" d="M590 1366q446 0 446 -440v-510q0 -211 -108 -326t-338 -115t-338.5 115t-108.5 326v510q0 211 108.5 325.5t338.5 114.5zM590 1212q-135 0 -204 -68t-69 -198v-549q0 -131 69.5 -199.5t203.5 -68.5t203 68.5t69 199.5v547q0 130 -68.5 199t-203.5 69z" />
<glyph unicode="P" horiz-adv-x="1046" d="M508 1366q241 3 359 -95t118 -280v-49q0 -192 -115 -296.5t-346 -104.5q-92 0 -196 16v-506q0 -51 -52 -51h-71q-51 0 -51 51v1254q0 48 41 51q172 8 313 10zM504 1219q-97 0 -176 -7v-505q130 -17 188 -17q295 0 295 260v35q0 117 -74 175.5t-233 58.5z" />
<glyph unicode="Q" d="M590 1366q446 0 446 -440v-510q0 -263 -194 -367l202 -53q22 -4 29.5 -15.5t7.5 -37.5v-74q0 -41 -28 -41q-16 0 -179 61l-233 88q-14 -2 -49 -2q-231 0 -340 115t-109 326v510q0 211 108.5 325.5t338.5 114.5zM590 1212q-135 0 -204 -68t-69 -198v-549 q0 -131 69.5 -199.5t205.5 -68.5q270 0 270 272v543q0 130 -68.5 199t-203.5 69z" />
<glyph unicode="R" horiz-adv-x="1105" d="M510 1366q242 0 356.5 -94t114.5 -264v-52q0 -118 -65 -209.5t-189 -128.5l313 -557q15 -26 5.5 -43.5t-39.5 -17.5h-84q-42 0 -62 35l-305 547q-78 -7 -227 4v-535q0 -51 -52 -51h-71q-51 0 -51 51v1254q0 50 49 53q200 8 307 8zM506 1219q-78 0 -178 -7v-481 q110 -10 184 -10q295 0 295 240v40q0 110 -71.5 164t-229.5 54z" />
<glyph unicode="S" horiz-adv-x="944" d="M489 1366q106 0 248 -29q48 -9 45 -55v-51q-3 -54 -57 -45q-149 26 -236 26q-120 0 -171.5 -46.5t-51.5 -143.5v-53q0 -74 32 -109t134 -67l191 -64q137 -46 193 -124t56 -228v-39q0 -180 -102 -271.5t-328 -91.5q-124 0 -280 39q-45 11 -45 58v55q0 28 15.5 39.5 t41.5 5.5q144 -39 264 -39q139 0 199.5 47t60.5 144v67q0 71 -31 109.5t-112 64.5l-211 70q-142 46 -197 121.5t-55 226.5v23q0 178 95 269t302 91z" />
<glyph unicode="T" horiz-adv-x="1075" d="M113 1341h850q51 0 51 -51v-55q0 -51 -51 -51h-338v-1133q0 -51 -52 -51h-71q-51 0 -51 51v1133h-338q-52 0 -52 51v55q0 51 52 51z" />
<glyph unicode="U" d="M903 1341h72q51 0 51 -51v-866q0 -218 -110 -333.5t-326 -115.5q-213 0 -324.5 112.5t-111.5 332.5v870q0 51 51 51h71q52 0 52 -51v-893q0 -132 68 -200t194 -68t194 68t68 200v893q0 51 51 51z" />
<glyph unicode="V" horiz-adv-x="1077" d="M911 1341h80q28 0 39.5 -15.5t3.5 -41.5l-375 -1241q-12 -43 -57 -43h-139q-45 0 -57 43l-363 1241q-8 26 3.5 41.5t39.5 15.5h80q45 0 57 -43l309 -1130l322 1130q12 43 57 43z" />
<glyph unicode="W" horiz-adv-x="1736" d="M1548 1341h80q27 0 39 -15t6 -42l-287 -1239q-9 -45 -55 -45h-143q-46 0 -55 45l-265 1098l-262 -1098q-9 -45 -55 -45h-143q-47 0 -56 45l-289 1239q-6 27 6.5 42t39.5 15h79q49 0 58 -45l239 -1106l254 1106q9 45 56 45h147q46 0 55 -45l256 -1106l238 1106q9 45 57 45 z" />
<glyph unicode="X" horiz-adv-x="1062" d="M862 1341h82q31 0 40.5 -17.5t-5.5 -43.5l-330 -592l352 -627q15 -26 5.5 -43.5t-39.5 -17.5h-101q-42 0 -61 37l-279 512l-278 -512q-19 -37 -62 -37h-90q-29 0 -39.5 17.5t4.5 43.5l359 631l-334 588q-15 26 -4.5 43.5t39.5 17.5h98q43 0 62 -36l260 -476l260 476 q19 36 61 36z" />
<glyph unicode="Y" horiz-adv-x="1005" d="M827 1341h86q29 0 40 -16.5t-1 -42.5l-362 -821v-410q0 -51 -51 -51h-72q-51 0 -51 51v410l-363 821q-12 26 -1 42.5t40 16.5h90q43 0 60 -41l262 -655l264 658q17 38 59 38z" />
<glyph unicode="Z" horiz-adv-x="983" d="M145 1341h695q51 0 51 -51v-51q0 -35 -17 -63l-589 -1018h555q51 0 51 -52v-55q0 -51 -51 -51h-707q-51 0 -51 51v51q0 37 16 64l590 1018h-543q-51 0 -51 51v55q0 51 51 51z" />
<glyph unicode="[" horiz-adv-x="532" d="M195 1530h317q51 0 51 -51v-41q0 -52 -51 -52h-195v-1431h195q51 0 51 -51v-41q0 -51 -51 -51h-317q-52 0 -52 51v1616q0 51 52 51z" />
<glyph unicode="\" horiz-adv-x="522" d="M25 1399h69q46 0 58 -43l391 -1299q8 -26 -3.5 -41.5t-39.5 -15.5h-70q-45 0 -57 43l-391 1298q-8 26 3.5 42t39.5 16z" />
<glyph unicode="]" horiz-adv-x="532" d="M20 1530h318q51 0 51 -51v-1616q0 -51 -51 -51h-318q-51 0 -51 51v41q0 51 51 51h195v1431h-195q-51 0 -51 52v41q0 51 51 51z" />
<glyph unicode="^" horiz-adv-x="1013" d="M471 1399h72q41 0 59 -37l248 -475q13 -28 2.5 -45t-39.5 -17h-61q-42 0 -60 37l-186 375l-184 -375q-18 -37 -60 -37h-61q-29 0 -39.5 17t2.5 45l248 475q18 37 59 37z" />
<glyph unicode="_" horiz-adv-x="1249" d="M184 -246h881q51 0 51 -51v-31q0 -51 -51 -51h-881q-51 0 -51 51v31q0 51 51 51z" />
<glyph unicode="`" horiz-adv-x="464" d="M121 1403h94q32 0 49 -29l113 -207q12 -22 4 -35.5t-33 -13.5h-61q-31 0 -49 27l-142 209q-15 20 -7.5 34.5t32.5 14.5z" />
<glyph unicode="a" horiz-adv-x="919" d="M453 1024q172 0 252.5 -79.5t80.5 -250.5v-643q0 -51 -51 -51h-63q-51 0 -51 51v109q-120 -185 -269 -185q-118 0 -189 82.5t-71 223.5v57q0 123 84 204t225 81q74 0 211 -27v113q0 89 -38.5 127t-120.5 38q-63 0 -226 -28q-26 -4 -40.5 8.5t-14.5 38.5v51q0 49 55 55 q163 25 226 25zM444 487q-87 0 -131.5 -44.5t-44.5 -127.5v-22q0 -76 34.5 -119t88.5 -43q55 0 113.5 48t107.5 136v158q-77 14 -168 14z" />
<glyph unicode="b" horiz-adv-x="964" d="M184 1399h72q51 0 51 -51v-482q114 158 268 158q127 0 197 -89t70 -259v-324q0 -187 -88 -282t-273 -95q-181 0 -264.5 92t-83.5 281v1000q0 51 51 51zM535 868q-60 0 -122 -45t-106 -123v-372q0 -100 46.5 -153.5t127.5 -53.5q187 0 187 211v319q0 217 -133 217z" />
<glyph unicode="c" horiz-adv-x="798" d="M489 1024q76 0 166 -20q24 -6 34.5 -19.5t10.5 -38.5v-53q0 -53 -67 -39q-75 16 -144 16q-93 0 -142.5 -52.5t-49.5 -151.5v-330q0 -103 51.5 -155t140.5 -52q69 0 154 18q54 12 57 -45l2 -51q2 -28 -9.5 -40.5t-43.5 -18.5q-89 -17 -164 -17q-362 0 -362 373v303 q0 373 366 373z" />
<glyph unicode="d" horiz-adv-x="974" d="M709 1399h71q51 0 51 -51v-1297q0 -51 -51 -51h-63q-51 0 -51 51v111q-124 -187 -281 -187q-127 0 -194.5 87t-67.5 255v365q0 162 74.5 252t214.5 90q113 0 245 -102v426q0 51 52 51zM451 868q-73 0 -113.5 -52t-40.5 -159v-317q0 -209 129 -209q61 0 121.5 48 t109.5 136v451q-43 44 -101 73t-105 29z" />
<glyph unicode="e" horiz-adv-x="915" d="M471 1024q173 0 262.5 -93.5t89.5 -273.5v-120q0 -49 -18 -70t-66 -21h-442v-120q0 -104 50 -150.5t159 -46.5q93 0 211 25q54 12 57 -43l2 -54q3 -42 -47 -55q-117 -27 -233 -27q-198 0 -285.5 88t-87.5 273v321q0 179 86.5 273t261.5 94zM471 879q-80 0 -127 -51 t-47 -144v-98h352v92q0 99 -48 150t-130 51z" />
<glyph unicode="f" horiz-adv-x="630" d="M500 1423q49 0 104 -12q22 -4 29.5 -16t7.5 -37v-41q0 -27 -10.5 -38t-36.5 -7q-50 8 -86 8q-58 0 -93.5 -41.5t-35.5 -124.5v-115h153q52 0 52 -51v-41q0 -51 -52 -51h-153v-805q0 -51 -51 -51h-72q-51 0 -51 51v805h-92q-52 0 -52 51v41q0 51 52 51h92v105 q1 159 78 239t217 80z" />
<glyph unicode="g" horiz-adv-x="974" d="M471 1024q88 0 164 -29l276 6q24 0 33.5 -11t9.5 -38v-51q0 -54 -51 -51l-119 6q37 -72 37 -158v-45q0 -149 -92 -240t-258 -91q-107 0 -174 20q-45 -37 -45 -84v-12q0 -33 21 -48.5t79 -19.5l305 -22q94 -8 152.5 -70.5t58.5 -157.5v-75q0 -52 -10.5 -90t-37.5 -70.5 t-72.5 -53t-117.5 -31.5t-171 -11q-147 0 -299 41q-25 6 -34.5 19.5t-8.5 39.5l2 57q3 56 59 41q159 -49 283 -49q101 0 152.5 14t68 40.5t16.5 78.5v17q0 46 -25.5 72.5t-72.5 29.5l-307 20q-98 6 -149.5 56t-51.5 133v41q0 94 92 164q-65 73 -65 247v46q0 146 89.5 232.5 t262.5 86.5zM471 879q-85 0 -131.5 -43.5t-46.5 -126.5v-68q0 -108 32 -141t134 -33q94 0 141 45t47 129v61q0 87 -24 150q-60 27 -152 27z" />
<glyph unicode="h" horiz-adv-x="985" d="M195 1399h71q51 0 51 -51v-482q114 158 263 158q131 0 201.5 -89t70.5 -253v-631q0 -51 -51 -51h-72q-51 0 -51 51v606q0 205 -133 205q-60 0 -122 -45t-106 -123v-643q0 -51 -51 -51h-71q-52 0 -52 51v1297q0 51 52 51z" />
<glyph unicode="i" horiz-adv-x="460" d="M195 999h71q51 0 51 -51v-897q0 -51 -51 -51h-71q-52 0 -52 51v897q0 51 52 51zM229 1403q56 0 85.5 -24t29.5 -70v-60q0 -44 -30 -68t-85 -24q-54 0 -83 24t-29 68v60q0 46 29 70t83 24z" />
<glyph unicode="j" horiz-adv-x="460" d="M195 999h71q51 0 51 -51v-1042q0 -155 -72.5 -232t-230.5 -77q-49 0 -88 8q-24 5 -34.5 17t-10.5 36v45q0 55 53 49q43 -6 82 -6q65 0 96 35t31 110v1057q0 51 52 51zM229 1403q56 0 85.5 -24t29.5 -70v-60q0 -44 -30 -68t-85 -24q-54 0 -83 24t-29 68v60q0 46 29 70 t83 24z" />
<glyph unicode="k" horiz-adv-x="874" d="M195 1399h71q51 0 51 -51v-787l304 408q21 30 61 30h78q34 0 42.5 -18.5t-11.5 -44.5l-291 -375l323 -500q17 -26 8 -43.5t-40 -17.5h-97q-41 0 -61 35l-316 502v-486q0 -51 -51 -51h-71q-52 0 -52 51v1297q0 51 52 51z" />
<glyph unicode="l" horiz-adv-x="460" d="M195 1399h71q51 0 51 -51v-1297q0 -51 -51 -51h-71q-52 0 -52 51v1297q0 51 52 51z" />
<glyph unicode="m" horiz-adv-x="1517" d="M1104 1024q130 0 200 -88.5t70 -253.5v-631q0 -51 -51 -51h-72q-51 0 -51 51v606q0 205 -131 205q-58 0 -118.5 -45.5t-104.5 -122.5v-643q0 -51 -51 -51h-72q-51 0 -51 51v606q0 205 -131 205q-58 0 -119 -45.5t-105 -122.5v-643q0 -51 -51 -51h-71q-52 0 -52 51v897 q0 51 52 51h61q51 0 51 -51v-98q113 174 268 174q193 0 250 -188q115 188 279 188z" />
<glyph unicode="n" horiz-adv-x="995" d="M580 1024q131 0 201.5 -89t70.5 -253v-631q0 -51 -51 -51h-72q-51 0 -51 51v606q0 205 -133 205q-60 0 -122 -45t-106 -123v-643q0 -51 -51 -51h-71q-52 0 -52 51v897q0 51 52 51h61q51 0 51 -51v-98q113 174 273 174z" />
<glyph unicode="o" horiz-adv-x="966" d="M483 1024q183 0 272 -97.5t89 -275.5v-303q0 -178 -89 -275.5t-272 -97.5t-271.5 97t-88.5 276v303q0 179 88.5 276t271.5 97zM483 879q-89 0 -137.5 -55t-48.5 -158v-332q0 -103 48.5 -158t137.5 -55t138 55t49 158v334q0 103 -49 157t-138 54z" />
<glyph unicode="p" horiz-adv-x="972" d="M578 1024q129 0 200.5 -87.5t71.5 -254.5v-365q0 -160 -83 -251t-224 -91q-105 0 -226 72v-375q0 -51 -51 -51h-71q-52 0 -52 51v1276q0 51 52 51h61q51 0 51 -51v-94q112 170 271 170zM543 868q-60 0 -121 -43.5t-105 -119.5v-502q43 -35 95 -54.5t96 -19.5 q168 0 168 213v315q0 211 -133 211z" />
<glyph unicode="q" horiz-adv-x="974" d="M412 1024q113 0 254 -109v33q0 51 51 51h63q51 0 51 -51v-1276q0 -51 -51 -51h-71q-52 0 -52 51v478q-121 -175 -272 -175q-127 0 -194.5 87t-67.5 255v365q0 162 74.5 252t214.5 90zM451 868q-73 0 -113.5 -52t-40.5 -159v-317q0 -209 129 -209q61 0 121.5 48t109.5 136 v451q-43 44 -101 73t-105 29z" />
<glyph unicode="r" horiz-adv-x="665" d="M573 1024q29 0 40.5 -13t11.5 -40v-103q0 -24 -9 -33.5t-30 -7.5q-23 2 -41 2q-144 0 -228 -143v-635q0 -51 -51 -51h-71q-52 0 -52 51v897q0 51 52 51h61q51 0 51 -51v-98q54 84 122.5 129t143.5 45z" />
<glyph unicode="s" horiz-adv-x="782" d="M422 1024q64 0 168 -23q45 -9 45 -55v-45q0 -28 -15.5 -39.5t-41.5 -5.5q-86 21 -150 21q-174 0 -174 -119v-19q0 -37 19.5 -59.5t70.5 -46.5l193 -90q174 -82 174 -240v-45q-2 -141 -83 -212t-255 -71q-107 0 -228 37q-46 12 -43 58l2 55q1 29 17.5 40.5t42.5 2.5 q109 -39 203 -39q96 0 134 28t38 91v20q0 48 -19.5 77.5t-64.5 49.5l-199 88q-174 79 -174 232v28q0 281 340 281z" />
<glyph unicode="t" horiz-adv-x="696" d="M250 1266h53q45 0 45 -52v-215h215q51 0 51 -51v-41q0 -51 -51 -51h-215v-586q0 -77 32 -111t99 -34q58 0 119 14q52 12 55 -45l2 -45q1 -24 -9 -36.5t-34 -18.5q-66 -19 -135 -19q-156 0 -229.5 73t-73.5 237v571h-92q-51 0 -51 51v41q0 51 51 51h92l27 220q6 47 49 47z " />
<glyph unicode="u" horiz-adv-x="983" d="M717 999h71q52 0 52 -51v-897q0 -51 -52 -51h-61q-51 0 -51 51v92q-114 -168 -266 -168q-125 0 -196 87t-71 255v631q0 51 52 51h71q51 0 51 -51v-600q0 -211 127 -211q56 0 116.5 44.5t105.5 121.5v645q0 51 51 51z" />
<glyph unicode="v" horiz-adv-x="884" d="M725 999h78q29 0 40.5 -15.5t2.5 -41.5l-279 -899q-12 -43 -57 -43h-137q-46 0 -58 43l-276 899q-9 26 2.5 41.5t40.5 15.5h78q45 0 57 -43l225 -829l226 829q12 43 57 43z" />
<glyph unicode="w" horiz-adv-x="1388" d="M1210 999h80q27 0 39 -15t6 -42l-209 -897q-9 -45 -55 -45h-129q-46 0 -55 45l-193 803l-194 -803q-9 -45 -56 -45h-129q-46 0 -55 45l-207 897q-6 27 6 42t39 15h80q46 0 55 -45l154 -800l184 800q9 45 56 45h135q46 0 55 -45l182 -800l156 800q9 45 55 45z" />
<glyph unicode="x" horiz-adv-x="862" d="M678 999h80q31 0 40.5 -17.5t-5.5 -43.5l-256 -418l278 -459q15 -26 5.5 -43.5t-40.5 -17.5h-86q-41 0 -61 35l-205 356l-199 -356q-20 -35 -61 -35h-86q-31 0 -40.5 17.5t5.5 43.5l275 453l-254 424q-15 26 -5.5 43.5t39.5 17.5h86q43 0 62 -34l182 -324l184 324 q19 34 62 34z" />
<glyph unicode="y" horiz-adv-x="892" d="M737 999h74q28 0 39.5 -15.5t3.5 -41.5l-426 -1280q-15 -41 -59 -41h-68q-28 0 -39 16t-2 44l111 319h-21q-45 0 -57 43l-256 899q-8 26 3.5 41.5t39.5 15.5h86q46 0 55 -45l205 -829l254 831q12 43 57 43z" />
<glyph unicode="z" horiz-adv-x="821" d="M133 999h555q51 0 51 -51v-43q0 -33 -18 -63l-445 -692h412q51 0 51 -52v-47q0 -51 -51 -51h-565q-51 0 -51 51v41q0 40 18 66l447 692h-404q-51 0 -51 51v47q0 51 51 51z" />
<glyph unicode="{" horiz-adv-x="524" d="M492 1530q53 0 53 -51v-41q0 -51 -51 -54q-78 -6 -101.5 -42t-23.5 -138v-299q0 -104 -28 -158.5t-91 -76.5q62 -20 90.5 -76t28.5 -160v-297q0 -104 25 -139.5t100 -40.5q51 -3 51 -53v-41q0 -51 -53 -51q-92 3 -146.5 19.5t-90 59t-48 110t-12.5 179.5v254 q0 93 -28 128.5t-99 35.5h-7q-51 0 -51 51v41q0 51 51 51h7q71 2 99 37t28 127v256q0 114 13 182.5t49.5 110t90 57.5t144.5 19z" />
<glyph unicode="|" horiz-adv-x="460" d="M195 1552h71q51 0 51 -51v-1663q0 -51 -51 -51h-71q-52 0 -52 51v1663q0 51 52 51z" />
<glyph unicode="}" horiz-adv-x="524" d="M-18 1438v41q0 51 53 51q91 -3 144.5 -19t90 -57.5t49.5 -110t13 -182.5v-256q0 -93 28.5 -128.5t98.5 -35.5h6q51 0 51 -51v-41q0 -51 -51 -51h-6q-70 0 -98.5 -35t-28.5 -129v-254q0 -112 -12.5 -179.5t-48 -110t-90 -59t-146.5 -19.5q-53 0 -53 51v41q0 50 51 53 q75 5 100 40.5t25 139.5v297q0 104 28 160t90 76q-63 22 -90.5 76.5t-27.5 158.5v299q0 102 -23.5 138t-101.5 42q-51 3 -51 54z" />
<glyph unicode="~" horiz-adv-x="798" d="M242 721q74 0 163.5 -28.5t155.5 -28.5q64 0 141 30q26 10 43 -1.5t17 -39.5v-41q0 -40 -37 -59q-76 -39 -168 -39q-73 0 -161.5 28.5t-157.5 28.5q-65 0 -142 -30q-26 -10 -42.5 1.5t-16.5 39.5v41q0 40 37 59q76 39 168 39z" />
<glyph unicode="&#xa1;" horiz-adv-x="432" d="M262 -379h-92q-51 0 -51 51l14 912q0 51 51 51h64q51 0 51 -51l14 -912q0 -51 -51 -51zM215 823q-54 0 -83.5 24.5t-29.5 70.5v59q0 44 29.5 68t83.5 24q55 0 85 -24t30 -68v-59q0 -46 -30 -70.5t-85 -24.5z" />
<glyph unicode="&#xa2;" horiz-adv-x="804" d="M430 1180h51q51 0 51 -52v-106q74 -4 119 -14q48 -9 45 -56v-51q-3 -54 -57 -45q-79 14 -152 14q-99 0 -149.5 -52.5t-50.5 -151.5v-330q0 -103 51.5 -155t148.5 -52q73 0 152 14q54 9 57 -45l2 -53q3 -45 -47 -55q-83 -11 -119 -13v-106q0 -51 -51 -51h-51q-51 0 -51 51 v115q-266 48 -266 362v303q0 315 266 363v114q0 52 51 52z" />
<glyph unicode="&#xa3;" horiz-adv-x="819" d="M516 1255q76 0 158 -20q43 -12 43 -57v-37q0 -26 -15 -37.5t-43 -5.5q-61 14 -116 14q-106 0 -150.5 -39.5t-44.5 -126.5v-178h150q51 0 51 -51v-41q0 -51 -51 -51h-150v-248q0 -159 -84 -225h494q51 0 51 -52v-49q0 -51 -51 -51h-615q-51 0 -51 51v37q0 31 23 64 q59 85 59 188v285h-92q-51 0 -51 51v41q0 51 51 51h92v168q0 163 83.5 241t258.5 78z" />
<glyph unicode="&#xa4;" horiz-adv-x="962" d="M692 954l78 80q37 37 74 0l41 -41q37 -37 0 -73l-88 -86q34 -69 34 -172v-41q0 -103 -43 -185l97 -94q37 -37 0 -74l-41 -41q-37 -37 -74 0l-90 92q-82 -49 -203 -49q-118 0 -198 45l-86 -88q-37 -37 -74 0l-41 41q-37 37 0 74l90 88q-47 83 -47 191v41q0 101 39 178 l-82 80q-36 36 0 73l41 41q37 37 74 0l73 -76q88 54 211 54q126 0 215 -58zM477 862q-96 0 -142 -54.5t-46 -145.5v-41q0 -93 45.5 -148t142.5 -55q96 0 141.5 55.5t45.5 147.5v41q0 91 -45 145.5t-142 54.5z" />
<glyph unicode="&#xa5;" horiz-adv-x="931" d="M791 1231h83q30 0 40.5 -17t-1.5 -43l-307 -641h88q51 0 51 -51v-41q0 -51 -51 -51h-141v-84h141q51 0 51 -51v-41q0 -51 -51 -51h-141v-109q0 -51 -51 -51h-72q-51 0 -51 51v109h-143q-52 0 -52 51v41q0 51 52 51h143v84h-143q-52 0 -52 51v41q0 51 52 51h90l-308 641 q-12 26 -1.5 43t40.5 17h84q46 0 60 -39l266 -619l264 619q14 39 60 39z" />
<glyph unicode="&#xa6;" horiz-adv-x="460" d="M195 1552h71q51 0 51 -51v-655q0 -51 -51 -51h-71q-52 0 -52 51v655q0 51 52 51zM195 545h71q51 0 51 -51v-656q0 -51 -51 -51h-71q-52 0 -52 51v656q0 51 52 51z" />
<glyph unicode="&#xa7;" horiz-adv-x="856" d="M451 1423q75 0 174 -18q45 -6 45 -55v-41q0 -27 -15.5 -39t-42.5 -6q-86 14 -153 14q-94 0 -131 -29t-37 -94v-68q0 -43 19 -68t65 -44l219 -84q221 -83 221 -246v-63q0 -94 -51 -162t-141 -86q60 -23 95.5 -80t35.5 -133v-78q0 -146 -84 -216.5t-275 -70.5 q-107 0 -209 27q-45 12 -45 57v49q0 27 15.5 38t42.5 5q101 -22 196 -22q103 0 141.5 26t38.5 91v67q0 54 -19 85t-64 46l-220 76q-119 41 -170 99t-51 149v49q0 106 57 179.5t144 84.5q-63 22 -101 80.5t-38 138.5v58q0 145 78.5 214.5t259.5 69.5zM512 752l-76 22 q-98 -1 -152.5 -49.5t-54.5 -122.5v-51q0 -35 27 -60t98 -49l95 -30q91 4 139.5 49.5t48.5 116.5v47q0 90 -125 127z" />
<glyph unicode="&#xa8;" horiz-adv-x="677" d="M166 1397q51 0 78.5 -22.5t27.5 -63.5v-60q0 -39 -28 -61.5t-78 -22.5q-47 0 -76 23t-29 61v60q0 41 28.5 63.5t76.5 22.5zM510 1397q51 0 78.5 -22.5t27.5 -63.5v-60q0 -39 -28 -61.5t-78 -22.5q-47 0 -75.5 23t-28.5 61v60q0 41 28 63.5t76 22.5z" />
<glyph unicode="&#xa9;" horiz-adv-x="1323" d="M662 1262q264 0 391 -118t127 -317v-424q0 -199 -127 -316.5t-391 -117.5t-391.5 117.5t-127.5 316.5v424q0 199 127.5 317t391.5 118zM662 1126q-177 0 -275 -75t-98 -201v-469q0 -126 98 -201.5t275 -75.5q176 0 274 75.5t98 201.5v471q0 125 -97.5 199.5t-274.5 74.5z M698 983q39 0 117 -12q48 -6 45 -56v-32q-3 -56 -55 -47q-55 8 -107 8q-116 0 -116 -162v-113q0 -84 30 -125t95 -41q28 0 98 9q52 6 55 -47v-33q3 -47 -47 -56q-61 -12 -115 -12q-282 0 -282 303v115q0 148 71.5 224.5t210.5 76.5z" />
<glyph unicode="&#xaa;" horiz-adv-x="960" d="M479 1366q175 0 256.5 -79.5t81.5 -250.5v-522q0 -51 -51 -51h-64q-51 0 -51 51v109q-120 -185 -268 -185q-119 0 -189.5 74.5t-70.5 200.5v57q0 110 83.5 185t225.5 75q79 0 211 -26v53q0 89 -39.5 127.5t-124.5 38.5q-87 0 -221 -23q-55 -6 -55 47v41q0 49 55 55 q149 23 221 23zM475 891q-85 0 -130.5 -38.5t-45.5 -104.5v-23q0 -61 34 -96t89 -35q131 0 221 156v127q-77 14 -168 14zM174 150h592q51 0 51 -52v-47q0 -51 -51 -51h-592q-51 0 -51 51v47q0 52 51 52z" />
<glyph unicode="&#xab;" horiz-adv-x="999" d="M371 897h92q25 0 33 -13.5t-4 -35.5l-164 -299l164 -299q12 -22 4 -35.5t-33 -13.5h-92q-32 0 -49 28l-172 291q-17 29 0 58l172 290q17 29 49 29zM719 897h92q25 0 33 -13.5t-4 -35.5l-164 -299l164 -299q12 -22 4 -35.5t-33 -13.5h-92q-32 0 -49 28l-172 291 q-17 29 0 58l172 290q17 29 49 29z" />
<glyph unicode="&#xac;" horiz-adv-x="798" d="M80 686h637q51 0 51 -51v-352q0 -52 -51 -52h-53q-52 0 -52 52v260h-532q-51 0 -51 51v41q0 51 51 51z" />
<glyph unicode="&#xad;" horiz-adv-x="716" d="M184 672h348q52 0 52 -51v-31q0 -51 -52 -51h-348q-51 0 -51 51v31q0 51 51 51z" />
<glyph unicode="&#xae;" horiz-adv-x="1081" d="M541 1421q377 0 377 -354v-70q0 -354 -377 -354t-377 354v70q0 354 377 354zM541 1331q-147 0 -213 -62.5t-66 -187.5v-98q0 -125 66 -187.5t213 -62.5t212.5 62.5t65.5 187.5v100q0 126 -65 187t-213 61zM543 1266q178 0 178 -140v-20q0 -38 -25 -71t-67 -50l82 -137 q9 -14 1.5 -26.5t-22.5 -12.5h-45q-9 0 -16 10l-84 154h-62v-144q0 -20 -20 -20h-47q-21 0 -21 20v398q0 30 31 33q71 6 117 6zM549 1188q-38 0 -66 -4v-131q27 -2 70 -2q78 0 78 57v16q0 34 -19 49t-63 15z" />
<glyph unicode="&#xaf;" horiz-adv-x="563" d="M102 1395h359q41 0 41 -41v-72q0 -41 -41 -41h-359q-41 0 -41 41v72q0 41 41 41z" />
<glyph unicode="&#xb0;" horiz-adv-x="798" d="M399 1423q162 0 244 -87.5t82 -254.5v-45q0 -167 -82 -254.5t-244 -87.5t-244.5 87.5t-82.5 254.5v45q0 167 82.5 254.5t244.5 87.5zM399 1282q-170 0 -170 -201v-45q0 -200 170 -200q168 0 168 200v45q0 201 -168 201z" />
<glyph unicode="&#xb1;" horiz-adv-x="798" d="M373 999h53q51 0 51 -51v-260h236q51 0 51 -51v-43q0 -51 -51 -51h-236v-260q0 -52 -51 -52h-53q-51 0 -51 52v260h-236q-51 0 -51 51v43q0 51 51 51h236v260q0 51 51 51zM84 143h627q51 0 51 -51v-41q0 -51 -51 -51h-627q-51 0 -51 51v41q0 51 51 51z" />
<glyph unicode="&#xb2;" horiz-adv-x="819" d="M362 1556q304 0 304 -221v-37q0 -71 -28 -131.5t-101 -140.5l-199 -213h299q41 0 41 -41v-53q0 -41 -41 -41h-453q-41 0 -41 41v49q0 30 19 55l284 326q39 45 51.5 73.5t12.5 73.5v33q0 50 -34 73t-114 23q-60 0 -155 -26q-45 -12 -45 35v51q0 35 43 47q82 24 157 24z " />
<glyph unicode="&#xb3;" horiz-adv-x="819" d="M358 1556q139 0 210 -58.5t71 -162.5v-14q0 -68 -29 -113t-94 -75q68 -27 105.5 -82t37.5 -125v-15q0 -112 -77.5 -180.5t-219.5 -68.5q-51 0 -165 16q-39 6 -39 45v45q0 43 43 37q108 -17 166 -17q131 0 131 115v27q0 67 -36.5 99t-119.5 32h-84q-41 0 -41 41v39 q0 41 41 41h84q76 0 107.5 30.5t31.5 96.5v26q0 51 -29 74t-94 23q-64 0 -157 -19q-20 -4 -31.5 6.5t-11.5 32.5v43q0 20 10.5 30t34.5 15q85 16 155 16z" />
<glyph unicode="&#xb4;" horiz-adv-x="464" d="M250 1403h94q25 0 32.5 -14.5t-7.5 -34.5l-142 -209q-18 -27 -49 -27h-61q-25 0 -33 13.5t4 35.5l113 207q17 29 49 29z" />
<glyph unicode="&#xb5;" horiz-adv-x="983" d="M717 999h71q52 0 52 -51v-897q0 -51 -52 -51h-61q-51 0 -51 51v92q-55 -81 -122 -124.5t-134 -43.5q-55 0 -109 33v-336q0 -51 -51 -51h-65q-52 0 -52 51v1276q0 51 52 51h71q51 0 51 -51v-600q0 -211 127 -211q57 0 117 44t105 122v645q0 51 51 51z" />
<glyph unicode="&#xb6;" horiz-adv-x="1118" d="M295 1399h225q53 0 53 -53v-1674q0 -51 -51 -51h-73q-52 0 -52 51v969h-102q-124 0 -189 62.5t-65 183.5v260q0 119 64.5 185.5t189.5 66.5zM840 1399h73q52 0 52 -51v-1676q0 -51 -52 -51h-73q-52 0 -52 51v1676q0 51 52 51zM397 1249h-82q-58 0 -82 -30.5t-24 -112.5 v-168q0 -80 24 -111.5t82 -31.5h82v454z" />
<glyph unicode="&#xb7;" horiz-adv-x="452" d="M225 637q117 0 117 -96v-60q0 -94 -117 -94q-114 0 -114 94v60q0 96 114 96z" />
<glyph unicode="&#xb8;" horiz-adv-x="417" d="M178 57h45q48 0 35 -47l-29 -94h17q51 0 80.5 -35.5t29.5 -95.5v-31q0 -78 -42.5 -117.5t-137.5 -39.5q-47 0 -78 8q-37 8 -37 45v24q0 23 10 33.5t27 7.5q36 -8 62 -8q59 0 59 51v21q0 30 -13.5 43.5t-49.5 13.5h-31q-51 0 -29 68l37 119q8 34 45 34z" />
<glyph unicode="&#xb9;" horiz-adv-x="819" d="M418 1540h65q41 0 41 -41v-686h123q41 0 41 -41v-53q0 -41 -41 -41h-434q-41 0 -41 41v53q0 41 41 41h147v571h-2l-161 -65q-43 -16 -52 27l-12 57q-9 38 27 51l207 78q24 8 51 8z" />
<glyph unicode="&#xba;" horiz-adv-x="1007" d="M504 1366q181 0 270.5 -96t89.5 -277v-180q0 -185 -91 -279t-269 -94q-176 0 -268.5 94t-92.5 279v180q0 180 90 276.5t271 96.5zM504 1221q-89 0 -138 -55t-49 -158v-209q0 -103 49 -158t138 -55t137.5 55t48.5 158v211q0 103 -48.5 157t-137.5 54zM205 150h598 q51 0 51 -52v-47q0 -51 -51 -51h-598q-51 0 -51 51v47q0 52 51 52z" />
<glyph unicode="&#xbb;" horiz-adv-x="999" d="M188 897h93q32 0 49 -29l172 -290q17 -29 0 -58l-172 -291q-17 -28 -49 -28h-93q-25 0 -32.5 13.5t4.5 35.5l164 299l-164 299q-12 22 -4.5 35.5t32.5 13.5zM537 897h92q32 0 49 -29l172 -290q17 -29 0 -58l-172 -291q-17 -28 -49 -28h-92q-25 0 -33 13.5t4 35.5l164 299 l-164 299q-12 22 -4 35.5t33 13.5z" />
<glyph unicode="&#xbc;" horiz-adv-x="2048" d="M1559 862h63q23 0 32 -12.5t1 -34.5l-174 -500h223v230q0 41 41 41h74q41 0 41 -41v-230h73q41 0 41 -41v-49q0 -41 -41 -41h-73v-143q0 -41 -41 -41h-76q-41 0 -41 41v143h-318q-32 0 -47 31l-14 29q-13 28 -2 55l190 530q11 33 48 33zM397 1233h66q41 0 41 -41v-686 h123q41 0 41 -41v-53q0 -41 -41 -41h-434q-41 0 -41 41v53q0 41 41 41h147v571h-2l-162 -65q-42 -15 -51 26l-12 58q-9 39 26 51l207 78q24 8 51 8zM1284 1231h62q29 0 39 -17t-3 -45l-575 -1132q-18 -37 -59 -37h-62q-30 0 -40 16.5t3 44.5l576 1133q18 37 59 37z" />
<glyph unicode="&#xbd;" horiz-adv-x="2048" d="M408 1233h65q41 0 41 -41v-686h123q41 0 41 -41v-53q0 -41 -41 -41h-434q-41 0 -41 41v53q0 41 41 41h147v571h-2l-162 -65q-42 -15 -51 26l-12 58q-9 38 27 51l206 78q24 8 52 8zM1300 1231h62q29 0 39.5 -17t-2.5 -45l-576 -1132q-18 -37 -59 -37h-62q-29 0 -39 16.5 t3 44.5l575 1133q18 37 59 37zM1622 879q303 0 303 -222v-36q0 -71 -28 -132t-101 -141l-199 -213h299q41 0 41 -41v-53q0 -41 -41 -41h-452q-41 0 -41 41v49q0 31 18 55l285 326q39 45 51 73.5t12 73.5v33q0 51 -33.5 74t-113.5 23q-58 0 -156 -27q-45 -12 -45 35v51 q0 35 43 47q86 25 158 25z" />
<glyph unicode="&#xbe;" horiz-adv-x="2048" d="M1522 862h63q23 0 32 -12.5t1 -34.5l-174 -500h223v230q0 41 41 41h74q41 0 41 -41v-230h73q41 0 41 -41v-49q0 -41 -41 -41h-73v-143q0 -41 -41 -41h-76q-41 0 -41 41v143h-317q-32 0 -48 31l-14 29q-13 28 -2 55l191 530q11 33 47 33zM305 1249q139 0 210 -58.5 t71 -162.5v-14q0 -68 -29 -113.5t-94 -75.5q68 -27 105.5 -82t37.5 -125v-14q0 -112 -77.5 -181t-219.5 -69q-45 0 -166 17q-39 6 -39 45v45q0 43 43 37q108 -17 166 -17q131 0 131 115v27q0 67 -36 99t-119 32h-84q-41 0 -41 41v39q0 40 41 40h84q76 0 107.5 30.5 t31.5 96.5v27q0 51 -29 73.5t-94 22.5q-70 0 -158 -18q-20 -4 -31.5 6.5t-11.5 32.5v43q0 36 46 45q85 16 155 16zM1223 1231h61q29 0 39.5 -17t-2.5 -45l-576 -1132q-18 -37 -59 -37h-61q-30 0 -40 16.5t3 44.5l575 1133q18 37 60 37z" />
<glyph unicode="&#xbf;" horiz-adv-x="808" d="M475 -403q-193 0 -281 72t-88 210v51q0 92 41 175t138 184l67 73q33 35 44.5 65t11.5 91v41q0 51 51 51h63q51 0 51 -51v-14q0 -101 -14 -144.5t-67 -105.5l-119 -139q-56 -66 -74 -112t-18 -118v-45q0 -76 44.5 -110.5t159.5 -34.5q85 0 217 28q26 6 41 -5.5t15 -39.5 v-38q0 -46 -56 -58q-123 -26 -227 -26zM487 799q-114 0 -114 94v59q0 44 29.5 68t84.5 24q54 0 83.5 -24t29.5 -68v-59q0 -46 -29.5 -70t-83.5 -24z" />
<glyph unicode="&#xc0;" horiz-adv-x="1089" d="M481 1341h125q46 0 58 -43l380 -1241q9 -27 -1 -42t-39 -15h-84q-46 0 -58 43l-76 268h-493l-76 -268q-12 -43 -57 -43h-74q-29 0 -39.5 15t-1.5 42l379 1241q12 43 57 43zM541 1182l-205 -715h407zM371 1698h96q32 0 49 -29l92 -166q11 -22 3.5 -35.5t-31.5 -13.5h-66 q-30 0 -49 25l-121 170q-14 20 -6.5 34.5t33.5 14.5z" />
<glyph unicode="&#xc1;" horiz-adv-x="1089" d="M481 1341h125q46 0 58 -43l380 -1241q9 -27 -1 -42t-39 -15h-84q-46 0 -58 43l-76 268h-493l-76 -268q-12 -43 -57 -43h-74q-29 0 -39.5 15t-1.5 42l379 1241q12 43 57 43zM541 1182l-205 -715h407zM621 1698h96q26 0 33 -14.5t-7 -34.5l-120 -170q-19 -25 -50 -25h-65 q-24 0 -32 13.5t3 35.5l92 166q17 29 50 29z" />
<glyph unicode="&#xc2;" horiz-adv-x="1089" d="M481 1341h125q46 0 58 -43l380 -1241q9 -27 -1 -42t-39 -15h-84q-46 0 -58 43l-76 268h-493l-76 -268q-12 -43 -57 -43h-74q-29 0 -39.5 15t-1.5 42l379 1241q12 43 57 43zM541 1182l-205 -715h407zM289 1610l229 98q26 12 53 0l230 -98q18 -7 24 -18t6 -31v-56 q0 -22 -12.5 -30.5t-34.5 -1.5l-239 83l-240 -83q-22 -7 -34.5 1.5t-12.5 30.5v56q0 37 31 49z" />
<glyph unicode="&#xc3;" horiz-adv-x="1089" d="M481 1341h125q46 0 58 -43l380 -1241q9 -27 -1 -42t-39 -15h-84q-46 0 -58 43l-76 268h-493l-76 -268q-12 -43 -57 -43h-74q-29 0 -39.5 15t-1.5 42l379 1241q12 43 57 43zM541 1182l-205 -715h407zM784 1636q22 9 34.5 1t12.5 -31v-60q0 -33 -24 -49q-69 -43 -139 -43 q-46 0 -127.5 25.5t-122.5 25.5q-47 0 -113 -28q-22 -9 -34.5 -1t-12.5 31v60q0 32 25 49q69 43 139 43q60 0 137.5 -25.5t112.5 -25.5q46 0 112 28z" />
<glyph unicode="&#xc4;" horiz-adv-x="1089" d="M481 1341h125q46 0 58 -43l380 -1241q9 -27 -1 -42t-39 -15h-84q-46 0 -58 43l-76 268h-493l-76 -268q-12 -43 -57 -43h-74q-29 0 -39.5 15t-1.5 42l379 1241q12 43 57 43zM541 1182l-205 -715h407zM373 1688q51 0 78.5 -23t27.5 -66v-59q0 -40 -27.5 -63t-78.5 -23 q-49 0 -78 23t-29 63v59q0 42 28.5 65.5t78.5 23.5zM715 1688q52 0 80 -23t28 -66v-59q0 -40 -28 -63t-80 -23q-48 0 -77.5 23.5t-29.5 62.5v59q0 42 29.5 65.5t77.5 23.5z" />
<glyph unicode="&#xc5;" horiz-adv-x="1089" d="M545 1638q109 0 172 -51.5t63 -152.5q0 -131 -102 -181l366 -1196q16 -57 -40 -57h-84q-46 0 -58 43l-76 268h-493l-76 -268q-12 -43 -57 -43h-74q-29 0 -39.5 15t-1.5 42l365 1198q-101 50 -101 179q0 101 62.5 152.5t173.5 51.5zM545 1526q-103 0 -103 -92 q0 -93 103 -93q102 0 102 93q0 92 -102 92zM541 1192l-205 -725h407z" />
<glyph unicode="&#xc6;" horiz-adv-x="1574" d="M664 1341h727q51 0 51 -51v-55q0 -51 -51 -51h-482v-424h441q51 0 51 -51v-54q0 -51 -51 -51h-441v-446h482q51 0 51 -52v-55q0 -51 -51 -51h-605q-51 0 -51 51v260h-397l-119 -272q-14 -39 -59 -39h-74q-29 0 -40 16.5t1 42.5l557 1244q14 38 60 38zM735 1223l-329 -756 h329v756z" />
<glyph unicode="&#xc7;" horiz-adv-x="983" d="M582 1366q90 0 241 -31q45 -9 45 -55v-53q0 -26 -15.5 -38.5t-41.5 -6.5q-135 30 -229 30q-142 0 -203.5 -57t-61.5 -190v-586q0 -132 61.5 -189t203.5 -57q85 0 231 31q52 9 55 -45l2 -58q3 -45 -47 -55q-154 -29 -225 -31l-18 -59h16q51 0 81 -35.5t30 -95.5v-31 q0 -78 -43 -117.5t-138 -39.5q-46 0 -77 8q-37 8 -37 45v24q0 23 10 33.5t27 7.5q36 -8 61 -8q59 0 59 51v21q0 30 -13.5 43.5t-49.5 13.5h-31q-51 0 -29 68l25 78q-177 23 -252.5 122t-75.5 285v563q0 214 101 314t338 100z" />
<glyph unicode="&#xc8;" horiz-adv-x="993" d="M205 1341h604q51 0 51 -51v-55q0 -51 -51 -51h-481v-424h440q51 0 51 -51v-54q0 -51 -51 -51h-440v-446h481q51 0 51 -52v-55q0 -51 -51 -51h-604q-51 0 -51 51v1239q0 51 51 51zM344 1698h96q32 0 49 -29l93 -166q11 -22 3 -35.5t-32 -13.5h-66q-30 0 -49 25l-121 170 q-14 20 -6.5 34.5t33.5 14.5z" />
<glyph unicode="&#xc9;" horiz-adv-x="993" d="M205 1341h604q51 0 51 -51v-55q0 -51 -51 -51h-481v-424h440q51 0 51 -51v-54q0 -51 -51 -51h-440v-446h481q51 0 51 -52v-55q0 -51 -51 -51h-604q-51 0 -51 51v1239q0 51 51 51zM594 1698h96q26 0 33.5 -14.5t-6.5 -34.5l-121 -170q-19 -25 -49 -25h-66 q-24 0 -31.5 13.5t3.5 35.5l92 166q17 29 49 29z" />
<glyph unicode="&#xca;" horiz-adv-x="993" d="M205 1341h604q51 0 51 -51v-55q0 -51 -51 -51h-481v-424h440q51 0 51 -51v-54q0 -51 -51 -51h-440v-446h481q51 0 51 -52v-55q0 -51 -51 -51h-604q-51 0 -51 51v1239q0 51 51 51zM262 1610l230 98q26 12 53 0l229 -98q31 -12 31 -49v-56q0 -22 -12.5 -30.5t-34.5 -1.5 l-240 83l-239 -83q-22 -7 -35 1.5t-13 30.5v56q0 37 31 49z" />
<glyph unicode="&#xcb;" horiz-adv-x="993" d="M205 1341h604q51 0 51 -51v-55q0 -51 -51 -51h-481v-424h440q51 0 51 -51v-54q0 -51 -51 -51h-440v-446h481q51 0 51 -52v-55q0 -51 -51 -51h-604q-51 0 -51 51v1239q0 51 51 51zM346 1688q51 0 79 -23t28 -66v-59q0 -40 -28 -63t-79 -23q-49 0 -77.5 23t-28.5 63v59 q0 42 28 65.5t78 23.5zM688 1688q52 0 80.5 -23t28.5 -66v-59q0 -40 -28.5 -63t-80.5 -23q-48 0 -77 23.5t-29 62.5v59q0 42 29 65.5t77 23.5z" />
<glyph unicode="&#xcc;" horiz-adv-x="481" d="M205 1341h71q52 0 52 -51v-1239q0 -51 -52 -51h-71q-51 0 -51 51v1239q0 51 51 51zM68 1698h96q32 0 49 -29l92 -166q11 -22 3 -35.5t-32 -13.5h-65q-30 0 -49 25l-121 170q-14 20 -6.5 34.5t33.5 14.5z" />
<glyph unicode="&#xcd;" horiz-adv-x="481" d="M205 1341h71q52 0 52 -51v-1239q0 -51 -52 -51h-71q-51 0 -51 51v1239q0 51 51 51zM317 1698h97q26 0 33 -14.5t-7 -34.5l-121 -170q-19 -25 -49 -25h-65q-24 0 -32 13.5t3 35.5l92 166q17 29 49 29z" />
<glyph unicode="&#xce;" horiz-adv-x="481" d="M205 1341h71q52 0 52 -51v-1239q0 -51 -52 -51h-71q-51 0 -51 51v1239q0 51 51 51zM-14 1610l229 98q26 12 53 0l230 -98q18 -7 24 -18t6 -31v-56q0 -22 -12.5 -30.5t-34.5 -1.5l-239 83l-240 -83q-22 -7 -34.5 1.5t-12.5 30.5v56q0 37 31 49z" />
<glyph unicode="&#xcf;" horiz-adv-x="481" d="M205 1341h71q52 0 52 -51v-1239q0 -51 -52 -51h-71q-51 0 -51 51v1239q0 51 51 51zM70 1688q51 0 78.5 -23t27.5 -66v-59q0 -40 -27.5 -63t-78.5 -23q-49 0 -78 23t-29 63v59q0 42 28.5 65.5t78.5 23.5zM412 1688q52 0 80 -23t28 -66v-59q0 -40 -28 -63t-80 -23 q-48 0 -77.5 23.5t-29.5 62.5v59q0 42 29.5 65.5t77.5 23.5z" />
<glyph unicode="&#xd0;" d="M539 1366q244 0 376 -138.5t132 -398.5v-335q0 -251 -132 -385t-387 -134q-124 0 -315 11q-49 0 -49 51v584h-96q-48 0 -48 51v41q0 51 48 51h96v545q0 48 31 51q270 6 344 6zM528 1219q-32 0 -190 -5v-450h229q47 0 47 -51v-41q0 -51 -47 -51h-229v-484q120 -12 190 -12 q158 0 251 91.5t93 262.5v363q0 186 -90.5 281.5t-253.5 95.5z" />
<glyph unicode="&#xd1;" horiz-adv-x="1191" d="M987 0h-176q-42 0 -59 41l-426 1092v-1082q0 -51 -52 -51h-69q-51 0 -51 51v1239q0 51 51 51h184q43 0 60 -41l417 -1091v1081q0 51 52 51h69q51 0 51 -51v-1239q0 -51 -51 -51zM846 1636q22 9 34.5 1t12.5 -31v-60q0 -32 -25 -49q-69 -43 -139 -43q-46 0 -127.5 25.5 t-122.5 25.5q-46 0 -112 -28q-22 -9 -35 -1t-13 31v60q0 32 25 49q69 43 139 43q60 0 137.5 -25.5t112.5 -25.5q47 0 113 28z" />
<glyph unicode="&#xd2;" d="M590 1366q446 0 446 -440v-510q0 -211 -108 -326t-338 -115t-338.5 115t-108.5 326v510q0 211 108.5 325.5t338.5 114.5zM590 1212q-135 0 -204 -68t-69 -198v-549q0 -131 69.5 -199.5t203.5 -68.5t203 68.5t69 199.5v547q0 130 -68.5 199t-203.5 69zM416 1698h96 q32 0 49 -29l92 -166q11 -22 3.5 -35.5t-31.5 -13.5h-66q-30 0 -49 25l-121 170q-14 20 -6.5 34.5t33.5 14.5z" />
<glyph unicode="&#xd3;" d="M590 1366q446 0 446 -440v-510q0 -211 -108 -326t-338 -115t-338.5 115t-108.5 326v510q0 211 108.5 325.5t338.5 114.5zM590 1212q-135 0 -204 -68t-69 -198v-549q0 -131 69.5 -199.5t203.5 -68.5t203 68.5t69 199.5v547q0 130 -68.5 199t-203.5 69zM666 1698h96 q26 0 33 -14.5t-7 -34.5l-120 -170q-19 -25 -50 -25h-65q-24 0 -32 13.5t3 35.5l92 166q17 29 50 29z" />
<glyph unicode="&#xd4;" d="M590 1366q446 0 446 -440v-510q0 -211 -108 -326t-338 -115t-338.5 115t-108.5 326v510q0 211 108.5 325.5t338.5 114.5zM590 1212q-135 0 -204 -68t-69 -198v-549q0 -131 69.5 -199.5t203.5 -68.5t203 68.5t69 199.5v547q0 130 -68.5 199t-203.5 69zM334 1610l229 98 q26 12 53 0l230 -98q31 -12 31 -49v-56q0 -22 -13 -30.5t-35 -1.5l-239 83l-240 -83q-22 -7 -34.5 1.5t-12.5 30.5v56q0 37 31 49z" />
<glyph unicode="&#xd5;" d="M590 1366q446 0 446 -440v-510q0 -211 -108 -326t-338 -115t-338.5 115t-108.5 326v510q0 211 108.5 325.5t338.5 114.5zM590 1212q-135 0 -204 -68t-69 -198v-549q0 -131 69.5 -199.5t203.5 -68.5t203 68.5t69 199.5v547q0 130 -68.5 199t-203.5 69zM829 1636q22 9 35 1 t13 -31v-60q0 -32 -25 -49q-69 -43 -139 -43q-46 0 -127.5 25.5t-122.5 25.5q-47 0 -113 -28q-22 -9 -34.5 -1t-12.5 31v60q0 32 25 49q69 43 139 43q60 0 137.5 -25.5t112.5 -25.5q46 0 112 28z" />
<glyph unicode="&#xd6;" d="M590 1366q446 0 446 -440v-510q0 -211 -108 -326t-338 -115t-338.5 115t-108.5 326v510q0 211 108.5 325.5t338.5 114.5zM590 1212q-135 0 -204 -68t-69 -198v-549q0 -131 69.5 -199.5t203.5 -68.5t203 68.5t69 199.5v547q0 130 -68.5 199t-203.5 69zM418 1688 q51 0 78.5 -23t27.5 -66v-59q0 -40 -27.5 -63t-78.5 -23q-49 0 -78 23t-29 63v59q0 42 28.5 65.5t78.5 23.5zM760 1688q52 0 80 -23t28 -66v-59q0 -40 -28 -63t-80 -23q-48 0 -77.5 23.5t-29.5 62.5v59q0 42 29.5 65.5t77.5 23.5z" />
<glyph unicode="&#xd7;" horiz-adv-x="798" d="M401 721l181 180q36 37 73 0l29 -29q36 -36 0 -73l-180 -181l184 -184q37 -37 0 -74l-37 -36q-37 -34 -73 0l-185 184l-178 -178q-37 -37 -74 0l-28 28q-37 37 0 74l178 178l-185 185q-34 36 0 73l37 37q37 37 74 0z" />
<glyph unicode="&#xd8;" d="M975 1444h63q31 0 40.5 -18t-5.5 -44l-102 -184q65 -104 65 -272v-510q0 -211 -108 -326t-338 -115q-157 0 -264 58l-60 -101q-19 -34 -61 -34h-62q-31 0 -41.5 17.5t4.5 43.5l105 180q-68 104 -68 277v510q0 211 108.5 325.5t338.5 114.5q163 0 266 -59l57 102 q20 35 62 35zM590 1212q-135 0 -204 -68t-69 -198v-549q0 -36 7 -80l460 834q-67 61 -194 61zM856 1018l-459 -832q66 -57 193 -57q134 0 203 68.5t69 199.5v547q0 40 -6 74z" />
<glyph unicode="&#xd9;" d="M903 1341h72q51 0 51 -51v-866q0 -218 -110 -333.5t-326 -115.5q-213 0 -324.5 112.5t-111.5 332.5v870q0 51 51 51h71q52 0 52 -51v-893q0 -132 68 -200t194 -68t194 68t68 200v893q0 51 51 51zM416 1698h96q32 0 49 -29l92 -166q11 -22 3.5 -35.5t-31.5 -13.5h-66 q-30 0 -49 25l-121 170q-14 20 -6.5 34.5t33.5 14.5z" />
<glyph unicode="&#xda;" d="M903 1341h72q51 0 51 -51v-866q0 -218 -110 -333.5t-326 -115.5q-213 0 -324.5 112.5t-111.5 332.5v870q0 51 51 51h71q52 0 52 -51v-893q0 -132 68 -200t194 -68t194 68t68 200v893q0 51 51 51zM666 1698h96q26 0 33 -14.5t-7 -34.5l-120 -170q-19 -25 -50 -25h-65 q-24 0 -32 13.5t3 35.5l92 166q17 29 50 29z" />
<glyph unicode="&#xdb;" d="M903 1341h72q51 0 51 -51v-866q0 -218 -110 -333.5t-326 -115.5q-213 0 -324.5 112.5t-111.5 332.5v870q0 51 51 51h71q52 0 52 -51v-893q0 -132 68 -200t194 -68t194 68t68 200v893q0 51 51 51zM334 1610l229 98q26 12 53 0l230 -98q31 -12 31 -49v-56q0 -22 -13 -30.5 t-35 -1.5l-239 83l-240 -83q-22 -7 -34.5 1.5t-12.5 30.5v56q0 37 31 49z" />
<glyph unicode="&#xdc;" d="M903 1341h72q51 0 51 -51v-866q0 -218 -110 -333.5t-326 -115.5q-213 0 -324.5 112.5t-111.5 332.5v870q0 51 51 51h71q52 0 52 -51v-893q0 -132 68 -200t194 -68t194 68t68 200v893q0 51 51 51zM418 1688q51 0 78.5 -23t27.5 -66v-59q0 -40 -27.5 -63t-78.5 -23 q-49 0 -78 23t-29 63v59q0 42 28.5 65.5t78.5 23.5zM760 1688q52 0 80 -23t28 -66v-59q0 -40 -28 -63t-80 -23q-48 0 -77.5 23.5t-29.5 62.5v59q0 42 29.5 65.5t77.5 23.5z" />
<glyph unicode="&#xdd;" horiz-adv-x="1005" d="M827 1341h86q29 0 40 -16.5t-1 -42.5l-362 -821v-410q0 -51 -51 -51h-72q-51 0 -51 51v410l-363 821q-12 26 -1 42.5t40 16.5h90q43 0 60 -41l262 -655l264 658q17 38 59 38zM580 1698h96q26 0 33 -14.5t-7 -34.5l-120 -170q-19 -25 -50 -25h-65q-24 0 -32 13.5t3 35.5 l92 166q17 29 50 29z" />
<glyph unicode="&#xde;" horiz-adv-x="1021" d="M205 1341h71q52 0 52 -51v-198q99 12 180 12q239 0 356 -97t117 -276v-49q0 -190 -114.5 -294.5t-342.5 -104.5q-92 0 -196 16v-248q0 -51 -52 -51h-71q-51 0 -51 51v1239q0 51 51 51zM504 958q-68 0 -176 -10v-499q130 -17 188 -17q291 0 291 258v35q0 116 -73 174.5 t-230 58.5z" />
<glyph unicode="&#xdf;" horiz-adv-x="989" d="M475 1423q145 0 230.5 -73t85.5 -191v-55q0 -48 -18 -89.5t-44.5 -71t-52.5 -56t-44 -55t-18 -56.5v-31q0 -31 9.5 -48.5t35.5 -34.5l97 -60q100 -62 139 -119t39 -135v-67q0 -167 -63.5 -236.5t-219.5 -69.5q-59 0 -157 23q-48 12 -45 57v49q2 28 16.5 40.5t40.5 5.5 q80 -21 145 -21q105 0 105 135v64q0 46 -17.5 74t-60.5 53l-98 55q-76 43 -105 91t-29 130v39q0 48 17.5 87t42.5 65t50 50.5t42.5 57.5t17.5 72v57q0 55 -39 86t-114 31q-79 0 -112.5 -36.5t-33.5 -125.5v-1063q0 -51 -51 -51h-71q-52 0 -52 51v1043q0 173 77 251t255 78z " />
<glyph unicode="&#xe0;" horiz-adv-x="919" d="M453 1024q172 0 252.5 -79.5t80.5 -250.5v-643q0 -51 -51 -51h-63q-51 0 -51 51v109q-120 -185 -269 -185q-118 0 -189 82.5t-71 223.5v57q0 123 84 204t225 81q74 0 211 -27v113q0 89 -38.5 127t-120.5 38q-63 0 -226 -28q-26 -4 -40.5 8.5t-14.5 38.5v51q0 49 55 55 q163 25 226 25zM444 487q-87 0 -131.5 -44.5t-44.5 -127.5v-22q0 -76 34.5 -119t88.5 -43q55 0 113.5 48t107.5 136v158q-77 14 -168 14zM256 1403h94q32 0 49 -29l113 -207q12 -22 4 -35.5t-33 -13.5h-61q-31 0 -49 27l-142 209q-15 20 -7.5 34.5t32.5 14.5z" />
<glyph unicode="&#xe1;" horiz-adv-x="919" d="M453 1024q172 0 252.5 -79.5t80.5 -250.5v-643q0 -51 -51 -51h-63q-51 0 -51 51v109q-120 -185 -269 -185q-118 0 -189 82.5t-71 223.5v57q0 123 84 204t225 81q74 0 211 -27v113q0 89 -38.5 127t-120.5 38q-63 0 -226 -28q-26 -4 -40.5 8.5t-14.5 38.5v51q0 49 55 55 q163 25 226 25zM444 487q-87 0 -131.5 -44.5t-44.5 -127.5v-22q0 -76 34.5 -119t88.5 -43q55 0 113.5 48t107.5 136v158q-77 14 -168 14zM563 1403h94q25 0 32.5 -14.5t-7.5 -34.5l-141 -209q-18 -27 -49 -27h-62q-25 0 -33 13.5t4 35.5l113 207q17 29 49 29z" />
<glyph unicode="&#xe2;" horiz-adv-x="919" d="M453 1024q172 0 252.5 -79.5t80.5 -250.5v-643q0 -51 -51 -51h-63q-51 0 -51 51v109q-120 -185 -269 -185q-118 0 -189 82.5t-71 223.5v57q0 123 84 204t225 81q74 0 211 -27v113q0 89 -38.5 127t-120.5 38q-63 0 -226 -28q-26 -4 -40.5 8.5t-14.5 38.5v51q0 49 55 55 q163 25 226 25zM444 487q-87 0 -131.5 -44.5t-44.5 -127.5v-22q0 -76 34.5 -119t88.5 -43q55 0 113.5 48t107.5 136v158q-77 14 -168 14zM223 1278l209 119q28 17 57 0l209 -119q29 -15 29 -49v-58q0 -23 -13.5 -31t-35.5 3l-217 108l-217 -108q-22 -11 -35.5 -3t-13.5 31 v58q0 19 5.5 29.5t22.5 19.5z" />
<glyph unicode="&#xe3;" horiz-adv-x="919" d="M453 1024q172 0 252.5 -79.5t80.5 -250.5v-643q0 -51 -51 -51h-63q-51 0 -51 51v109q-120 -185 -269 -185q-118 0 -189 82.5t-71 223.5v57q0 123 84 204t225 81q74 0 211 -27v113q0 89 -38.5 127t-120.5 38q-63 0 -226 -28q-26 -4 -40.5 8.5t-14.5 38.5v51q0 49 55 55 q163 25 226 25zM444 487q-87 0 -131.5 -44.5t-44.5 -127.5v-22q0 -76 34.5 -119t88.5 -43q55 0 113.5 48t107.5 136v158q-77 14 -168 14zM680 1380q22 9 34.5 1t12.5 -31v-60q0 -32 -25 -49q-69 -43 -139 -43q-42 0 -107 25.5t-102 25.5q-46 0 -112 -28q-22 -9 -34.5 -1 t-12.5 31v60q0 33 24 49q69 43 139 43q55 0 116.5 -25.5t92.5 -25.5q47 0 113 28z" />
<glyph unicode="&#xe4;" horiz-adv-x="919" d="M453 1024q172 0 252.5 -79.5t80.5 -250.5v-643q0 -51 -51 -51h-63q-51 0 -51 51v109q-120 -185 -269 -185q-118 0 -189 82.5t-71 223.5v57q0 123 84 204t225 81q74 0 211 -27v113q0 89 -38.5 127t-120.5 38q-63 0 -226 -28q-26 -4 -40.5 8.5t-14.5 38.5v51q0 49 55 55 q163 25 226 25zM444 487q-87 0 -131.5 -44.5t-44.5 -127.5v-22q0 -76 34.5 -119t88.5 -43q55 0 113.5 48t107.5 136v158q-77 14 -168 14zM287 1397q51 0 78.5 -22.5t27.5 -63.5v-60q0 -39 -28 -61.5t-78 -22.5q-47 0 -76 23t-29 61v60q0 41 28.5 63.5t76.5 22.5zM631 1397 q51 0 78.5 -22.5t27.5 -63.5v-60q0 -39 -28 -61.5t-78 -22.5q-47 0 -76 23t-29 61v60q0 41 28.5 63.5t76.5 22.5z" />
<glyph unicode="&#xe5;" horiz-adv-x="919" d="M453 1024q172 0 252.5 -79.5t80.5 -250.5v-643q0 -51 -51 -51h-63q-51 0 -51 51v109q-120 -185 -269 -185q-118 0 -189 82.5t-71 223.5v57q0 123 84 204t225 81q74 0 211 -27v113q0 89 -38.5 127t-120.5 38q-63 0 -226 -28q-26 -4 -40.5 8.5t-14.5 38.5v51q0 49 55 55 q163 25 226 25zM444 487q-87 0 -131.5 -44.5t-44.5 -127.5v-22q0 -76 34.5 -119t88.5 -43q55 0 113.5 48t107.5 136v158q-77 14 -168 14zM461 1481q105 0 166 -51t61 -146q0 -94 -60.5 -145.5t-166.5 -51.5q-105 0 -166.5 51.5t-61.5 145.5t61 145.5t167 51.5zM461 1378 q-105 0 -105 -94t105 -94q104 0 104 94t-104 94z" />
<glyph unicode="&#xe6;" horiz-adv-x="1411" d="M967 1024q173 0 262.5 -93.5t89.5 -273.5v-120q0 -49 -18 -70t-66 -21h-442v-120q0 -104 49.5 -150.5t158.5 -46.5q93 0 211 25q26 6 41 -5.5t17 -37.5l2 -54q3 -42 -47 -55q-117 -27 -230 -27q-148 0 -229 52t-111 157q-132 -209 -303 -209q-119 0 -189.5 82.5 t-70.5 223.5v57q0 125 83.5 207t225.5 82q74 0 211 -27v109q0 89 -38.5 127t-120.5 38q-63 0 -226 -28q-26 -4 -40.5 8.5t-14.5 38.5v51q0 49 55 55q163 25 224 25q193 0 266 -117q75 117 250 117zM967 879q-81 0 -129.5 -48t-51.5 -137v-104h361v88q0 97 -48 149t-132 52z M444 487q-85 0 -130.5 -45.5t-45.5 -126.5v-22q0 -75 34 -118.5t89 -43.5t113.5 48t107.5 136v158q-77 14 -168 14z" />
<glyph unicode="&#xe7;" horiz-adv-x="798" d="M489 1024q76 0 166 -20q24 -6 34.5 -19.5t10.5 -38.5v-53q0 -53 -67 -39q-75 16 -144 16q-93 0 -142.5 -52.5t-49.5 -151.5v-330q0 -103 51.5 -155t140.5 -52q69 0 154 18q54 12 57 -45l2 -51q2 -28 -9.5 -40.5t-43.5 -18.5q-84 -17 -155 -17l-19 -59h17q51 0 80.5 -35.5 t29.5 -95.5v-31q0 -78 -42.5 -117.5t-137.5 -39.5q-47 0 -78 8q-37 8 -37 45v24q0 23 10 33.5t27 7.5q36 -8 62 -8q59 0 59 51v21q0 30 -14 43.5t-50 13.5h-30q-51 0 -29 68l27 84q-246 56 -246 360v303q0 373 366 373z" />
<glyph unicode="&#xe8;" horiz-adv-x="915" d="M471 1024q173 0 262.5 -93.5t89.5 -273.5v-120q0 -49 -18 -70t-66 -21h-442v-120q0 -104 50 -150.5t159 -46.5q93 0 211 25q54 12 57 -43l2 -54q3 -42 -47 -55q-117 -27 -233 -27q-198 0 -285.5 88t-87.5 273v321q0 179 86.5 273t261.5 94zM471 879q-80 0 -127 -51 t-47 -144v-98h352v92q0 99 -48 150t-130 51zM260 1403h94q32 0 49 -29l113 -207q12 -22 4 -35.5t-33 -13.5h-61q-31 0 -49 27l-141 209q-15 20 -8 34.5t32 14.5z" />
<glyph unicode="&#xe9;" horiz-adv-x="915" d="M471 1024q173 0 262.5 -93.5t89.5 -273.5v-120q0 -49 -18 -70t-66 -21h-442v-120q0 -104 50 -150.5t159 -46.5q93 0 211 25q54 12 57 -43l2 -54q3 -42 -47 -55q-117 -27 -233 -27q-198 0 -285.5 88t-87.5 273v321q0 179 86.5 273t261.5 94zM471 879q-80 0 -127 -51 t-47 -144v-98h352v92q0 99 -48 150t-130 51zM567 1403h95q25 0 32 -14.5t-8 -34.5l-141 -209q-18 -27 -49 -27h-62q-25 0 -32.5 13.5t4.5 35.5l112 207q17 29 49 29z" />
<glyph unicode="&#xea;" horiz-adv-x="915" d="M471 1024q173 0 262.5 -93.5t89.5 -273.5v-120q0 -49 -18 -70t-66 -21h-442v-120q0 -104 50 -150.5t159 -46.5q93 0 211 25q54 12 57 -43l2 -54q3 -42 -47 -55q-117 -27 -233 -27q-198 0 -285.5 88t-87.5 273v321q0 179 86.5 273t261.5 94zM471 879q-80 0 -127 -51 t-47 -144v-98h352v92q0 99 -48 150t-130 51zM227 1278l209 119q29 17 58 0l208 -119q29 -15 29 -49v-58q0 -23 -13.5 -31t-35.5 3l-217 108l-217 -108q-22 -11 -35.5 -3t-13.5 31v58q0 19 5.5 29.5t22.5 19.5z" />
<glyph unicode="&#xeb;" horiz-adv-x="915" d="M471 1024q173 0 262.5 -93.5t89.5 -273.5v-120q0 -49 -18 -70t-66 -21h-442v-120q0 -104 50 -150.5t159 -46.5q93 0 211 25q54 12 57 -43l2 -54q3 -42 -47 -55q-117 -27 -233 -27q-198 0 -285.5 88t-87.5 273v321q0 179 86.5 273t261.5 94zM471 879q-80 0 -127 -51 t-47 -144v-98h352v92q0 99 -48 150t-130 51zM291 1397q51 0 78.5 -22.5t27.5 -63.5v-60q0 -39 -28 -61.5t-78 -22.5q-47 0 -76 23t-29 61v60q0 41 28.5 63.5t76.5 22.5zM635 1397q51 0 78.5 -22.5t27.5 -63.5v-60q0 -39 -28 -61.5t-78 -22.5q-47 0 -76 23t-29 61v60 q0 41 28.5 63.5t76.5 22.5z" />
<glyph unicode="&#xec;" horiz-adv-x="460" d="M195 999h71q51 0 51 -51v-897q0 -51 -51 -51h-71q-52 0 -52 51v897q0 51 52 51zM27 1403h94q32 0 49 -29l113 -207q12 -22 4 -35.5t-33 -13.5h-61q-32 0 -50 27l-141 209q-15 20 -7.5 34.5t32.5 14.5z" />
<glyph unicode="&#xed;" horiz-adv-x="460" d="M195 999h71q51 0 51 -51v-897q0 -51 -51 -51h-71q-52 0 -52 51v897q0 51 52 51zM334 1403h94q25 0 32.5 -14.5t-7.5 -34.5l-142 -209q-18 -27 -49 -27h-61q-25 0 -33 13.5t4 35.5l113 207q17 29 49 29z" />
<glyph unicode="&#xee;" horiz-adv-x="460" d="M195 999h71q51 0 51 -51v-897q0 -51 -51 -51h-71q-52 0 -52 51v897q0 51 52 51zM-6 1278l209 119q29 17 57 0l209 -119q29 -15 29 -49v-58q0 -23 -13.5 -31t-35.5 3l-218 108l-217 -108q-22 -11 -35.5 -3t-13.5 31v58q0 34 29 49z" />
<glyph unicode="&#xef;" horiz-adv-x="460" d="M195 999h71q51 0 51 -51v-897q0 -51 -51 -51h-71q-52 0 -52 51v897q0 51 52 51zM57 1397q51 0 79 -22.5t28 -63.5v-60q0 -39 -28.5 -61.5t-78.5 -22.5q-47 0 -75.5 23t-28.5 61v60q0 41 28 63.5t76 22.5zM401 1397q51 0 79 -22.5t28 -63.5v-60q0 -39 -28.5 -61.5 t-78.5 -22.5q-47 0 -75.5 23t-28.5 61v60q0 41 28 63.5t76 22.5z" />
<glyph unicode="&#xf0;" horiz-adv-x="997" d="M225 1341v31q0 52 54 49q278 -15 421 -192l117 35q26 8 41.5 -3.5t15.5 -39.5v-29q0 -45 -43 -57l-59 -19q80 -165 80 -420v-348q0 -181 -90 -277t-264 -96q-185 0 -270 84t-85 263v235q0 167 72.5 254.5t200.5 87.5q150 0 262 -160v52q0 156 -66 278l-202 -61 q-26 -8 -42 3.5t-16 39.5v32q0 46 43 58l133 39q-102 94 -254 110q-49 3 -49 51zM451 743q-134 0 -134 -211v-229q0 -182 181 -182q180 0 180 182v272q-49 82 -109 125t-118 43z" />
<glyph unicode="&#xf1;" horiz-adv-x="995" d="M580 1024q131 0 201.5 -89t70.5 -253v-631q0 -51 -51 -51h-72q-51 0 -51 51v606q0 205 -133 205q-60 0 -122 -45t-106 -123v-643q0 -51 -51 -51h-71q-52 0 -52 51v897q0 51 52 51h61q51 0 51 -51v-98q113 174 273 174zM725 1380q22 9 34.5 1t12.5 -31v-60q0 -33 -24 -49 q-69 -43 -140 -43q-42 0 -107 25.5t-102 25.5q-46 0 -112 -28q-22 -9 -34.5 -1t-12.5 31v60q0 33 24 49q69 43 139 43q55 0 116.5 -25.5t92.5 -25.5q47 0 113 28z" />
<glyph unicode="&#xf2;" horiz-adv-x="966" d="M483 1024q183 0 272 -97.5t89 -275.5v-303q0 -178 -89 -275.5t-272 -97.5t-271.5 97t-88.5 276v303q0 179 88.5 276t271.5 97zM483 879q-89 0 -137.5 -55t-48.5 -158v-332q0 -103 48.5 -158t137.5 -55t138 55t49 158v334q0 103 -49 157t-138 54zM279 1403h94q32 0 49 -29 l113 -207q12 -22 4 -35.5t-33 -13.5h-62q-31 0 -49 27l-141 209q-15 20 -7.5 34.5t32.5 14.5z" />
<glyph unicode="&#xf3;" horiz-adv-x="966" d="M483 1024q183 0 272 -97.5t89 -275.5v-303q0 -178 -89 -275.5t-272 -97.5t-271.5 97t-88.5 276v303q0 179 88.5 276t271.5 97zM483 879q-89 0 -137.5 -55t-48.5 -158v-332q0 -103 48.5 -158t137.5 -55t138 55t49 158v334q0 103 -49 157t-138 54zM586 1403h94 q25 0 32.5 -14.5t-7.5 -34.5l-142 -209q-18 -27 -49 -27h-61q-25 0 -33 13.5t4 35.5l113 207q17 29 49 29z" />
<glyph unicode="&#xf4;" horiz-adv-x="966" d="M483 1024q183 0 272 -97.5t89 -275.5v-303q0 -178 -89 -275.5t-272 -97.5t-271.5 97t-88.5 276v303q0 179 88.5 276t271.5 97zM483 879q-89 0 -137.5 -55t-48.5 -158v-332q0 -103 48.5 -158t137.5 -55t138 55t49 158v334q0 103 -49 157t-138 54zM246 1278l209 119 q29 17 57 0l209 -119q29 -15 29 -49v-58q0 -23 -14 -31t-36 3l-217 108l-217 -108q-22 -11 -35.5 -3t-13.5 31v58q0 34 29 49z" />
<glyph unicode="&#xf5;" horiz-adv-x="966" d="M483 1024q183 0 272 -97.5t89 -275.5v-303q0 -178 -89 -275.5t-272 -97.5t-271.5 97t-88.5 276v303q0 179 88.5 276t271.5 97zM483 879q-89 0 -137.5 -55t-48.5 -158v-332q0 -103 48.5 -158t137.5 -55t138 55t49 158v334q0 103 -49 157t-138 54zM702 1380q22 9 35 1 t13 -31v-60q0 -32 -25 -49q-69 -43 -139 -43q-42 0 -107 25.5t-102 25.5q-47 0 -113 -28q-22 -9 -34.5 -1t-12.5 31v60q0 32 25 49q69 43 139 43q55 0 116.5 -25.5t92.5 -25.5q46 0 112 28z" />
<glyph unicode="&#xf6;" horiz-adv-x="966" d="M483 1024q183 0 272 -97.5t89 -275.5v-303q0 -178 -89 -275.5t-272 -97.5t-271.5 97t-88.5 276v303q0 179 88.5 276t271.5 97zM483 879q-89 0 -137.5 -55t-48.5 -158v-332q0 -103 48.5 -158t137.5 -55t138 55t49 158v334q0 103 -49 157t-138 54zM309 1397q51 0 79 -22.5 t28 -63.5v-60q0 -39 -28.5 -61.5t-78.5 -22.5q-47 0 -75.5 23t-28.5 61v60q0 41 28 63.5t76 22.5zM653 1397q51 0 79 -22.5t28 -63.5v-60q0 -39 -28.5 -61.5t-78.5 -22.5q-47 0 -75.5 23t-28.5 61v60q0 41 28 63.5t76 22.5z" />
<glyph unicode="&#xf7;" horiz-adv-x="798" d="M399 1001q50 0 75.5 -24t25.5 -66v-34q0 -41 -25.5 -65t-75.5 -24q-48 0 -73 24t-25 65v34q0 42 25 66t73 24zM88 686h623q51 0 51 -51v-41q0 -51 -51 -51h-623q-51 0 -51 51v41q0 51 51 51zM399 440q50 0 75.5 -24t25.5 -66v-35q0 -41 -25.5 -64.5t-75.5 -23.5 q-48 0 -73 23.5t-25 64.5v35q0 42 25 66t73 24z" />
<glyph unicode="&#xf8;" horiz-adv-x="966" d="M834 1102h67q31 0 40.5 -18t-7.5 -44l-127 -192q37 -81 37 -197v-303q0 -178 -89 -275.5t-272 -97.5q-133 0 -221 56l-67 -103q-22 -32 -62 -32h-67q-31 0 -40.5 17.5t7.5 43.5l127 190q-37 81 -37 201v303q0 179 88.5 276t271.5 97q137 0 222 -57l67 102q23 33 62 33z M483 879q-89 0 -137.5 -55t-48.5 -158v-322v-20l328 495q-48 60 -142 60zM670 668l-328 -490q48 -57 141 -57q89 0 138 55t49 158v313v21z" />
<glyph unicode="&#xf9;" horiz-adv-x="983" d="M717 999h71q52 0 52 -51v-897q0 -51 -52 -51h-61q-51 0 -51 51v92q-114 -168 -266 -168q-125 0 -196 87t-71 255v631q0 51 52 51h71q51 0 51 -51v-600q0 -211 127 -211q56 0 116.5 44.5t105.5 121.5v645q0 51 51 51zM287 1403h94q32 0 49 -29l113 -207q12 -22 4 -35.5 t-33 -13.5h-61q-32 0 -50 27l-141 209q-15 20 -7.5 34.5t32.5 14.5z" />
<glyph unicode="&#xfa;" horiz-adv-x="983" d="M717 999h71q52 0 52 -51v-897q0 -51 -52 -51h-61q-51 0 -51 51v92q-114 -168 -266 -168q-125 0 -196 87t-71 255v631q0 51 52 51h71q51 0 51 -51v-600q0 -211 127 -211q56 0 116.5 44.5t105.5 121.5v645q0 51 51 51zM594 1403h94q25 0 32.5 -14.5t-7.5 -34.5l-142 -209 q-18 -27 -49 -27h-61q-25 0 -33 13.5t4 35.5l113 207q17 29 49 29z" />
<glyph unicode="&#xfb;" horiz-adv-x="983" d="M717 999h71q52 0 52 -51v-897q0 -51 -52 -51h-61q-51 0 -51 51v92q-114 -168 -266 -168q-125 0 -196 87t-71 255v631q0 51 52 51h71q51 0 51 -51v-600q0 -211 127 -211q56 0 116.5 44.5t105.5 121.5v645q0 51 51 51zM254 1278l209 119q29 17 57 0l209 -119q29 -15 29 -49 v-58q0 -23 -13.5 -31t-35.5 3l-217 108l-218 -108q-22 -11 -35.5 -3t-13.5 31v58q0 34 29 49z" />
<glyph unicode="&#xfc;" horiz-adv-x="983" d="M717 999h71q52 0 52 -51v-897q0 -51 -52 -51h-61q-51 0 -51 51v92q-114 -168 -266 -168q-125 0 -196 87t-71 255v631q0 51 52 51h71q51 0 51 -51v-600q0 -211 127 -211q56 0 116.5 44.5t105.5 121.5v645q0 51 51 51zM317 1397q51 0 79 -22.5t28 -63.5v-60 q0 -39 -28.5 -61.5t-78.5 -22.5q-47 0 -75.5 23t-28.5 61v60q0 41 28 63.5t76 22.5zM662 1397q51 0 78.5 -22.5t27.5 -63.5v-60q0 -39 -28 -61.5t-78 -22.5q-47 0 -76 23t-29 61v60q0 41 28.5 63.5t76.5 22.5z" />
<glyph unicode="&#xfd;" horiz-adv-x="892" d="M737 999h74q28 0 39.5 -15.5t3.5 -41.5l-426 -1280q-15 -41 -59 -41h-68q-28 0 -39 16t-2 44l111 319h-21q-45 0 -57 43l-256 899q-8 26 3.5 41.5t39.5 15.5h86q46 0 55 -45l205 -829l254 831q12 43 57 43zM549 1403h94q25 0 32.5 -14.5t-7.5 -34.5l-142 -209 q-18 -27 -49 -27h-61q-25 0 -33 13.5t4 35.5l113 207q17 29 49 29z" />
<glyph unicode="&#xfe;" horiz-adv-x="972" d="M195 1399h71q51 0 51 -51v-480q109 156 261 156q129 0 200.5 -87.5t71.5 -254.5v-365q0 -160 -83 -251t-224 -91q-105 0 -226 72v-375q0 -51 -51 -51h-71q-52 0 -52 51v1676q0 51 52 51zM543 868q-60 0 -121 -43.5t-105 -119.5v-502q43 -35 95 -54.5t96 -19.5 q168 0 168 213v315q0 211 -133 211z" />
<glyph unicode="&#xff;" horiz-adv-x="892" d="M737 999h74q28 0 39.5 -15.5t3.5 -41.5l-426 -1280q-15 -41 -59 -41h-68q-28 0 -39 16t-2 44l111 319h-21q-45 0 -57 43l-256 899q-8 26 3.5 41.5t39.5 15.5h86q46 0 55 -45l205 -829l254 831q12 43 57 43zM272 1397q51 0 79 -22.5t28 -63.5v-60q0 -39 -28.5 -61.5 t-78.5 -22.5q-47 0 -75.5 23t-28.5 61v60q0 41 28 63.5t76 22.5zM616 1397q51 0 79 -22.5t28 -63.5v-60q0 -39 -28.5 -61.5t-78.5 -22.5q-47 0 -75.5 23t-28.5 61v60q0 41 28 63.5t76 22.5z" />
<glyph unicode="&#x152;" horiz-adv-x="1548" d="M561 1366q108 0 197 -25h606q51 0 51 -51v-55q0 -51 -51 -51h-451v-424h410q51 0 51 -51v-54q0 -51 -51 -51h-410v-446h451q51 0 51 -52v-55q0 -51 -51 -51h-606q-86 -25 -189 -25q-212 0 -319 113.5t-107 327.5v510q0 214 107.5 327t310.5 113zM580 1212 q-127 0 -195 -68t-68 -198v-549q0 -130 67.5 -199t195.5 -69q104 0 159 16v1041q-62 26 -159 26z" />
<glyph unicode="&#x153;" horiz-adv-x="1470" d="M1018 1024q174 0 267 -94t93 -273v-120q0 -49 -19 -70t-67 -21h-448v-120q0 -103 51.5 -150t161.5 -47q97 0 215 25q54 12 57 -43l2 -54q3 -45 -47 -55q-133 -27 -223 -27q-211 0 -307 107q-92 -107 -271 -107q-183 0 -271.5 97.5t-88.5 275.5v303q0 178 88.5 275.5 t271.5 97.5q177 0 271 -109q94 109 264 109zM483 879q-89 0 -137.5 -55t-48.5 -158v-332q0 -103 48.5 -158t137.5 -55t138 55t49 158v334q0 103 -49 157t-138 54zM1024 879q-85 0 -132.5 -51t-47.5 -148v-90h360v88q0 97 -48 149t-132 52z" />
<glyph unicode="&#x178;" horiz-adv-x="1005" d="M827 1341h86q29 0 40 -16.5t-1 -42.5l-362 -821v-410q0 -51 -51 -51h-72q-51 0 -51 51v410l-363 821q-12 26 -1 42.5t40 16.5h90q43 0 60 -41l262 -655l264 658q17 38 59 38zM332 1688q51 0 78.5 -23t27.5 -66v-59q0 -40 -27.5 -63t-78.5 -23q-49 0 -78 23t-29 63v59 q0 42 28.5 65.5t78.5 23.5zM674 1688q52 0 80 -23t28 -66v-59q0 -40 -28 -63t-80 -23q-48 0 -77.5 23.5t-29.5 62.5v59q0 42 29.5 65.5t77.5 23.5z" />
<glyph unicode="&#x2c6;" horiz-adv-x="655" d="M90 1278l209 119q29 17 57 0l209 -119q29 -15 29 -49v-58q0 -23 -13.5 -31t-35.5 3l-217 108l-217 -108q-22 -11 -36 -3t-14 31v58q0 34 29 49z" />
<glyph unicode="&#x2dc;" horiz-adv-x="655" d="M547 1380q22 9 34.5 1t12.5 -31v-60q0 -32 -25 -49q-69 -43 -139 -43q-42 0 -107 25.5t-102 25.5q-46 0 -112 -28q-22 -9 -35 -1t-13 31v60q0 32 25 49q69 43 139 43q55 0 116.5 -25.5t92.5 -25.5q47 0 113 28z" />
<glyph unicode="&#x2000;" horiz-adv-x="857" />
<glyph unicode="&#x2001;" horiz-adv-x="1714" />
<glyph unicode="&#x2002;" horiz-adv-x="857" />
<glyph unicode="&#x2003;" horiz-adv-x="1714" />
<glyph unicode="&#x2004;" horiz-adv-x="571" />
<glyph unicode="&#x2005;" horiz-adv-x="428" />
<glyph unicode="&#x2006;" horiz-adv-x="285" />
<glyph unicode="&#x2007;" horiz-adv-x="285" />
<glyph unicode="&#x2008;" horiz-adv-x="214" />
<glyph unicode="&#x2009;" horiz-adv-x="342" />
<glyph unicode="&#x200a;" horiz-adv-x="95" />
<glyph unicode="&#x2010;" horiz-adv-x="716" d="M184 672h348q52 0 52 -51v-31q0 -51 -52 -51h-348q-51 0 -51 51v31q0 51 51 51z" />
<glyph unicode="&#x2011;" horiz-adv-x="716" d="M184 672h348q52 0 52 -51v-31q0 -51 -52 -51h-348q-51 0 -51 51v31q0 51 51 51z" />
<glyph unicode="&#x2012;" horiz-adv-x="716" d="M184 672h348q52 0 52 -51v-31q0 -51 -52 -51h-348q-51 0 -51 51v31q0 51 51 51z" />
<glyph unicode="&#x2013;" horiz-adv-x="1249" d="M184 672h881q51 0 51 -51v-31q0 -51 -51 -51h-881q-51 0 -51 51v31q0 51 51 51z" />
<glyph unicode="&#x2014;" horiz-adv-x="1454" d="M184 672h1086q51 0 51 -51v-31q0 -51 -51 -51h-1086q-51 0 -51 51v31q0 51 51 51z" />
<glyph unicode="&#x2018;" horiz-adv-x="444" d="M223 1425h39q46 0 37 -45l-37 -157q70 -16 70 -86v-58q0 -90 -109 -90q-110 0 -110 90v62q0 56 14 102l51 150q11 32 45 32z" />
<glyph unicode="&#x2019;" horiz-adv-x="444" d="M221 1423q111 0 111 -90v-61q0 -54 -15 -103l-51 -149q-11 -33 -45 -33h-39q-46 0 -37 45l37 158q-69 15 -69 86v57q0 90 108 90z" />
<glyph unicode="&#x201a;" horiz-adv-x="444" d="M221 215q111 0 111 -90v-62q0 -53 -15 -102l-51 -149q-11 -33 -45 -33h-39q-46 0 -37 45l37 158q-69 15 -69 86v57q0 90 108 90z" />
<glyph unicode="&#x201c;" horiz-adv-x="741" d="M223 1423h39q46 0 37 -45l-37 -157q70 -16 70 -86v-58q0 -90 -109 -90q-110 0 -110 90v62q0 56 14 102l51 150q11 32 45 32zM520 1423h39q46 0 37 -45l-37 -157q70 -16 70 -86v-58q0 -90 -109 -90q-110 0 -110 90v62q0 56 14 102l51 150q11 32 45 32z" />
<glyph unicode="&#x201d;" horiz-adv-x="741" d="M221 1423q111 0 111 -90v-61q0 -54 -15 -103l-51 -149q-11 -33 -45 -33h-39q-46 0 -37 45l37 158q-69 15 -69 86v57q0 90 108 90zM518 1423q111 0 111 -90v-61q0 -54 -15 -103l-51 -149q-11 -33 -45 -33h-39q-46 0 -37 45l37 158q-69 15 -69 86v57q0 90 108 90z" />
<glyph unicode="&#x201e;" horiz-adv-x="741" d="M221 215q111 0 111 -90v-62q0 -53 -15 -102l-51 -149q-11 -33 -45 -33h-39q-46 0 -37 45l37 158q-69 15 -69 86v57q0 90 108 90zM518 215q111 0 111 -90v-62q0 -53 -15 -102l-51 -149q-11 -33 -45 -33h-39q-46 0 -37 45l37 158q-69 15 -69 86v57q0 90 108 90z" />
<glyph unicode="&#x2022;" horiz-adv-x="481" d="M240 686q62 0 95.5 -26.5t33.5 -77.5v-68q0 -51 -33.5 -77.5t-95.5 -26.5q-61 0 -94 26.5t-33 77.5v68q0 51 33 77.5t94 26.5z" />
<glyph unicode="&#x2026;" horiz-adv-x="1132" d="M565 225q117 0 117 -96v-59q0 -46 -30 -70.5t-87 -24.5q-55 0 -84.5 24.5t-29.5 70.5v59q0 96 114 96zM225 225q117 0 117 -96v-59q0 -46 -30 -70.5t-87 -24.5q-55 0 -84.5 24.5t-29.5 70.5v59q0 96 114 96zM905 225q117 0 117 -96v-59q0 -46 -30 -70.5t-87 -24.5 q-55 0 -84.5 24.5t-29.5 70.5v59q0 96 114 96z" />
<glyph unicode="&#x202f;" horiz-adv-x="342" />
<glyph unicode="&#x2039;" horiz-adv-x="651" d="M371 897h92q25 0 33 -13.5t-4 -35.5l-164 -299l164 -299q12 -22 4 -35.5t-33 -13.5h-92q-32 0 -49 28l-172 291q-17 29 0 58l172 290q17 29 49 29z" />
<glyph unicode="&#x203a;" horiz-adv-x="651" d="M188 897h93q32 0 49 -29l172 -290q17 -29 0 -58l-172 -291q-17 -28 -49 -28h-93q-25 0 -32.5 13.5t4.5 35.5l164 299l-164 299q-12 22 -4.5 35.5t32.5 13.5z" />
<glyph unicode="&#x205f;" horiz-adv-x="428" />
<glyph unicode="&#x20ac;" horiz-adv-x="935" d="M596 1255q115 0 242 -26q48 -9 45 -55v-48q-2 -27 -17 -39t-41 -6q-118 25 -229 25q-122 0 -176.5 -58t-54.5 -190v-47h376q27 0 39 -14.5t6 -40.5l-8 -43q-9 -45 -57 -45h-356v-127h321q26 0 38.5 -15t6.5 -41l-8 -43q-9 -45 -57 -45h-301v-22q0 -130 54.5 -188 t176.5 -58q111 0 229 25q26 6 41 -6t17 -39l2 -52q0 -43 -47 -55q-117 -27 -242 -27q-217 0 -311.5 101.5t-94.5 312.5v8h-112q-26 0 -38.5 15t-6.5 41l8 43q9 45 57 45h92v127h-100q-27 0 -39 14.5t-6 40.5l8 43q9 45 58 45h79v31q0 211 95.5 312t310.5 101z" />
<glyph unicode="&#x2122;" horiz-adv-x="1583" d="M143 1399h504q26 0 38.5 -8.5t12.5 -32.5v-37q0 -24 -12.5 -32.5t-38.5 -8.5h-176v-512q0 -51 -51 -51h-47q-51 0 -51 51v512h-179q-26 0 -38.5 8.5t-12.5 32.5v37q0 24 12.5 32.5t38.5 8.5zM1360 1399h76q51 0 51 -51l4 -580q0 -51 -51 -51h-39q-51 0 -51 51l2 373 l-121 -320q-14 -41 -57 -41h-58q-43 0 -57 41l-119 320l-8 -373q0 -51 -51 -51h-39q-52 0 -49 51l12 580q0 51 51 51h76q43 0 57 -41l158 -426l156 426q14 41 57 41z" />
<glyph unicode="&#x25fc;" horiz-adv-x="1003" d="M0 1004h1004v-1004h-1004v1004z" />
<glyph unicode="&#xfb01;" horiz-adv-x="1032" d="M532 1423q73 0 158 -18q47 -11 47 -55v-47q0 -27 -15 -38.5t-42 -4.5q-78 20 -150 20q-151 0 -151 -156v-125h459q51 0 51 -51v-897q0 -51 -51 -51h-72q-51 0 -51 51v805h-336v-805q0 -51 -51 -51h-72q-51 0 -51 51v805h-92q-52 0 -52 51v41q0 51 52 51h92v95 q2 169 79 249t248 80z" />
<glyph unicode="&#xfb02;" horiz-adv-x="1042" d="M532 1423q94 0 218 -28l96 8q53 3 53 -49v-1303q0 -51 -51 -51h-72q-51 0 -51 51v1200q-122 29 -195 29q-151 0 -151 -156v-125h133q51 0 51 -51v-41q0 -51 -51 -51h-133v-805q0 -51 -51 -51h-72q-51 0 -51 51v805h-92q-52 0 -52 51v41q0 51 52 51h92v95 q1 172 79.5 250.5t247.5 78.5z" />
<glyph unicode="&#xfb03;" horiz-adv-x="1552" d="M1053 1423q72 0 157 -18q47 -11 47 -55v-47q0 -27 -15 -38.5t-42 -4.5q-78 20 -149 20q-152 0 -152 -156v-125h459q51 0 51 -51v-897q0 -51 -51 -51h-72q-51 0 -51 51v805h-336v-805q0 -51 -51 -51h-72q-51 0 -51 51v805h-346v-805q0 -51 -51 -51h-72q-51 0 -51 51v805 h-92q-52 0 -52 51v41q0 51 52 51h92v88q0 169 78 249.5t249 80.5q134 0 302 -49q76 55 219 55zM539 1274q-85 0 -122.5 -38t-37.5 -118v-119h346v95q0 86 20 147q-104 33 -206 33z" />
<glyph unicode="&#xfb04;" horiz-adv-x="1562" d="M1053 1423q95 0 219 -28l94 8q53 3 53 -49v-1303q0 -51 -51 -51h-72q-51 0 -51 51v1200q-122 29 -194 29q-152 0 -152 -156v-125h133q51 0 51 -51v-41q0 -51 -51 -51h-133v-805q0 -51 -51 -51h-72q-51 0 -51 51v805h-346v-805q0 -51 -51 -51h-72q-51 0 -51 51v805h-92 q-52 0 -52 51v41q0 51 52 51h92v88q0 169 78 249.5t249 80.5q134 0 302 -49q76 55 219 55zM539 1274q-85 0 -122.5 -38t-37.5 -118v-119h346v95q0 86 20 147q-104 33 -206 33z" />
</font>
</defs>
</svg>
