<?xml version="1.0" standalone="no"?>
<!DOCTYPE svg PUBLIC "-//W3C//DTD SVG 1.1//EN" "http://www.w3.org/Graphics/SVG/1.1/DTD/svg11.dtd" >
<svg xmlns="http://www.w3.org/2000/svg">
<metadata></metadata>
<defs>
<font id="ropa_soft_prolight" horiz-adv-x="929" >
<font-face units-per-em="2048" ascent="1638" descent="-410" />
<missing-glyph horiz-adv-x="444" />
<glyph horiz-adv-x="0" />
<glyph horiz-adv-x="0" />
<glyph unicode="&#xd;" horiz-adv-x="444" />
<glyph unicode=" "  horiz-adv-x="444" />
<glyph unicode="&#x09;" horiz-adv-x="444" />
<glyph unicode="&#xa0;" horiz-adv-x="444" />
<glyph unicode="!" horiz-adv-x="409" d="M172 1423h64q36 0 36 -34l-12 -945q0 -34 -35 -34h-41q-37 0 -37 34l-10 945q0 34 35 34zM203 160q86 0 86 -74v-41q0 -70 -86 -70q-40 0 -62 18t-22 52v41q0 74 84 74z" />
<glyph unicode="&#x22;" horiz-adv-x="614" d="M141 1399h49q35 0 35 -35v-451q0 -34 -35 -34h-49q-35 0 -35 34v451q0 35 35 35zM424 1399h49q35 0 35 -35v-451q0 -34 -35 -34h-49q-35 0 -35 34v451q0 35 35 35z" />
<glyph unicode="#" horiz-adv-x="1110" d="M793 1255h49q35 0 35 -34v-222h139q37 0 37 -34v-29q0 -37 -37 -37h-139v-543h139q17 0 27 -9.5t10 -24.5v-31q0 -35 -37 -35h-139v-221q0 -35 -35 -35h-49q-35 0 -35 35v221h-406v-221q0 -35 -35 -35h-49q-35 0 -35 35v221h-141q-35 0 -35 35v31q0 34 35 34h141v543 h-141q-35 0 -35 37v29q0 34 35 34h141v222q0 34 35 34h49q35 0 35 -34v-222h406v222q0 34 35 34zM758 899h-406v-543h406v543z" />
<glyph unicode="$" horiz-adv-x="907" d="M446 1423h37q37 0 37 -34v-134q112 -8 201 -24q31 -6 31 -37v-37q0 -39 -39 -33q-141 29 -226 29q-272 0 -272 -199v-39q0 -87 37.5 -133.5t150.5 -81.5l164 -53q146 -46 205 -120.5t59 -215.5v-14q0 -141 -72 -219t-239 -96v-140q0 -35 -37 -35h-37q-34 0 -34 35v133 q-123 3 -242 29q-31 9 -31 39l2 39q0 41 37 31q147 -31 234 -31q163 0 232 48.5t69 150.5v45q0 80 -41.5 128.5t-147.5 82.5l-174 55q-143 46 -198.5 119t-55.5 217v10q0 144 76 222.5t240 90.5v138q0 34 34 34z" />
<glyph unicode="%" horiz-adv-x="1767" d="M418 1280q153 0 229 -81t76 -236v-80q0 -156 -77.5 -238t-231.5 -82q-153 0 -230.5 82t-77.5 238v80q0 154 79 235.5t233 81.5zM1206 1255h47q46 0 27 -43l-649 -1187q-16 -25 -43 -25h-47q-20 0 -27 11.5t2 31.5l647 1188q15 24 43 24zM416 1174q-191 0 -191 -211v-80 q0 -213 191 -213q188 0 188 213v80q0 103 -43.5 157t-144.5 54zM1380 692q153 0 229.5 -81.5t76.5 -235.5v-80q0 -155 -78 -237.5t-232 -82.5q-153 0 -230 82t-77 238v80q0 154 78.5 235.5t232.5 81.5zM1378 586q-190 0 -190 -211v-80q0 -213 190 -213q189 0 189 213v80 q0 102 -44 156.5t-145 54.5z" />
<glyph unicode="&#x26;" horiz-adv-x="1095" d="M498 1366q87 0 204 -18q34 -6 31 -39v-29q0 -18 -10.5 -27t-26.5 -6q-116 19 -198 19q-127 0 -182.5 -60.5t-55.5 -181.5v-45q0 -105 71 -176.5t197 -71.5h275v135q0 35 35 35h45q16 0 25.5 -9t9.5 -26v-135h114q16 0 25.5 -9t9.5 -26v-28q0 -17 -9.5 -26t-25.5 -9h-114 v-567q0 -42 -39 -50q-111 -25 -174 -33t-150 -8q-126 0 -217 25t-144 73t-77.5 112t-24.5 147v45q0 113 64 198t186 119q-199 78 -199 299v45q0 149 89.5 238.5t265.5 89.5zM803 633h-295q-146 0 -221.5 -71.5t-75.5 -176.5v-55q0 -122 85 -187t259 -65q113 0 248 33v522z " />
<glyph unicode="'" horiz-adv-x="331" d="M141 1399h49q35 0 35 -35v-451q0 -34 -35 -34h-49q-35 0 -35 34v451q0 35 35 35z" />
<glyph unicode="(" horiz-adv-x="456" d="M461 1487q35 0 35 -35v-29q0 -34 -35 -37q-81 -7 -119.5 -27t-54 -63.5t-15.5 -132.5v-985q0 -128 35.5 -171t153.5 -52q35 -3 35 -37v-29q0 -34 -35 -34q-94 2 -151 18.5t-93 58.5t-49.5 106.5t-13.5 170.5v924q0 106 13.5 170.5t49.5 106.5t93 58.5t151 18.5z" />
<glyph unicode=")" horiz-adv-x="456" d="M-39 1423v29q0 35 35 35q94 -2 151 -18.5t93 -58.5t49.5 -106.5t13.5 -170.5v-924q0 -106 -13.5 -170.5t-49.5 -106.5t-93 -58.5t-151 -18.5q-35 0 -35 34v29q0 34 35 37q117 9 152.5 51.5t35.5 171.5v985q0 89 -15 132.5t-53.5 63.5t-119.5 27q-35 3 -35 37z" />
<glyph unicode="*" horiz-adv-x="854" d="M410 1423h32q35 0 35 -37l-14 -212l194 83q33 13 45 -20l13 -31q9 -36 -25 -45l-205 -59l138 -158q21 -27 -7 -49l-28 -23q-30 -20 -49 11l-113 178l-113 -178q-19 -31 -49 -11l-28 23q-29 20 -7 49l140 160l-205 57q-38 9 -25 45l13 31q9 34 45 20l194 -83l-16 212 q0 37 35 37z" />
<glyph unicode="+" horiz-adv-x="808" d="M385 999h37q35 0 35 -34v-291h262q35 0 35 -37v-31q0 -35 -35 -35h-262v-292q0 -35 -35 -35h-37q-35 0 -35 35v292h-262q-35 0 -35 35v31q0 37 35 37h262v291q0 34 35 34z" />
<glyph unicode="," horiz-adv-x="423" d="M211 162q86 0 86 -70v-49q0 -40 -12 -78l-58 -194q-6 -27 -32 -27h-35q-32 0 -25 33l47 205q-53 9 -53 65v45q0 70 82 70z" />
<glyph unicode="-" horiz-adv-x="716" d="M182 653h353q34 0 34 -35v-26q0 -35 -34 -35h-353q-17 0 -26 9.5t-9 25.5v26q0 35 35 35z" />
<glyph unicode="." horiz-adv-x="425" d="M213 162q86 0 86 -74v-41q0 -72 -86 -72t-86 72v41q0 74 86 74z" />
<glyph unicode="/" horiz-adv-x="522" d="M444 1399h45q41 0 29 -39l-399 -1331q-10 -29 -39 -29h-47q-38 0 -29 39l399 1331q10 29 41 29z" />
<glyph unicode="0" horiz-adv-x="1026" d="M512 1255q367 0 367 -413v-455q0 -206 -95.5 -309t-269.5 -103q-176 0 -271.5 101.5t-95.5 308.5v455q0 210 94 312.5t271 102.5zM512 1151q-246 0 -246 -293v-483q0 -295 248 -295q246 0 246 295v483q0 293 -248 293z" />
<glyph unicode="1" horiz-adv-x="595" d="M344 1231h49q16 0 25.5 -9t9.5 -26v-1161q0 -17 -9.5 -26t-25.5 -9h-49q-35 0 -35 35v1079h-4l-246 -113q-36 -14 -45 23l-10 37q-10 33 23 43l272 117q20 10 45 10z" />
<glyph unicode="2" horiz-adv-x="811" d="M332 1255q181 0 268.5 -75.5t87.5 -231.5v-41q0 -90 -36.5 -173.5t-143.5 -211.5l-340 -418h508q35 0 35 -34v-35q0 -35 -35 -35h-621q-35 0 -35 35v33q0 22 15 43l416 520q69 87 93.5 146.5t24.5 129.5v33q0 113 -57 163t-180 50q-97 0 -240 -39q-39 -12 -39 31v33 q0 33 35 41q144 36 244 36z" />
<glyph unicode="3" horiz-adv-x="792" d="M336 1255q160 0 245 -81.5t85 -235.5v-20q0 -97 -40.5 -169.5t-115.5 -107.5q84 -33 133 -109t49 -178v-20q0 -170 -90.5 -264.5t-265.5 -94.5q-106 0 -234 25q-30 9 -30 37v33q0 38 37 32q136 -24 227 -24q117 0 177 61t60 180v37q0 109 -59.5 169.5t-161.5 60.5h-184 q-35 0 -35 35v28q0 35 35 35h184q94 0 144.5 56.5t50.5 168.5v43q0 99 -55 151t-158 52q-72 0 -225 -27q-37 -6 -37 33v33q0 31 37 37q137 24 227 24z" />
<glyph unicode="4" horiz-adv-x="843" d="M586 1231h63q35 0 35 -35v-829h90q35 0 35 -37v-31q0 -35 -35 -35h-90v-229q0 -35 -35 -35h-47q-35 0 -35 35v229h-547q-34 0 -34 35v27q0 26 12 43l545 839q14 23 43 23zM569 1079l-454 -712h454v712z" />
<glyph unicode="5" horiz-adv-x="903" d="M156 1237h530q35 0 35 -35v-35q0 -37 -35 -37h-450v-485q125 137 311 137q137 0 205.5 -82t68.5 -266v-74q0 -189 -96.5 -287t-288.5 -98q-134 0 -270 35q-29 6 -29 37v37q0 19 10 27t27 4q156 -35 258 -35q135 0 202.5 71.5t67.5 208.5v80q0 129 -45 184.5t-141 55.5 q-159 0 -289 -158q-21 -18 -41 -18h-30q-16 0 -25.5 9t-9.5 26v661q0 37 35 37z" />
<glyph unicode="6" horiz-adv-x="976" d="M731 1239q35 3 35 -33v-35q0 -33 -35 -36q-256 -13 -363.5 -98t-107.5 -249v-139q74 70 157.5 109t153.5 39q142 0 220.5 -90.5t78.5 -272.5v-80q0 -186 -93 -282.5t-273 -96.5q-178 0 -270.5 96.5t-92.5 286.5v412q0 223 142.5 340t447.5 129zM553 690q-63 0 -143 -40.5 t-150 -102.5v-193q0 -274 244 -274q248 0 248 264v96q0 123 -52 186.5t-147 63.5z" />
<glyph unicode="7" horiz-adv-x="768" d="M59 1229h637q16 0 25.5 -9t9.5 -26v-29q0 -18 -10 -45l-438 -1093q-12 -27 -41 -27h-56q-41 0 -28 41l446 1077v4h-545q-34 0 -34 35v37q0 35 34 35z" />
<glyph unicode="8" horiz-adv-x="942" d="M471 1255q157 0 245.5 -81.5t88.5 -233.5v-16q0 -87 -41 -158.5t-113 -106.5q97 -35 151 -114.5t54 -184.5v-30q0 -169 -98.5 -262t-286.5 -93q-189 0 -287 91t-98 264v30q0 106 53 185t152 114q-72 35 -113 106.5t-41 158.5v16q0 151 88.5 233t245.5 82zM471 1159 q-217 0 -217 -213v-35q0 -96 54 -152.5t163 -56.5q111 0 164 56.5t53 152.5v35q0 213 -217 213zM471 608q-125 0 -195.5 -64t-70.5 -179v-54q0 -111 69 -172t197 -61t197 61t69 172v54q0 116 -70.5 179.5t-195.5 63.5z" />
<glyph unicode="9" horiz-adv-x="972" d="M473 1255q177 0 270 -101t93 -290v-438q0 -235 -96.5 -343t-307.5 -108q-115 0 -233 27q-31 9 -31 39v33q0 36 39 30q123 -26 225 -26q149 0 217 79.5t68 256.5v164q-71 -68 -153.5 -107t-155.5 -39q-142 0 -222 92.5t-80 270.5v79q0 185 94 283t273 98zM473 1151 q-248 0 -248 -266v-97q0 -122 53.5 -185.5t153.5 -63.5q62 0 141.5 42t143.5 101v192q0 277 -244 277z" />
<glyph unicode=":" horiz-adv-x="423" d="M213 162q86 0 86 -74v-41q0 -72 -86 -72t-86 72v41q0 74 86 74zM213 948q86 0 86 -74v-40q0 -72 -86 -72t-86 72v40q0 74 86 74z" />
<glyph unicode=";" horiz-adv-x="425" d="M211 162q86 0 86 -70v-49q0 -40 -12 -78l-58 -194q-6 -27 -32 -27h-35q-32 0 -25 33l47 205q-53 9 -53 65v45q0 70 82 70zM211 948q86 0 86 -74v-40q0 -72 -86 -72t-86 72v40q0 74 86 74z" />
<glyph unicode="&#x3c;" horiz-adv-x="808" d="M74 680l647 297q17 8 28 0.5t11 -27.5v-45q0 -32 -27 -41l-569 -250l569 -252q27 -9 27 -40v-46q0 -20 -11 -27t-28 1l-647 297q-27 12 -27 41v51q0 29 27 41z" />
<glyph unicode="=" horiz-adv-x="841" d="M106 850h627q35 0 35 -35v-29q0 -34 -35 -34h-627q-34 0 -34 34v29q0 35 34 35zM106 483h627q35 0 35 -34v-31q0 -35 -35 -35h-627q-34 0 -34 35v31q0 34 34 34z" />
<glyph unicode="&#x3e;" horiz-adv-x="808" d="M47 905v45q0 20 11 27.5t30 -0.5l645 -297q27 -11 27 -41v-51q0 -29 -27 -41l-645 -297q-41 -16 -41 26v46q0 31 27 40l569 252l-569 250q-27 9 -27 41z" />
<glyph unicode="?" horiz-adv-x="813" d="M332 1423q186 0 270 -71t84 -211v-51q0 -88 -36.5 -161t-117.5 -161l-92 -106q-32 -35 -43.5 -67t-11.5 -93v-58q0 -34 -35 -34h-45q-35 0 -35 34v31q0 98 15.5 142t70.5 108l119 139q56 66 74 112t18 118v45q0 97 -55 141.5t-190 44.5q-72 0 -218 -31q-38 -9 -38 31v33 q0 31 38 39q127 26 228 26zM332 160q86 0 86 -74v-41q0 -34 -22.5 -52t-63.5 -18q-84 0 -84 70v41q0 74 84 74z" />
<glyph unicode="@" horiz-adv-x="1933" d="M952 1423q423 0 626.5 -195.5t203.5 -576.5v-102q0 -154 -41.5 -269t-129.5 -182t-214 -67q-101 0 -171 54t-83 148q-71 -94 -162 -148t-180 -54q-131 0 -190.5 90t-37.5 252l37 282q22 165 104 254.5t216 89.5q78 0 153.5 -43t122.5 -100l8 84q7 33 37 33h39 q39 0 33 -37l-80 -627q-2 -72 36.5 -122t117.5 -50q126 0 196 112.5t70 299.5v102q0 151 -38.5 269t-120.5 208t-221.5 138.5t-330.5 48.5q-173 0 -306 -55.5t-214 -154.5t-121.5 -229t-40.5 -286v-205q0 -148 37.5 -265t116.5 -206t211 -136.5t311 -47.5h240q37 0 37 -35 v-39q0 -35 -37 -35h-240q-401 0 -597.5 194t-196.5 570v205q0 186 49 337t145.5 262.5t250.5 172.5t355 61zM944 891q-183 0 -219 -260l-31 -236q-34 -256 142 -256q70 0 149.5 50.5t142.5 138.5l54 432q-40 53 -108.5 92t-129.5 39z" />
<glyph unicode="A" horiz-adv-x="1064" d="M481 1341h90q33 0 39 -28l414 -1274q6 -18 -1.5 -28.5t-27.5 -10.5h-59q-29 0 -39 29l-96 307h-547l-92 -307q-10 -29 -39 -29h-53q-20 0 -27.5 10.5t-1.5 28.5l401 1274q6 28 39 28zM524 1231l-239 -787h485z" />
<glyph unicode="B" horiz-adv-x="1081" d="M506 1366q217 0 325.5 -86.5t108.5 -241.5v-34q0 -112 -51.5 -192.5t-151.5 -119.5q119 -23 188.5 -107t69.5 -206v-43q0 -168 -114.5 -264.5t-352.5 -96.5q-91 0 -325 11q-35 3 -35 37v1300q0 32 31 35q172 8 307 8zM483 1262q-54 0 -196 -9v-524h270q119 0 191.5 73 t72.5 185v31q0 125 -79 184.5t-259 59.5zM569 631h-282v-537q133 -12 241 -12q349 0 349 260v43q0 113 -79.5 179.5t-228.5 66.5z" />
<glyph unicode="C" horiz-adv-x="983" d="M580 1366q98 0 243 -29q31 -9 31 -39l-2 -36q0 -39 -39 -33q-140 31 -235 31q-162 0 -232 -68t-70 -229v-584q0 -154 72 -225t234 -68q74 0 233 29q36 6 39 -31l2 -41q0 -30 -33 -37q-155 -31 -245 -31q-225 0 -322.5 100.5t-97.5 311.5v565q0 217 97 315.5t325 98.5z " />
<glyph unicode="D" horiz-adv-x="1169" d="M514 1366q248 0 378 -131.5t130 -390.5v-361q0 -247 -128.5 -377.5t-379.5 -130.5q-131 0 -311 11q-35 3 -35 34v1301q0 34 27 37q168 8 319 8zM506 1262q-109 0 -219 -7v-1163q144 -12 227 -12q183 0 286 101t103 290v379q0 412 -397 412z" />
<glyph unicode="E" horiz-adv-x="983" d="M203 1341h598q35 0 35 -34v-39q0 -35 -35 -35h-514v-498h473q35 0 35 -35v-36q0 -35 -35 -35h-473v-520h514q35 0 35 -35v-39q0 -35 -35 -35h-598q-35 0 -35 35v1272q0 34 35 34z" />
<glyph unicode="F" horiz-adv-x="931" d="M203 1341h598q35 0 35 -34v-39q0 -35 -35 -35h-514v-498h381q34 0 34 -35v-36q0 -35 -34 -35h-381v-594q0 -35 -35 -35h-49q-35 0 -35 35v1272q0 34 35 34z" />
<glyph unicode="G" horiz-adv-x="1138" d="M582 1366q118 0 307 -37q31 -5 31 -37l-2 -37q0 -38 -37 -32q-190 37 -299 37q-166 0 -236 -65t-70 -214v-614q0 -151 71 -218t233 -67q119 0 278 39v520h-229q-17 0 -27 10t-10 25v43q0 35 37 35h313q35 0 35 -35v-635q0 -22 -8 -32.5t-29 -16.5q-222 -60 -360 -60 q-227 0 -324.5 98t-97.5 306v584q0 214 98.5 308.5t325.5 94.5z" />
<glyph unicode="H" horiz-adv-x="1187" d="M936 1341h47q37 0 37 -34v-1272q0 -35 -37 -35h-47q-35 0 -35 35v604h-614v-604q0 -35 -35 -35h-49q-35 0 -35 35v1272q0 34 35 34h49q35 0 35 -34v-559h614v559q0 34 35 34z" />
<glyph unicode="I" horiz-adv-x="454" d="M203 1341h49q35 0 35 -34v-1272q0 -35 -35 -35h-49q-35 0 -35 35v1272q0 34 35 34z" />
<glyph unicode="J" horiz-adv-x="571" d="M319 1341h50q34 0 34 -34v-1053q0 -145 -63.5 -212t-200.5 -67q-55 0 -108 11q-31 9 -31 39v32q0 41 37 35q45 -10 110 -10q68 0 103 38.5t35 125.5v1061q0 34 34 34z" />
<glyph unicode="K" horiz-adv-x="1042" d="M885 1341h55q23 0 29 -13t-8 -30l-545 -606l594 -649q14 -17 8 -30t-29 -13h-71q-26 0 -46 20l-585 650v-635q0 -35 -35 -35h-49q-35 0 -35 35v1272q0 34 35 34h49q35 0 35 -34v-613l555 627q17 20 43 20z" />
<glyph unicode="L" horiz-adv-x="915" d="M203 1341h49q35 0 35 -34v-1201h522q35 0 35 -34v-37q0 -35 -35 -35h-606q-35 0 -35 35v1272q0 34 35 34z" />
<glyph unicode="M" horiz-adv-x="1431" d="M1237 0h-47q-35 0 -35 35l-10 1141l-346 -1008q-6 -29 -39 -29h-90q-29 0 -39 29l-346 1008l-11 -1141q0 -35 -34 -35h-47q-35 0 -35 35l12 1272q0 34 35 34h112q33 0 39 -28l361 -1063l358 1063q6 28 39 28h113q35 0 35 -34l12 -1272q0 -35 -37 -35z" />
<glyph unicode="N" horiz-adv-x="1191" d="M989 0h-115q-28 0 -40 27l-549 1171v-1163q0 -35 -35 -35h-47q-35 0 -35 35v1272q0 34 35 34h123q29 0 41 -26l540 -1165v1157q0 34 35 34h47q35 0 35 -34v-1272q0 -35 -35 -35z" />
<glyph unicode="O" horiz-adv-x="1179" d="M590 1366q225 0 328.5 -112.5t103.5 -327.5v-510q0 -218 -105 -329.5t-327 -111.5q-223 0 -327.5 111.5t-104.5 329.5v510q0 215 103 327.5t329 112.5zM590 1260q-314 0 -314 -314v-549q0 -315 314 -315q313 0 313 315v547q0 316 -313 316z" />
<glyph unicode="P" horiz-adv-x="1040" d="M508 1366q461 3 461 -373v-43q0 -197 -111.5 -301t-335.5 -104q-92 0 -235 20v-530q0 -35 -35 -35h-49q-35 0 -35 35v1286q0 32 27 35q155 8 313 10zM504 1262q-39 0 -217 -7v-585q138 -21 229 -21q334 0 334 305v33q0 138 -83.5 206.5t-262.5 68.5z" />
<glyph unicode="Q" horiz-adv-x="1179" d="M590 1366q225 0 328.5 -112.5t103.5 -327.5v-510q0 -281 -199 -381l228 -70q15 -5 20.5 -12.5t5.5 -24.5v-49q0 -29 -22 -29q-16 0 -105 35l-262 101q-40 -11 -96 -11q-224 0 -329 111t-105 330v510q0 215 103 327.5t329 112.5zM590 1260q-314 0 -314 -314v-549 q0 -315 316 -315q158 0 234.5 78.5t76.5 240.5v543q0 316 -313 316z" />
<glyph unicode="R" horiz-adv-x="1103" d="M510 1366q231 0 343 -93.5t112 -266.5v-50q0 -128 -65 -220t-187 -128l321 -565q11 -19 4.5 -31t-26.5 -12h-60q-25 0 -41 25l-315 559q-117 -13 -309 2v-551q0 -35 -35 -35h-49q-35 0 -35 35v1286q0 34 35 37q218 8 307 8zM506 1262q-20 0 -219 -7v-567q150 -10 225 -10 q172 0 253 71t81 212v36q0 134 -82 199.5t-258 65.5z" />
<glyph unicode="S" horiz-adv-x="933" d="M487 1366q102 0 240 -27q34 -6 31 -36v-39q0 -37 -39 -31q-143 27 -232 27q-142 0 -202 -56t-60 -170v-53q0 -86 39.5 -132t153.5 -83l196 -66q131 -43 185.5 -118.5t54.5 -216.5v-39q0 -178 -97.5 -264.5t-316.5 -86.5q-127 0 -272 37q-31 5 -31 37l2 43q0 37 37 31 q135 -37 262 -37q159 0 228 54.5t69 170.5v70q0 84 -38.5 132t-131.5 79l-219 72q-131 45 -185.5 117t-54.5 208v31q0 175 91 260.5t290 85.5z" />
<glyph unicode="T" horiz-adv-x="1067" d="M106 1341h857q34 0 34 -34v-39q0 -35 -34 -35h-369v-1198q0 -17 -9.5 -26t-25.5 -9h-49q-35 0 -35 35v1198h-369q-34 0 -34 35v39q0 34 34 34z" />
<glyph unicode="U" horiz-adv-x="1181" d="M930 1341h49q35 0 35 -34v-887q0 -217 -107.5 -331t-316.5 -114q-207 0 -314.5 110.5t-107.5 330.5v891q0 34 35 34h49q35 0 35 -34v-910q0 -155 77.5 -234t225.5 -79q150 0 226.5 79t76.5 234v910q0 34 37 34z" />
<glyph unicode="V" horiz-adv-x="1062" d="M932 1341h55q41 0 31 -38l-402 -1274q-10 -29 -38 -29h-101q-29 0 -39 29l-393 1274q-6 17 2 27.5t27 10.5h57q33 0 39 -28l358 -1196l365 1196q9 28 39 28z" />
<glyph unicode="W" horiz-adv-x="1718" d="M1565 1341h57q40 0 31 -38l-307 -1272q-6 -31 -39 -31h-105q-33 0 -39 31l-305 1175l-303 -1175q-6 -31 -37 -31h-106q-31 0 -37 31l-312 1272q-6 38 31 38h58q32 0 38 -30l279 -1180l299 1180q6 30 39 30h104q33 0 39 -30l301 -1180l275 1180q6 30 39 30z" />
<glyph unicode="X" horiz-adv-x="1028" d="M866 1341h60q21 0 27.5 -12t-3.5 -31l-356 -610l377 -645q10 -19 3.5 -31t-26.5 -12h-69q-27 0 -43 25l-324 565l-324 -565q-16 -25 -43 -25h-63q-21 0 -28 12t3 31l381 647l-356 608q-12 19 -5.5 31t27.5 12h68q29 0 41 -24l307 -531l305 531q15 24 41 24z" />
<glyph unicode="Y" horiz-adv-x="970" d="M834 1341h59q20 0 27.5 -11t-0.5 -30l-375 -839v-426q0 -35 -35 -35h-49q-35 0 -35 35v426l-375 839q-8 19 -0.5 30t27.5 11h63q29 0 41 -26l305 -725l306 725q12 26 41 26z" />
<glyph unicode="Z" horiz-adv-x="972" d="M139 1341h699q34 0 34 -34v-37q0 -22 -12 -43l-629 -1118h607q34 0 34 -35v-39q0 -35 -34 -35h-711q-35 0 -35 35v37q0 26 10 43l629 1118h-592q-35 0 -35 35v39q0 34 35 34z" />
<glyph unicode="[" horiz-adv-x="493" d="M193 1487h307q35 0 35 -35v-31q0 -35 -35 -35h-224v-1431h224q35 0 35 -35v-31q0 -34 -35 -34h-307q-35 0 -35 34v1563q0 35 35 35z" />
<glyph unicode="\" horiz-adv-x="522" d="M33 1399h47q29 0 39 -29l399 -1331q12 -39 -29 -39h-45q-31 0 -41 29l-399 1331q-9 39 29 39z" />
<glyph unicode="]" horiz-adv-x="493" d="M-6 1487h307q35 0 35 -35v-1563q0 -34 -35 -34h-307q-35 0 -35 34v31q0 17 9.5 26t25.5 9h223v1431h-223q-16 0 -25.5 9t-9.5 26v31q0 17 9.5 26t25.5 9z" />
<glyph unicode="^" horiz-adv-x="985" d="M467 1399h49q28 0 41 -25l258 -506q9 -19 2.5 -31t-26.5 -12h-41q-28 0 -41 27l-217 438l-218 -438q-14 -27 -41 -27h-38q-22 0 -29 12t2 31l258 506q12 25 41 25z" />
<glyph unicode="_" horiz-adv-x="1249" d="M182 -283h885q35 0 35 -34v-27q0 -35 -35 -35h-885q-35 0 -35 35v27q0 34 35 34z" />
<glyph unicode="`" horiz-adv-x="407" d="M104 1389h66q23 0 35 -21l121 -215q9 -15 2.5 -25t-23.5 -10h-41q-22 0 -35 19l-143 217q-11 14 -5.5 24.5t23.5 10.5z" />
<glyph unicode="a" d="M467 1024q164 0 236.5 -72.5t72.5 -242.5v-674q0 -35 -35 -35h-41q-34 0 -34 35v151q-134 -211 -299 -211q-118 0 -187 79t-69 222v56q0 124 83 204t226 80q94 0 237 -26v127q0 110 -43.5 155.5t-146.5 45.5q-66 0 -240 -29q-37 -6 -37 33v36q0 36 37 39q158 27 240 27z M455 520q-110 0 -166 -54t-56 -153v-22q0 -103 43 -155t119 -52q66 0 137.5 60t124.5 157v199q-98 20 -202 20z" />
<glyph unicode="b" horiz-adv-x="974" d="M186 1399h52q34 0 34 -35v-535q58 89 136 142t165 53q258 0 258 -350v-328q0 -188 -83 -279.5t-259 -91.5q-173 0 -255 88t-82 273v1028q0 35 34 35zM549 915q-75 0 -150.5 -59t-126.5 -151v-379q0 -125 56.5 -186.5t160.5 -61.5q114 0 169 62t55 188v327q0 140 -42 200 t-122 60z" />
<glyph unicode="c" horiz-adv-x="802" d="M483 1024q71 0 174 -23q32 -8 29 -40v-37q0 -19 -10 -25t-35 -2q-96 21 -160 21q-106 0 -163.5 -62.5t-57.5 -187.5v-332q0 -129 59.5 -191.5t169.5 -62.5q71 0 156 20q38 9 41 -30l2 -37q3 -33 -35 -41q-85 -19 -166 -19q-175 0 -260.5 91t-85.5 276v315q0 367 342 367z " />
<glyph unicode="d" horiz-adv-x="985" d="M737 1399h49q35 0 35 -35v-1329q0 -35 -35 -35h-41q-36 0 -36 35v172q-63 -107 -142.5 -169.5t-167.5 -62.5q-125 0 -191.5 84t-66.5 254v369q0 163 74.5 252.5t212.5 89.5q128 0 274 -123v463q0 35 35 35zM451 915q-91 0 -141 -62t-50 -187v-334q0 -134 43.5 -191 t124.5 -57q74 0 146 65.5t128 169.5v472q-50 51 -118.5 87.5t-132.5 36.5z" />
<glyph unicode="e" d="M477 1024q338 0 338 -369v-120q0 -35 -13.5 -49.5t-47.5 -14.5h-492v-147q0 -132 57 -186t189 -54q84 0 225 29q36 6 39 -31l2 -39q3 -29 -31 -39q-132 -29 -239 -29q-195 0 -279 84t-84 273v325q0 367 336 367zM475 922q-213 0 -213 -244v-109h434v103 q0 127 -57.5 188.5t-163.5 61.5z" />
<glyph unicode="f" horiz-adv-x="618" d="M481 1423q47 0 103 -12q16 -3 21 -10.5t5 -26.5v-28q0 -20 -7 -28t-25 -5q-48 10 -95 10q-139 0 -139 -188v-136h160q35 0 35 -34v-29q0 -37 -35 -37h-160v-864q0 -35 -35 -35h-51q-16 0 -25.5 9t-9.5 26v864h-108q-15 0 -25 10t-10 27v29q0 34 35 34h108v125 q1 154 66 226.5t192 72.5z" />
<glyph unicode="g" horiz-adv-x="970" d="M471 1024q109 0 188 -29l250 6q17 0 24 -7.5t7 -26.5v-37q0 -35 -37 -35l-141 4q21 -32 33 -91t12 -110v-45q0 -149 -86 -240t-252 -91q-129 0 -190 30q-58 -40 -58 -102v-23q0 -45 24 -64.5t87 -23.5l325 -24q91 -8 144 -63.5t53 -145.5v-74q0 -60 -16.5 -101.5 t-58.5 -72.5t-118 -46t-190 -15q-151 0 -299 41q-31 5 -31 38l2 43q1 20 11 27t30 2q157 -47 291 -47q110 0 167.5 16t76 46t18.5 87v31q0 65 -30.5 94t-106.5 35l-305 21q-184 11 -184 172v39q0 95 92 159q-70 73 -70 258v46q0 147 82.5 233t255.5 86zM471 924 q-219 0 -219 -215v-68q0 -129 42.5 -174t164.5 -45q115 0 172 56.5t57 162.5v61q0 116 -31 195q-75 27 -186 27z" />
<glyph unicode="h" horiz-adv-x="995" d="M197 1399h49q35 0 35 -35v-539q126 199 299 199q132 0 197 -84t65 -260v-645q0 -35 -35 -35h-49q-16 0 -25.5 9t-9.5 26v629q0 135 -41 192t-123 57q-76 0 -150.5 -58t-127.5 -157v-663q0 -35 -35 -35h-49q-16 0 -25.5 9t-9.5 26v1329q0 17 9.5 26t25.5 9z" />
<glyph unicode="i" horiz-adv-x="444" d="M197 999h49q35 0 35 -34v-930q0 -35 -35 -35h-49q-16 0 -25.5 9t-9.5 26v930q0 34 35 34zM221 1358q41 0 63.5 -19t22.5 -53v-45q0 -34 -22.5 -52t-63.5 -18q-39 0 -60.5 18.5t-21.5 51.5v45q0 34 22 53t60 19z" />
<glyph unicode="j" horiz-adv-x="444" d="M197 999h49q35 0 35 -34v-1104q0 -135 -59 -199.5t-191 -64.5q-55 0 -88 8q-31 6 -31 37v32q0 19 10 28.5t27 6.5q44 -8 86 -8q127 0 127 145v1119q0 34 35 34zM221 1358q41 0 63.5 -19t22.5 -53v-45q0 -34 -22.5 -52t-63.5 -18q-39 0 -60.5 18.5t-21.5 51.5v45 q0 34 22 53t60 19z" />
<glyph unicode="k" horiz-adv-x="847" d="M197 1399h49q35 0 35 -35v-799l366 414q14 20 41 20h57q23 0 29.5 -13t-8.5 -30l-360 -397l391 -516q12 -19 6.5 -31t-27.5 -12h-69q-26 0 -43 23l-383 516v-504q0 -35 -35 -35h-49q-16 0 -25.5 9t-9.5 26v1329q0 17 9.5 26t25.5 9z" />
<glyph unicode="l" horiz-adv-x="444" d="M197 1399h49q35 0 35 -35v-1329q0 -35 -35 -35h-49q-16 0 -25.5 9t-9.5 26v1329q0 17 9.5 26t25.5 9z" />
<glyph unicode="m" horiz-adv-x="1550" d="M1130 1024q259 0 259 -344v-645q0 -35 -37 -35h-47q-35 0 -35 35v629q0 136 -40 192.5t-122 56.5q-73 0 -147 -58t-127 -157v-663q0 -35 -35 -35h-47q-37 0 -37 35v629q0 136 -39.5 192.5t-120.5 56.5q-73 0 -147 -58t-127 -157v-663q0 -35 -35 -35h-49q-16 0 -25.5 9 t-9.5 26v930q0 34 35 34h41q34 0 34 -34v-152q62 103 139.5 157t163.5 54q204 0 246 -217q126 217 309 217z" />
<glyph unicode="n" horiz-adv-x="1005" d="M580 1024q132 0 197 -84t65 -260v-645q0 -35 -35 -35h-49q-16 0 -25.5 9t-9.5 26v629q0 135 -40.5 192t-123.5 57q-76 0 -150.5 -58t-127.5 -157v-663q0 -35 -35 -35h-49q-16 0 -25.5 9t-9.5 26v930q0 34 35 34h41q34 0 34 -34v-152q126 211 308 211z" />
<glyph unicode="o" horiz-adv-x="976" d="M487 1024q349 0 349 -373v-303q0 -181 -87 -277t-262 -96q-346 0 -346 373v303q0 373 346 373zM487 922q-111 0 -169 -65t-58 -191v-332q0 -126 59 -191t168 -65q110 0 169 65t59 191v334q0 126 -58.5 190t-169.5 64z" />
<glyph unicode="p" horiz-adv-x="980" d="M578 1024q262 0 262 -348v-359q0 -167 -75 -254.5t-212 -87.5q-62 0 -137 27.5t-135 69.5v-416q0 -35 -35 -35h-49q-16 0 -25.5 9t-9.5 26v1309q0 34 35 34h39q34 0 34 -34v-150q59 96 139 152.5t169 56.5zM555 915q-73 0 -147 -57.5t-127 -148.5v-529q54 -43 123 -70.5 t122 -27.5q99 0 147 60.5t48 191.5v323q0 137 -42.5 197.5t-123.5 60.5z" />
<glyph unicode="q" horiz-adv-x="985" d="M428 1024q138 0 283 -131v72q0 34 34 34h43q35 0 35 -34v-1309q0 -35 -35 -35h-51q-16 0 -25.5 9t-9.5 26v541q-60 -103 -139 -162.5t-164 -59.5q-125 0 -191.5 84t-66.5 254v369q0 163 74.5 252.5t212.5 89.5zM451 915q-91 0 -141 -62t-50 -187v-334q0 -248 168 -248 q74 0 146.5 67.5t127.5 172.5v464q-47 53 -117 90t-134 37z" />
<glyph unicode="r" horiz-adv-x="679" d="M578 1024q43 0 43 -39v-65q0 -18 -7.5 -25.5t-23.5 -5.5q-36 4 -47 4q-76 0 -144 -51.5t-118 -145.5v-661q0 -35 -35 -35h-49q-16 0 -25.5 9t-9.5 26v930q0 34 35 34h41q34 0 34 -34v-150q62 104 136 156.5t170 52.5z" />
<glyph unicode="s" horiz-adv-x="782" d="M416 1024q67 0 170 -23q30 -6 30 -36v-35q0 -19 -10.5 -27.5t-27.5 -3.5q-89 21 -158 21q-110 0 -158.5 -36.5t-48.5 -113.5v-18q0 -50 26.5 -82.5t90.5 -61.5l202 -88q168 -75 168 -233v-49q-2 -132 -79 -197.5t-244 -65.5q-109 0 -225 35q-32 10 -29 39l2 41 q3 41 41 29q122 -37 209 -37q115 0 161 36t46 115v25q0 63 -24.5 99.5t-84.5 62.5l-209 90q-168 75 -168 221v29q0 131 77.5 197.5t242.5 66.5z" />
<glyph unicode="t" horiz-adv-x="692" d="M244 1266h37q30 0 30 -35v-232h252q35 0 35 -34v-29q0 -17 -10 -27t-25 -10h-252v-633q0 -105 37 -145.5t117 -40.5q63 0 133 18q36 6 39 -30l2 -35q0 -30 -31 -39q-74 -19 -143 -19q-147 0 -209.5 68.5t-62.5 237.5v618h-109q-15 0 -25 10t-10 27v29q0 34 35 34h109 l20 234q3 33 31 33z" />
<glyph unicode="u" horiz-adv-x="993" d="M745 999h50q34 0 34 -34v-930q0 -35 -34 -35h-39q-37 0 -37 35v149q-125 -209 -301 -209q-256 0 -256 344v646q0 34 35 34h49q35 0 35 -34v-625q0 -136 39.5 -195t119.5 -59q72 0 145.5 57.5t125.5 155.5v666q0 34 34 34z" />
<glyph unicode="v" horiz-adv-x="874" d="M750 999h53q20 0 28 -10.5t0 -27.5l-309 -932q-10 -29 -39 -29h-92q-33 0 -39 29l-309 932q-6 17 1.5 27.5t27.5 10.5h53q33 0 39 -28l274 -873l273 873q9 28 39 28z" />
<glyph unicode="w" horiz-adv-x="1374" d="M1229 999h55q37 0 31 -38l-221 -930q-6 -31 -37 -31h-90q-33 0 -39 31l-242 858l-242 -858q-9 -31 -38 -31h-91q-33 0 -39 31l-217 930q-9 38 31 38h55q31 0 37 -30l185 -856l235 856q6 30 39 30h92q31 0 37 -30l236 -854l184 854q6 30 39 30z" />
<glyph unicode="x" horiz-adv-x="827" d="M678 999h57q20 0 26.5 -12t-3.5 -31l-273 -436l297 -477q11 -19 4.5 -31t-26.5 -12h-64q-28 0 -41 23l-243 409l-240 -409q-16 -23 -41 -23h-63q-20 0 -26.5 12t3.5 31l293 473l-270 440q-11 19 -4.5 31t26.5 12h62q27 0 43 -22l221 -375l219 375q16 22 43 22z" />
<glyph unicode="y" horiz-adv-x="882" d="M760 999h51q19 0 27 -10.5t2 -27.5l-455 -1313q-10 -27 -41 -27h-45q-42 0 -29 41l119 338h-18q-31 0 -41 29l-289 932q-10 38 31 38h55q33 0 39 -30l260 -885l295 887q6 28 39 28z" />
<glyph unicode="z" horiz-adv-x="823" d="M131 999h561q35 0 35 -34v-31q0 -25 -16 -49l-482 -779h463q35 0 35 -34v-37q0 -35 -35 -35h-571q-35 0 -35 35v28q0 29 14 48l486 784h-455q-35 0 -35 35v35q0 34 35 34z" />
<glyph unicode="{" horiz-adv-x="503" d="M506 1485q37 0 37 -35v-29q0 -34 -35 -37q-119 -6 -155 -48t-36 -171v-260q0 -104 -27.5 -158.5t-90.5 -76.5q63 -20 90.5 -75.5t27.5 -160.5v-258q0 -90 16 -134t55 -63t120 -22q35 -3 35 -37v-29q0 -34 -37 -34q-94 2 -150 17t-93 55.5t-50.5 105.5t-13.5 172v227 q0 97 -29.5 142t-99.5 45h-21q-35 0 -35 34v31q0 17 9.5 26t25.5 9h21q70 1 99.5 45t29.5 139v230q0 108 14 173.5t51 105.5t93 54.5t149 16.5z" />
<glyph unicode="|" horiz-adv-x="434" d="M193 1509h49q34 0 34 -34v-1608q0 -35 -34 -35h-49q-17 0 -26 9.5t-9 25.5v1608q0 34 35 34z" />
<glyph unicode="}" horiz-adv-x="503" d="M-39 1421v29q0 35 37 35q94 -2 150 -16.5t93 -54.5t50.5 -105t13.5 -174v-230q0 -96 30 -140t99 -44h21q34 0 34 -35v-31q0 -34 -34 -34h-21q-69 0 -99 -45t-30 -142v-227q0 -107 -13.5 -172t-50 -105.5t-93 -55.5t-150.5 -17q-37 0 -37 34v29q0 34 35 37q118 4 154 46 t36 173v258q0 104 28.5 160t90.5 76q-63 22 -91 76.5t-28 158.5v260q0 129 -35.5 171t-154.5 48q-35 3 -35 37z" />
<glyph unicode="~" horiz-adv-x="808" d="M256 705q72 0 154.5 -32t146.5 -32q71 0 156 35q18 6 28.5 -1.5t10.5 -27.5v-35q0 -28 -25 -39q-79 -41 -174 -41q-71 0 -152.5 32t-148.5 32q-58 0 -156 -35q-17 -7 -29 0.5t-12 26.5v35q0 26 27 41q91 41 174 41z" />
<glyph unicode="&#xa1;" horiz-adv-x="409" d="M236 -379h-64q-16 0 -25.5 9t-9.5 26l10 944q0 35 37 35h41q35 0 35 -35l12 -944q0 -35 -36 -35zM203 885q-84 0 -84 73v41q0 34 22 52t62 18q86 0 86 -70v-41q0 -73 -86 -73z" />
<glyph unicode="&#xa2;" horiz-adv-x="798" d="M438 1180h37q35 0 35 -35v-123q90 -4 137 -14q34 -10 31 -39v-37q-3 -34 -39 -31q-93 17 -164 17q-229 0 -229 -250v-332q0 -254 235 -254q73 0 158 16q36 6 39 -30l2 -37q3 -32 -33 -39q-96 -15 -137 -15v-122q0 -35 -35 -35h-37q-35 0 -35 35v127q-141 19 -208.5 108 t-67.5 252v315q0 328 276 361v127q0 35 35 35z" />
<glyph unicode="&#xa3;" horiz-adv-x="802" d="M496 1255q81 0 163 -20q31 -6 31 -37v-29q0 -39 -41 -30q-65 14 -133 14q-119 0 -168 -48t-49 -161v-196h197q34 0 34 -35v-33q0 -35 -34 -35h-197v-297q0 -163 -82 -242h537q34 0 34 -34v-37q0 -35 -34 -35h-623q-16 0 -25.5 9t-9.5 26v26q0 22 17 45q65 92 65 216v323 h-108q-16 0 -25.5 9t-9.5 26v33q0 17 9.5 26t25.5 9h108v188q0 164 78 241.5t240 77.5z" />
<glyph unicode="&#xa4;" horiz-adv-x="972" d="M711 930l96 94q24 27 51 0l27 -27q25 -25 0 -51l-105 -102q35 -75 35 -176v-54q0 -111 -45 -196l109 -107q24 -27 0 -51l-27 -27q-24 -24 -51 0l-103 105q-80 -68 -219 -68q-135 0 -213 66l-100 -103q-26 -25 -51 0l-27 29q-27 24 0 51l107 103q-48 85 -48 198v54 q0 104 37 182l-98 98q-26 26 0 51l27 27q25 26 51 0l90 -94q83 80 229 80t228 -82zM483 907q-115 0 -168 -65t-53 -174v-54q0 -111 52 -176t167 -65q114 0 166.5 65.5t52.5 175.5v54q0 239 -217 239z" />
<glyph unicode="&#xa5;" horiz-adv-x="860" d="M756 1231h59q20 0 27.5 -11t-0.5 -30l-318 -674h138q34 0 34 -35v-28q0 -35 -34 -35h-173v-115h173q34 0 34 -35v-30q0 -35 -34 -35h-173v-168q0 -35 -34 -35h-49q-35 0 -35 35v168h-172q-35 0 -35 35v30q0 35 35 35h172v115h-172q-35 0 -35 35v28q0 35 35 35h135 l-316 674q-16 41 27 41h59q32 0 41 -27l285 -655l285 655q9 27 41 27z" />
<glyph unicode="&#xa6;" horiz-adv-x="434" d="M193 1509h49q34 0 34 -34v-641q0 -35 -34 -35h-49q-35 0 -35 35v641q0 34 35 34zM193 543h49q34 0 34 -35v-641q0 -35 -34 -35h-49q-17 0 -26 9.5t-9 25.5v641q0 35 35 35z" />
<glyph unicode="&#xa7;" horiz-adv-x="915" d="M479 1423q68 0 176 -18q31 -6 31 -39l-2 -29q0 -38 -39 -32q-85 16 -158 16q-113 0 -160.5 -39.5t-47.5 -120.5v-61q0 -54 25.5 -85t101.5 -61l219 -86q206 -80 206 -235v-68q0 -88 -59.5 -153.5t-169.5 -85.5q168 -57 168 -213v-80q0 -141 -78.5 -209t-265.5 -68 q-100 0 -211 27q-31 7 -31 39l2 39q0 37 39 30q101 -24 201 -24q125 0 174 36.5t49 123.5v63q0 63 -30.5 99.5t-96.5 58.5l-219 78q-114 40 -160.5 92t-46.5 139v70q0 104 63.5 169t176.5 74q-95 31 -136.5 87t-41.5 137v61q0 133 75 200.5t246 67.5zM543 782l-68 23 q-136 -1 -197 -47t-61 -131v-72q0 -47 41 -79.5t127 -61.5l88 -31q110 6 174 57t64 123v51q0 60 -39 98.5t-129 69.5z" />
<glyph unicode="&#xa8;" horiz-adv-x="567" d="M137 1348q36 0 57 -17t21 -47v-45q0 -28 -21.5 -44.5t-56.5 -16.5t-55.5 16.5t-20.5 44.5v45q0 30 20 47t56 17zM428 1348q37 0 57.5 -16.5t20.5 -47.5v-45q0 -28 -21 -44.5t-57 -16.5q-34 0 -55 16.5t-21 44.5v45q0 30 21 47t55 17z" />
<glyph unicode="&#xa9;" horiz-adv-x="1323" d="M662 1262q135 0 233.5 -32t156.5 -91.5t85.5 -136.5t27.5 -175v-424q0 -98 -27.5 -175t-85.5 -136t-156.5 -91t-233.5 -32t-234 32t-157 91t-85.5 136t-27.5 175v424q0 98 27.5 175t85.5 136.5t157 91.5t234 32zM662 1165q-197 0 -298.5 -83.5t-101.5 -231.5v-469 q0 -148 101.5 -231.5t298.5 -83.5t299 83.5t102 231.5v471q0 148 -102 230.5t-299 82.5zM690 983q56 0 127 -12q31 -6 31 -39v-25q-3 -39 -39 -33q-67 11 -119 11q-153 0 -153 -211v-109q0 -107 38 -155t119 -48q36 0 115 11q36 6 39 -31v-27q3 -32 -31 -39 q-61 -12 -127 -12q-136 0 -203 74.5t-67 230.5v99q0 315 270 315z" />
<glyph unicode="&#xaa;" horiz-adv-x="950" d="M475 1366q172 0 248 -73t76 -242v-553q0 -17 -9.5 -26t-25.5 -9h-43q-35 0 -35 35v153q-132 -213 -297 -213q-119 0 -187.5 73t-68.5 204v49q0 116 82 191t223 75q90 0 242 -26v59q0 108 -48 154.5t-157 46.5q-95 0 -225 -23q-39 -3 -39 33v33q0 30 39 36q153 23 225 23z M465 932q-102 0 -156.5 -48.5t-54.5 -135.5v-23q0 -88 42.5 -133t119.5 -45q67 0 139.5 54.5t124.5 148.5v161q-119 21 -215 21zM168 102h596q35 0 35 -34v-33q0 -17 -9.5 -26t-25.5 -9h-596q-35 0 -35 35v33q0 34 35 34z" />
<glyph unicode="&#xab;" horiz-adv-x="907" d="M375 897h57q17 0 23.5 -10t-2.5 -25l-170 -313l170 -313q9 -15 2.5 -25t-23.5 -10h-59q-21 0 -35 20l-178 307q-12 20 0 41l180 308q11 20 35 20zM664 897h57q17 0 23 -10t-3 -25l-172 -313l172 -313q8 -15 2 -25t-24 -10h-57q-24 0 -35 20l-181 307q-12 20 0 41l183 308 q11 20 35 20z" />
<glyph unicode="&#xac;" horiz-adv-x="808" d="M82 672h643q35 0 35 -37v-356q0 -35 -35 -35h-37q-35 0 -35 35v292h-571q-35 0 -35 35v31q0 35 35 35z" />
<glyph unicode="&#xad;" horiz-adv-x="716" d="M182 653h353q34 0 34 -35v-26q0 -35 -34 -35h-353q-17 0 -26 9.5t-9 25.5v26q0 35 35 35z" />
<glyph unicode="&#xae;" horiz-adv-x="1089" d="M545 1421q195 0 285 -92t90 -270v-70q0 -362 -375 -362q-196 0 -286.5 92.5t-90.5 269.5v70q0 178 90 270t287 92zM545 1350q-153 0 -225 -68t-72 -207v-102q0 -138 72.5 -205.5t224.5 -67.5t224.5 67.5t72.5 205.5v104q0 140 -72 206.5t-225 66.5zM543 1257 q174 0 174 -135v-22q0 -36 -24 -69t-64 -50l86 -152q7 -12 1.5 -21t-18.5 -9h-36q-10 0 -17 10l-86 160h-84v-152q0 -18 -18 -18h-35q-19 0 -19 18v410q0 24 27 24q67 6 113 6zM549 1192q-42 0 -74 -4v-154q29 -2 76 -2q92 0 92 70v18q0 72 -94 72z" />
<glyph unicode="&#xaf;" horiz-adv-x="534" d="M90 1337h354q29 0 29 -28v-52q0 -30 -29 -30h-354q-29 0 -29 30v52q0 28 29 28z" />
<glyph unicode="&#xb0;" horiz-adv-x="808" d="M406 1423q157 0 237 -87t80 -253v-61q0 -166 -80 -253t-237 -87t-238.5 87.5t-81.5 252.5v61q0 165 81.5 252.5t238.5 87.5zM406 1323q-209 0 -209 -240v-61q0 -240 209 -240q206 0 206 240v61q0 240 -206 240z" />
<glyph unicode="&#xb1;" horiz-adv-x="808" d="M385 999h37q35 0 35 -34v-291h262q35 0 35 -37v-31q0 -35 -35 -35h-262v-292q0 -35 -35 -35h-37q-35 0 -35 35v292h-262q-35 0 -35 35v31q0 37 35 37h262v291q0 34 35 34zM86 102h633q35 0 35 -36v-31q0 -35 -35 -35h-633q-16 0 -25.5 9t-9.5 26v31q0 17 10 26.5t25 9.5z " />
<glyph unicode="&#xb2;" horiz-adv-x="819" d="M377 1556q274 0 274 -217v-30q0 -71 -26.5 -131t-98.5 -142l-229 -264h334q28 0 28 -29v-36q0 -29 -28 -29h-441q-30 0 -30 29v32q0 21 14 41l297 350q40 50 56 89t16 88v26q0 68 -39.5 99.5t-126.5 31.5q-60 0 -158 -24q-33 -9 -33 24v37q0 27 31 33q90 22 160 22z" />
<glyph unicode="&#xb3;" horiz-adv-x="819" d="M369 1556q128 0 193 -57.5t65 -163.5v-14q0 -139 -119 -193q66 -25 102.5 -78t36.5 -124v-15q0 -118 -70 -183.5t-204 -65.5q-66 0 -176 18q-27 3 -27 31v32q0 30 31 27q92 -18 174 -18q160 0 160 149v29q0 72 -41.5 110.5t-120.5 38.5h-123q-29 0 -29 29v27q0 30 29 30 h123q145 0 145 146v30q0 127 -149 127q-83 0 -168 -20q-14 -3 -22.5 4.5t-8.5 24.5v30q0 25 33 31q85 18 166 18z" />
<glyph unicode="&#xb4;" horiz-adv-x="407" d="M236 1389h67q17 0 22.5 -10.5t-3.5 -24.5l-146 -217q-13 -19 -35 -19h-39q-18 0 -23.5 10t3.5 25l119 215q15 21 35 21z" />
<glyph unicode="&#xb5;" horiz-adv-x="993" d="M745 999h50q34 0 34 -34v-930q0 -35 -34 -35h-39q-37 0 -37 35v149q-61 -102 -137 -155.5t-158 -53.5q-46 0 -85.5 19t-62.5 51v-389q0 -35 -34 -35h-45q-16 0 -25.5 9t-9.5 26v1309q0 34 35 34h49q35 0 35 -34v-625q0 -136 40 -195t119 -59q72 0 145.5 57.5t125.5 155.5 v666q0 34 34 34z" />
<glyph unicode="&#xb6;" horiz-adv-x="1118" d="M299 1399h199q37 0 37 -37v-1706q0 -35 -35 -35h-51q-16 0 -25.5 9t-9.5 26v981h-117q-242 0 -242 248v262q0 252 244 252zM866 1399h49q35 0 35 -35v-1708q0 -35 -35 -35h-49q-37 0 -37 35v1708q0 35 37 35zM414 1294h-101q-79 0 -111 -38t-32 -138v-192 q0 -102 30.5 -142.5t112.5 -40.5h101v551z" />
<glyph unicode="&#xb7;" horiz-adv-x="423" d="M211 573q86 0 86 -73v-41q0 -72 -86 -72t-86 72v41q0 73 86 73z" />
<glyph unicode="&#xb8;" horiz-adv-x="405" d="M162 33h31q15 0 21.5 -9t2.5 -24l-27 -86h27q58 0 92.5 -37t34.5 -98v-27q0 -155 -166 -155q-47 0 -88 8q-29 9 -29 33v22q0 33 29 27q56 -9 74 -9q43 0 62.5 18.5t19.5 59.5v19q0 75 -84 75h-39q-47 0 -27 54l33 104q6 25 33 25z" />
<glyph unicode="&#xb9;" horiz-adv-x="819" d="M418 1540h47q29 0 29 -29v-739h147q14 0 22.5 -8t8.5 -21v-36q0 -13 -8.5 -21t-22.5 -8h-430q-31 0 -31 29v36q0 29 31 29h170v658h-2l-182 -76q-14 -6 -24 -1t-13 19l-10 41q-7 28 18 37l213 84q18 6 37 6z" />
<glyph unicode="&#xba;" horiz-adv-x="999" d="M500 1366q346 0 346 -373v-180q0 -185 -87.5 -279t-258.5 -94q-346 0 -346 373v180q0 373 346 373zM500 1264q-112 0 -170 -65t-58 -191v-209q0 -126 59 -191t169 -65q109 0 168 65.5t59 190.5v211q0 126 -58.5 190t-168.5 64zM193 102h612q35 0 35 -34v-33 q0 -35 -35 -35h-612q-16 0 -25.5 9t-9.5 26v33q0 34 35 34z" />
<glyph unicode="&#xbb;" horiz-adv-x="907" d="M188 897h58q24 0 35 -20l180 -308q12 -21 0 -41l-180 -307q-11 -20 -35 -20h-58q-17 0 -23 10t3 25l170 313l-172 313q-8 15 -2 25t24 10zM475 897h57q24 0 35 -20l183 -308q12 -21 0 -41l-181 -307q-11 -20 -34 -20h-58q-18 0 -24 10t2 25l172 313l-172 313q-9 15 -3 25 t23 10z" />
<glyph unicode="&#xbc;" horiz-adv-x="2048" d="M1520 862h43q15 0 21.5 -10t0.5 -23l-180 -553h291v281q0 29 30 29h50q28 0 28 -29v-281h86q29 0 29 -28v-35q0 -29 -29 -29h-86v-155q0 -29 -28 -29h-52q-30 0 -30 29v155h-353q-24 0 -34 23l-11 22q-10 20 0 43l191 566q9 24 33 24zM418 1233h47q29 0 29 -29v-739h147 q14 0 22.5 -8t8.5 -21v-37q0 -28 -31 -28h-430q-31 0 -31 28v37q0 29 31 29h170v657h-2l-182 -75q-14 -6 -24 -1t-13 19l-10 41q-7 28 18 37l213 84q18 6 37 6zM1272 1231h39q22 0 28.5 -11t-2.5 -30l-592 -1165q-13 -25 -38 -25h-41q-20 0 -27 11t2 30l590 1165 q13 25 41 25z" />
<glyph unicode="&#xbd;" horiz-adv-x="2048" d="M463 1233h47q29 0 29 -29v-739h147q14 0 22.5 -8t8.5 -21v-37q0 -28 -31 -28h-430q-31 0 -31 28v37q0 29 31 29h170v657h-2l-182 -75q-14 -6 -24 -1t-13 19l-10 41q-7 28 18 37l213 84q18 6 37 6zM1321 1231h39q22 0 28.5 -11t-2.5 -30l-591 -1165q-13 -25 -39 -25h-41 q-20 0 -27 11t2 30l590 1165q12 25 41 25zM1579 879q274 0 274 -217v-31q0 -71 -26 -131.5t-98 -141.5l-230 -264h334q29 0 29 -28v-37q0 -29 -29 -29h-440q-14 0 -22.5 8t-8.5 21v32q0 21 14 41l297 351q40 50 56 88.5t16 87.5v26q0 68 -39.5 99.5t-126.5 31.5 q-60 0 -158 -24q-32 -8 -32 24v37q0 27 30 33q94 23 160 23z" />
<glyph unicode="&#xbe;" horiz-adv-x="2048" d="M1503 862h43q15 0 22 -10t1 -23l-180 -553h290v281q0 13 8.5 21t22.5 8h49q29 0 29 -29v-281h86q29 0 29 -28v-35q0 -29 -29 -29h-86v-155q0 -29 -29 -29h-51q-14 0 -22.5 8t-8.5 21v155h-352q-25 0 -35 23l-10 22q-10 20 0 43l190 566q9 24 33 24zM340 1249 q128 0 193 -57.5t65 -163.5v-14q0 -139 -119 -193q66 -25 102.5 -78.5t36.5 -124.5v-14q0 -118 -70 -184t-204 -66q-60 0 -176 19q-27 3 -27 30v33q0 30 31 27q97 -19 174 -19q160 0 160 150v29q0 72 -41.5 110.5t-120.5 38.5h-123q-28 0 -28 29v26q0 31 28 31h123 q145 0 145 146v30q0 127 -149 127q-83 0 -168 -20q-31 -7 -31 28v31q0 25 33 31q86 18 166 18zM1239 1231h39q22 0 29 -11t-2 -30l-592 -1165q-13 -25 -39 -25h-41q-20 0 -27 11t2 30l590 1165q12 25 41 25z" />
<glyph unicode="&#xbf;" horiz-adv-x="808" d="M477 -403q-186 0 -270 71t-84 211v51q0 88 36 161t117 161l93 106q32 35 43.5 67t11.5 93v57q0 17 9.5 26t25.5 9h45q35 0 35 -35v-30q0 -98 -15.5 -142t-70.5 -108l-119 -139q-56 -66 -74 -112t-18 -118v-45q0 -97 55 -141.5t190 -44.5q72 0 218 31q38 9 38 -31v-33 q0 -31 -38 -39q-127 -26 -228 -26zM477 860q-86 0 -86 74v41q0 69 86 69q84 0 84 -69v-41q0 -74 -84 -74z" />
<glyph unicode="&#xc0;" horiz-adv-x="1064" d="M477 1341h90q33 0 39 -28l414 -1274q6 -18 -1.5 -28.5t-27.5 -10.5h-59q-29 0 -39 29l-96 307h-547l-92 -307q-10 -29 -39 -29h-53q-20 0 -27.5 10.5t-1.5 28.5l401 1274q6 28 39 28zM520 1231l-239 -787h485zM367 1694h67q24 0 35 -23l104 -186q8 -15 2.5 -25t-22.5 -10 h-43q-22 0 -35 16l-127 191q-9 15 -4 26t23 11z" />
<glyph unicode="&#xc1;" horiz-adv-x="1064" d="M477 1341h90q33 0 39 -28l414 -1274q6 -18 -1.5 -28.5t-27.5 -10.5h-59q-29 0 -39 29l-96 307h-547l-92 -307q-10 -29 -39 -29h-53q-20 0 -27.5 10.5t-1.5 28.5l401 1274q6 28 39 28zM520 1231l-239 -787h485zM612 1694h68q18 0 23 -11t-5 -26l-127 -191q-13 -16 -34 -16 h-41q-18 0 -24.5 10t1.5 25l105 186q12 23 34 23z" />
<glyph unicode="&#xc2;" horiz-adv-x="1064" d="M477 1341h90q33 0 39 -28l414 -1274q6 -18 -1.5 -28.5t-27.5 -10.5h-59q-29 0 -39 29l-96 307h-547l-92 -307q-10 -29 -39 -29h-53q-20 0 -27.5 10.5t-1.5 28.5l401 1274q6 28 39 28zM520 1231l-239 -787h485zM287 1577l221 102q18 9 37 0l221 -102q22 -7 22 -35v-39 q0 -15 -8.5 -21.5t-23.5 -0.5l-230 90l-229 -90q-13 -6 -23 0.5t-10 21.5v39q0 26 23 35z" />
<glyph unicode="&#xc3;" horiz-adv-x="1064" d="M477 1341h90q33 0 39 -28l414 -1274q6 -18 -1.5 -28.5t-27.5 -10.5h-59q-29 0 -39 29l-96 307h-547l-92 -307q-10 -29 -39 -29h-53q-20 0 -27.5 10.5t-1.5 28.5l401 1274q6 28 39 28zM520 1231l-239 -787h485zM768 1612q14 6 23.5 0t9.5 -23v-41q0 -24 -19 -35 q-73 -43 -143 -43q-39 0 -115 26t-112 26q-50 0 -123 -31q-13 -7 -23 -1t-10 23v41q0 23 18 35q64 43 142 43q53 0 126.5 -25.5t100.5 -25.5q52 0 125 31z" />
<glyph unicode="&#xc4;" horiz-adv-x="1064" d="M477 1341h90q33 0 39 -28l414 -1274q6 -18 -1.5 -28.5t-27.5 -10.5h-59q-29 0 -39 29l-96 307h-547l-92 -307q-10 -29 -39 -29h-53q-20 0 -27.5 10.5t-1.5 28.5l401 1274q6 28 39 28zM520 1231l-239 -787h485zM381 1651q37 0 57.5 -16.5t20.5 -47.5v-45q0 -29 -20.5 -46 t-57.5 -17q-35 0 -55.5 17t-20.5 46v45q0 30 20 47t56 17zM672 1651q37 0 58.5 -17t21.5 -47v-45q0 -29 -21.5 -46t-58.5 -17q-34 0 -55 17t-21 46v45q0 30 21 47t55 17z" />
<glyph unicode="&#xc5;" horiz-adv-x="1064" d="M524 1636q99 0 155 -48t56 -140q0 -130 -112 -170l401 -1239q10 -39 -29 -39h-59q-29 0 -39 29l-96 307h-547l-92 -307q-10 -29 -39 -29h-53q-20 0 -27.5 10.5t-1.5 28.5l389 1239q-115 36 -115 170q0 92 55 140t154 48zM524 1556q-114 0 -114 -108q0 -48 27.5 -77.5 t86.5 -29.5q60 0 88.5 29.5t28.5 77.5q0 49 -28.5 78.5t-88.5 29.5zM524 1235l-239 -791h485z" />
<glyph unicode="&#xc6;" horiz-adv-x="1595" d="M731 1341h682q35 0 35 -34v-39q0 -35 -35 -35h-514v-498h473q35 0 35 -35v-36q0 -35 -35 -35h-473v-520h514q35 0 35 -35v-39q0 -35 -35 -35h-598q-35 0 -35 35v301h-461l-155 -309q-12 -27 -41 -27h-53q-21 0 -28.5 11t1.5 30l647 1274q12 26 41 26zM780 1257l-409 -813 h409v813z" />
<glyph unicode="&#xc7;" horiz-adv-x="983" d="M580 1366q98 0 243 -29q31 -6 31 -39l-2 -36q0 -39 -39 -33q-140 31 -235 31q-162 0 -232 -68t-70 -229v-584q0 -154 72 -225t234 -68q74 0 233 29q36 6 39 -31l2 -41q0 -30 -33 -37q-151 -31 -243 -31l-19 -61h25q58 0 92.5 -37t34.5 -98v-27q0 -155 -166 -155 q-47 0 -86 8q-31 8 -31 33v22q0 33 29 27q56 -9 73 -9q43 0 62.5 18.5t19.5 59.5v19q0 75 -84 75h-38q-47 0 -27 54l24 76q-177 18 -254 117t-77 290v565q0 217 97 315.5t325 98.5z" />
<glyph unicode="&#xc8;" horiz-adv-x="983" d="M203 1341h598q35 0 35 -34v-39q0 -35 -35 -35h-514v-498h473q35 0 35 -35v-36q0 -35 -35 -35h-473v-520h514q35 0 35 -35v-39q0 -35 -35 -35h-598q-35 0 -35 35v1272q0 34 35 34zM354 1694h68q24 0 35 -23l104 -186q8 -15 2.5 -25t-22.5 -10h-43q-22 0 -35 16l-127 191 q-10 15 -5 26t23 11z" />
<glyph unicode="&#xc9;" horiz-adv-x="983" d="M203 1341h598q35 0 35 -34v-39q0 -35 -35 -35h-514v-498h473q35 0 35 -35v-36q0 -35 -35 -35h-473v-520h514q35 0 35 -35v-39q0 -35 -35 -35h-598q-35 0 -35 35v1272q0 34 35 34zM600 1694h68q18 0 23 -11t-5 -26l-127 -191q-13 -16 -35 -16h-41q-18 0 -24 10t2 25 l104 186q11 23 35 23z" />
<glyph unicode="&#xca;" horiz-adv-x="983" d="M203 1341h598q35 0 35 -34v-39q0 -35 -35 -35h-514v-498h473q35 0 35 -35v-36q0 -35 -35 -35h-473v-520h514q35 0 35 -35v-39q0 -35 -35 -35h-598q-35 0 -35 35v1272q0 34 35 34zM274 1577l222 102q18 9 36 0l222 -102q22 -7 22 -35v-39q0 -15 -9 -21.5t-24 -0.5l-229 90 l-229 -90q-14 -6 -23.5 0.5t-9.5 21.5v39q0 27 22 35z" />
<glyph unicode="&#xcb;" horiz-adv-x="983" d="M203 1341h598q35 0 35 -34v-39q0 -35 -35 -35h-514v-498h473q35 0 35 -35v-36q0 -35 -35 -35h-473v-520h514q35 0 35 -35v-39q0 -35 -35 -35h-598q-35 0 -35 35v1272q0 34 35 34zM369 1651q37 0 57 -16.5t20 -47.5v-45q0 -29 -20 -46t-57 -17q-35 0 -55.5 17t-20.5 46v45 q0 30 20 47t56 17zM659 1651q37 0 58.5 -17t21.5 -47v-45q0 -29 -21.5 -46t-58.5 -17q-34 0 -54.5 17t-20.5 46v45q0 30 20.5 47t54.5 17z" />
<glyph unicode="&#xcc;" horiz-adv-x="454" d="M203 1341h49q35 0 35 -34v-1272q0 -35 -35 -35h-49q-35 0 -35 35v1272q0 34 35 34zM68 1694h67q23 0 35 -23l104 -186q8 -15 2.5 -25t-22.5 -10h-43q-22 0 -35 16l-127 191q-9 15 -4 26t23 11z" />
<glyph unicode="&#xcd;" horiz-adv-x="454" d="M203 1341h49q35 0 35 -34v-1272q0 -35 -35 -35h-49q-35 0 -35 35v1272q0 34 35 34zM313 1694h68q18 0 23 -11t-5 -26l-127 -191q-13 -16 -34 -16h-41q-18 0 -24.5 10t1.5 25l105 186q11 23 34 23z" />
<glyph unicode="&#xce;" horiz-adv-x="454" d="M203 1341h49q35 0 35 -34v-1272q0 -35 -35 -35h-49q-35 0 -35 35v1272q0 34 35 34zM-12 1577l221 102q19 9 37 0l221 -102q22 -7 22 -35v-39q0 -15 -8.5 -21.5t-23.5 -0.5l-230 90l-229 -90q-14 -6 -23.5 0.5t-9.5 21.5v39q0 26 23 35z" />
<glyph unicode="&#xcf;" horiz-adv-x="454" d="M203 1341h49q35 0 35 -34v-1272q0 -35 -35 -35h-49q-35 0 -35 35v1272q0 34 35 34zM80 1651q37 0 57.5 -16.5t20.5 -47.5v-45q0 -29 -20.5 -46t-57.5 -17q-35 0 -55.5 17t-20.5 46v45q0 30 20 47t56 17zM371 1651q37 0 58.5 -17t21.5 -47v-45q0 -29 -21.5 -46t-58.5 -17 q-34 0 -55 17t-21 46v45q0 30 21 47t55 17z" />
<glyph unicode="&#xd0;" horiz-adv-x="1173" d="M520 1366q248 0 377 -131.5t129 -390.5v-361q0 -247 -128 -377.5t-378 -130.5q-130 0 -313 11q-33 0 -33 34v633h-123q-33 0 -33 35v33q0 35 33 35h123v567q0 34 23 37q264 6 323 6zM512 1262q-54 0 -219 -5v-501h258q33 0 33 -35v-33q0 -35 -33 -35h-258v-561 q144 -12 227 -12q183 0 285 101t102 290v379q0 412 -395 412z" />
<glyph unicode="&#xd1;" horiz-adv-x="1191" d="M989 0h-115q-28 0 -40 27l-549 1171v-1163q0 -35 -35 -35h-47q-35 0 -35 35v1272q0 34 35 34h123q29 0 41 -26l540 -1165v1157q0 34 35 34h47q35 0 35 -34v-1272q0 -35 -35 -35zM848 1612q14 6 23.5 0t9.5 -23v-41q0 -24 -19 -35q-73 -43 -143 -43q-39 0 -115 26t-112 26 q-50 0 -123 -31q-13 -7 -23 -1t-10 23v41q0 23 18 35q64 43 142 43q53 0 126.5 -25.5t100.5 -25.5q52 0 125 31z" />
<glyph unicode="&#xd2;" horiz-adv-x="1179" d="M590 1366q225 0 328.5 -112.5t103.5 -327.5v-510q0 -218 -105 -329.5t-327 -111.5q-223 0 -327.5 111.5t-104.5 329.5v510q0 215 103 327.5t329 112.5zM590 1260q-314 0 -314 -314v-549q0 -315 314 -315q313 0 313 315v547q0 316 -313 316zM430 1694h68q22 0 34 -23 l105 -186q8 -15 2 -25t-23 -10h-43q-21 0 -34 16l-127 191q-10 15 -5 26t23 11z" />
<glyph unicode="&#xd3;" horiz-adv-x="1179" d="M590 1366q225 0 328.5 -112.5t103.5 -327.5v-510q0 -218 -105 -329.5t-327 -111.5q-223 0 -327.5 111.5t-104.5 329.5v510q0 215 103 327.5t329 112.5zM590 1260q-314 0 -314 -314v-549q0 -315 314 -315q313 0 313 315v547q0 316 -313 316zM674 1694h67q18 0 23 -11 t-4 -26l-127 -191q-13 -16 -35 -16h-41q-18 0 -24 10t2 25l104 186q11 23 35 23z" />
<glyph unicode="&#xd4;" horiz-adv-x="1179" d="M590 1366q225 0 328.5 -112.5t103.5 -327.5v-510q0 -218 -105 -329.5t-327 -111.5q-223 0 -327.5 111.5t-104.5 329.5v510q0 215 103 327.5t329 112.5zM590 1260q-314 0 -314 -314v-549q0 -315 314 -315q313 0 313 315v547q0 316 -313 316zM350 1577l221 102q19 9 37 0 l221 -102q23 -8 23 -35v-39q0 -15 -9 -21.5t-24 -0.5l-229 90l-230 -90q-13 -6 -22.5 0.5t-9.5 21.5v39q0 27 22 35z" />
<glyph unicode="&#xd5;" horiz-adv-x="1179" d="M590 1366q225 0 328.5 -112.5t103.5 -327.5v-510q0 -218 -105 -329.5t-327 -111.5q-223 0 -327.5 111.5t-104.5 329.5v510q0 215 103 327.5t329 112.5zM590 1260q-314 0 -314 -314v-549q0 -315 314 -315q313 0 313 315v547q0 316 -313 316zM829 1612q13 6 23 0t10 -23 v-41q0 -25 -18 -35q-73 -43 -144 -43q-38 0 -115 26t-112 26q-50 0 -123 -31q-14 -7 -23.5 -1t-9.5 23v41q0 22 19 35q64 43 141 43q53 0 127 -25.5t101 -25.5q51 0 124 31z" />
<glyph unicode="&#xd6;" horiz-adv-x="1179" d="M590 1366q225 0 328.5 -112.5t103.5 -327.5v-510q0 -218 -105 -329.5t-327 -111.5q-223 0 -327.5 111.5t-104.5 329.5v510q0 215 103 327.5t329 112.5zM590 1260q-314 0 -314 -314v-549q0 -315 314 -315q313 0 313 315v547q0 316 -313 316zM442 1651q37 0 57.5 -16.5 t20.5 -47.5v-45q0 -29 -20.5 -46t-57.5 -17q-35 0 -55 17t-20 46v45q0 31 20 47.5t55 16.5zM733 1651q37 0 58.5 -17t21.5 -47v-45q0 -29 -21.5 -46t-58.5 -17q-34 0 -55 17t-21 46v45q0 30 21 47t55 17z" />
<glyph unicode="&#xd7;" horiz-adv-x="808" d="M403 694l207 207q24 25 49 0l23 -22q24 -24 0 -52l-205 -204l205 -207q24 -24 0 -51l-25 -25q-25 -22 -51 0l-207 207l-202 -203q-24 -24 -52 0l-20 21q-24 27 0 51l203 202l-207 207q-21 24 0 52l24 24q28 24 52 0z" />
<glyph unicode="&#xd8;" horiz-adv-x="1179" d="M989 1444h45q20 0 27 -12t-2 -31l-107 -189q70 -110 70 -286v-510q0 -218 -105 -329.5t-327 -111.5q-178 0 -281 74l-78 -129q-13 -22 -41 -22h-43q-22 0 -28.5 12t4.5 31l106 184q-71 104 -71 291v510q0 215 103 327.5t329 112.5q178 0 282 -78l76 131q12 25 41 25z M590 1260q-314 0 -314 -314v-549q0 -94 29 -153l518 940q-76 76 -233 76zM877 1094l-519 -938q74 -74 232 -74q313 0 313 315v547q0 94 -26 150z" />
<glyph unicode="&#xd9;" horiz-adv-x="1181" d="M930 1341h49q35 0 35 -34v-887q0 -217 -107.5 -331t-316.5 -114q-207 0 -314.5 110.5t-107.5 330.5v891q0 34 35 34h49q35 0 35 -34v-910q0 -155 77.5 -234t225.5 -79q150 0 226.5 79t76.5 234v910q0 34 37 34zM430 1694h68q22 0 34 -23l105 -186q8 -15 2 -25t-23 -10 h-43q-21 0 -34 16l-127 191q-10 15 -5 26t23 11z" />
<glyph unicode="&#xda;" horiz-adv-x="1181" d="M930 1341h49q35 0 35 -34v-887q0 -217 -107.5 -331t-316.5 -114q-207 0 -314.5 110.5t-107.5 330.5v891q0 34 35 34h49q35 0 35 -34v-910q0 -155 77.5 -234t225.5 -79q150 0 226.5 79t76.5 234v910q0 34 37 34zM676 1694h67q18 0 23 -11t-4 -26l-127 -191 q-13 -16 -35 -16h-41q-18 0 -24 10t2 25l104 186q11 23 35 23z" />
<glyph unicode="&#xdb;" horiz-adv-x="1181" d="M930 1341h49q35 0 35 -34v-887q0 -217 -107.5 -331t-316.5 -114q-207 0 -314.5 110.5t-107.5 330.5v891q0 34 35 34h49q35 0 35 -34v-910q0 -155 77.5 -234t225.5 -79q150 0 226.5 79t76.5 234v910q0 34 37 34zM350 1577l221 102q19 9 37 0l221 -102q23 -8 23 -35v-39 q0 -15 -9 -21.5t-24 -0.5l-229 90l-230 -90q-13 -6 -22.5 0.5t-9.5 21.5v39q0 27 22 35z" />
<glyph unicode="&#xdc;" horiz-adv-x="1181" d="M930 1341h49q35 0 35 -34v-887q0 -217 -107.5 -331t-316.5 -114q-207 0 -314.5 110.5t-107.5 330.5v891q0 34 35 34h49q35 0 35 -34v-910q0 -155 77.5 -234t225.5 -79q150 0 226.5 79t76.5 234v910q0 34 37 34zM442 1651q37 0 57.5 -16.5t20.5 -47.5v-45q0 -29 -20.5 -46 t-57.5 -17q-35 0 -55 17t-20 46v45q0 31 20 47.5t55 16.5zM733 1651q37 0 58.5 -17t21.5 -47v-45q0 -29 -21.5 -46t-58.5 -17q-34 0 -55 17t-21 46v45q0 30 21 47t55 17z" />
<glyph unicode="&#xdd;" horiz-adv-x="970" d="M834 1341h59q20 0 27.5 -11t-0.5 -30l-375 -839v-426q0 -35 -35 -35h-49q-35 0 -35 35v426l-375 839q-8 19 -0.5 30t27.5 11h63q29 0 41 -26l305 -725l306 725q12 26 41 26zM571 1694h68q18 0 23 -11t-5 -26l-127 -191q-13 -16 -34 -16h-41q-18 0 -24.5 10t1.5 25 l105 186q11 23 34 23z" />
<glyph unicode="&#xde;" horiz-adv-x="1017" d="M203 1341h49q35 0 35 -34v-213q113 10 221 10q459 0 459 -373v-43q0 -194 -112 -298.5t-333 -104.5q-92 0 -235 20v-270q0 -35 -35 -35h-49q-35 0 -35 35v1272q0 34 35 34zM504 1001q-21 0 -217 -8v-583q138 -21 229 -21q332 0 332 303v33q0 140 -82.5 208t-261.5 68z " />
<glyph unicode="&#xdf;" horiz-adv-x="991" d="M475 1423q145 0 225 -69t80 -187v-51q0 -49 -18 -90t-43.5 -69t-51 -53.5t-43.5 -56t-18 -63.5v-36q0 -32 13 -55t45 -46l96 -65q91 -60 127.5 -116t36.5 -134v-68q0 -160 -55.5 -224.5t-194.5 -64.5q-77 0 -191 27q-33 7 -30 39l2 37q0 19 10.5 28t28.5 3 q103 -27 182 -27q68 0 97.5 37.5t29.5 128.5v63q0 61 -21 98t-75 72l-99 62q-65 40 -92 84t-27 108v47q0 47 18 85t43.5 64t50.5 50t43 57.5t18 73.5v55q0 152 -195 152q-101 0 -143.5 -47t-42.5 -158v-1079q0 -35 -35 -35h-49q-16 0 -25.5 9t-9.5 26v1063q0 172 73.5 248.5 t239.5 76.5z" />
<glyph unicode="&#xe0;" d="M467 1024q164 0 236.5 -72.5t72.5 -242.5v-674q0 -35 -35 -35h-41q-34 0 -34 35v151q-134 -211 -299 -211q-118 0 -187 79t-69 222v56q0 124 83 204t226 80q94 0 237 -26v127q0 110 -43.5 155.5t-146.5 45.5q-66 0 -240 -29q-37 -6 -37 33v36q0 36 37 39q158 27 240 27z M455 520q-110 0 -166 -54t-56 -153v-22q0 -103 43 -155t119 -52q66 0 137.5 60t124.5 157v199q-98 20 -202 20zM285 1389h65q23 0 35 -21l121 -215q9 -15 2.5 -25t-23.5 -10h-41q-21 0 -34 19l-144 217q-11 14 -5.5 24.5t24.5 10.5z" />
<glyph unicode="&#xe1;" d="M467 1024q164 0 236.5 -72.5t72.5 -242.5v-674q0 -35 -35 -35h-41q-34 0 -34 35v151q-134 -211 -299 -211q-118 0 -187 79t-69 222v56q0 124 83 204t226 80q94 0 237 -26v127q0 110 -43.5 155.5t-146.5 45.5q-66 0 -240 -29q-37 -6 -37 33v36q0 36 37 39q158 27 240 27z M455 520q-110 0 -166 -54t-56 -153v-22q0 -103 43 -155t119 -52q66 0 137.5 60t124.5 157v199q-98 20 -202 20zM582 1389h67q17 0 22.5 -10.5t-3.5 -24.5l-146 -217q-13 -19 -35 -19h-38q-19 0 -24.5 10t3.5 25l119 215q15 21 35 21z" />
<glyph unicode="&#xe2;" d="M467 1024q164 0 236.5 -72.5t72.5 -242.5v-674q0 -35 -35 -35h-41q-34 0 -34 35v151q-134 -211 -299 -211q-118 0 -187 79t-69 222v56q0 124 83 204t226 80q94 0 237 -26v127q0 110 -43.5 155.5t-146.5 45.5q-66 0 -240 -29q-37 -6 -37 33v36q0 36 37 39q158 27 240 27z M455 520q-110 0 -166 -54t-56 -153v-22q0 -103 43 -155t119 -52q66 0 137.5 60t124.5 157v199q-98 20 -202 20zM244 1251l205 121q23 14 43 0l206 -121q21 -12 21 -34v-39q0 -18 -10 -24t-27 3l-211 111l-213 -111q-15 -9 -25 -2.5t-10 23.5v39q0 22 21 34z" />
<glyph unicode="&#xe3;" d="M467 1024q164 0 236.5 -72.5t72.5 -242.5v-674q0 -35 -35 -35h-41q-34 0 -34 35v151q-134 -211 -299 -211q-118 0 -187 79t-69 222v56q0 124 83 204t226 80q94 0 237 -26v127q0 110 -43.5 155.5t-146.5 45.5q-66 0 -240 -29q-37 -6 -37 33v36q0 36 37 39q158 27 240 27z M455 520q-110 0 -166 -54t-56 -153v-22q0 -103 43 -155t119 -52q66 0 137.5 60t124.5 157v199q-98 20 -202 20zM680 1329q15 6 25 0.5t10 -22.5v-41q0 -24 -19 -35q-64 -41 -135 -41q-37 0 -96 25.5t-92 25.5q-46 0 -115 -31q-14 -6 -23.5 0t-9.5 23v41q0 24 19 35 q64 41 133 41q51 0 107 -26t81 -26q51 0 115 31z" />
<glyph unicode="&#xe4;" d="M467 1024q164 0 236.5 -72.5t72.5 -242.5v-674q0 -35 -35 -35h-41q-34 0 -34 35v151q-134 -211 -299 -211q-118 0 -187 79t-69 222v56q0 124 83 204t226 80q94 0 237 -26v127q0 110 -43.5 155.5t-146.5 45.5q-66 0 -240 -29q-37 -6 -37 33v36q0 36 37 39q158 27 240 27z M455 520q-110 0 -166 -54t-56 -153v-22q0 -103 43 -155t119 -52q66 0 137.5 60t124.5 157v199q-98 20 -202 20zM324 1348q36 0 56.5 -17t20.5 -47v-45q0 -28 -21 -44.5t-56 -16.5t-55.5 16.5t-20.5 44.5v45q0 30 20 47t56 17zM614 1348q37 0 57.5 -16.5t20.5 -47.5v-45 q0 -28 -21 -44.5t-57 -16.5q-34 0 -54.5 16.5t-20.5 44.5v45q0 30 20.5 47t54.5 17z" />
<glyph unicode="&#xe5;" d="M467 1024q164 0 236.5 -72.5t72.5 -242.5v-674q0 -35 -35 -35h-41q-34 0 -34 35v151q-134 -211 -299 -211q-118 0 -187 79t-69 222v56q0 124 83 204t226 80q94 0 237 -26v127q0 110 -43.5 155.5t-146.5 45.5q-66 0 -240 -29q-37 -6 -37 33v36q0 36 37 39q158 27 240 27z M455 520q-110 0 -166 -54t-56 -153v-22q0 -103 43 -155t119 -52q66 0 137.5 60t124.5 157v199q-98 20 -202 20zM469 1464q97 0 152 -47t55 -135q0 -87 -55.5 -134.5t-151.5 -47.5q-97 0 -151 47t-54 135t54 135t151 47zM469 1391q-60 0 -88.5 -29.5t-28.5 -79.5 q0 -49 28.5 -78.5t88.5 -29.5t88.5 29.5t28.5 78.5t-28.5 79t-88.5 30z" />
<glyph unicode="&#xe6;" horiz-adv-x="1449" d="M995 1024q338 0 338 -369v-120q0 -35 -13 -49.5t-46 -14.5h-492v-147q0 -132 57.5 -186t188.5 -54q84 0 225 29q36 6 39 -31l2 -39q0 -31 -32 -39q-132 -29 -238 -29q-153 0 -233 54.5t-105 171.5q-139 -226 -319 -226q-119 0 -187.5 79.5t-68.5 221.5v54q0 124 83.5 204 t227.5 80q94 0 235 -30v133q0 110 -43.5 155.5t-146.5 45.5q-66 0 -240 -29q-37 -6 -37 33v36q0 36 37 39q158 27 238 27q209 0 266 -137q75 137 264 137zM995 922q-216 0 -219 -238v-109h441v97q0 126 -58 188t-164 62zM455 516q-112 -1 -167 -54.5t-55 -150.5v-20 q0 -102 43 -154.5t119 -52.5q66 0 137.5 60t124.5 157v191q-118 24 -202 24z" />
<glyph unicode="&#xe7;" horiz-adv-x="802" d="M483 1024q71 0 174 -23q32 -8 29 -40v-37q0 -19 -10 -25t-35 -2q-96 21 -160 21q-106 0 -163.5 -62.5t-57.5 -187.5v-332q0 -129 59.5 -191.5t169.5 -62.5q71 0 156 20q38 9 41 -30l2 -37q3 -33 -35 -41q-97 -19 -172 -19l-18 -61h26q57 0 92 -37.5t35 -97.5v-27 q0 -155 -165 -155q-50 0 -89 8q-28 7 -28 33v22q0 17 7 23.5t19 3.5q56 -9 74 -9q43 0 63.5 18.5t20.5 59.5v19q-2 39 -22 57t-64 18h-39q-42 0 -26 54l26 80q-252 46 -252 358v315q0 367 342 367z" />
<glyph unicode="&#xe8;" d="M477 1024q338 0 338 -369v-120q0 -35 -13.5 -49.5t-47.5 -14.5h-492v-147q0 -132 57 -186t189 -54q84 0 225 29q36 6 39 -31l2 -39q3 -29 -31 -39q-132 -29 -239 -29q-195 0 -279 84t-84 273v325q0 367 336 367zM475 922q-213 0 -213 -244v-109h434v103 q0 127 -57.5 188.5t-163.5 61.5zM291 1389h65q23 0 35 -21l121 -215q9 -15 3 -25t-23 -10h-41q-22 0 -35 19l-144 217q-11 14 -5.5 24.5t24.5 10.5z" />
<glyph unicode="&#xe9;" d="M477 1024q338 0 338 -369v-120q0 -35 -13.5 -49.5t-47.5 -14.5h-492v-147q0 -132 57 -186t189 -54q84 0 225 29q36 6 39 -31l2 -39q3 -29 -31 -39q-132 -29 -239 -29q-195 0 -279 84t-84 273v325q0 367 336 367zM475 922q-213 0 -213 -244v-109h434v103 q0 127 -57.5 188.5t-163.5 61.5zM590 1389h67q17 0 22.5 -10.5t-3.5 -24.5l-146 -217q-13 -19 -34 -19h-39q-19 0 -24.5 10t3.5 25l119 215q15 21 35 21z" />
<glyph unicode="&#xea;" d="M477 1024q338 0 338 -369v-120q0 -35 -13.5 -49.5t-47.5 -14.5h-492v-147q0 -132 57 -186t189 -54q84 0 225 29q36 6 39 -31l2 -39q3 -29 -31 -39q-132 -29 -239 -29q-195 0 -279 84t-84 273v325q0 367 336 367zM475 922q-213 0 -213 -244v-109h434v103 q0 127 -57.5 188.5t-163.5 61.5zM250 1251l205 121q23 14 43 0l207 -121q20 -11 20 -34v-39q0 -18 -10 -24t-27 3l-211 111l-213 -111q-15 -9 -25 -2.5t-10 23.5v39q0 22 21 34z" />
<glyph unicode="&#xeb;" d="M477 1024q338 0 338 -369v-120q0 -35 -13.5 -49.5t-47.5 -14.5h-492v-147q0 -132 57 -186t189 -54q84 0 225 29q36 6 39 -31l2 -39q3 -29 -31 -39q-132 -29 -239 -29q-195 0 -279 84t-84 273v325q0 367 336 367zM475 922q-213 0 -213 -244v-109h434v103 q0 127 -57.5 188.5t-163.5 61.5zM330 1348q36 0 57 -17t21 -47v-45q0 -28 -21.5 -44.5t-56.5 -16.5t-55.5 16.5t-20.5 44.5v45q0 30 20 47t56 17zM621 1348q37 0 57 -16.5t20 -47.5v-45q0 -28 -20.5 -44.5t-56.5 -16.5q-34 0 -55 16.5t-21 44.5v45q0 30 21 47t55 17z" />
<glyph unicode="&#xec;" horiz-adv-x="444" d="M197 999h49q35 0 35 -34v-930q0 -35 -35 -35h-49q-16 0 -25.5 9t-9.5 26v930q0 34 35 34zM37 1389h65q23 0 35 -21l121 -215q9 -15 3 -25t-23 -10h-41q-22 0 -35 19l-144 217q-11 14 -5.5 24.5t24.5 10.5z" />
<glyph unicode="&#xed;" horiz-adv-x="444" d="M197 999h49q35 0 35 -34v-930q0 -35 -35 -35h-49q-16 0 -25.5 9t-9.5 26v930q0 34 35 34zM334 1389h67q17 0 22.5 -10.5t-3.5 -24.5l-146 -217q-13 -19 -34 -19h-39q-19 0 -24.5 10t3.5 25l119 215q15 21 35 21z" />
<glyph unicode="&#xee;" horiz-adv-x="444" d="M197 999h49q35 0 35 -34v-930q0 -35 -35 -35h-49q-16 0 -25.5 9t-9.5 26v930q0 34 35 34zM-4 1251l205 121q23 14 43 0l207 -121q20 -11 20 -34v-39q0 -18 -10 -24t-27 3l-211 111l-213 -111q-15 -9 -25 -2.5t-10 23.5v39q0 22 21 34z" />
<glyph unicode="&#xef;" horiz-adv-x="444" d="M197 999h49q35 0 35 -34v-930q0 -35 -35 -35h-49q-16 0 -25.5 9t-9.5 26v930q0 34 35 34zM76 1348q36 0 57 -17t21 -47v-45q0 -28 -21.5 -44.5t-56.5 -16.5t-55.5 16.5t-20.5 44.5v45q0 30 20 47t56 17zM367 1348q37 0 57 -16.5t20 -47.5v-45q0 -28 -20.5 -44.5 t-56.5 -16.5q-34 0 -55 16.5t-21 44.5v45q0 30 21 47t55 17z" />
<glyph unicode="&#xf0;" horiz-adv-x="1005" d="M244 1364v25q0 35 37 32q268 -9 415 -194l129 37q39 12 39 -29v-16q0 -32 -30 -41l-89 -27q97 -180 97 -469v-338q0 -369 -340 -369q-181 0 -260.5 82.5t-79.5 264.5v235q0 166 65 254t193 88q87 0 165 -56t138 -147v62q0 215 -88 360l-223 -67q-39 -12 -39 28v23 q0 33 28 39l177 53q-117 123 -299 135q-35 3 -35 35zM444 791q-82 0 -122.5 -60t-40.5 -199v-229q0 -118 54.5 -171.5t166.5 -53.5q111 0 166 55t55 170v272q-51 88 -129 152t-150 64z" />
<glyph unicode="&#xf1;" horiz-adv-x="1005" d="M580 1024q132 0 197 -84t65 -260v-645q0 -35 -35 -35h-49q-16 0 -25.5 9t-9.5 26v629q0 135 -40.5 192t-123.5 57q-76 0 -150.5 -58t-127.5 -157v-663q0 -35 -35 -35h-49q-16 0 -25.5 9t-9.5 26v930q0 34 35 34h41q34 0 34 -34v-152q126 211 308 211zM717 1329 q15 6 25 0.5t10 -22.5v-41q0 -24 -19 -35q-64 -41 -135 -41q-36 0 -95 25.5t-93 25.5q-46 0 -115 -31q-13 -6 -23 0t-10 23v41q0 24 19 35q64 41 133 41q51 0 107 -26t81 -26q51 0 115 31z" />
<glyph unicode="&#xf2;" horiz-adv-x="976" d="M487 1024q349 0 349 -373v-303q0 -181 -87 -277t-262 -96q-346 0 -346 373v303q0 373 346 373zM487 922q-111 0 -169 -65t-58 -191v-332q0 -126 59 -191t168 -65q110 0 169 65t59 191v334q0 126 -58.5 190t-169.5 64zM303 1389h66q22 0 34 -21l121 -215q9 -15 3 -25 t-23 -10h-41q-22 0 -35 19l-143 217q-11 14 -5.5 24.5t23.5 10.5z" />
<glyph unicode="&#xf3;" horiz-adv-x="976" d="M487 1024q349 0 349 -373v-303q0 -181 -87 -277t-262 -96q-346 0 -346 373v303q0 373 346 373zM487 922q-111 0 -169 -65t-58 -191v-332q0 -126 59 -191t168 -65q110 0 169 65t59 191v334q0 126 -58.5 190t-169.5 64zM600 1389h68q17 0 22 -10.5t-4 -24.5l-145 -217 q-13 -19 -35 -19h-39q-19 0 -24.5 10t3.5 25l119 215q15 21 35 21z" />
<glyph unicode="&#xf4;" horiz-adv-x="976" d="M487 1024q349 0 349 -373v-303q0 -181 -87 -277t-262 -96q-346 0 -346 373v303q0 373 346 373zM487 922q-111 0 -169 -65t-58 -191v-332q0 -126 59 -191t168 -65q110 0 169 65t59 191v334q0 126 -58.5 190t-169.5 64zM262 1251l205 121q23 14 43 0l207 -121 q20 -11 20 -34v-39q0 -18 -10 -24t-27 3l-211 111l-213 -111q-15 -9 -24.5 -2.5t-9.5 23.5v39q0 23 20 34z" />
<glyph unicode="&#xf5;" horiz-adv-x="976" d="M487 1024q349 0 349 -373v-303q0 -181 -87 -277t-262 -96q-346 0 -346 373v303q0 373 346 373zM487 922q-111 0 -169 -65t-58 -191v-332q0 -126 59 -191t168 -65q110 0 169 65t59 191v334q0 126 -58.5 190t-169.5 64zM700 1329q15 6 25 0.5t10 -22.5v-41q0 -25 -18 -35 q-64 -41 -135 -41q-36 0 -96 25.5t-93 25.5q-45 0 -114 -31q-13 -6 -23 0t-10 23v41q0 25 18 35q64 41 133 41q51 0 107.5 -26t81.5 -26q50 0 114 31z" />
<glyph unicode="&#xf6;" horiz-adv-x="976" d="M487 1024q349 0 349 -373v-303q0 -181 -87 -277t-262 -96q-346 0 -346 373v303q0 373 346 373zM487 922q-111 0 -169 -65t-58 -191v-332q0 -126 59 -191t168 -65q110 0 169 65t59 191v334q0 126 -58.5 190t-169.5 64zM342 1348q36 0 57 -17t21 -47v-45q0 -28 -21.5 -44.5 t-56.5 -16.5t-55.5 16.5t-20.5 44.5v45q0 30 20 47t56 17zM633 1348q37 0 57.5 -16.5t20.5 -47.5v-45q0 -28 -21 -44.5t-57 -16.5q-34 0 -55 16.5t-21 44.5v45q0 30 21 47t55 17z" />
<glyph unicode="&#xf7;" horiz-adv-x="808" d="M401 1001q80 0 80 -71v-27q0 -69 -80 -69q-75 0 -75 69v27q0 71 75 71zM88 672h631q35 0 35 -35v-31q0 -35 -35 -35h-631q-16 0 -25.5 9t-9.5 26v31q0 17 9.5 26t25.5 9zM401 408q80 0 80 -72v-27q0 -67 -80 -67q-75 0 -75 67v27q0 72 75 72z" />
<glyph unicode="&#xf8;" horiz-adv-x="976" d="M846 1102h45q22 0 28 -12t-6 -31l-122 -191q45 -88 45 -217v-303q0 -181 -87 -277t-262 -96q-143 0 -227 66l-78 -123q-16 -22 -41 -22h-47q-21 0 -27 12t5 31l118 182q-49 88 -49 227v303q0 373 346 373q150 0 234 -72l82 127q20 23 43 23zM487 922q-111 0 -169 -65 t-58 -191v-326q0 -58 19 -98l387 606q-59 74 -179 74zM702 745l-385 -602q56 -65 170 -65q110 0 169 65t59 191v321q0 49 -13 90z" />
<glyph unicode="&#xf9;" horiz-adv-x="993" d="M745 999h50q34 0 34 -34v-930q0 -35 -34 -35h-39q-37 0 -37 35v149q-125 -209 -301 -209q-256 0 -256 344v646q0 34 35 34h49q35 0 35 -34v-625q0 -136 39.5 -195t119.5 -59q72 0 145.5 57.5t125.5 155.5v666q0 34 34 34zM311 1389h66q23 0 35 -21l120 -215q9 -15 3 -25 t-23 -10h-41q-22 0 -35 19l-143 217q-11 14 -5.5 24.5t23.5 10.5z" />
<glyph unicode="&#xfa;" horiz-adv-x="993" d="M745 999h50q34 0 34 -34v-930q0 -35 -34 -35h-39q-37 0 -37 35v149q-125 -209 -301 -209q-256 0 -256 344v646q0 34 35 34h49q35 0 35 -34v-625q0 -136 39.5 -195t119.5 -59q72 0 145.5 57.5t125.5 155.5v666q0 34 34 34zM608 1389h68q17 0 22 -10.5t-4 -24.5l-145 -217 q-13 -19 -35 -19h-39q-18 0 -23.5 10t3.5 25l118 215q15 21 35 21z" />
<glyph unicode="&#xfb;" horiz-adv-x="993" d="M745 999h50q34 0 34 -34v-930q0 -35 -34 -35h-39q-37 0 -37 35v149q-125 -209 -301 -209q-256 0 -256 344v646q0 34 35 34h49q35 0 35 -34v-625q0 -136 39.5 -195t119.5 -59q72 0 145.5 57.5t125.5 155.5v666q0 34 34 34zM268 1251l205 121q23 14 43 0l207 -121 q20 -11 20 -34v-39q0 -18 -9.5 -24t-26.5 3l-211 111l-213 -111q-15 -9 -25 -2.5t-10 23.5v39q0 23 20 34z" />
<glyph unicode="&#xfc;" horiz-adv-x="993" d="M745 999h50q34 0 34 -34v-930q0 -35 -34 -35h-39q-37 0 -37 35v149q-125 -209 -301 -209q-256 0 -256 344v646q0 34 35 34h49q35 0 35 -34v-625q0 -136 39.5 -195t119.5 -59q72 0 145.5 57.5t125.5 155.5v666q0 34 34 34zM348 1348q36 0 57 -17t21 -47v-45 q0 -28 -21.5 -44.5t-56.5 -16.5t-55.5 16.5t-20.5 44.5v45q0 30 20 47t56 17zM639 1348q37 0 57.5 -16.5t20.5 -47.5v-45q0 -28 -21 -44.5t-57 -16.5q-34 0 -55 16.5t-21 44.5v45q0 30 21 47t55 17z" />
<glyph unicode="&#xfd;" horiz-adv-x="882" d="M760 999h51q19 0 27 -10.5t2 -27.5l-455 -1313q-10 -27 -41 -27h-45q-42 0 -29 41l119 338h-18q-31 0 -41 29l-289 932q-10 38 31 38h55q33 0 39 -30l260 -885l295 887q6 28 39 28zM553 1389h68q17 0 22 -10.5t-4 -24.5l-145 -217q-13 -19 -35 -19h-39q-19 0 -24.5 10 t3.5 25l119 215q15 21 35 21z" />
<glyph unicode="&#xfe;" horiz-adv-x="980" d="M197 1399h49q35 0 35 -35v-533q58 88 135 140.5t162 52.5q262 0 262 -348v-359q0 -167 -75 -254.5t-212 -87.5q-62 0 -137 27.5t-135 69.5v-416q0 -35 -35 -35h-49q-16 0 -25.5 9t-9.5 26v1708q0 17 9.5 26t25.5 9zM555 915q-73 0 -147 -57.5t-127 -148.5v-529 q54 -43 123 -70.5t122 -27.5q99 0 147 60.5t48 191.5v323q0 137 -42.5 197.5t-123.5 60.5z" />
<glyph unicode="&#xff;" horiz-adv-x="882" d="M760 999h51q19 0 27 -10.5t2 -27.5l-455 -1313q-10 -27 -41 -27h-45q-42 0 -29 41l119 338h-18q-31 0 -41 29l-289 932q-10 38 31 38h55q33 0 39 -30l260 -885l295 887q6 28 39 28zM295 1348q36 0 57 -17t21 -47v-45q0 -28 -21.5 -44.5t-56.5 -16.5t-55.5 16.5 t-20.5 44.5v45q0 30 20 47t56 17zM586 1348q37 0 57.5 -16.5t20.5 -47.5v-45q0 -28 -21 -44.5t-57 -16.5q-34 0 -55 16.5t-21 44.5v45q0 30 21 47t55 17z" />
<glyph unicode="&#x152;" horiz-adv-x="1556" d="M575 1366q104 0 193 -25h606q35 0 35 -34v-39q0 -35 -35 -35h-497v-498h456q35 0 35 -35v-36q0 -35 -35 -35h-456v-520h497q35 0 35 -35v-39q0 -35 -35 -35h-606q-92 -25 -188 -25q-422 0 -422 441v510q0 440 417 440zM584 1260q-308 0 -308 -314v-549q0 -315 308 -315 q106 0 174 18v1135q-65 25 -174 25z" />
<glyph unicode="&#x153;" horiz-adv-x="1507" d="M1049 1024q167 0 255.5 -92t88.5 -277v-120q0 -34 -14.5 -49t-47.5 -15h-497v-133q0 -137 55.5 -195.5t195.5 -58.5q85 0 226 29q36 6 39 -31l2 -39q0 -33 -33 -39q-149 -29 -234 -29q-236 0 -315 142q-86 -142 -283 -142q-346 0 -346 373v303q0 373 346 373 q205 0 285 -145q82 145 277 145zM487 922q-111 0 -169 -65t-58 -191v-332q0 -126 59 -191t168 -65t168.5 63t59.5 189v348q-3 122 -61.5 183t-166.5 61zM1053 922q-213 0 -219 -234v-117h440v101q0 126 -57.5 188t-163.5 62z" />
<glyph unicode="&#x178;" horiz-adv-x="970" d="M834 1341h59q20 0 27.5 -11t-0.5 -30l-375 -839v-426q0 -35 -35 -35h-49q-35 0 -35 35v426l-375 839q-8 19 -0.5 30t27.5 11h63q29 0 41 -26l305 -725l306 725q12 26 41 26zM340 1651q37 0 57.5 -16.5t20.5 -47.5v-45q0 -29 -20.5 -46t-57.5 -17q-35 0 -55.5 17t-20.5 46 v45q0 30 20 47t56 17zM631 1651q37 0 58.5 -17t21.5 -47v-45q0 -29 -21.5 -46t-58.5 -17q-34 0 -55 17t-21 46v45q0 30 21 47t55 17z" />
<glyph unicode="&#x2c6;" horiz-adv-x="618" d="M82 1251l205 121q23 14 43 0l207 -121q20 -11 20 -34v-39q0 -18 -10 -24t-27 3l-211 111l-213 -111q-15 -9 -25 -2.5t-10 23.5v39q0 22 21 34z" />
<glyph unicode="&#x2dc;" horiz-adv-x="612" d="M516 1329q15 6 25 0.5t10 -22.5v-41q0 -24 -19 -35q-64 -41 -135 -41q-36 0 -95 25.5t-93 25.5q-46 0 -115 -31q-14 -6 -23.5 0t-9.5 23v41q0 24 19 35q64 41 133 41q51 0 107 -26t81 -26q51 0 115 31z" />
<glyph unicode="&#x2000;" horiz-adv-x="847" />
<glyph unicode="&#x2001;" horiz-adv-x="1694" />
<glyph unicode="&#x2002;" horiz-adv-x="847" />
<glyph unicode="&#x2003;" horiz-adv-x="1694" />
<glyph unicode="&#x2004;" horiz-adv-x="564" />
<glyph unicode="&#x2005;" horiz-adv-x="423" />
<glyph unicode="&#x2006;" horiz-adv-x="282" />
<glyph unicode="&#x2007;" horiz-adv-x="282" />
<glyph unicode="&#x2008;" horiz-adv-x="211" />
<glyph unicode="&#x2009;" horiz-adv-x="338" />
<glyph unicode="&#x200a;" horiz-adv-x="94" />
<glyph unicode="&#x2010;" horiz-adv-x="716" d="M182 653h353q34 0 34 -35v-26q0 -35 -34 -35h-353q-17 0 -26 9.5t-9 25.5v26q0 35 35 35z" />
<glyph unicode="&#x2011;" horiz-adv-x="716" d="M182 653h353q34 0 34 -35v-26q0 -35 -34 -35h-353q-17 0 -26 9.5t-9 25.5v26q0 35 35 35z" />
<glyph unicode="&#x2012;" horiz-adv-x="716" d="M182 653h353q34 0 34 -35v-26q0 -35 -34 -35h-353q-17 0 -26 9.5t-9 25.5v26q0 35 35 35z" />
<glyph unicode="&#x2013;" horiz-adv-x="1249" d="M182 653h885q35 0 35 -35v-26q0 -16 -9 -25.5t-26 -9.5h-885q-17 0 -26 9.5t-9 25.5v26q0 35 35 35z" />
<glyph unicode="&#x2014;" horiz-adv-x="1454" d="M182 653h1090q35 0 35 -35v-26q0 -16 -9 -25.5t-26 -9.5h-1090q-17 0 -26 9.5t-9 25.5v26q0 35 35 35z" />
<glyph unicode="&#x2018;" horiz-adv-x="419" d="M211 1417h33q32 0 26 -33l-28 -120q51 -12 51 -64v-43q0 -70 -82 -70q-40 0 -62 18t-22 52v47q0 38 12 76l39 113q8 24 33 24z" />
<glyph unicode="&#x2019;" horiz-adv-x="419" d="M209 1417q40 0 62 -18t22 -51v-48q0 -38 -12 -75l-39 -113q-8 -25 -33 -25h-33q-15 0 -22 9t-4 24l28 121q-51 12 -51 64v43q0 69 82 69z" />
<glyph unicode="&#x201a;" horiz-adv-x="419" d="M209 158q40 0 62 -18t22 -52v-47q0 -38 -12 -76l-39 -112q-8 -25 -33 -25h-33q-32 0 -26 33l28 121q-51 12 -51 63v43q0 70 82 70z" />
<glyph unicode="&#x201c;" horiz-adv-x="663" d="M209 1417h35q15 0 22 -9t4 -24l-28 -120q51 -12 51 -64v-45q0 -68 -82 -68q-84 0 -84 68v47q0 38 12 78l39 113q9 24 31 24zM455 1417h32q15 0 22.5 -9t4.5 -24l-29 -120q52 -12 52 -64v-45q0 -68 -82 -68q-84 0 -84 68v47q0 38 12 78l39 113q9 24 33 24z" />
<glyph unicode="&#x201d;" horiz-adv-x="663" d="M209 1417q40 0 62 -18t22 -51v-48q0 -38 -12 -75l-39 -113q-8 -25 -33 -25h-33q-15 0 -22 9t-4 24l28 121q-51 12 -51 64v43q0 69 82 69zM453 1417q84 0 84 -69v-48q0 -41 -11 -75l-39 -113q-8 -25 -32 -25h-33q-34 0 -27 33l29 121q-53 12 -53 64v43q0 33 21.5 51 t60.5 18z" />
<glyph unicode="&#x201e;" horiz-adv-x="663" d="M209 158q40 0 62 -18t22 -52v-47q0 -38 -12 -76l-39 -112q-8 -25 -33 -25h-33q-32 0 -26 33l28 121q-51 12 -51 63v43q0 70 82 70zM453 158q84 0 84 -70v-47q0 -42 -11 -76l-39 -112q-8 -25 -34 -25h-31q-33 0 -27 33l29 121q-53 12 -53 63v43q0 33 21.5 51.5t60.5 18.5z " />
<glyph unicode="&#x2022;" horiz-adv-x="458" d="M227 664q51 0 78 -22t27 -62v-64q0 -82 -105 -82q-48 0 -74 21t-26 61v64q0 40 26.5 62t73.5 22z" />
<glyph unicode="&#x2026;" horiz-adv-x="1017" d="M510 162q86 0 86 -74v-41q0 -72 -86 -72t-86 72v41q0 74 86 74zM211 162q86 0 86 -74v-41q0 -72 -86 -72t-86 72v41q0 74 86 74zM807 162q86 0 86 -74v-41q0 -72 -86 -72t-86 72v41q0 74 86 74z" />
<glyph unicode="&#x202f;" horiz-adv-x="338" />
<glyph unicode="&#x2039;" horiz-adv-x="620" d="M375 897h57q17 0 23.5 -10t-2.5 -25l-170 -313l170 -313q9 -15 2.5 -25t-23.5 -10h-59q-21 0 -35 20l-178 307q-12 20 0 41l180 308q11 20 35 20z" />
<glyph unicode="&#x203a;" horiz-adv-x="620" d="M188 897h58q24 0 35 -20l180 -308q12 -21 0 -41l-180 -307q-11 -20 -35 -20h-58q-17 0 -23 10t3 25l170 313l-172 313q-8 15 -2 25t24 10z" />
<glyph unicode="&#x205f;" horiz-adv-x="423" />
<glyph unicode="&#x20ac;" horiz-adv-x="913" d="M571 1255q114 0 244 -26q34 -7 31 -39l-2 -33q0 -39 -37 -33q-127 27 -236 27q-144 0 -204 -67.5t-60 -229.5v-61h400q37 0 28 -39l-6 -33q-6 -31 -39 -31h-383v-168h369q40 0 31 -39l-9 -32q-6 -31 -39 -31h-352v-43q0 -155 61 -225t205 -70q107 0 234 27q36 6 39 -31 l2 -37q0 -29 -33 -39q-120 -27 -242 -27q-210 0 -297.5 100.5t-87.5 313.5v31h-114q-38 0 -29 39l6 33q6 30 39 30h98v168h-108q-38 0 -29 39l6 33q6 31 39 31h92v49q0 217 87.5 315t295.5 98z" />
<glyph unicode="&#x2122;" horiz-adv-x="1593" d="M145 1399h504q35 0 35 -29v-31q0 -16 -8.5 -22t-26.5 -6h-196v-559q0 -17 -9.5 -26t-25.5 -9h-37q-35 0 -35 35v559h-201q-34 0 -34 28v31q0 29 34 29zM1378 1399h62q35 0 35 -35l6 -612q0 -35 -35 -35h-33q-35 0 -35 35v475l-170 -420q-12 -27 -41 -27h-39q-29 0 -41 27 l-167 420l-11 -475q0 -35 -35 -35h-32q-38 0 -35 35l16 612q0 35 35 35h62q29 0 41 -27l188 -479l188 479q12 27 41 27z" />
<glyph unicode="&#x25fc;" horiz-adv-x="1003" d="M0 1004h1004v-1004h-1004v1004z" />
<glyph unicode="&#xfb01;" horiz-adv-x="1036" d="M539 1423q87 0 186 -22q31 -5 31 -37v-33q0 -40 -39 -31q-115 23 -180 23q-92 0 -142.5 -47t-50.5 -135v-142h496q34 0 34 -34v-930q0 -35 -34 -35h-49q-35 0 -35 35v864h-412v-864q0 -35 -35 -35h-51q-16 0 -25.5 9t-9.5 26v864h-108q-15 0 -25 10t-10 27v29q0 34 35 34 h108v119q2 150 81 227.5t235 77.5z" />
<glyph unicode="&#xfb02;" horiz-adv-x="1046" d="M537 1423q58 0 130.5 -9.5t110.5 -18.5l70 8q37 3 37 -35v-1333q0 -35 -35 -35h-49q-35 0 -35 35v1259q-131 29 -234 29q-89 0 -138.5 -47t-49.5 -135v-142h176q35 0 35 -34v-29q0 -37 -35 -37h-176v-864q0 -35 -35 -35h-51q-16 0 -25.5 9t-9.5 26v864h-108q-15 0 -25 10 t-10 27v29q0 34 35 34h108v121q1 154 84 228.5t230 74.5z" />
<glyph unicode="&#xfb03;" horiz-adv-x="1579" d="M1079 1423q86 0 185 -22q32 -6 32 -37v-33q0 -40 -41 -31q-115 23 -180 23q-90 0 -140 -47.5t-50 -134.5v-142h497q35 0 35 -34v-930q0 -35 -35 -35h-49q-35 0 -35 35v864h-413v-864q0 -35 -35 -35h-49q-35 0 -35 35v864h-422v-864q0 -35 -35 -35h-51q-16 0 -25.5 9 t-9.5 26v864h-108q-15 0 -25 10t-10 27v29q0 34 35 34h108v111q0 151 79.5 228t234.5 77q153 0 327 -53q79 61 215 61zM539 1315q-96 0 -145.5 -47t-49.5 -135v-134h422v119q0 91 35 156q-128 41 -262 41z" />
<glyph unicode="&#xfb04;" horiz-adv-x="1589" d="M1079 1423q124 0 244 -28l68 8q36 3 36 -35v-1333q0 -35 -34 -35h-50q-34 0 -34 35v1259q-130 29 -234 29q-90 0 -140 -47.5t-50 -134.5v-142h176q37 0 37 -34v-29q0 -37 -37 -37h-176v-864q0 -35 -35 -35h-49q-35 0 -35 35v864h-422v-864q0 -35 -35 -35h-51 q-16 0 -25.5 9t-9.5 26v864h-108q-15 0 -25 10t-10 27v29q0 34 35 34h108v111q3 305 314 305q153 0 327 -53q79 61 215 61zM539 1315q-96 0 -145.5 -47.5t-49.5 -134.5v-134h422v119q0 94 35 156q-128 41 -262 41z" />
</font>
</defs>
</svg>
