<?xml version="1.0" standalone="no"?>
<!DOCTYPE svg PUBLIC "-//W3C//DTD SVG 1.1//EN" "http://www.w3.org/Graphics/SVG/1.1/DTD/svg11.dtd" >
<svg xmlns="http://www.w3.org/2000/svg">
<metadata></metadata>
<defs>
<font id="ropa_soft_proextrabold_italic" horiz-adv-x="1103" >
<font-face units-per-em="2048" ascent="1638" descent="-410" />
<missing-glyph horiz-adv-x="227" />
<glyph horiz-adv-x="0" />
<glyph horiz-adv-x="0" />
<glyph unicode="&#xd;" horiz-adv-x="227" />
<glyph unicode=" "  horiz-adv-x="227" />
<glyph unicode="&#x09;" horiz-adv-x="227" />
<glyph unicode="&#xa0;" horiz-adv-x="227" />
<glyph unicode="!" horiz-adv-x="432" d="M242 1423h172q69 0 57 -67l-139 -889q-9 -57 -70 -57h-133q-32 0 -47.5 17.5t-11.5 49.5l106 887q6 59 66 59zM164 311q82 0 124 -42.5t31 -112.5l-6 -52q-9 -66 -51 -97.5t-123 -31.5q-82 0 -122 41.5t-31 108.5l6 49q11 71 52 104t120 33z" />
<glyph unicode="&#x22;" horiz-adv-x="770" d="M236 1399h151q32 0 47.5 -18t11.5 -50l-63 -452q-9 -58 -66 -58h-153q-32 0 -47.5 17.5t-10.5 48.5l62 452q9 60 68 60zM598 1399h154q66 0 57 -68l-64 -452q-6 -58 -65 -58h-152q-33 0 -48.5 17.5t-10.5 48.5l63 452q9 60 66 60z" />
<glyph unicode="#" horiz-adv-x="1181" d="M842 1255h149q33 0 48.5 -17.5t11.5 -49.5l-25 -158h74q32 0 47.5 -17t11.5 -48l-18 -121q-9 -60 -66 -60h-84l-43 -313h74q66 0 57 -68l-16 -120q-9 -58 -66 -58h-84l-22 -166q-9 -59 -66 -59h-151q-31 0 -46.5 18t-11.5 50l21 157h-191l-22 -166q-6 -59 -66 -59h-151 q-31 0 -46 18t-11 50l22 157h-74q-32 0 -48 17.5t-11 48.5l18 121q9 59 66 59h82l45 313h-74q-66 0 -57 68l16 121q9 57 66 57h84l24 168q9 57 66 57h149q33 0 48.5 -17.5t11.5 -49.5l-23 -158h191l24 168q6 57 66 57zM717 784h-191l-45 -313h191z" />
<glyph unicode="$" horiz-adv-x="894" d="M514 1423h135q33 0 48.5 -17.5t11.5 -49.5l-17 -115q59 -8 131 -29q56 -14 47 -73l-20 -125q-6 -66 -74 -47q-102 26 -143 32q-61 7 -103 7q-75 0 -111 -25t-44 -76l-2 -12q-15 -100 88 -137l100 -35q311 -110 260 -391l-4 -27q-25 -140 -93.5 -213.5t-207.5 -97.5 l-18 -125q-9 -57 -66 -57h-135q-32 0 -47.5 17t-11.5 48l16 107q-93 14 -180 41q-54 18 -45 75l18 131q4 32 24.5 44t51.5 1q84 -31 172 -45q50 -4 72 -4q86 0 121.5 23.5t46.5 79.5l4 16q18 95 -109 139l-86 29q-152 50 -215 160t-35 266l4 20q22 133 99.5 202.5 t232.5 86.5l16 119q9 57 68 57z" />
<glyph unicode="%" horiz-adv-x="1808" d="M477 1278q171 0 255 -97t59 -268l-7 -53q-40 -336 -376 -336q-169 0 -255.5 98.5t-60.5 268.5l6 53q25 170 117.5 252t261.5 82zM1239 1255h172q40 0 51.5 -21.5t-10.5 -53.5l-784 -1141q-29 -39 -74 -39h-172q-40 0 -51.5 22t10.5 54l784 1141q24 38 74 38zM457 1036 q-38 0 -60 -21.5t-28 -72.5l-11 -74q-12 -102 70 -102q39 0 59 21t29 73l8 74q14 102 -67 102zM1423 727q171 0 255 -95.5t61 -266.5l-8 -54q-40 -336 -375 -336q-171 0 -257.5 98t-60.5 269l6 53q26 170 118 251t261 81zM1403 487q-38 0 -59.5 -21.5t-28.5 -72.5l-10 -74 q-12 -104 69 -104q39 0 60 22t28 74l11 74q11 102 -70 102z" />
<glyph unicode="&#x26;" horiz-adv-x="1042" d="M582 1366q96 0 206 -20q61 -12 50 -76l-17 -111q-12 -65 -73 -53q-92 18 -160 18q-165 0 -180 -135l-5 -24q-9 -73 32.5 -117.5t123.5 -44.5h125l8 53q9 57 68 57h139q32 0 47 -17t10 -48l-6 -45h45q65 0 56 -68l-19 -117q-5 -31 -18.5 -45t-42.5 -14h-56l-63 -455 q-5 -36 -20.5 -53t-53.5 -26q-181 -50 -350 -50q-240 0 -351 111t-79 291l4 29q18 107 99.5 183.5t226.5 112.5q-104 41 -156.5 127t-38.5 187l4 35q21 145 138.5 230t306.5 85zM649 559h-133q-209 0 -233 -153l-2 -17q-11 -79 34 -121.5t148 -42.5q79 0 143 15z" />
<glyph unicode="'" horiz-adv-x="407" d="M236 1399h151q32 0 47.5 -18t11.5 -50l-63 -452q-9 -58 -66 -58h-153q-32 0 -47.5 17.5t-10.5 48.5l62 452q9 60 68 60z" />
<glyph unicode="(" horiz-adv-x="505" d="M631 1626q63 -6 57 -72l-16 -102q-4 -33 -21 -46t-51 -11q-68 3 -99 -27.5t-40 -101.5l-164 -1153q-9 -72 10 -107t84 -45q34 -6 48 -23.5t10 -50.5l-17 -104q-3 -32 -21 -46t-55 -13q-209 9 -285.5 108.5t-43.5 327.5l149 1073q34 233 138.5 323t316.5 70z" />
<glyph unicode=")" horiz-adv-x="505" d="M-102 -285q-64 6 -58 72l17 104q5 32 21 45.5t50 12.5q68 -4 98.5 26t41.5 101l161 1153q11 73 -8 107t-84 46q-35 6 -48 22.5t-9 51.5l14 105q9 60 78 57q209 -9 285.5 -108t44.5 -326l-150 -1073q-34 -234 -138 -325t-316 -71z" />
<glyph unicode="*" horiz-adv-x="800" d="M410 1423h120q71 0 56 -69l-25 -137l119 67q28 17 50.5 9.5t31.5 -38.5l37 -110q11 -31 -1.5 -51.5t-45.5 -24.5l-138 -20l97 -88q25 -23 23.5 -46.5t-29.5 -42.5l-95 -67q-28 -20 -50 -14.5t-34 34.5l-57 113l-57 -117q-12 -31 -35 -36.5t-49 14.5l-97 73 q-28 20 -28 44.5t26 44.5l95 90l-136 18q-69 9 -47 74l37 110q9 32 31.5 41t50.5 -8l119 -67l-27 135q-12 69 58 69z" />
<glyph unicode="+" horiz-adv-x="829" d="M399 999h138q66 0 57 -67l-29 -209h185q65 0 59 -66l-18 -120q-9 -60 -66 -60h-195l-30 -217q-9 -59 -68 -59h-137q-32 0 -47 18t-10 49l28 209h-184q-68 0 -59 68l18 121q6 57 65 57h195l33 217q6 59 65 59z" />
<glyph unicode="," horiz-adv-x="434" d="M164 311q83 0 122.5 -40.5t30.5 -116.5l-4 -45q-5 -54 -30 -105l-140 -291q-19 -43 -67 -43h-76q-32 0 -44.5 18.5t-0.5 49.5l102 254q-82 30 -67 147l6 39q15 133 168 133z" />
<glyph unicode="-" horiz-adv-x="630" d="M147 723h367q66 0 57 -68l-16 -112q-9 -58 -66 -58h-366q-69 0 -60 68l17 113q9 57 67 57z" />
<glyph unicode="." horiz-adv-x="438" d="M166 311q82 0 124.5 -42.5t33.5 -112.5l-9 -52q-8 -67 -45 -98t-120 -31q-86 0 -127.5 42t-32.5 110l6 49q9 72 48.5 103.5t121.5 31.5z" />
<glyph unicode="/" horiz-adv-x="751" d="M606 1399h152q35 0 48 -21t-1 -53l-561 -1278q-20 -47 -72 -47h-152q-35 0 -48.5 21t1.5 53l562 1278q20 47 71 47z" />
<glyph unicode="0" horiz-adv-x="940" d="M549 1255q194 0 289 -109t65 -321l-61 -430q-31 -215 -139.5 -317.5t-301.5 -102.5q-199 0 -293 112t-63 321l61 432q30 211 141 313t302 102zM526 1008q-60 0 -93.5 -35t-43.5 -113l-65 -477q-23 -160 100 -160q60 0 92.5 35.5t44.5 114.5l66 475q19 160 -101 160z" />
<glyph unicode="1" horiz-adv-x="653" d="M485 1231h101q32 0 47.5 -18t11.5 -50l-156 -1104q-9 -59 -65 -59h-154q-66 0 -57 68l121 870h-4l-178 -80q-32 -14 -52.5 -1.5t-23.5 46.5l-8 127q-3 54 47 74l288 110q49 17 82 17z" />
<glyph unicode="2" horiz-adv-x="802" d="M426 1255q200 0 295 -92t70 -266l-7 -41q-14 -101 -69.5 -193.5t-171.5 -197.5l-234 -219h338q31 0 46 -17.5t12 -48.5l-17 -121q-9 -59 -65 -59h-635q-31 0 -45.5 18t-10.5 52l11 82q6 46 37 73l421 443q46 50 69 91.5t30 90.5l2 24q9 66 -25.5 101t-109.5 35 q-66 0 -211 -45q-35 -10 -53 5.5t-15 49.5l16 125q3 31 21.5 48.5t62.5 27.5q130 34 238 34z" />
<glyph unicode="3" horiz-adv-x="782" d="M430 1255q171 0 264 -91t70 -234l-4 -31q-14 -90 -72 -159.5t-151 -102.5q90 -35 136 -119t32 -182l-3 -17q-19 -157 -133.5 -250.5t-302.5 -93.5q-128 0 -254 37q-57 19 -49 80l17 111q3 32 22.5 45t50.5 4q107 -37 205 -37q72 0 116.5 36t53.5 99l2 27 q9 70 -23.5 103.5t-107.5 33.5h-137q-33 0 -48.5 18.5t-11.5 51.5l19 112q6 56 65 56h142q133 0 151 135l2 14q9 56 -20.5 86.5t-95.5 30.5t-193 -29q-35 -7 -51.5 8.5t-11.5 51.5l14 110q4 35 24 51.5t64 24.5q120 20 219 20z" />
<glyph unicode="4" horiz-adv-x="905" d="M557 1231h242q66 0 57 -68l-96 -688h49q32 0 47 -17t10 -48l-16 -121q-9 -60 -66 -60h-59l-23 -170q-5 -31 -20.5 -45t-46.5 -14h-150q-66 0 -57 68l21 161h-424q-32 0 -48 18t-12 50l12 76q5 42 27 73l477 742q25 43 76 43zM573 956l-278 -481h190l9 57z" />
<glyph unicode="5" horiz-adv-x="876" d="M215 1237h557q66 0 57 -68l-18 -120q-6 -60 -72 -60h-336l-49 -272q42 39 110.5 64.5t127.5 25.5q132 0 191 -90t32 -293l-6 -45q-30 -206 -143 -305t-326 -99q-135 0 -281 39q-56 15 -47 78l17 119q9 63 73 51q149 -39 252 -39q156 0 174 154l9 49q10 68 -12 101.5 t-70 33.5q-79 0 -160 -63q-42 -31 -84 -31h-96q-68 0 -56 72l91 639q9 59 65 59z" />
<glyph unicode="6" horiz-adv-x="911" d="M567 1255q127 0 242 -28q57 -11 51 -72l-16 -115q-10 -66 -72 -51q-106 27 -178 27q-184 0 -223 -246l-11 -72q112 109 242 109q134 0 199 -96t37 -289l-9 -51q-28 -200 -132 -298t-294 -98q-201 0 -296 123t-62 355l43 299q35 250 159.5 376.5t319.5 126.5zM485 555 q-68 0 -155 -84l-13 -84q-23 -164 101 -164q59 0 90 33t41 106l10 62q17 131 -74 131z" />
<glyph unicode="7" horiz-adv-x="794" d="M145 1229h662q68 0 59 -68l-10 -78q-5 -36 -27 -75l-526 -965q-25 -43 -74 -43h-161q-37 0 -49.5 21.5t6.5 52.5l505 907v2h-407q-69 0 -60 68l17 118q9 60 65 60z" />
<glyph unicode="8" horiz-adv-x="899" d="M524 1255q169 0 266 -96.5t74 -251.5l-2 -14q-12 -77 -60 -138.5t-120 -88.5q84 -38 124 -121.5t28 -188.5l-3 -22q-50 -359 -440 -359q-204 0 -309 102t-80 281l4 33q17 101 82 179.5t158 107.5q-65 33 -97 106.5t-20 151.5l4 25q22 146 121 220t270 74zM508 1032 q-91 0 -105 -98l-8 -53q-9 -58 12 -84.5t74 -26.5q48 0 71.5 21.5t33.5 78.5l8 56q9 52 -13.5 79t-72.5 27zM438 553q-128 0 -147 -133l-8 -58q-12 -77 20 -116t103 -39q124 0 143 117l12 71q12 74 -21.5 116t-101.5 42z" />
<glyph unicode="9" horiz-adv-x="915" d="M526 1253q187 0 284.5 -116.5t68.5 -323.5l-56 -391q-34 -237 -146.5 -342t-330.5 -105q-124 0 -246 37q-58 15 -49 76l17 119q3 32 22 45t51 4q115 -35 205 -35q86 0 134 46t63 145l14 108q-122 -110 -248 -110q-129 0 -192 103.5t-33 303.5l10 66q28 189 134 279.5 t298 90.5zM498 1006q-59 0 -89.5 -30t-37.5 -97l-11 -68q-21 -149 72 -149q62 0 158 83l14 109q12 75 -16.5 113.5t-89.5 38.5z" />
<glyph unicode=":" horiz-adv-x="438" d="M166 311q82 0 124.5 -42.5t33.5 -112.5l-9 -52q-8 -67 -45 -98t-120 -31q-86 0 -127.5 42t-32.5 110l6 49q9 72 48.5 103.5t121.5 31.5zM260 985q82 0 124.5 -43t33.5 -113l-8 -51q-8 -67 -45 -98t-121 -31q-86 0 -127.5 42t-32.5 110l6 49q9 72 48.5 103.5t121.5 31.5z " />
<glyph unicode=";" horiz-adv-x="438" d="M164 311q83 0 122.5 -40.5t30.5 -116.5l-4 -45q-5 -54 -30 -105l-140 -291q-19 -43 -67 -43h-76q-32 0 -44.5 18.5t-0.5 49.5l102 254q-82 30 -67 147l6 39q15 133 168 133zM260 985q82 0 124.5 -43t33.5 -113l-8 -51q-8 -67 -45 -98t-121 -31q-86 0 -127.5 42t-32.5 110 l6 49q9 72 48.5 103.5t121.5 31.5z" />
<glyph unicode="&#x3c;" horiz-adv-x="856" d="M784 369l-20 -150q-4 -35 -25.5 -46t-52.5 3l-614 287q-50 23 -41 78l18 125q6 50 51 69l701 281q34 14 53.5 -1.5t13.5 -51.5l-20 -148q-4 -28 -17.5 -43t-39.5 -24l-467 -154l415 -150q54 -18 45 -75z" />
<glyph unicode="=" horiz-adv-x="856" d="M147 920h641q32 0 47.5 -17.5t10.5 -48.5l-17 -121q-9 -57 -65 -57h-641q-32 0 -47 17t-10 48l16 121q9 58 65 58zM98 555h639q32 0 48 -17.5t12 -48.5l-19 -120q-9 -58 -65 -58h-639q-33 0 -49 17.5t-11 48.5l19 121q9 57 65 57z" />
<glyph unicode="&#x3e;" horiz-adv-x="856" d="M70 823l22 152q4 35 25.5 45.5t52.5 -4.5l612 -287q52 -22 43 -78l-18 -123q-5 -27 -17 -43t-36 -26l-699 -283q-34 -14 -53.5 1.5t-13.5 53.5l20 148q8 51 55 65l467 154l-413 152q-53 18 -47 73z" />
<glyph unicode="?" horiz-adv-x="774" d="M444 1423q201 0 287.5 -89.5t59.5 -252.5l-5 -26q-13 -90 -56 -158.5t-140 -159.5l-80 -73q-31 -29 -47 -64.5t-25 -101.5l-2 -17q-9 -57 -67 -57h-146q-32 0 -46.5 13.5t-10.5 39.5l2 23q19 117 46.5 178t86.5 115l119 114q46 45 63.5 76t22.5 72l2 16q8 54 -23 82.5 t-110 28.5q-51 0 -199 -41q-34 -9 -51 6.5t-12 50.5l14 119q6 59 76 74q122 32 241 32zM266 311q81 0 124 -43t32 -112l-8 -52q-9 -67 -50 -98t-122 -31q-83 0 -123 41t-31 109l6 49q11 71 51 104t121 33z" />
<glyph unicode="@" horiz-adv-x="1861" d="M924 1423q441 0 655.5 -185t214.5 -556v-113q0 -254 -130.5 -399t-356.5 -145q-110 0 -184 40.5t-97 118.5q-13 46 2 103l43 147l-8 4l-8 -2q-24 -73 -46 -129t-52.5 -110.5t-63 -90t-75.5 -57.5t-91 -22q-117 0 -177 100.5t-36 300.5l23 193q22 193 102 285.5t199 92.5 q64 0 124.5 -36t104.5 -95l8 45q6 58 66 58h131q32 0 47 -17.5t10 -48.5l-63 -475q-12 -83 5 -117t62 -34q71 0 125.5 85t54.5 220v98q0 254 -137.5 369.5t-451.5 115.5q-274 0 -420 -141.5t-146 -396.5v-275q0 -254 116 -365.5t386 -111.5h301q62 0 62 -63v-129 q0 -64 -64 -64h-299q-403 0 -591.5 178t-188.5 555v275q0 374 216 584t628 210zM918 748q-82 0 -103 -142l-24 -192q-10 -76 0.5 -103.5t42.5 -27.5q54 0 99.5 78.5t70.5 197.5l16 125q-48 64 -102 64z" />
<glyph unicode="A" d="M526 1341h226q60 0 69 -57l203 -1216q6 -32 -8.5 -50t-48.5 -18h-179q-60 0 -63 59q-11 130 -20 203h-386q-40 -114 -77 -211q-19 -51 -72 -51h-172q-35 0 -48 19.5t-1 52.5l504 1220q20 49 73 49zM610 1108q-135 -403 -207 -604h279q-25 249 -72 604z" />
<glyph unicode="B" horiz-adv-x="1030" d="M20 57l156 1239q6 57 64 60q163 10 313 10q227 0 343.5 -96t104.5 -250l-2 -25q-9 -104 -74.5 -179.5t-179.5 -110.5q116 -31 178.5 -120.5t49.5 -207.5l-4 -31q-50 -371 -549 -371q-155 0 -336 13q-39 3 -53 19.5t-11 49.5zM401 801h121q80 0 125.5 39.5t54.5 111.5 l3 17q9 75 -32 112t-138 37q-29 0 -95 -4zM373 561l-39 -325q71 -7 123 -7q205 0 225 154l2 18q11 75 -36.5 117.5t-147.5 42.5h-127z" />
<glyph unicode="C" horiz-adv-x="927" d="M612 1366q130 0 275 -43q58 -15 49 -74l-18 -135q-9 -66 -74 -47q-132 39 -215 39q-106 0 -159.5 -52t-70.5 -182l-51 -411q-15 -115 29.5 -167t150.5 -52q100 0 222 39q34 10 52 -5.5t15 -52.5l-16 -135q-3 -28 -16 -43.5t-42 -24.5q-149 -45 -288 -45q-226 0 -325 127 t-67 377l52 416q30 250 149 360.5t348 110.5z" />
<glyph unicode="D" horiz-adv-x="1095" d="M571 1366q256 0 383 -154.5t93 -423.5l-37 -294q-33 -258 -184 -388.5t-429 -130.5q-153 0 -319 13q-61 6 -55 71l153 1239q9 57 66 60q196 8 329 8zM545 1110q-23 0 -105 -4l-106 -864q97 -9 108 -9q117 0 189.5 65t89.5 191l41 326q18 149 -38.5 222t-178.5 73z" />
<glyph unicode="E" horiz-adv-x="931" d="M240 1341h647q32 0 47.5 -17.5t11.5 -49.5l-18 -141q-9 -58 -68 -58h-424l-33 -262h375q69 0 60 -65l-17 -140q-5 -31 -20.5 -45t-46.5 -14h-385l-33 -283h418q65 0 59 -65l-16 -142q-6 -59 -66 -59h-647q-32 0 -48 17.5t-13 48.5l149 1216q9 59 68 59z" />
<glyph unicode="F" horiz-adv-x="911" d="M240 1341h647q32 0 47.5 -17.5t11.5 -49.5l-18 -141q-9 -58 -68 -58h-424l-33 -262h285q69 0 60 -65l-17 -140q-5 -31 -20.5 -45t-46.5 -14h-295l-56 -490q-5 -31 -20.5 -45t-46.5 -14h-164q-31 0 -46.5 17.5t-12.5 48.5l149 1216q9 59 68 59z" />
<glyph unicode="G" horiz-adv-x="1071" d="M479 -25q-232 0 -339 125t-77 375l54 438q28 234 151 343.5t359 109.5q162 0 331 -43q61 -16 52 -72l-19 -133q-9 -65 -73 -49q-156 39 -275 39q-114 0 -168.5 -45t-68.5 -148l-60 -464q-13 -115 27 -164t139 -49q82 0 150 20l36 303h-106q-32 0 -47 17.5t-10 48.5 l12 116q6 60 65 60h326q32 0 48 -17.5t11 -48.5l-73 -600q-3 -34 -17 -52.5t-49 -31.5q-206 -78 -379 -78z" />
<glyph unicode="H" horiz-adv-x="1112" d="M881 1341h163q32 0 48 -17t12 -48l-150 -1217q-6 -59 -65 -59h-164q-31 0 -46.5 17.5t-12.5 48.5l59 491h-354l-58 -498q-6 -59 -67 -59h-164q-31 0 -46.5 17.5t-12.5 48.5l149 1216q9 59 68 59h161q33 0 48.5 -17.5t11.5 -49.5l-58 -453h353l59 461q9 59 66 59z" />
<glyph unicode="I" horiz-adv-x="468" d="M240 1341h161q32 0 48 -17t12 -48l-148 -1217q-9 -59 -67 -59h-164q-31 0 -46.5 17.5t-12.5 48.5l149 1216q9 59 68 59z" />
<glyph unicode="J" horiz-adv-x="634" d="M406 1341h165q31 0 46.5 -17.5t11.5 -47.5l-113 -911q-26 -206 -113.5 -298t-246.5 -92q-86 0 -174 21q-61 16 -52 72l17 129q6 65 69 51q59 -15 103 -15q48 0 73.5 29.5t34.5 102.5l113 917q9 59 66 59z" />
<glyph unicode="K" horiz-adv-x="1101" d="M901 1341h164q41 0 52.5 -22t-13.5 -53l-473 -578l366 -614q20 -31 8 -52.5t-49 -21.5h-208q-55 0 -74 45q-175 332 -299 530l-62 -516q-9 -59 -67 -59h-164q-31 0 -46.5 17.5t-12.5 48.5l149 1216q9 59 68 59h161q33 0 48.5 -17.5t11.5 -49.5l-64 -510q238 281 428 539 q26 38 76 38z" />
<glyph unicode="L" horiz-adv-x="894" d="M240 1341h161q66 0 60 -67l-125 -1010h424q31 0 46.5 -17t12.5 -48l-16 -140q-9 -59 -66 -59h-651q-33 0 -49.5 17.5t-13.5 48.5l149 1216q9 59 68 59z" />
<glyph unicode="M" horiz-adv-x="1368" d="M1055 1341h239q32 0 48 -17t12 -48l-135 -1217q-6 -59 -66 -59h-147q-32 0 -48 17.5t-12 48.5l84 802l-242 -665q-18 -49 -73 -49h-176q-59 0 -68 57l-82 655l-100 -807q-9 -59 -66 -59h-147q-32 0 -47.5 18t-10.5 50l158 1214q9 59 68 59h227q61 0 70 -57 q77 -475 114 -866q175 420 330 872q17 51 70 51z" />
<glyph unicode="N" horiz-adv-x="1116" d="M901 1341h148q32 0 47.5 -17t11.5 -48l-150 -1217q-6 -59 -65 -59h-236q-57 0 -69 55l-197 797l-94 -793q-6 -59 -66 -59h-149q-31 0 -46.5 17.5t-12.5 48.5l149 1216q9 59 68 59h223q55 0 69 -53q126 -449 207 -811l95 805q9 59 67 59z" />
<glyph unicode="O" horiz-adv-x="1101" d="M621 1366q232 0 348.5 -124.5t89.5 -352.5l-60 -467q-27 -227 -148 -337t-357 -110q-237 0 -350 127.5t-85 352.5l58 467q29 233 148.5 338.5t355.5 105.5zM604 1104q-177 0 -198 -178l-62 -502q-10 -91 32.5 -138.5t133.5 -47.5q178 0 199 182l63 500q11 90 -32 137 t-136 47z" />
<glyph unicode="P" horiz-adv-x="1007" d="M555 1366q236 0 359.5 -119t99.5 -313l-2 -23q-25 -195 -151 -304t-324 -109q-62 0 -170 18l-54 -457q-9 -59 -67 -59h-164q-31 0 -46.5 17.5t-12.5 48.5l151 1226q5 33 19.5 48t46.5 18q107 8 315 8zM539 1116q-41 0 -99 -4l-45 -350q55 -12 111 -12q191 0 215 176l4 18 q11 78 -37.5 125t-148.5 47z" />
<glyph unicode="Q" horiz-adv-x="1101" d="M621 1366q234 0 350 -125t88 -352l-60 -467q-27 -241 -180 -350l121 -23q57 -12 51 -72l-12 -118q-6 -47 -46.5 -58.5t-101.5 13.5l-411 170q-30 4 -45 8q-178 27 -259.5 149t-56.5 314l58 467q29 233 148 338.5t356 105.5zM604 1104q-177 0 -198 -178l-62 -502 q-10 -93 33 -139.5t133 -46.5q178 0 199 182l63 500q10 90 -32.5 137t-135.5 47z" />
<glyph unicode="R" horiz-adv-x="1071" d="M551 1366q119 0 213.5 -33.5t152 -91t82.5 -135t11 -164.5l-6 -39q-15 -101 -78.5 -183.5t-165.5 -129.5l229 -516q14 -32 1 -53t-48 -21h-184q-55 0 -72 51q-108 298 -192 477q-54 0 -125 9l-56 -478q-9 -59 -67 -59h-164q-31 0 -46.5 17.5t-12.5 48.5l151 1222 q4 33 24 49t60 19q173 10 293 10zM541 1112q-41 0 -103 -4l-39 -334q49 -6 99 -6q198 0 223 158l2 14q12 81 -34.5 126.5t-147.5 45.5z" />
<glyph unicode="S" horiz-adv-x="948" d="M485 838l162 -64q134 -53 191.5 -151.5t38.5 -251.5l-5 -35q-21 -170 -130 -265.5t-296 -95.5q-70 0 -173.5 20t-192.5 50q-56 18 -47 74l20 155q5 32 25 44.5t51 0.5q120 -48 236 -75q23 -2 59 -2q146 0 162 118l2 17q9 59 -15.5 95t-95.5 65l-143 55q-144 57 -203 172 t-25 278l5 21q33 154 139.5 228.5t306.5 74.5q128 0 289 -41q62 -15 53 -74l-20 -145q-10 -65 -74 -47q-106 30 -168 41q-23 2 -86 2q-140 0 -156 -98l-4 -15q-15 -106 94 -151z" />
<glyph unicode="T" horiz-adv-x="1064" d="M182 1341h873q32 0 47.5 -17.5t11.5 -49.5l-18 -141q-6 -58 -66 -58h-297l-123 -1016q-6 -59 -65 -59h-164q-31 0 -47 18t-12 48l122 1009h-288q-31 0 -46.5 17.5t-11.5 48.5l17 141q9 59 67 59z" />
<glyph unicode="U" d="M872 1341h166q31 0 47 -17.5t13 -49.5l-105 -834q-31 -238 -151.5 -351.5t-345.5 -113.5q-233 0 -344.5 123.5t-83.5 343.5l104 840q9 59 68 59h161q33 0 48.5 -17.5t11.5 -49.5l-107 -846q-10 -88 33 -138t127 -50q163 0 186 182l107 860q9 59 65 59z" />
<glyph unicode="V" horiz-adv-x="1112" d="M936 1341h180q35 0 48.5 -19.5t0.5 -51.5l-495 -1221q-17 -49 -72 -49h-223q-61 0 -70 57l-196 1217q-9 67 57 67h172q56 0 65 -59q67 -535 103 -1032q176 460 360 1038q14 53 70 53z" />
<glyph unicode="W" horiz-adv-x="1683" d="M1503 1341h176q35 0 49 -19t3 -52l-402 -1219q-17 -51 -72 -51h-225q-65 0 -65 59l-72 979l-309 -985q-14 -53 -70 -53h-229q-63 0 -66 61l-104 1215q-6 65 57 65h172q63 0 66 -61q27 -495 24 -989q179 496 316 997q14 53 69 53h205q61 0 64 -59q48 -453 71 -987 q167 542 273 991q12 55 69 55z" />
<glyph unicode="X" d="M901 1341h193q38 0 49.5 -21.5t-10.5 -53.5l-408 -582l283 -610q15 -32 1.5 -53t-48.5 -21h-201q-55 0 -72 51q-73 210 -153 402q-28 -45 -116 -188.5t-140 -223.5q-28 -41 -76 -41h-195q-38 0 -49.5 22t10.5 54l428 612l-264 580q-15 32 -1.5 52.5t50.5 20.5h195 q52 0 72 -49q73 -188 135 -372q130 183 241 378q22 43 76 43z" />
<glyph unicode="Y" horiz-adv-x="1077" d="M887 1341h188q37 0 49.5 -21t-6.5 -52l-452 -803l-50 -406q-6 -59 -65 -59h-164q-31 0 -46.5 17.5t-12.5 48.5l49 399l-256 807q-9 31 4.5 50t46.5 19h184q58 0 70 -55q65 -264 123 -551q138 272 264 559q20 47 74 47z" />
<glyph unicode="Z" horiz-adv-x="970" d="M207 1341h731q63 0 57 -67l-14 -113q-5 -42 -33 -74q-371 -480 -598 -821h453q68 0 59 -65l-16 -142q-6 -59 -66 -59h-743q-66 0 -60 66l13 114q6 46 28 76l600 819h-434q-32 0 -48.5 17.5t-12.5 48.5l18 141q9 59 66 59z" />
<glyph unicode="[" horiz-adv-x="538" d="M291 1616h368q32 0 48 -18t12 -50l-17 -102q-6 -60 -65 -60h-158l-203 -1431h150q66 0 57 -68l-14 -104q-9 -59 -66 -59h-368q-71 0 -62 69l250 1761q9 62 68 62z" />
<glyph unicode="\" horiz-adv-x="829" d="M129 1399h156q55 0 69 -53l385 -1276q9 -32 -5 -51t-48 -19h-156q-54 0 -69 53l-385 1276q-9 32 5 51t48 19z" />
<glyph unicode="]" horiz-adv-x="538" d="M270 -276h-368q-33 0 -48.5 17.5t-11.5 49.5l15 103q5 31 20.5 45t46.5 14h158l203 1431h-150q-66 0 -57 66l14 106q9 60 66 60h368q69 0 60 -70l-248 -1761q-4 -32 -20.5 -46.5t-47.5 -14.5z" />
<glyph unicode="^" horiz-adv-x="1001" d="M541 1399h141q53 0 70 -51l180 -502q12 -32 -2 -52t-49 -20h-156q-56 0 -68 53l-77 301l-166 -309q-23 -45 -74 -45h-156q-38 0 -49.5 22t8.5 54l322 508q25 41 76 41z" />
<glyph unicode="_" horiz-adv-x="1165" d="M25 -143h901q65 0 59 -68l-18 -111q-6 -57 -66 -57h-899q-32 0 -47.5 18t-11.5 50l16 108q6 60 66 60z" />
<glyph unicode="`" horiz-adv-x="610" d="M297 1149l-182 219q-22 26 -13 45t43 19h177q44 0 63 -37l127 -213q17 -28 6 -46t-43 -18h-113q-41 0 -65 31z" />
<glyph unicode="a" horiz-adv-x="913" d="M387 1024q59 0 120 -36t105 -93l6 47q6 57 68 57h131q66 0 57 -67l-120 -873q-9 -59 -68 -59h-133q-61 0 -55 68q2 39 18 82l86 233l-6 4l-10 -2q-63 -184 -153.5 -297t-205.5 -113q-120 0 -172.5 93.5t-21.5 279.5l49 299q32 194 112.5 285.5t192.5 91.5zM463 774 q-39 0 -64.5 -32.5t-38.5 -108.5l-45 -273q-12 -73 -0.5 -101t45.5 -28q56 0 104.5 82.5t74.5 202.5l26 195q-47 63 -102 63z" />
<glyph unicode="b" horiz-adv-x="894" d="M223 1399h154q64 0 61 -64q-3 -162 -18 -282q-2 -17 -9 -45.5t-8 -34.5l-143 -473l8 -6l11 6q156 524 385 524q116 0 166 -91.5t16 -287.5l-49 -276q-38 -211 -135 -302.5t-273 -91.5q-199 0 -283.5 111t-52.5 344l72 508q26 194 35 399q3 62 63 62zM528 764 q-56 0 -113 -127t-93 -326q-1 -44 20 -67t61 -23q44 0 71 28.5t40 92.5l55 289q27 133 -41 133z" />
<glyph unicode="c" horiz-adv-x="753" d="M362 -25q-179 0 -265.5 110t-57.5 308l35 236q30 208 132 301.5t286 93.5q88 0 196 -31q58 -12 49 -73l-18 -113q-12 -69 -76 -47q-76 26 -133 26q-68 0 -108.5 -42.5t-55.5 -135.5l-29 -202q-13 -96 18 -138.5t105 -42.5q63 0 142 37q32 15 52 1.5t17 -50.5l-14 -121 q-6 -52 -66 -74q-107 -43 -209 -43z" />
<glyph unicode="d" horiz-adv-x="913" d="M719 1399h153q32 0 47.5 -18t10.5 -50l-176 -1272q-9 -59 -68 -59h-133q-61 0 -55 68q2 39 18 82l86 233l-6 4l-10 -2q-63 -184 -153.5 -297t-205.5 -113q-120 0 -172.5 93.5t-21.5 279.5l49 301q32 194 111 284.5t192 90.5q53 0 109.5 -29t99.5 -77l59 421q9 60 66 60z M463 772q-39 0 -64.5 -31.5t-38.5 -107.5l-45 -273q-12 -73 -0.5 -101t45.5 -28q56 0 104.5 83.5t74.5 207.5l24 189q-45 61 -100 61z" />
<glyph unicode="e" horiz-adv-x="837" d="M502 1024q148 0 230.5 -71t82.5 -189q0 -157 -123 -261t-389 -132l-4 -33q-10 -66 17 -95.5t98 -29.5q100 0 215 51q37 17 55 2.5t10 -53.5l-22 -111q-8 -46 -54 -67q-132 -60 -262 -60q-183 0 -265 110t-52 325l24 155q32 224 147.5 341.5t291.5 117.5zM477 793 q-47 0 -83 -50t-52 -155l-10 -62q47 9 110 29q103 68 103 162q0 37 -18 56.5t-50 19.5z" />
<glyph unicode="f" horiz-adv-x="614" d="M590 1423q68 0 137 -16q57 -15 51 -74l-16 -112q-9 -64 -74 -52q-63 13 -84 13q-54 0 -82 -28t-37 -97l-8 -58h105q66 0 57 -67l-16 -119q-9 -59 -68 -59h-115l-112 -770q-30 -206 -116 -296.5t-237 -90.5q-78 0 -157 20q-57 17 -51 74l16 114q5 31 23 45t47 7 q50 -13 81 -13q59 0 86 30.5t39 115.5l105 764h-64q-66 0 -57 63l14 96q3 30 15.5 43t44.5 19l80 14l12 82q54 352 381 352z" />
<glyph unicode="g" horiz-adv-x="915" d="M387 1024q60 0 122 -35.5t107 -93.5l7 45q9 59 65 59h131q33 0 48.5 -17.5t11.5 -49.5l-138 -940q-31 -213 -125.5 -304t-285.5 -91q-131 0 -264 34q-58 12 -52 72l17 121q9 67 75 49q122 -33 207 -33q71 0 105 27.5t49 97.5q12 67 27 109l112 309l-8 4l-8 -2 q-40 -118 -90.5 -206.5t-122 -146t-150.5 -57.5q-120 0 -171 93.5t-19 279.5l49 299q31 195 110 286t191 91zM465 774q-79 0 -100 -141l-46 -273q-11 -76 -1 -102.5t44 -26.5q58 0 106 85t75 210l24 183q-46 65 -102 65z" />
<glyph unicode="h" horiz-adv-x="915" d="M233 1399h154q31 0 47 -16.5t15 -47.5q-3 -152 -19 -282q-6 -44 -16 -80l-148 -481l10 -7l9 7q154 532 403 532q53 0 89.5 -19t61 -62.5t28 -115t-10.5 -176.5l-90 -594q-9 -57 -68 -57h-151q-33 0 -48.5 18t-9.5 50l91 587q9 63 0 85t-35 22q-67 0 -136 -180t-112 -488 l-6 -37q-6 -57 -66 -57h-151q-69 0 -60 68l103 741q42 295 53 528q3 62 63 62z" />
<glyph unicode="i" horiz-adv-x="452" d="M223 0h-151q-69 0 -60 68l123 872q6 59 66 59h151q33 0 48.5 -17.5t11.5 -49.5l-123 -873q-6 -59 -66 -59zM485 1339l-6 -51q-9 -66 -54.5 -101.5t-123.5 -35.5q-75 0 -112.5 37t-28.5 104l6 49q9 68 55 104t121 36q78 0 115 -37t28 -105z" />
<glyph unicode="j" horiz-adv-x="464" d="M207 999h151q69 0 60 -67l-135 -963q-29 -200 -112.5 -286t-244.5 -86q-78 0 -166 20q-60 15 -51 72l17 121q3 31 21.5 44.5t47.5 4.5q47 -13 86 -13q60 0 86.5 26.5t36.5 102.5l137 965q6 59 66 59zM485 1339l-6 -51q-9 -66 -54.5 -101.5t-123.5 -35.5q-75 0 -112.5 37 t-28.5 104l6 49q9 68 55 104t121 36q78 0 115 -37t28 -105z" />
<glyph unicode="k" horiz-adv-x="954" d="M233 1399h156q29 0 45.5 -16.5t16.5 -47.5q-7 -167 -21 -282q-1 -8 -16 -80l-148 -481l8 -7l11 7q32 108 72.5 199t92.5 168t118.5 121t138.5 44q93 0 147.5 -56t54.5 -161q0 -103 -66.5 -199t-189.5 -157l195 -377q17 -32 4.5 -53t-49.5 -21h-156q-55 0 -72 47 q-74 165 -165 348q-27 55 32 82q92 38 143.5 110.5t51.5 143.5q0 72 -55 72q-56 0 -111.5 -80t-99.5 -219.5t-66 -310.5l-16 -134q-9 -59 -66 -59h-149q-69 0 -60 68l103 741q42 295 53 528q3 62 63 62z" />
<glyph unicode="l" horiz-adv-x="452" d="M233 1399h154q31 0 47 -16.5t15 -47.5q-7 -212 -37 -420l-121 -856q-6 -59 -66 -59h-151q-69 0 -60 68l103 741q42 295 53 528q3 62 63 62z" />
<glyph unicode="m" horiz-adv-x="1380" d="M1145 1024q108 0 152.5 -86t13.5 -287l-88 -594q-9 -57 -68 -57h-154q-66 0 -57 68l92 585q18 109 -35 109q-63 0 -129.5 -182.5t-111.5 -499.5l-4 -23q-9 -57 -64 -57h-153q-32 0 -47.5 18t-10.5 50l90 585q9 65 0.5 87t-34.5 22q-64 0 -131 -182t-111 -500l-4 -23 q-6 -57 -66 -57h-151q-69 0 -60 68l123 872q6 59 66 59h127q68 0 59 -67l-6 -49q-4 -32 -18 -78l-99 -313l10 -7l9 7q79 273 176 402.5t229 129.5q67 0 110 -39t44 -106q0 -38 -17 -88l-96 -299l10 -7l9 7q77 269 174.5 400.5t220.5 131.5z" />
<glyph unicode="n" horiz-adv-x="923" d="M688 1024q53 0 89.5 -19t61 -62.5t28 -115t-10.5 -176.5l-90 -594q-9 -57 -68 -57h-151q-33 0 -48.5 18t-9.5 50l91 587q9 63 0 85t-35 22q-67 0 -137.5 -183.5t-114.5 -506.5l-2 -15q-6 -57 -66 -57h-151q-69 0 -60 68l123 872q6 59 66 59h127q68 0 59 -67l-6 -49 q-6 -43 -18 -78l-99 -313l10 -7l9 7q154 532 403 532z" />
<glyph unicode="o" horiz-adv-x="892" d="M836 633l-39 -275q-27 -193 -127 -288t-287 -95q-193 0 -283.5 102t-64.5 290l37 278q28 191 130 285t287 94q191 0 281.5 -102t65.5 -289zM516 336l43 317q9 63 -15 96t-73 33q-51 0 -80.5 -28.5t-38.5 -91.5l-43 -318q-9 -63 16 -96t76 -33q101 0 115 121z" />
<glyph unicode="p" horiz-adv-x="905" d="M666 1024q114 0 165 -97t17 -296l-53 -301q-33 -191 -104 -273t-191 -82q-49 0 -106 24.5t-107 66.5q-36 -213 -78 -390q-11 -55 -70 -55h-145q-33 0 -48 18.5t-7 49.5q45 190 88 481l110 770q6 59 66 59h127q68 0 59 -67l-4 -31q-7 -48 -16 -78l-101 -315l8 -4l9 4 q71 244 169 380t212 136zM535 768q-57 0 -119.5 -134.5t-89.5 -303.5l-9 -58q56 -41 103 -41q40 0 65 30.5t39 105.5l47 262q12 78 2 108.5t-38 30.5z" />
<glyph unicode="q" horiz-adv-x="913" d="M387 1024q59 0 120 -36t105 -93l6 45q9 59 68 59h131q66 0 57 -67l-176 -1251q-9 -60 -67 -60h-150q-66 0 -57 68l39 272q8 64 26 119l113 303l-6 4l-10 -2q-40 -118 -90.5 -206.5t-121 -146t-149.5 -57.5q-119 0 -171 92.5t-21 280.5l49 299q32 194 112.5 285.5 t192.5 91.5zM463 774q-39 0 -64.5 -32.5t-38.5 -108.5l-45 -273q-12 -73 -0.5 -101t45.5 -28q56 0 104.5 83t74.5 208l26 189q-47 63 -102 63z" />
<glyph unicode="r" horiz-adv-x="688" d="M670 1024q28 0 38.5 -16t4.5 -52l-29 -188q-4 -27 -12.5 -36t-26.5 -7q-16 2 -35 2q-234 0 -317 -653l-2 -15q-6 -59 -66 -59h-151q-69 0 -60 68l123 872q6 59 66 59h127q68 0 59 -67l-6 -49q-4 -32 -18 -78l-99 -313l10 -7l9 7q154 532 385 532z" />
<glyph unicode="s" horiz-adv-x="786" d="M436 1024q110 0 232 -35q58 -12 49 -74l-19 -118q-12 -65 -75 -47q-39 15 -97 30q-46 6 -73 6q-52 0 -75 -13t-28 -38l-2 -8q-10 -50 41 -74l160 -75q184 -85 160 -291l-4 -35q-14 -129 -102 -203t-241 -74t-301 62q-54 22 -45 76l21 129q5 31 25.5 42.5t52.5 -1.5 q90 -39 157 -54q37 -6 70 -6q75 0 88 60l2 8q10 49 -49 76l-139 63q-100 46 -144.5 130.5t-29.5 184.5l6 27q22 127 108 189.5t252 62.5z" />
<glyph unicode="t" horiz-adv-x="702" d="M354 1266h84q65 0 56 -68l-27 -199h168q66 0 57 -67l-16 -119q-9 -59 -68 -59h-176l-55 -408q-10 -67 10 -94t76 -27q37 0 104 19q33 12 51 -4t13 -52l-15 -110q-6 -51 -53 -68q-90 -35 -186 -35q-173 0 -241.5 89t-39.5 290l56 400h-58q-66 0 -57 63l14 96q3 30 15.5 43 t42.5 19l88 16l90 228q21 47 67 47z" />
<glyph unicode="u" horiz-adv-x="925" d="M676 999h153q67 0 58 -67l-123 -873q-6 -59 -66 -59h-135q-61 0 -55 66q2 26 14 63l92 254l-6 4l-10 -2q-39 -118 -89 -206.5t-120 -146t-149 -57.5q-116 0 -166.5 90.5t-22.5 284.5l86 592q6 57 66 57h153q33 0 48.5 -17.5t11.5 -49.5l-82 -572q-10 -78 -0.5 -103.5 t39.5 -25.5q65 0 115 102.5t73 258.5l49 348q6 59 66 59z" />
<glyph unicode="v" horiz-adv-x="913" d="M729 999h162q35 0 48.5 -20.5t-1.5 -52.5l-381 -877q-22 -49 -74 -49h-213q-58 0 -67 57l-135 875q-9 67 57 67h162q63 0 63 -59q37 -402 37 -727l10 -6l9 6q115 296 251 733q17 53 72 53z" />
<glyph unicode="w" horiz-adv-x="1366" d="M1174 999h161q34 0 48 -19.5t3 -51.5l-317 -877q-17 -51 -70 -51h-196q-59 0 -62 61l-41 656l-225 -666q-17 -51 -72 -51h-194q-63 0 -66 61l-67 873q-6 65 59 65h164q63 0 63 -61q2 -274 -8 -657l8 -5l9 5q79 230 202 665q14 53 68 53h186q63 0 66 -61q19 -344 16 -657 l9 -5l10 5q104 348 176 663q12 55 70 55z" />
<glyph unicode="x" horiz-adv-x="905" d="M688 999h176q39 0 51 -22t-10 -53l-299 -408l201 -442q15 -32 2.5 -53t-47.5 -21h-182q-55 0 -70 55q-59 205 -86 279l-8 6l-8 -6q-124 -228 -160 -291q-22 -43 -74 -43h-180q-38 0 -50 22.5t11 53.5l321 438l-186 412q-15 32 -1.5 52.5t48.5 20.5h185q54 0 69 -51 q18 -53 72 -246l8 -4l8 4q55 90 137 250q20 47 72 47z" />
<glyph unicode="y" horiz-adv-x="925" d="M508 74l106 309l-6 4l-10 -2q-62 -187 -152.5 -298.5t-207.5 -111.5q-116 0 -166.5 90.5t-22.5 284.5l86 592q9 57 68 57h153q67 0 58 -67l-82 -572q-10 -74 0.5 -101.5t40.5 -27.5q64 0 114.5 103.5t71.5 257.5l49 348q9 59 68 59h153q67 0 58 -67l-133 -940 q-31 -213 -126.5 -304t-287.5 -91q-128 0 -264 34q-58 13 -49 72l16 121q5 32 24 45t50 4q125 -33 209 -33q72 0 106 28t49 97q12 67 27 109z" />
<glyph unicode="z" horiz-adv-x="800" d="M158 999h585q69 0 60 -67l-15 -94q-6 -41 -32 -74q-225 -248 -404 -510h295q32 0 47.5 -17.5t10.5 -48.5l-17 -129q-5 -31 -20.5 -45t-46.5 -14h-596q-32 0 -47.5 18t-10.5 50l13 94q6 40 32 74l396 509h-277q-31 0 -46 17.5t-11 48.5l18 129q6 59 66 59z" />
<glyph unicode="{" horiz-adv-x="593" d="M719 1626q63 -6 57 -70l-14 -106q-8 -58 -72 -55q-70 1 -99 -27.5t-40 -101.5l-49 -344q-19 -115 -67 -176t-130 -76q155 -42 125 -250l-45 -320q-11 -68 9.5 -99.5t84.5 -41.5q64 -9 58 -70l-15 -106q-9 -60 -71 -57q-221 9 -294.5 108.5t-41.5 323.5l39 278 q11 69 -7 93t-81 24h-5q-26 0 -38.5 17t-8.5 48l19 121q6 60 63 60h4q64 0 88 25.5t37 111.5l41 293q17 114 46.5 190t82 128.5t132 71.5t192.5 7z" />
<glyph unicode="|" horiz-adv-x="452" d="M299 1677h152q65 0 59 -65l-264 -1870q-9 -59 -66 -59h-153q-67 0 -58 67l262 1870q9 57 68 57z" />
<glyph unicode="}" horiz-adv-x="593" d="M164 1616q114 -5 187 -32t112 -79.5t47.5 -132t-6.5 -188.5l-39 -271q-10 -69 8 -92.5t80 -23.5h4q57 0 47 -66l-18 -121q-6 -59 -66 -59h-2q-64 0 -88.5 -25.5t-36.5 -111.5l-39 -301q-17 -113 -47 -190t-82 -129.5t-131.5 -71.5t-191.5 -7q-66 6 -60 70l15 106 q8 59 71 56q70 -1 100.5 28t39.5 101l49 352q17 115 65.5 176t130.5 76q-155 42 -125 250l45 311q9 69 -11 100t-83 41q-65 9 -57 70l14 107q9 60 68 57z" />
<glyph unicode="~" horiz-adv-x="856" d="M758 735q34 12 52 -3t13 -50l-16 -115q-5 -50 -51 -71q-106 -45 -205 -45q-65 0 -146 26.5t-141 26.5q-52 0 -164 -35q-34 -11 -51.5 4t-13.5 51l14 115q9 54 53 70q106 45 207 45q63 0 143 -26t140 -26q57 0 166 33z" />
<glyph unicode="&#xa1;" horiz-adv-x="432" d="M172 -377h-172q-34 0 -48.5 18t-8.5 50l139 889q9 57 70 57h133q32 0 47.5 -18t11.5 -50l-106 -886q-6 -60 -66 -60zM250 735q-82 0 -124.5 43t-31.5 113l6 51q9 66 51 97.5t123 31.5q82 0 122.5 -41t31.5 -108l-6 -50q-11 -71 -52 -104t-120 -33z" />
<glyph unicode="&#xa2;" horiz-adv-x="745" d="M686 993q56 -12 47 -73l-18 -113q-9 -69 -76 -47q-73 26 -131 26q-139 0 -164 -178l-29 -202q-13 -96 17.5 -138.5t103.5 -42.5q66 0 142 37q34 15 53.5 1.5t15.5 -50.5l-14 -121q-6 -51 -64 -74q-58 -21 -94 -28l-12 -111q-9 -59 -68 -59h-135q-66 0 -57 67l14 111 q-109 39 -157 140.5t-25 254.5l35 236q25 168 95.5 260.5t192.5 120.5l17 110q9 60 67 60h136q66 0 57 -68l-14 -102q11 -3 32 -8.5t33 -8.5z" />
<glyph unicode="&#xa3;" horiz-adv-x="849" d="M584 1255q103 0 209 -28q56 -15 47 -74l-15 -115q-9 -66 -75 -51q-84 23 -136 23q-74 0 -108.5 -28.5t-44.5 -98.5l-12 -95h98q32 0 47 -17t10 -48l-16 -109q-6 -59 -66 -59h-106l-13 -98q-11 -75 -36 -121.5t-76 -83.5h440q33 0 48.5 -17t11.5 -49l-19 -127 q-6 -59 -65 -59h-652q-31 0 -46 18t-11 50l10 77q4 39 37 80q57 63 72 185l20 145h-51q-32 0 -47.5 18t-11.5 50l16 108q9 57 66 57h61l18 111q60 356 396 356z" />
<glyph unicode="&#xa4;" horiz-adv-x="1001" d="M723 971l86 78q47 41 88 -7l80 -92q42 -48 -6 -90l-105 -90q14 -63 2 -145l-2 -25q-12 -84 -43 -145l72 -82q42 -48 -6 -90l-117 -101q-48 -45 -88 4l-63 74q-69 -29 -152 -29q-101 0 -176 35l-96 -84q-48 -45 -91 4l-77 93q-39 45 6 90l104 90q-17 55 -10 131l4 31 q10 101 39 163l-63 70q-39 49 8 90l116 103q23 20 46.5 18t42.5 -25l51 -61q75 35 166 35q103 0 184 -43zM516 760q-101 0 -117 -125l-2 -27q-16 -123 88 -123q96 0 115 123l2 27q19 125 -86 125z" />
<glyph unicode="&#xa5;" horiz-adv-x="956" d="M821 1231h189q38 0 50.5 -22t-9.5 -54l-363 -582h45q31 0 46.5 -17.5t11.5 -49.5l-11 -64q-6 -57 -65 -57h-121l-10 -66h114q31 0 45.5 -17.5t10.5 -49.5l-9 -64q-9 -59 -65 -59h-121l-10 -70q-9 -59 -68 -59h-162q-65 0 -59 68l8 61h-112q-32 0 -47.5 18.5t-10.5 49.5 l8 63q9 59 68 59h121l8 66h-113q-31 0 -46 17.5t-11 48.5l10 63q9 59 66 59h57l-205 586q-10 32 4 52t48 20h180q55 0 69 -55q67 -268 115 -521q158 284 271 529q23 47 73 47z" />
<glyph unicode="&#xa6;" horiz-adv-x="452" d="M299 1679h152q32 0 47.5 -17.5t11.5 -49.5l-104 -731q-9 -60 -66 -60h-154q-66 0 -57 68l102 731q9 59 68 59zM139 539h152q32 0 48 -17.5t11 -48.5l-104 -733q-9 -57 -68 -57h-151q-32 0 -48 17t-12 48l105 733q9 58 67 58z" />
<glyph unicode="&#xa7;" horiz-adv-x="860" d="M530 1423q110 0 224 -30q55 -14 49 -72l-19 -113q-12 -65 -75 -47q-87 27 -109 31q-40 4 -68 4q-43 0 -69.5 -23.5t-32.5 -64.5l-2 -14q-9 -65 51 -97l205 -116q93 -52 131 -122.5t27 -164.5l-4 -33q-10 -89 -76 -148.5t-172 -78.5q141 -93 119 -271l-4 -28 q-21 -142 -109 -210.5t-262 -68.5q-100 0 -238 31q-58 15 -49 76l19 112q12 66 75 48q76 -25 105 -29q46 -4 71 -4q52 0 81 22t34 60l4 24q7 60 -49 86l-207 115q-184 102 -160 293l7 37q12 85 76 145.5t159 77.5q-59 45 -86 117t-18 147l4 35q16 137 102 205.5t266 68.5z M518 690l-39 21q-166 -3 -178 -105l-2 -18q-6 -65 51 -96l33 -21q84 0 127 24.5t51 75.5l2 15q12 73 -45 104z" />
<glyph unicode="&#xa8;" horiz-adv-x="864" d="M379 1333l-8 -49q-9 -65 -48 -96t-114 -31q-73 0 -114 39t-32 102l7 50q17 127 163 127q75 0 115 -38t31 -104zM801 1333l-6 -49q-18 -127 -164 -127q-71 0 -113 39.5t-33 101.5l9 50q17 127 163 127q74 0 113.5 -38.5t30.5 -103.5z" />
<glyph unicode="&#xa9;" horiz-adv-x="1236" d="M690 1262q262 0 398 -139.5t106 -362.5l-47 -352q-30 -221 -168 -328t-416 -107q-138 0 -243.5 37.5t-168 105t-88 158.5t-10.5 199l49 369q29 215 170.5 317.5t417.5 102.5zM678 1063q-332 0 -363 -227l-53 -392q-18 -127 60.5 -199.5t248.5 -72.5q331 0 363 229l53 387 q19 129 -60 202t-249 73zM688 965q51 0 109 -15q31 -9 42 -23.5t7 -43.5l-15 -86q-9 -63 -55 -47q-38 10 -57 10q-75 0 -86 -88l-10 -72q-14 -104 59 -104q27 0 59 8q31 8 41 -2.5t6 -44.5l-10 -90q-9 -53 -57 -70q-61 -18 -123 -18q-121 0 -182.5 83.5t-38.5 241.5l12 80 q23 151 94.5 216t204.5 65z" />
<glyph unicode="&#xaa;" horiz-adv-x="899" d="M420 1366q59 0 121 -36.5t104 -90.5l6 43q9 59 66 59h131q68 0 59 -67l-104 -752q-9 -59 -68 -59h-133q-64 0 -55 67q2 35 18 78l86 232l-8 6l-8 -4q-62 -182 -153 -293t-206 -111q-120 0 -172 94.5t-18 280.5l31 178q69 375 303 375zM498 1116q-41 0 -64 -28.5 t-39 -112.5l-26 -150q-12 -77 -2.5 -104t43.5 -27q56 0 104 83.5t74 207.5l10 68q-20 29 -47.5 46t-52.5 17zM84 250h614q32 0 47.5 -17.5t10.5 -48.5l-17 -125q-5 -31 -20.5 -45t-46.5 -14h-613q-65 0 -59 68l18 125q9 57 66 57z" />
<glyph unicode="&#xab;" horiz-adv-x="1075" d="M379 911h170q37 0 48 -21t-11 -50l-205 -295l123 -301q12 -31 -0.5 -49.5t-46.5 -18.5h-176q-50 0 -68 43l-127 283q-17 45 8 80l213 292q25 37 72 37zM801 911h168q37 0 48 -21t-9 -50l-205 -295l123 -301q11 -31 -1.5 -49.5t-45.5 -18.5h-177q-48 0 -69 43l-127 283 q-18 45 10 80l213 292q25 37 72 37z" />
<glyph unicode="&#xac;" horiz-adv-x="856" d="M115 721h653q32 0 48 -17.5t11 -48.5l-57 -395q-9 -59 -65 -59h-138q-32 0 -48 18t-11 49l31 209h-449q-68 0 -59 68l18 117q9 59 66 59z" />
<glyph unicode="&#xad;" horiz-adv-x="630" d="M147 723h367q66 0 57 -68l-16 -112q-9 -58 -66 -58h-366q-69 0 -60 68l17 113q9 57 67 57z" />
<glyph unicode="&#xae;" horiz-adv-x="1005" d="M592 1423q209 0 306.5 -109t70.5 -304l-8 -60q-28 -195 -126.5 -279.5t-308.5 -84.5t-308 110t-71 305l9 62q28 195 124.5 277.5t311.5 82.5zM584 1290q-132 0 -196 -49.5t-79 -155.5l-18 -133q-15 -110 44 -170.5t193 -60.5q136 0 201.5 49t79.5 158l18 131 q15 111 -46 171t-197 60zM584 1208q78 0 115 -33.5t28 -91.5l-2 -14q-5 -39 -23 -64.5t-57 -39.5l53 -111q18 -35 -22 -35h-39q-21 0 -29 19q-19 53 -49 118q-25 -4 -47 2l-14 -112q-6 -27 -25 -27h-41q-25 0 -22 27l43 313q6 42 43 45q43 4 88 4zM584 1130q-29 0 -47 -2 l-15 -96q16 -2 51 -2q24 0 39.5 11.5t18.5 27.5l2 18q3 19 -10 31t-39 12z" />
<glyph unicode="&#xaf;" horiz-adv-x="661" d="M520 1212h-403q-26 0 -38.5 15t-8.5 41l14 118q6 48 57 48h404q26 0 38.5 -15t8.5 -41l-14 -116q-6 -50 -58 -50z" />
<glyph unicode="&#xb0;" horiz-adv-x="819" d="M504 1423q175 0 263.5 -103t66.5 -280l-5 -41q-26 -184 -116 -269t-262 -85q-180 0 -270 103.5t-68 283.5l4 41q22 181 115 265.5t272 84.5zM492 1190q-95 0 -109 -123l-8 -57q-16 -129 82 -129q49 0 74 29.5t34 90.5l6 60q10 64 -11 96.5t-68 32.5z" />
<glyph unicode="&#xb1;" horiz-adv-x="813" d="M399 1059h138q32 0 47 -17.5t10 -48.5l-29 -211h185q65 0 59 -65l-18 -121q-9 -59 -66 -59h-195l-22 -148q-6 -57 -66 -57h-137q-66 0 -57 67l18 138h-184q-68 0 -59 67l18 121q6 57 65 57h195l33 219q6 58 65 58zM29 246h645q66 0 57 -68l-14 -119q-9 -59 -68 -59h-645 q-31 0 -46 18t-11 50l16 118q9 60 66 60z" />
<glyph unicode="&#xb2;" horiz-adv-x="790" d="M520 1556q150 0 216 -66.5t52 -193.5l-2 -20q-15 -139 -196 -285l-107 -92h197q55 0 49 -57l-16 -115q-6 -49 -56 -49h-467q-55 0 -49 55l11 78q5 39 32 66l291 280q52 49 60 100l2 13q5 33 -16.5 51t-67.5 18q-50 0 -146 -28q-29 -7 -44.5 6.5t-10.5 42.5l12 100 q4 32 21.5 48t52.5 24q102 24 182 24z" />
<glyph unicode="&#xb3;" horiz-adv-x="790" d="M492 1556q137 0 207.5 -65t56.5 -166l-2 -16q-8 -63 -52 -113.5t-120 -71.5q75 -23 110.5 -79t24.5 -132l-2 -14q-18 -112 -101.5 -174.5t-230.5 -62.5q-94 0 -193 24q-52 13 -43 64l15 98q6 57 61 41q85 -21 148 -21q84 0 96 72l2 12q6 37 -12.5 56.5t-67.5 19.5h-90 q-59 0 -53 55l12 80q6 49 53 49h101q41 0 60.5 15t25.5 49l2 12q5 30 -14 48t-60 18q-50 0 -131 -19q-30 -6 -44 8.5t-9 47.5l12 84q4 32 22.5 47.5t57.5 21.5q99 12 158 12z" />
<glyph unicode="&#xb4;" horiz-adv-x="610" d="M496 1368l-183 -219q-24 -31 -65 -31h-113q-32 0 -43 18t6 46l127 213q22 37 64 37h178q33 0 41.5 -19t-12.5 -45z" />
<glyph unicode="&#xb5;" horiz-adv-x="923" d="M520 129l92 254l-6 4l-8 -2q-47 -138 -113.5 -234t-146.5 -133q-30 -13 -66 -16q-29 -178 -65 -326q-11 -55 -70 -55h-145q-34 0 -48.5 19t-6.5 51q39 156 86 471l112 778q6 59 66 59h153q33 0 48.5 -17.5t11.5 -49.5l-82 -572q-10 -78 -0.5 -103.5t39.5 -25.5 q65 0 115 102.5t73 258.5l49 348q9 59 66 59h153q67 0 58 -67l-121 -873q-9 -59 -68 -59h-135q-61 0 -55 66q2 26 14 63z" />
<glyph unicode="&#xb6;" horiz-adv-x="1167" d="M444 1399h234q66 0 57 -68l-231 -1650q-9 -60 -66 -60h-153q-32 0 -47.5 18t-10.5 50l129 915h-41q-131 0 -202 84.5t-50 231.5l31 202q20 148 101 212.5t249 64.5zM971 1399h151q32 0 48 -18t12 -50l-234 -1650q-9 -60 -65 -60h-152q-32 0 -47.5 18t-11.5 50l233 1650 q9 60 66 60zM444 1200h-47q-41 0 -61.5 -28.5t-32.5 -106.5l-16 -111q-13 -80 3.5 -112.5t57.5 -32.5h37z" />
<glyph unicode="&#xb7;" horiz-adv-x="438" d="M166 721q82 0 124.5 -43t33.5 -113l-9 -51q-8 -67 -45 -98t-120 -31q-86 0 -127.5 42t-32.5 110l6 49q9 72 48.5 103.5t121.5 31.5z" />
<glyph unicode="&#xb8;" horiz-adv-x="534" d="M272 100h82q31 0 41 -16.5t-4 -42.5l-49 -109h6q59 0 94.5 -42t28.5 -105l-2 -16q-20 -172 -260 -172q-57 0 -103 10q-50 12 -45 61l11 64q6 46 45 37q33 -11 57 -11q29 0 49 11t23 30l2 11q5 23 -10 37t-54 14h-10q-57 0 -31 59l68 141q16 39 61 39z" />
<glyph unicode="&#xb9;" horiz-adv-x="790" d="M559 1540h76q55 0 49 -55l-82 -586h92q55 0 49 -57l-16 -115q-6 -49 -55 -49h-455q-58 0 -49 55l16 117q6 49 56 49h122l56 397l-121 -47q-25 -11 -42.5 -1t-21.5 38l-8 100q-6 47 39 62l230 82q29 10 65 10z" />
<glyph unicode="&#xba;" horiz-adv-x="935" d="M905 975l-24 -170q-28 -192 -128.5 -284.5t-289.5 -92.5q-193 0 -282.5 102.5t-63.5 290.5l22 168q28 190 130 283.5t292 93.5q191 0 280.5 -102t63.5 -289zM600 797l29 194q9 61 -15.5 94t-74.5 33q-100 0 -117 -121l-29 -192q-9 -62 14.5 -95.5t73.5 -33.5 q105 0 119 121zM700 0h-618q-65 0 -59 68l18 125q9 57 65 57h619q33 0 48.5 -17.5t10.5 -48.5l-18 -125q-6 -59 -66 -59z" />
<glyph unicode="&#xbb;" horiz-adv-x="1075" d="M270 176h-166q-37 0 -48.5 21.5t10.5 50.5l202 295l-121 301q-12 31 1 49t47 18h174q52 0 71 -43l125 -282q20 -42 -8 -80l-215 -293q-24 -37 -72 -37zM692 176h-168q-37 0 -48 21.5t9 50.5l207 295l-123 301q-12 31 0.5 49t44.5 18h177q50 0 69 -43l127 -282 q17 -42 -8 -80l-215 -293q-24 -37 -72 -37z" />
<glyph unicode="&#xbc;" horiz-adv-x="2017" d="M506 1233h76q55 0 49 -55l-82 -586h92q55 0 49 -57l-16 -115q-6 -49 -56 -49h-454q-58 0 -49 55l16 117q6 49 55 49h123l56 397l-121 -47q-25 -11 -42.5 -1t-21.5 38l-8 100q-6 47 39 62l229 82q29 10 66 10zM1341 1231h142q38 0 50.5 -22t-9.5 -54l-721 -1114 q-25 -41 -76 -41h-141q-38 0 -50.5 22t9.5 54l721 1114q25 41 75 41zM1556 862h105q30 0 41 -16.5t0 -44.5l-205 -451h145l3 15q4 23 12 55l24 121q12 45 60 45h110q56 0 50 -56l-25 -180h25q53 0 47 -55l-15 -98q-9 -50 -53 -50h-35l-12 -98q-6 -49 -55 -49h-127 q-58 0 -49 55l12 92h-297q-45 0 -62 43l-12 41q-11 38 4 70l248 522q17 39 61 39z" />
<glyph unicode="&#xbd;" horiz-adv-x="2066" d="M518 1233h76q55 0 49 -55l-82 -586h92q55 0 49 -57l-16 -115q-6 -49 -55 -49h-455q-58 0 -49 55l16 117q6 49 56 49h123l55 397l-121 -47q-25 -11 -42 -1t-21 38l-9 100q-6 47 39 62l230 82q29 10 65 10zM1356 1231h141q38 0 50.5 -22t-9.5 -54l-721 -1114 q-25 -41 -76 -41h-141q-38 0 -50.5 22t9.5 54l721 1114q25 41 76 41zM1702 879q150 0 216 -67t52 -194l-2 -20q-15 -139 -196 -285l-107 -92h197q55 0 49 -57l-17 -115q-6 -49 -55 -49h-467q-55 0 -49 55l10 78q5 38 33 66l291 280q51 48 59 101l2 12q5 33 -16.5 51.5 t-67.5 18.5q-45 0 -145 -29q-29 -7 -44.5 6.5t-10.5 42.5l12 100q4 32 21.5 48t52.5 24q106 25 182 25z" />
<glyph unicode="&#xbe;" horiz-adv-x="2048" d="M1348 1231h141q38 0 50.5 -22t-9.5 -54l-721 -1114q-25 -41 -76 -41h-141q-38 0 -50.5 22t9.5 54l721 1114q25 41 76 41zM1569 862h104q30 0 41 -16.5t0 -44.5l-205 -451h146l2 15q4 23 12 55l25 121q12 45 59 45h111q55 0 49 -56l-25 -180h25q53 0 47 -55l-14 -98 q-9 -50 -54 -50h-34l-13 -98q-6 -49 -55 -49h-127q-58 0 -49 55l12 92h-297q-44 0 -61 43l-13 41q-11 37 5 70l247 522q17 39 62 39zM403 1249q138 0 208.5 -65t56.5 -166l-2 -17q-8 -63 -52 -113t-120 -71q75 -23 110.5 -79t24.5 -132l-2 -14q-18 -112 -101.5 -175 t-230.5 -63q-90 0 -193 25q-52 13 -43 63l15 99q6 57 61 41q86 -21 148 -21q84 0 96 72l2 12q6 37 -12.5 56.5t-67.5 19.5h-90q-59 0 -53 55l12 80q6 49 53 49h101q41 0 60.5 15t25.5 49l2 12q5 30 -14 48t-60 18q-50 0 -131 -19q-31 -6 -44.5 8.5t-8.5 46.5l12 84 q4 32 22.5 48t57.5 22q99 12 157 12z" />
<glyph unicode="&#xbf;" horiz-adv-x="774" d="M307 -403q-201 0 -287 89t-59 253l4 26q13 89 56.5 158t140.5 160l80 73q31 29 46.5 64.5t24.5 101.5l2 17q9 57 68 57h145q32 0 47 -13.5t11 -39.5l-2 -23q-19 -117 -46.5 -178t-86.5 -115l-119 -114q-46 -45 -63.5 -76t-22.5 -72l-2 -16q-8 -54 23 -82.5t110 -28.5 q50 0 198 41q34 9 51 -6.5t13 -50.5l-14 -119q-6 -59 -76 -74q-122 -32 -242 -32zM485 709q-81 0 -123.5 43t-31.5 112l8 51q9 67 50 98t122 31q83 0 123 -40.5t31 -108.5l-7 -49q-11 -71 -51 -104t-121 -33z" />
<glyph unicode="&#xc0;" d="M526 1341h226q60 0 69 -57l203 -1216q6 -32 -8.5 -50t-48.5 -18h-179q-60 0 -63 59q-11 130 -20 203h-386q-40 -114 -77 -211q-19 -51 -72 -51h-172q-35 0 -48 19.5t-1 52.5l504 1220q20 49 73 49zM610 1108q-135 -403 -207 -604h279q-25 249 -72 604zM362 1741h164 q44 0 64 -35l133 -195q19 -26 9 -44.5t-42 -18.5h-112q-41 0 -66 29l-178 200q-23 26 -14.5 45t42.5 19z" />
<glyph unicode="&#xc1;" d="M526 1341h226q60 0 69 -57l203 -1216q6 -32 -8.5 -50t-48.5 -18h-179q-60 0 -63 59q-11 130 -20 203h-386q-40 -114 -77 -211q-19 -51 -72 -51h-172q-35 0 -48 19.5t-1 52.5l504 1220q20 49 73 49zM610 1108q-135 -403 -207 -604h279q-25 249 -72 604zM750 1741h163 q34 0 43 -19.5t-14 -44.5l-178 -200q-26 -29 -66 -29h-112q-32 0 -42 18.5t9 44.5l133 195q20 35 64 35z" />
<glyph unicode="&#xc2;" d="M526 1341h226q60 0 69 -57l203 -1216q6 -32 -8.5 -50t-48.5 -18h-179q-60 0 -63 59q-11 130 -20 203h-386q-40 -114 -77 -211q-19 -51 -72 -51h-172q-35 0 -48 19.5t-1 52.5l504 1220q20 49 73 49zM610 1108q-135 -403 -207 -604h279q-25 249 -72 604zM395 1690l252 108 q35 14 70 -4l211 -102q38 -22 35 -66l-17 -102q-6 -57 -63 -39l-232 92l-256 -90q-29 -10 -44.5 2.5t-12.5 42.5l14 100q3 43 43 58z" />
<glyph unicode="&#xc3;" d="M526 1341h226q60 0 69 -57l203 -1216q6 -32 -8.5 -50t-48.5 -18h-179q-60 0 -63 59q-11 130 -20 203h-386q-40 -114 -77 -211q-19 -51 -72 -51h-172q-35 0 -48 19.5t-1 52.5l504 1220q20 49 73 49zM610 1108q-135 -403 -207 -604h279q-25 249 -72 604zM961 1671l-13 -98 q-6 -42 -39 -60q-86 -47 -157 -47q-46 0 -124 31t-120 31q-48 0 -115 -27q-31 -12 -46.5 -0.5t-12.5 43.5l14 98q6 42 37 58q86 49 158 49q61 0 134.5 -31.5t108.5 -31.5q43 0 117 28q29 12 45.5 0t12.5 -43z" />
<glyph unicode="&#xc4;" d="M526 1341h226q60 0 69 -57l203 -1216q6 -32 -8.5 -50t-48.5 -18h-179q-60 0 -63 59q-11 130 -20 203h-386q-40 -114 -77 -211q-19 -51 -72 -51h-172q-35 0 -48 19.5t-1 52.5l504 1220q20 49 73 49zM610 1108q-135 -403 -207 -604h279q-25 249 -72 604zM596 1624l-8 -49 q-8 -65 -47 -96t-115 -31q-71 0 -112.5 39.5t-32.5 101.5l6 49q17 127 162 127q75 0 114.5 -37.5t32.5 -103.5zM1018 1624l-6 -49q-9 -65 -48 -96t-114 -31q-73 0 -115 39.5t-33 101.5l9 49q17 127 161 127q76 0 115.5 -37.5t30.5 -103.5z" />
<glyph unicode="&#xc5;" d="M688 1708q116 0 182 -54t66 -149q0 -153 -115 -221l203 -1216q6 -32 -8.5 -50t-48.5 -18h-179q-60 0 -63 59q-11 130 -20 203h-386q-40 -114 -77 -211q-19 -51 -72 -51h-172q-35 0 -48 19.5t-1 52.5l504 1224q-60 51 -60 138q0 130 78 202t217 72zM674 1546 q-74 0 -74 -84q0 -60 57 -63q35 0 54.5 22.5t19.5 65.5q0 28 -15.5 43.5t-41.5 15.5zM610 1108q-135 -403 -207 -604h279q-25 249 -72 604z" />
<glyph unicode="&#xc6;" horiz-adv-x="1542" d="M662 1341h835q32 0 47.5 -17.5t11.5 -49.5l-18 -141q-5 -30 -21 -44t-49 -14h-424l-32 -262h374q71 0 62 -65l-18 -140q-9 -59 -66 -59h-385l-35 -283h420q66 0 57 -65l-16 -142q-6 -59 -66 -59h-647q-32 0 -48 17.5t-11 48.5l26 215h-307q-62 -124 -125 -236 q-13 -25 -30 -35t-43 -10h-174q-37 0 -50.5 21t4.5 53l654 1222q22 45 74 45zM690 547l70 557q-86 -184 -277 -557h207z" />
<glyph unicode="&#xc7;" horiz-adv-x="927" d="M887 1323q58 -15 49 -74l-18 -135q-9 -66 -74 -47q-132 39 -215 39q-106 0 -159.5 -52t-70.5 -182l-51 -411q-15 -115 29.5 -167t150.5 -52q100 0 222 39q34 10 52 -5.5t15 -52.5l-16 -135q-3 -28 -16 -43.5t-42 -24.5q-77 -23 -184 -38l-22 -50h6q59 0 94.5 -42 t28.5 -105l-2 -16q-20 -172 -258 -172q-59 0 -105 10q-51 12 -43 61l8 64q6 46 45 37q37 -11 60 -11q28 0 47.5 11t23.5 30l2 11q5 23 -10.5 37t-54.5 14h-10q-57 0 -31 59l29 62q-179 23 -256 148t-48 349l52 416q30 250 149 360.5t348 110.5q130 0 275 -43z" />
<glyph unicode="&#xc8;" horiz-adv-x="931" d="M236 1341h647q32 0 47.5 -17.5t11.5 -49.5l-18 -141q-9 -58 -68 -58h-424l-33 -262h375q69 0 60 -65l-17 -140q-5 -31 -20.5 -45t-46.5 -14h-385l-33 -283h418q65 0 59 -65l-16 -142q-6 -59 -66 -59h-647q-32 0 -48.5 17.5t-13.5 48.5l150 1216q9 59 68 59zM309 1741h164 q44 0 64 -35l133 -195q19 -26 9 -44.5t-42 -18.5h-113q-40 0 -65 29l-178 200q-23 26 -14.5 45t42.5 19z" />
<glyph unicode="&#xc9;" horiz-adv-x="931" d="M236 1341h647q32 0 47.5 -17.5t11.5 -49.5l-18 -141q-9 -58 -68 -58h-424l-33 -262h375q69 0 60 -65l-17 -140q-5 -31 -20.5 -45t-46.5 -14h-385l-33 -283h418q65 0 59 -65l-16 -142q-6 -59 -66 -59h-647q-32 0 -48.5 17.5t-13.5 48.5l150 1216q9 59 68 59zM696 1741h164 q34 0 43 -19.5t-14 -44.5l-178 -200q-26 -29 -66 -29h-113q-32 0 -41.5 18.5t9.5 44.5l133 195q20 35 63 35z" />
<glyph unicode="&#xca;" horiz-adv-x="931" d="M236 1341h647q32 0 47.5 -17.5t11.5 -49.5l-18 -141q-9 -58 -68 -58h-424l-33 -262h375q69 0 60 -65l-17 -140q-5 -31 -20.5 -45t-46.5 -14h-385l-33 -283h418q65 0 59 -65l-16 -142q-6 -59 -66 -59h-647q-32 0 -48.5 17.5t-13.5 48.5l150 1216q9 59 68 59zM344 1690 l252 108q35 14 70 -4l211 -102q37 -22 34 -66l-16 -102q-6 -58 -64 -39l-231 92l-256 -90q-29 -10 -44.5 2.5t-12.5 42.5l14 100q3 43 43 58z" />
<glyph unicode="&#xcb;" horiz-adv-x="931" d="M236 1341h647q32 0 47.5 -17.5t11.5 -49.5l-18 -141q-9 -58 -68 -58h-424l-33 -262h375q69 0 60 -65l-17 -140q-5 -31 -20.5 -45t-46.5 -14h-385l-33 -283h418q65 0 59 -65l-16 -142q-6 -59 -66 -59h-647q-32 0 -48.5 17.5t-13.5 48.5l150 1216q9 59 68 59zM545 1624 l-8 -49q-8 -65 -47 -96t-115 -31q-71 0 -113 39.5t-33 101.5l7 49q17 127 161 127q75 0 115 -37.5t33 -103.5zM967 1624l-6 -49q-9 -65 -48 -96t-114 -31q-73 0 -115 39.5t-33 101.5l8 49q17 127 162 127q76 0 115.5 -37.5t30.5 -103.5z" />
<glyph unicode="&#xcc;" horiz-adv-x="468" d="M238 1341h161q32 0 48 -17t12 -48l-148 -1217q-9 -59 -67 -59h-164q-31 0 -47 17.5t-13 48.5l150 1216q9 59 68 59zM59 1741h164q44 0 64 -35l133 -195q19 -26 9 -44.5t-42 -18.5h-113q-40 0 -65 29l-178 200q-23 26 -14.5 45t42.5 19z" />
<glyph unicode="&#xcd;" horiz-adv-x="468" d="M238 1341h161q32 0 48 -17t12 -48l-148 -1217q-9 -59 -67 -59h-164q-31 0 -47 17.5t-13 48.5l150 1216q9 59 68 59zM446 1741h164q34 0 43 -19.5t-14 -44.5l-178 -200q-26 -29 -66 -29h-112q-32 0 -42 18.5t9 44.5l133 195q20 35 63 35z" />
<glyph unicode="&#xce;" horiz-adv-x="468" d="M238 1341h161q32 0 48 -17t12 -48l-148 -1217q-9 -59 -67 -59h-164q-31 0 -47 17.5t-13 48.5l150 1216q9 59 68 59zM92 1690l252 108q35 14 70 -4l211 -102q37 -22 34 -66l-16 -102q-6 -57 -63 -39l-232 92l-256 -90q-29 -10 -44.5 2.5t-12.5 42.5l14 100q3 43 43 58z " />
<glyph unicode="&#xcf;" horiz-adv-x="468" d="M238 1341h161q32 0 48 -17t12 -48l-148 -1217q-9 -59 -67 -59h-164q-31 0 -47 17.5t-13 48.5l150 1216q9 59 68 59zM295 1624l-8 -49q-8 -65 -47 -96t-115 -31q-71 0 -112.5 39.5t-32.5 101.5l6 49q17 127 161 127q75 0 115 -37.5t33 -103.5zM717 1624l-6 -49 q-9 -65 -48 -96t-114 -31q-73 0 -115 39.5t-33 101.5l9 49q17 127 161 127q76 0 115.5 -37.5t30.5 -103.5z" />
<glyph unicode="&#xd0;" horiz-adv-x="1138" d="M614 1366q256 0 383 -154.5t93 -423.5l-37 -294q-33 -258 -184 -388.5t-429 -130.5q-153 0 -319 13q-62 6 -53 71l63 523h-70q-65 0 -59 67l14 107q6 59 66 59h78l59 483q9 57 66 60q196 8 329 8zM588 1110q-23 0 -105 -4l-37 -291h152q31 0 46 -17.5t11 -49.5l-12 -107 q-9 -59 -65 -59h-158l-43 -340q97 -9 108 -9q117 0 189.5 65t89.5 191l41 326q18 149 -38.5 222t-178.5 73z" />
<glyph unicode="&#xd1;" horiz-adv-x="1116" d="M899 1341h148q32 0 47.5 -17t11.5 -48l-150 -1217q-6 -59 -65 -59h-236q-57 0 -69 55l-197 797l-94 -793q-6 -59 -66 -59h-149q-31 0 -47 17.5t-13 48.5l150 1216q9 59 68 59h223q55 0 69 -53q126 -449 207 -811l94 805q9 59 68 59zM999 1671l-12 -98q-6 -42 -39 -60 q-86 -47 -157 -47q-46 0 -124 31t-120 31q-47 0 -115 -27q-31 -12 -46.5 -0.5t-12.5 43.5l14 98q6 42 37 58q86 49 158 49q61 0 134.5 -31.5t108.5 -31.5q43 0 117 28q29 12 45 0t12 -43z" />
<glyph unicode="&#xd2;" horiz-adv-x="1101" d="M621 1366q232 0 348.5 -124.5t89.5 -352.5l-60 -467q-27 -227 -148 -337t-357 -110q-237 0 -350 127.5t-85 352.5l58 467q29 233 148.5 338.5t355.5 105.5zM604 1104q-177 0 -198 -178l-62 -502q-10 -91 32.5 -138.5t133.5 -47.5q178 0 199 182l63 500q11 90 -32 137 t-136 47zM373 1741h164q43 0 63 -35l133 -195q19 -26 9 -44.5t-42 -18.5h-112q-41 0 -66 29l-178 200q-23 26 -14 45t43 19z" />
<glyph unicode="&#xd3;" horiz-adv-x="1101" d="M621 1366q232 0 348.5 -124.5t89.5 -352.5l-60 -467q-27 -227 -148 -337t-357 -110q-237 0 -350 127.5t-85 352.5l58 467q29 233 148.5 338.5t355.5 105.5zM604 1104q-177 0 -198 -178l-62 -502q-10 -91 32.5 -138.5t133.5 -47.5q178 0 199 182l63 500q11 90 -32 137 t-136 47zM760 1741h164q34 0 42.5 -19.5t-14.5 -44.5l-178 -200q-26 -29 -65 -29h-113q-32 0 -42 18.5t9 44.5l133 195q20 35 64 35z" />
<glyph unicode="&#xd4;" horiz-adv-x="1101" d="M621 1366q232 0 348.5 -124.5t89.5 -352.5l-60 -467q-27 -227 -148 -337t-357 -110q-237 0 -350 127.5t-85 352.5l58 467q29 233 148.5 338.5t355.5 105.5zM604 1104q-177 0 -198 -178l-62 -502q-10 -91 32.5 -138.5t133.5 -47.5q178 0 199 182l63 500q11 90 -32 137 t-136 47zM406 1690l251 108q35 14 70 -4l211 -102q38 -22 35 -66l-17 -102q-6 -57 -63 -39l-231 92l-256 -90q-29 -10 -45 2.5t-13 42.5l14 100q3 43 44 58z" />
<glyph unicode="&#xd5;" horiz-adv-x="1101" d="M621 1366q232 0 348.5 -124.5t89.5 -352.5l-60 -467q-27 -227 -148 -337t-357 -110q-237 0 -350 127.5t-85 352.5l58 467q29 233 148.5 338.5t355.5 105.5zM604 1104q-177 0 -198 -178l-62 -502q-10 -91 32.5 -138.5t133.5 -47.5q178 0 199 182l63 500q11 90 -32 137 t-136 47zM971 1671l-13 -98q-6 -42 -38 -60q-86 -47 -158 -47q-46 0 -124 31t-120 31q-48 0 -115 -27q-31 -12 -46.5 -0.5t-12.5 43.5l14 98q6 42 37 58q86 49 158 49q61 0 135 -31.5t109 -31.5q42 0 116 28q29 12 45.5 0t12.5 -43z" />
<glyph unicode="&#xd6;" horiz-adv-x="1101" d="M621 1366q232 0 348.5 -124.5t89.5 -352.5l-60 -467q-27 -227 -148 -337t-357 -110q-237 0 -350 127.5t-85 352.5l58 467q29 233 148.5 338.5t355.5 105.5zM604 1104q-177 0 -198 -178l-62 -502q-10 -91 32.5 -138.5t133.5 -47.5q178 0 199 182l63 500q11 90 -32 137 t-136 47zM608 1624l-8 -49q-8 -65 -47 -96t-115 -31q-71 0 -112.5 39.5t-32.5 101.5l6 49q17 127 162 127q75 0 114.5 -37.5t32.5 -103.5zM1030 1624l-6 -49q-9 -65 -48 -96t-114 -31q-73 0 -114.5 39.5t-32.5 101.5l8 49q17 127 162 127q75 0 114.5 -37.5t30.5 -103.5z" />
<glyph unicode="&#xd7;" horiz-adv-x="856" d="M457 778l170 150q48 45 90 -4l69 -80q39 -48 -6 -90l-174 -152l129 -149q43 -46 -6 -86l-117 -99q-42 -40 -88 6l-127 146l-168 -148q-48 -42 -90 7l-69 79q-40 46 8 88l170 150l-125 147q-42 48 4 91l113 100q47 44 88 -4z" />
<glyph unicode="&#xd8;" horiz-adv-x="1101" d="M995 1444h129q40 0 51.5 -22t-10.5 -54l-141 -207q53 -111 35 -272l-60 -467q-27 -227 -147.5 -337t-357.5 -110q-136 0 -242 50l-62 -88q-29 -39 -75 -39h-129q-38 0 -49.5 22t10.5 53l143 211q-49 108 -31 271l58 467q29 232 148.5 338t355.5 106q137 0 239 -51l60 88 q25 41 75 41zM604 1104q-177 0 -198 -178l-44 -353l-4 -47l369 541q-43 37 -123 37zM756 815l-369 -541q42 -36 123 -36q178 0 199 182l45 352q2 18 2 43z" />
<glyph unicode="&#xd9;" d="M872 1341h166q31 0 47 -17.5t13 -49.5l-105 -834q-31 -238 -151.5 -351.5t-345.5 -113.5q-233 0 -344.5 123.5t-83.5 343.5l104 840q9 59 68 59h161q33 0 48.5 -17.5t11.5 -49.5l-107 -846q-10 -88 33 -138t127 -50q163 0 186 182l107 860q9 59 65 59zM381 1741h164 q43 0 63 -35l133 -195q19 -26 9.5 -44.5t-41.5 -18.5h-113q-41 0 -66 29l-178 200q-23 26 -14 45t43 19z" />
<glyph unicode="&#xda;" d="M872 1341h166q31 0 47 -17.5t13 -49.5l-105 -834q-31 -238 -151.5 -351.5t-345.5 -113.5q-233 0 -344.5 123.5t-83.5 343.5l104 840q9 59 68 59h161q33 0 48.5 -17.5t11.5 -49.5l-107 -846q-10 -88 33 -138t127 -50q163 0 186 182l107 860q9 59 65 59zM768 1741h164 q34 0 43 -19.5t-14 -44.5l-179 -200q-26 -29 -65 -29h-113q-32 0 -42 18.5t9 44.5l134 195q20 35 63 35z" />
<glyph unicode="&#xdb;" d="M872 1341h166q31 0 47 -17.5t13 -49.5l-105 -834q-31 -238 -151.5 -351.5t-345.5 -113.5q-233 0 -344.5 123.5t-83.5 343.5l104 840q9 59 68 59h161q33 0 48.5 -17.5t11.5 -49.5l-107 -846q-10 -88 33 -138t127 -50q163 0 186 182l107 860q9 59 65 59zM414 1690l252 108 q35 14 69 -4l211 -102q38 -22 35 -66l-16 -102q-6 -58 -64 -39l-231 92l-256 -90q-29 -10 -45 2.5t-13 42.5l15 100q3 43 43 58z" />
<glyph unicode="&#xdc;" d="M872 1341h166q31 0 47 -17.5t13 -49.5l-105 -834q-31 -238 -151.5 -351.5t-345.5 -113.5q-233 0 -344.5 123.5t-83.5 343.5l104 840q9 59 68 59h161q33 0 48.5 -17.5t11.5 -49.5l-107 -846q-10 -88 33 -138t127 -50q163 0 186 182l107 860q9 59 65 59zM616 1624l-8 -49 q-8 -65 -47 -96t-115 -31q-71 0 -112.5 39.5t-32.5 101.5l6 49q17 127 162 127q75 0 114.5 -37.5t32.5 -103.5zM1038 1624l-6 -49q-9 -65 -48 -96t-114 -31q-73 0 -114.5 39.5t-32.5 101.5l8 49q17 127 162 127q75 0 114.5 -37.5t30.5 -103.5z" />
<glyph unicode="&#xdd;" horiz-adv-x="1077" d="M887 1341h188q37 0 49.5 -21t-6.5 -52l-452 -803l-50 -406q-6 -59 -65 -59h-164q-31 0 -46.5 17.5t-12.5 48.5l49 399l-256 807q-9 31 4.5 50t46.5 19h184q58 0 70 -55q65 -264 123 -551q138 272 264 559q20 47 74 47zM737 1741h164q34 0 43 -19.5t-14 -44.5l-178 -200 q-26 -29 -66 -29h-113q-32 0 -41.5 18.5t9.5 44.5l133 195q20 35 63 35z" />
<glyph unicode="&#xde;" horiz-adv-x="1003" d="M240 1341h161q32 0 48 -17t12 -48l-19 -154q37 2 88 2q236 0 359.5 -119t99.5 -313l-2 -20q-25 -196 -151 -306t-324 -110q-55 0 -172 20l-27 -217q-9 -59 -67 -59h-164q-31 0 -46.5 17.5t-12.5 48.5l149 1216q9 59 68 59zM514 874q-40 0 -98 -4l-43 -350q62 -10 110 -10 q189 0 215 174l2 18q12 78 -36.5 125t-149.5 47z" />
<glyph unicode="&#xdf;" horiz-adv-x="1026" d="M612 1423q167 0 262 -88.5t80 -220.5l-2 -31q-6 -50 -23 -90t-38 -65t-41 -46.5t-37 -46t-22 -51.5l-5 -16q-5 -34 3.5 -55.5t33.5 -38.5l47 -33q134 -92 107 -311l-4 -27q-23 -163 -100 -245.5t-199 -82.5q-98 0 -195 31q-53 17 -47 76l19 119q12 65 57 49 q12 -4 32.5 -11t32.5 -10q14 -2 31 -2q35 0 59.5 26.5t30.5 72.5l2 22q12 69 -49 109l-41 28q-113 77 -92 246l4 23q6 43 23.5 77t38 57t41 45.5t36 54t19.5 71.5l2 28q5 44 -19.5 71.5t-68.5 27.5q-49 0 -74 -31.5t-35 -112.5l-137 -983q-9 -59 -68 -59h-151q-65 0 -59 68 l96 686h-64q-66 0 -57 63l12 96q5 30 17.5 43t42.5 19l82 14l4 27q32 220 127.5 313.5t285.5 93.5z" />
<glyph unicode="&#xe0;" horiz-adv-x="913" d="M387 1024q59 0 120 -36t105 -93l6 47q6 57 68 57h131q66 0 57 -67l-120 -873q-9 -59 -68 -59h-133q-61 0 -55 68q2 39 18 82l86 233l-6 4l-10 -2q-63 -184 -153.5 -297t-205.5 -113q-120 0 -172.5 93.5t-21.5 279.5l49 299q32 194 112.5 285.5t192.5 91.5zM463 774 q-39 0 -64.5 -32.5t-38.5 -108.5l-45 -273q-12 -73 -0.5 -101t45.5 -28q56 0 104.5 82.5t74.5 202.5l26 195q-47 63 -102 63zM399 1149l-182 219q-22 26 -12.5 45t43.5 19h176q44 0 63 -37l127 -213q17 -28 6.5 -46t-42.5 -18h-113q-42 0 -66 31z" />
<glyph unicode="&#xe1;" horiz-adv-x="913" d="M387 1024q59 0 120 -36t105 -93l6 47q6 57 68 57h131q66 0 57 -67l-120 -873q-9 -59 -68 -59h-133q-61 0 -55 68q2 39 18 82l86 233l-6 4l-10 -2q-63 -184 -153.5 -297t-205.5 -113q-120 0 -172.5 93.5t-21.5 279.5l49 299q32 194 112.5 285.5t192.5 91.5zM463 774 q-39 0 -64.5 -32.5t-38.5 -108.5l-45 -273q-12 -73 -0.5 -101t45.5 -28q56 0 104.5 82.5t74.5 202.5l26 195q-47 63 -102 63zM836 1368l-183 -219q-24 -31 -65 -31h-113q-32 0 -43 18t6 46l127 213q22 37 64 37h178q33 0 41.5 -19t-12.5 -45z" />
<glyph unicode="&#xe2;" horiz-adv-x="913" d="M387 1024q59 0 120 -36t105 -93l6 47q6 57 68 57h131q66 0 57 -67l-120 -873q-9 -59 -68 -59h-133q-61 0 -55 68q2 39 18 82l86 233l-6 4l-10 -2q-63 -184 -153.5 -297t-205.5 -113q-120 0 -172.5 93.5t-21.5 279.5l49 299q32 194 112.5 285.5t192.5 91.5zM463 774 q-39 0 -64.5 -32.5t-38.5 -108.5l-45 -273q-12 -73 -0.5 -101t45.5 -28q56 0 104.5 82.5t74.5 202.5l26 195q-47 63 -102 63zM315 1337l238 121q39 20 72 -4l188 -123q37 -22 31 -67l-15 -97q-3 -30 -21 -38.5t-44 4.5l-205 114l-240 -112q-29 -13 -45.5 -1t-13.5 44l14 100 q5 39 41 59z" />
<glyph unicode="&#xe3;" horiz-adv-x="913" d="M387 1024q59 0 120 -36t105 -93l6 47q6 57 68 57h131q66 0 57 -67l-120 -873q-9 -59 -68 -59h-133q-61 0 -55 68q2 39 18 82l86 233l-6 4l-10 -2q-63 -184 -153.5 -297t-205.5 -113q-120 0 -172.5 93.5t-21.5 279.5l49 299q32 194 112.5 285.5t192.5 91.5zM463 774 q-39 0 -64.5 -32.5t-38.5 -108.5l-45 -273q-12 -73 -0.5 -101t45.5 -28q56 0 104.5 82.5t74.5 202.5l26 195q-47 63 -102 63zM838 1376l-15 -94q-6 -41 -35 -59q-78 -47 -151 -47q-43 0 -106 30.5t-101 30.5q-34 0 -108 -27q-30 -11 -45.5 0t-12.5 43l12 93q5 40 37 59 q81 49 152 49q57 0 115 -31.5t90 -31.5q40 0 110 28q30 11 46 -1t12 -42z" />
<glyph unicode="&#xe4;" horiz-adv-x="913" d="M387 1024q59 0 120 -36t105 -93l6 47q6 57 68 57h131q66 0 57 -67l-120 -873q-9 -59 -68 -59h-133q-61 0 -55 68q2 39 18 82l86 233l-6 4l-10 -2q-63 -184 -153.5 -297t-205.5 -113q-120 0 -172.5 93.5t-21.5 279.5l49 299q32 194 112.5 285.5t192.5 91.5zM463 774 q-39 0 -64.5 -32.5t-38.5 -108.5l-45 -273q-12 -73 -0.5 -101t45.5 -28q56 0 104.5 82.5t74.5 202.5l26 195q-47 63 -102 63zM500 1333l-8 -49q-9 -65 -48 -96t-114 -31q-73 0 -114 39t-32 102l6 50q17 127 164 127q75 0 115 -38t31 -104zM922 1333l-7 -49q-9 -65 -48.5 -96 t-114.5 -31q-71 0 -113 39.5t-33 101.5l8 50q17 127 164 127q74 0 113.5 -38.5t30.5 -103.5z" />
<glyph unicode="&#xe5;" horiz-adv-x="913" d="M387 1024q59 0 120 -36t105 -93l6 47q6 57 68 57h131q66 0 57 -67l-120 -873q-9 -59 -68 -59h-133q-61 0 -55 68q2 39 18 82l86 233l-6 4l-10 -2q-63 -184 -153.5 -297t-205.5 -113q-120 0 -172.5 93.5t-21.5 279.5l49 299q32 194 112.5 285.5t192.5 91.5zM463 774 q-39 0 -64.5 -32.5t-38.5 -108.5l-45 -273q-12 -73 -0.5 -101t45.5 -28q56 0 104.5 82.5t74.5 202.5l26 195q-47 63 -102 63zM578 1554q116 0 181.5 -53t65.5 -149q0 -125 -78.5 -200t-218.5 -75q-115 0 -181 53.5t-66 149.5q0 130 79 202t218 72zM561 1393q-72 0 -72 -82 q0 -29 15 -45.5t43 -16.5q34 0 54 21.5t20 62.5q0 28 -16 44t-44 16z" />
<glyph unicode="&#xe6;" horiz-adv-x="1314" d="M979 1024q149 0 232 -71.5t83 -188.5q0 -157 -123 -261t-389 -132l-4 -31q-12 -65 15.5 -96t99.5 -31q101 0 213 51q37 17 56.5 2t11.5 -53l-23 -111q-11 -48 -53 -67q-135 -60 -264 -60q-137 0 -218 63t-100 185q-122 -248 -293 -248q-126 0 -177.5 98t-20.5 275l49 301 q32 192 112 283.5t191 91.5q77 0 150.5 -51t113.5 -125q117 176 338 176zM954 788q-46 0 -81.5 -49t-53.5 -151l-10 -62q58 11 111 29q102 66 102 162q0 71 -68 71zM463 772q-43 0 -70.5 -32t-40.5 -107l-45 -273q-11 -60 -1 -94.5t48 -34.5t75 42t62.5 100t38.5 119 q16 121 41 204q-20 34 -50 55t-58 21z" />
<glyph unicode="&#xe7;" horiz-adv-x="753" d="M688 993q58 -12 49 -73l-18 -113q-12 -69 -76 -47q-76 26 -133 26q-68 0 -108.5 -42.5t-55.5 -135.5l-29 -202q-13 -96 18 -138.5t105 -42.5q63 0 142 37q32 15 52 1.5t17 -50.5l-14 -121q-6 -52 -66 -74q-85 -32 -157 -38l-23 -48h6q59 0 95.5 -42.5t29.5 -104.5l-2 -16 q-20 -172 -260 -172q-58 0 -102 10q-53 12 -45 61l10 64q6 46 45 37q33 -11 57 -11q28 0 48 11t24 30l2 11q5 23 -11 37t-55 14h-10q-56 0 -30 59l36 76q-114 37 -163.5 138.5t-26.5 258.5l35 236q30 208 132 301.5t286 93.5q88 0 196 -31z" />
<glyph unicode="&#xe8;" horiz-adv-x="837" d="M502 1024q148 0 230.5 -71t82.5 -189q0 -157 -123 -261t-389 -132l-4 -33q-10 -66 17 -95.5t98 -29.5q100 0 215 51q37 17 55 2.5t10 -53.5l-22 -111q-8 -46 -54 -67q-132 -60 -262 -60q-183 0 -265 110t-52 325l24 155q32 224 147.5 341.5t291.5 117.5zM477 793 q-47 0 -83 -50t-52 -155l-10 -62q47 9 110 29q103 68 103 162q0 37 -18 56.5t-50 19.5zM373 1149l-183 219q-22 26 -12.5 45t43.5 19h176q45 0 64 -37l127 -213q17 -28 6 -46t-43 -18h-113q-41 0 -65 31z" />
<glyph unicode="&#xe9;" horiz-adv-x="837" d="M502 1024q148 0 230.5 -71t82.5 -189q0 -157 -123 -261t-389 -132l-4 -33q-10 -66 17 -95.5t98 -29.5q100 0 215 51q37 17 55 2.5t10 -53.5l-22 -111q-8 -46 -54 -67q-132 -60 -262 -60q-183 0 -265 110t-52 325l24 155q32 224 147.5 341.5t291.5 117.5zM477 793 q-47 0 -83 -50t-52 -155l-10 -62q47 9 110 29q103 68 103 162q0 37 -18 56.5t-50 19.5zM809 1368l-182 -219q-24 -31 -66 -31h-112q-32 0 -43 18t6 46l127 213q22 37 63 37h178q33 0 41.5 -19t-12.5 -45z" />
<glyph unicode="&#xea;" horiz-adv-x="837" d="M502 1024q148 0 230.5 -71t82.5 -189q0 -157 -123 -261t-389 -132l-4 -33q-10 -66 17 -95.5t98 -29.5q100 0 215 51q37 17 55 2.5t10 -53.5l-22 -111q-8 -46 -54 -67q-132 -60 -262 -60q-183 0 -265 110t-52 325l24 155q32 224 147.5 341.5t291.5 117.5zM477 793 q-47 0 -83 -50t-52 -155l-10 -62q47 9 110 29q103 68 103 162q0 37 -18 56.5t-50 19.5zM289 1337l237 121q39 20 72 -4l188 -123q37 -22 31 -67l-14 -97q-3 -30 -21.5 -38.5t-44.5 4.5l-205 114l-239 -112q-29 -13 -46 -1t-14 44l15 100q5 39 41 59z" />
<glyph unicode="&#xeb;" horiz-adv-x="837" d="M502 1024q148 0 230.5 -71t82.5 -189q0 -157 -123 -261t-389 -132l-4 -33q-10 -66 17 -95.5t98 -29.5q100 0 215 51q37 17 55 2.5t10 -53.5l-22 -111q-8 -46 -54 -67q-132 -60 -262 -60q-183 0 -265 110t-52 325l24 155q32 224 147.5 341.5t291.5 117.5zM477 793 q-47 0 -83 -50t-52 -155l-10 -62q47 9 110 29q103 68 103 162q0 37 -18 56.5t-50 19.5zM473 1333l-8 -49q-9 -65 -48 -96t-114 -31q-72 0 -113 39t-32 102l6 50q17 127 164 127q75 0 114.5 -38t30.5 -104zM895 1333l-6 -49q-18 -127 -164 -127q-71 0 -112.5 39.5 t-32.5 101.5l8 50q17 127 164 127q74 0 113 -38t30 -104z" />
<glyph unicode="&#xec;" horiz-adv-x="452" d="M223 0h-151q-69 0 -60 68l123 872q6 59 66 59h151q33 0 48.5 -17.5t11.5 -49.5l-123 -873q-6 -59 -66 -59zM166 1149l-182 219q-22 26 -13 45t43 19h176q45 0 64 -37l127 -213q17 -28 6 -46t-43 -18h-113q-41 0 -65 31z" />
<glyph unicode="&#xed;" horiz-adv-x="452" d="M223 0h-151q-69 0 -60 68l123 872q6 59 66 59h151q33 0 48.5 -17.5t11.5 -49.5l-123 -873q-6 -59 -66 -59zM602 1368l-182 -219q-24 -31 -66 -31h-112q-32 0 -43 18t6 46l127 213q22 37 63 37h178q33 0 41.5 -19t-12.5 -45z" />
<glyph unicode="&#xee;" horiz-adv-x="452" d="M223 0h-151q-69 0 -60 68l123 872q6 59 66 59h151q33 0 48.5 -17.5t11.5 -49.5l-123 -873q-6 -59 -66 -59zM82 1337l237 121q39 20 72 -4l189 -123q36 -21 30 -67l-14 -97q-3 -30 -21.5 -38.5t-44.5 4.5l-204 114l-240 -112q-29 -13 -45.5 -1t-13.5 44l14 100q5 39 41 59 z" />
<glyph unicode="&#xef;" horiz-adv-x="452" d="M223 0h-151q-69 0 -60 68l123 872q6 59 66 59h151q33 0 48.5 -17.5t11.5 -49.5l-123 -873q-6 -59 -66 -59zM266 1333l-8 -49q-9 -65 -48 -96t-114 -31q-72 0 -113 39t-32 102l6 50q17 127 164 127q75 0 114.5 -38t30.5 -104zM688 1333l-6 -49q-18 -127 -164 -127 q-71 0 -112.5 39.5t-32.5 101.5l8 50q17 127 164 127q74 0 113 -38t30 -104z" />
<glyph unicode="&#xf0;" horiz-adv-x="911" d="M254 1264l14 100q6 60 68 57q262 -15 401 -172l113 33q35 9 53 -6.5t15 -50.5l-5 -41q-3 -30 -13 -42.5t-40 -21.5l-39 -12q67 -180 31 -428l-47 -328q-50 -377 -408 -377q-401 0 -342 404l25 178q24 172 102 257t199 85q62 0 118 -33.5t93 -91.5l6 37q19 143 -27 227 l-188 -51q-36 -10 -52.5 2.5t-13.5 44.5l5 41q3 26 15.5 38t43.5 20l72 20q-57 34 -144 43q-64 6 -55 68zM440 643q-34 0 -55 -27.5t-31 -97.5l-24 -172q-17 -125 86 -125q49 0 74 27t34 86l29 211q-45 98 -113 98z" />
<glyph unicode="&#xf1;" horiz-adv-x="923" d="M686 1024q53 0 89.5 -19t61 -62.5t28 -115t-10.5 -176.5l-90 -594q-9 -57 -68 -57h-151q-33 0 -48.5 18t-9.5 50l91 587q9 63 0 85t-35 22q-67 0 -137.5 -183.5t-114.5 -506.5l-2 -15q-6 -57 -66 -57h-151q-69 0 -60 68l123 872q6 59 66 59h127q68 0 59 -67l-6 -49 q-5 -38 -19 -78l-98 -313l10 -7l9 7q154 532 403 532zM829 1376l-14 -94q-6 -41 -35 -59q-78 -47 -151 -47q-43 0 -106 30.5t-101 30.5q-35 0 -109 -27q-30 -11 -45 0t-12 43l12 93q5 40 37 59q81 49 152 49q57 0 115 -31.5t90 -31.5q40 0 110 28q30 11 45.5 -1t11.5 -42z " />
<glyph unicode="&#xf2;" horiz-adv-x="892" d="M836 633l-39 -275q-27 -193 -127 -288t-287 -95q-193 0 -283.5 102t-64.5 290l37 278q28 191 130 285t287 94q191 0 281.5 -102t65.5 -289zM516 336l43 317q9 63 -15 96t-73 33q-51 0 -80.5 -28.5t-38.5 -91.5l-43 -318q-9 -63 16 -96t76 -33q101 0 115 121zM367 1149 l-183 219q-22 26 -12.5 45t43.5 19h176q45 0 64 -37l127 -213q17 -28 6 -46t-43 -18h-113q-41 0 -65 31z" />
<glyph unicode="&#xf3;" horiz-adv-x="892" d="M836 633l-39 -275q-27 -193 -127 -288t-287 -95q-193 0 -283.5 102t-64.5 290l37 278q28 191 130 285t287 94q191 0 281.5 -102t65.5 -289zM516 336l43 317q9 63 -15 96t-73 33q-51 0 -80.5 -28.5t-38.5 -91.5l-43 -318q-9 -63 16 -96t76 -33q101 0 115 121zM803 1368 l-182 -219q-24 -31 -66 -31h-113q-32 0 -42.5 18t6.5 46l126 213q22 37 64 37h178q33 0 41.5 -19t-12.5 -45z" />
<glyph unicode="&#xf4;" horiz-adv-x="892" d="M836 633l-39 -275q-27 -193 -127 -288t-287 -95q-193 0 -283.5 102t-64.5 290l37 278q28 191 130 285t287 94q191 0 281.5 -102t65.5 -289zM516 336l43 317q9 63 -15 96t-73 33q-51 0 -80.5 -28.5t-38.5 -91.5l-43 -318q-9 -63 16 -96t76 -33q101 0 115 121zM283 1337 l237 121q39 20 72 -4l188 -123q37 -22 31 -67l-14 -97q-3 -30 -21.5 -38.5t-44.5 4.5l-205 114l-239 -112q-29 -13 -46 -1t-14 44l15 100q5 39 41 59z" />
<glyph unicode="&#xf5;" horiz-adv-x="892" d="M836 633l-39 -275q-27 -193 -127 -288t-287 -95q-193 0 -283.5 102t-64.5 290l37 278q28 191 130 285t287 94q191 0 281.5 -102t65.5 -289zM516 336l43 317q9 63 -15 96t-73 33q-51 0 -80.5 -28.5t-38.5 -91.5l-43 -318q-9 -63 16 -96t76 -33q101 0 115 121zM805 1376 l-14 -94q-6 -41 -35 -59q-78 -47 -152 -47q-43 0 -106 30.5t-101 30.5q-34 0 -108 -27q-30 -11 -45.5 0t-12.5 43l13 93q5 40 37 59q81 49 151 49q57 0 115 -31.5t90 -31.5q41 0 111 28q30 11 45.5 -1t11.5 -42z" />
<glyph unicode="&#xf6;" horiz-adv-x="892" d="M836 633l-39 -275q-27 -193 -127 -288t-287 -95q-193 0 -283.5 102t-64.5 290l37 278q28 191 130 285t287 94q191 0 281.5 -102t65.5 -289zM516 336l43 317q9 63 -15 96t-73 33q-51 0 -80.5 -28.5t-38.5 -91.5l-43 -318q-9 -63 16 -96t76 -33q101 0 115 121zM467 1333 l-8 -49q-9 -65 -48 -96t-114 -31q-72 0 -113 39t-32 102l6 50q17 127 164 127q75 0 114.5 -38t30.5 -104zM889 1333l-6 -49q-18 -127 -164 -127q-71 0 -113 39.5t-33 101.5l9 50q17 127 163 127q74 0 113.5 -38.5t30.5 -103.5z" />
<glyph unicode="&#xf7;" horiz-adv-x="856" d="M489 1087q74 0 111 -38.5t31 -102.5l-4 -41q-9 -64 -44 -93.5t-110 -29.5q-76 0 -112.5 38t-30.5 102l4 43q12 122 155 122zM121 721h639q33 0 48.5 -17.5t10.5 -48.5l-18 -118q-6 -60 -66 -60h-639q-32 0 -47.5 18t-11.5 50l18 119q9 57 66 57zM395 416q74 0 111 -39 t29 -103l-5 -41q-8 -62 -42.5 -91t-108.5 -29q-77 0 -114.5 38t-31.5 101l5 41q8 63 46 93t111 30z" />
<glyph unicode="&#xf8;" horiz-adv-x="897" d="M811 1102h139q40 0 51 -22.5t-14 -53.5l-160 -201q26 -80 11 -192l-37 -275q-28 -192 -131 -287.5t-289 -95.5q-109 0 -184 35l-62 -78q-27 -36 -76 -36h-137q-40 0 -51 22t14 53l160 199q-26 78 -10 197l37 278q56 379 422 379q105 0 180 -35l59 76q27 37 78 37z M473 776q-102 0 -119 -121l-22 -166q-1 -4 -3 -13.5t-3 -18.5l219 286q-20 33 -72 33zM545 535l-217 -283q22 -31 73 -31t79.5 29t37.5 92l21 158q1 6 3 16t3 19z" />
<glyph unicode="&#xf9;" horiz-adv-x="925" d="M676 999h153q67 0 58 -67l-123 -873q-6 -59 -66 -59h-135q-61 0 -55 66q2 26 14 63l92 254l-6 4l-10 -2q-39 -118 -89 -206.5t-120 -146t-149 -57.5q-116 0 -166.5 90.5t-22.5 284.5l86 592q6 57 66 57h153q33 0 48.5 -17.5t11.5 -49.5l-82 -572q-10 -78 -0.5 -103.5 t39.5 -25.5q65 0 115 102.5t73 258.5l49 348q6 59 66 59zM395 1149l-182 219q-22 26 -12.5 45t43.5 19h176q44 0 63 -37l127 -213q17 -28 6 -46t-43 -18h-112q-42 0 -66 31z" />
<glyph unicode="&#xfa;" horiz-adv-x="925" d="M676 999h153q67 0 58 -67l-123 -873q-6 -59 -66 -59h-135q-61 0 -55 66q2 26 14 63l92 254l-6 4l-10 -2q-39 -118 -89 -206.5t-120 -146t-149 -57.5q-116 0 -166.5 90.5t-22.5 284.5l86 592q6 57 66 57h153q33 0 48.5 -17.5t11.5 -49.5l-82 -572q-10 -78 -0.5 -103.5 t39.5 -25.5q65 0 115 102.5t73 258.5l49 348q6 59 66 59zM831 1368l-182 -219q-24 -31 -65 -31h-113q-32 0 -43 18t6 46l127 213q22 37 64 37h178q32 0 41 -19t-13 -45z" />
<glyph unicode="&#xfb;" horiz-adv-x="925" d="M676 999h153q67 0 58 -67l-123 -873q-6 -59 -66 -59h-135q-61 0 -55 66q2 26 14 63l92 254l-6 4l-10 -2q-39 -118 -89 -206.5t-120 -146t-149 -57.5q-116 0 -166.5 90.5t-22.5 284.5l86 592q6 57 66 57h153q33 0 48.5 -17.5t11.5 -49.5l-82 -572q-10 -78 -0.5 -103.5 t39.5 -25.5q65 0 115 102.5t73 258.5l49 348q6 59 66 59zM313 1337l238 121q39 20 72 -4l188 -123q37 -22 31 -67l-15 -97q-3 -30 -21 -38.5t-44 4.5l-205 114l-240 -112q-29 -13 -45.5 -1t-13.5 44l14 100q5 39 41 59z" />
<glyph unicode="&#xfc;" horiz-adv-x="925" d="M676 999h153q67 0 58 -67l-123 -873q-6 -59 -66 -59h-135q-61 0 -55 66q2 26 14 63l92 254l-6 4l-10 -2q-39 -118 -89 -206.5t-120 -146t-149 -57.5q-116 0 -166.5 90.5t-22.5 284.5l86 592q6 57 66 57h153q33 0 48.5 -17.5t11.5 -49.5l-82 -572q-10 -78 -0.5 -103.5 t39.5 -25.5q65 0 115 102.5t73 258.5l49 348q6 59 66 59zM498 1333l-9 -49q-9 -65 -48 -96t-113 -31q-73 0 -114 39t-32 102l6 50q17 127 164 127q75 0 115 -38t31 -104zM920 1333l-7 -49q-9 -65 -48.5 -96t-114.5 -31q-71 0 -113 39.5t-33 101.5l8 50q17 127 164 127 q74 0 113.5 -38.5t30.5 -103.5z" />
<glyph unicode="&#xfd;" horiz-adv-x="925" d="M500 74l106 309l-6 4l-10 -2q-62 -186 -153 -298t-208 -112q-243 0 -188 375l86 592q9 57 68 57h153q67 0 58 -67l-82 -572q-10 -74 0.5 -101.5t40.5 -27.5q64 0 114.5 103.5t71.5 257.5l49 348q9 59 68 59h153q67 0 58 -67l-134 -940q-31 -214 -126 -304.5t-287 -90.5 q-128 0 -264 34q-59 13 -50 72l17 121q5 32 24 45t50 4q125 -33 208 -33q72 0 106.5 28t49.5 97q12 67 27 109zM827 1368l-182 -219q-24 -31 -65 -31h-113q-32 0 -43 18t6 46l127 213q22 37 64 37h178q32 0 41 -19t-13 -45z" />
<glyph unicode="&#xfe;" horiz-adv-x="905" d="M258 1399h152q32 0 47.5 -18t11.5 -50l-43 -311q-4 -35 -18 -82l-140 -430l8 -4l9 4q71 244 169 380t212 136t165 -97t17 -296l-53 -301q-33 -188 -103.5 -271.5t-189.5 -83.5q-98 0 -213 86l-53 -380q-6 -60 -66 -60h-152q-68 0 -59 68l234 1650q6 60 65 60zM535 768 q-57 0 -118.5 -133t-88.5 -301l-11 -62q52 -41 103 -41q40 0 64.5 31t39.5 105l47 262q13 75 2.5 107t-38.5 32z" />
<glyph unicode="&#xff;" horiz-adv-x="925" d="M500 74l106 309l-6 4l-10 -2q-62 -186 -153 -298t-208 -112q-243 0 -188 375l86 592q9 57 68 57h153q67 0 58 -67l-82 -572q-10 -74 0.5 -101.5t40.5 -27.5q64 0 114.5 103.5t71.5 257.5l49 348q9 59 68 59h153q67 0 58 -67l-134 -940q-31 -214 -126 -304.5t-287 -90.5 q-128 0 -264 34q-59 13 -50 72l17 121q5 32 24 45t50 4q125 -33 208 -33q72 0 106.5 28t49.5 97q12 67 27 109zM494 1333l-9 -49q-9 -65 -48 -96t-113 -31q-73 0 -114 39t-32 102l6 50q17 127 164 127q75 0 115 -38t31 -104zM915 1333l-6 -49q-18 -127 -164 -127 q-71 0 -112.5 39.5t-32.5 101.5l8 50q17 127 164 127q74 0 113 -38t30 -104z" />
<glyph unicode="&#x152;" horiz-adv-x="1538" d="M1358 549h-383l-35 -283h418q68 0 59 -65l-16 -142q-6 -59 -66 -59h-714q-83 -25 -164 -25q-225 0 -327 125.5t-69 350.5l66 467q31 225 150 336.5t335 111.5q84 0 176 -25h703q32 0 47.5 -17.5t11.5 -49.5l-18 -141q-9 -58 -68 -58h-424l-32 -262h374q71 0 62 -65 l-19 -140q-9 -59 -67 -59zM610 1106q-84 0 -131.5 -46.5t-60.5 -146.5l-70 -479q-12 -92 28 -143t122 -51q83 0 155 34l99 797q-65 35 -142 35z" />
<glyph unicode="&#x153;" horiz-adv-x="1325" d="M989 1024q149 0 231.5 -71.5t82.5 -188.5q0 -157 -123 -261t-389 -132l-7 -35q-18 -123 119 -123q101 0 213 51q38 15 56.5 1t11.5 -52l-23 -113q-9 -48 -53 -65q-135 -60 -268 -60q-144 0 -230 103q-100 -103 -245 -103q-182 0 -269 103t-61 289l39 280 q27 191 120.5 284t270.5 93q80 0 145 -32.5t105 -90.5q53 59 124 91t150 32zM965 788q-46 0 -83 -49t-55 -151l-10 -62q63 12 113 29q102 66 102 162q0 71 -67 71zM473 776q-102 0 -119 -121l-43 -305q-9 -64 15 -96.5t75 -32.5q101 0 119 121l41 307q9 61 -14.5 94 t-73.5 33z" />
<glyph unicode="&#x178;" horiz-adv-x="1077" d="M887 1341h188q37 0 49.5 -21t-6.5 -52l-452 -803l-50 -406q-6 -59 -65 -59h-164q-31 0 -46.5 17.5t-12.5 48.5l49 399l-256 807q-9 31 4.5 50t46.5 19h184q58 0 70 -55q65 -264 123 -551q138 272 264 559q20 47 74 47zM586 1624l-8 -49q-8 -65 -47 -96t-115 -31 q-71 0 -113 39.5t-33 101.5l6 49q17 127 162 127q75 0 115 -37.5t33 -103.5zM1008 1624l-7 -49q-9 -65 -48 -96t-113 -31q-73 0 -115 39.5t-33 101.5l8 49q17 127 162 127q76 0 115.5 -37.5t30.5 -103.5z" />
<glyph unicode="&#x2c6;" horiz-adv-x="720" d="M125 1337l237 121q39 20 72 -4l189 -123q36 -21 30 -67l-14 -97q-3 -30 -21.5 -38.5t-44.5 4.5l-204 114l-240 -112q-29 -13 -45.5 -1t-13.5 44l14 100q5 39 41 59z" />
<glyph unicode="&#x2dc;" horiz-adv-x="716" d="M645 1376l-14 -94q-6 -41 -35 -59q-78 -47 -152 -47q-43 0 -105.5 30.5t-100.5 30.5q-35 0 -109 -27q-30 -11 -45 0t-12 43l12 93q5 40 37 59q81 49 151 49q57 0 115 -31.5t90 -31.5q41 0 111 28q30 11 45.5 -1t11.5 -42z" />
<glyph unicode="&#x2000;" horiz-adv-x="902" />
<glyph unicode="&#x2001;" horiz-adv-x="1804" />
<glyph unicode="&#x2002;" horiz-adv-x="902" />
<glyph unicode="&#x2003;" horiz-adv-x="1804" />
<glyph unicode="&#x2004;" horiz-adv-x="601" />
<glyph unicode="&#x2005;" horiz-adv-x="451" />
<glyph unicode="&#x2006;" horiz-adv-x="300" />
<glyph unicode="&#x2007;" horiz-adv-x="300" />
<glyph unicode="&#x2008;" horiz-adv-x="225" />
<glyph unicode="&#x2009;" horiz-adv-x="360" />
<glyph unicode="&#x200a;" horiz-adv-x="100" />
<glyph unicode="&#x2010;" horiz-adv-x="630" d="M147 723h367q66 0 57 -68l-16 -112q-9 -58 -66 -58h-366q-69 0 -60 68l17 113q9 57 67 57z" />
<glyph unicode="&#x2011;" horiz-adv-x="630" d="M147 723h367q66 0 57 -68l-16 -112q-9 -58 -66 -58h-366q-69 0 -60 68l17 113q9 57 67 57z" />
<glyph unicode="&#x2012;" horiz-adv-x="630" d="M147 723h367q66 0 57 -68l-16 -112q-9 -58 -66 -58h-366q-69 0 -60 68l17 113q9 57 67 57z" />
<glyph unicode="&#x2013;" horiz-adv-x="1163" d="M147 723h900q66 0 57 -68l-17 -112q-9 -58 -65 -58h-899q-69 0 -60 68l17 113q9 57 67 57z" />
<glyph unicode="&#x2014;" horiz-adv-x="1368" d="M147 723h1104q32 0 47.5 -18t10.5 -50l-17 -112q-9 -58 -65 -58h-1104q-69 0 -60 68l17 113q9 57 67 57z" />
<glyph unicode="&#x2018;" horiz-adv-x="432" d="M313 1423h76q33 0 45.5 -18t-0.5 -49l-55 -146q42 -18 58 -52t9 -93l-6 -39q-15 -133 -168 -133q-83 0 -121.5 39.5t-29.5 114.5l4 47q8 56 31 106l90 180q19 43 67 43z" />
<glyph unicode="&#x2019;" horiz-adv-x="432" d="M322 1423q83 0 121.5 -39t29.5 -114l-4 -47q-9 -60 -31 -105l-90 -182q-21 -43 -67 -43h-76q-32 0 -44.5 18.5t-0.5 49.5l55 145q-82 34 -68 145l7 39q15 133 168 133z" />
<glyph unicode="&#x201a;" horiz-adv-x="432" d="M164 309q83 0 121.5 -39t29.5 -114l-4 -47q-9 -61 -30 -107l-91 -180q-19 -43 -67 -43h-76q-32 0 -44.5 18t-0.5 49l55 146q-42 18 -58 52t-9 93l6 39q15 133 168 133z" />
<glyph unicode="&#x201c;" horiz-adv-x="821" d="M313 1423h76q33 0 45.5 -18t-0.5 -49l-55 -146q42 -18 58 -52t9 -93l-6 -39q-15 -133 -168 -133q-83 0 -121.5 39.5t-29.5 114.5l4 47q8 56 31 106l90 180q19 43 67 43zM702 1423h74q34 0 46.5 -18t0.5 -49l-55 -146q80 -35 66 -145l-7 -39q-15 -133 -168 -133 q-166 0 -151 154l6 47q5 54 29 106l90 180q19 43 69 43z" />
<glyph unicode="&#x201d;" horiz-adv-x="821" d="M322 1423q82 0 120.5 -39t30.5 -114l-6 -47q-6 -57 -29 -105l-90 -182q-21 -43 -69 -43h-76q-32 0 -44.5 18.5t-0.5 49.5l55 145q-80 35 -66 145l7 39q15 133 168 133zM709 1423q166 0 151 -153l-6 -47q-6 -57 -29 -105l-90 -182q-21 -43 -67 -43h-76q-34 0 -46.5 18.5 t-0.5 49.5l55 145q-79 34 -65 145l6 39q15 133 168 133z" />
<glyph unicode="&#x201e;" horiz-adv-x="821" d="M164 309q168 0 153 -153l-6 -47q-5 -53 -30 -107l-91 -180q-19 -43 -67 -43h-76q-32 0 -44.5 18t-0.5 49l55 146q-79 34 -65 145l4 39q18 133 168 133zM551 309q83 0 122.5 -39t31.5 -114l-7 -47q-5 -53 -30 -107l-90 -180q-19 -43 -68 -43h-76q-32 0 -44.5 18t-0.5 49 l55 146q-79 34 -65 145l4 39q18 133 168 133z" />
<glyph unicode="&#x2022;" horiz-adv-x="464" d="M236 721q88 0 133 -45t34 -119l-8 -47q-12 -82 -50 -116t-126 -34q-91 0 -138 46t-36 120l8 56q10 73 53.5 106t129.5 33z" />
<glyph unicode="&#x2026;" horiz-adv-x="1273" d="M584 311q82 0 124 -42.5t33 -112.5l-8 -52q-8 -67 -45 -98t-121 -31q-85 0 -126.5 42t-32.5 110l6 49q9 72 48.5 103.5t121.5 31.5zM166 311q82 0 124.5 -42.5t33.5 -112.5l-9 -52q-8 -67 -45 -98t-120 -31q-86 0 -127.5 42t-32.5 110l6 49q9 72 48.5 103.5t121.5 31.5z M1001 311q82 0 124.5 -42.5t33.5 -112.5l-8 -52q-8 -67 -45 -98t-121 -31q-86 0 -127.5 42t-32.5 110l6 49q9 72 48.5 103.5t121.5 31.5z" />
<glyph unicode="&#x202f;" horiz-adv-x="360" />
<glyph unicode="&#x2039;" horiz-adv-x="653" d="M379 911h170q37 0 48 -21t-11 -50l-205 -295l123 -301q12 -31 -0.5 -49.5t-46.5 -18.5h-176q-50 0 -68 43l-127 283q-17 45 8 80l213 292q25 37 72 37z" />
<glyph unicode="&#x203a;" horiz-adv-x="655" d="M270 176h-166q-37 0 -48.5 21.5t10.5 50.5l202 295l-121 301q-12 31 1 49t47 18h174q52 0 71 -43l125 -282q20 -42 -8 -80l-215 -293q-24 -37 -72 -37z" />
<glyph unicode="&#x205f;" horiz-adv-x="451" />
<glyph unicode="&#x20ac;" horiz-adv-x="944" d="M666 1257q118 0 243 -32q61 -16 52 -74l-19 -127q-9 -63 -76 -47q-124 31 -211 31q-80 0 -121 -35t-53 -113l-4 -22h250q35 0 47 -20t-2 -52l-29 -70q-20 -47 -69 -47h-225l-11 -78h246q36 0 48.5 -19.5t-1.5 -51.5l-29 -70q-20 -47 -69 -47h-217v-6q-6 -82 30.5 -115 t133.5 -33q71 0 202 31q34 8 52 -7t14 -50l-14 -123q-3 -51 -58 -66q-133 -39 -252 -39q-202 0 -300.5 101.5t-86.5 300.5v6h-74q-35 0 -47 20t2 52l29 69q20 47 70 47h43l10 78h-68q-35 0 -46 20t3 52l29 70q10 26 25.5 36.5t42.5 10.5h39l2 20q39 216 148.5 307.5 t320.5 91.5z" />
<glyph unicode="&#x2122;" horiz-adv-x="1488" d="M1362 1399h125q66 0 57 -68l-71 -555q-9 -59 -68 -59h-109q-66 0 -57 67l16 117l-69 -100q-20 -10 -41 -10h-86q-19 0 -33 14l-33 96l-20 -125q-9 -59 -68 -59h-108q-67 0 -58 67l64 414h-225l-60 -422q-9 -59 -65 -59h-115q-68 0 -59 67l57 414h-143q-32 0 -46.5 17.5 t-9.5 48.5l10 75q9 60 64 60h803q32 0 50.5 -16.5t29.5 -49.5q6 -23 19.5 -71.5t23.5 -87t18 -76.5q87 159 133 256q20 45 74 45z" />
<glyph unicode="&#x25fc;" horiz-adv-x="1003" d="M0 1004h1004v-1004h-1004v1004z" />
<glyph unicode="&#xfb01;" horiz-adv-x="980" d="M594 1423q84 0 188 -22q29 -6 43 -25t9 -47l-17 -119q-9 -62 -74 -49q-86 21 -131 21q-66 0 -95 -28t-38 -97l-8 -58h414q66 0 57 -67l-121 -873q-5 -31 -20.5 -45t-46.5 -14h-150q-66 0 -57 68l94 686h-205l-112 -770q-32 -210 -112.5 -298.5t-234.5 -88.5 q-77 0 -159 18q-29 6 -42.5 25t-8.5 47l16 116q6 62 70 50q65 -9 75 -9q59 0 86 30.5t39 115.5l107 764h-60q-65 0 -59 63l14 94q5 27 18 41.5t40 20.5l80 16l12 82q24 176 119 264t270 88z" />
<glyph unicode="&#xfb02;" horiz-adv-x="978" d="M582 1423q102 0 219 -37l110 5q32 1 49 -15t15 -47q-8 -249 -45 -516l-107 -754q-9 -59 -65 -59h-150q-68 0 -59 68l104 741q32 230 41 356q-49 17 -100 17q-52 0 -77.5 -27t-37.5 -98l-8 -58h41q47 0 37 -67l-17 -119q-9 -59 -53 -59h-43l-112 -770 q-32 -210 -112.5 -298.5t-234.5 -88.5q-77 0 -159 18q-29 6 -42.5 25t-8.5 47l16 116q6 62 70 50q65 -9 75 -9q59 0 86 30.5t39 115.5l107 764h-60q-65 0 -59 63l14 94q5 27 18 41.5t40 20.5l80 16l12 82q54 352 377 352z" />
<glyph unicode="&#xfb03;" horiz-adv-x="1429" d="M1061 1423q97 0 196 -24q61 -16 52 -72l-17 -117q-9 -67 -73 -51q-80 23 -136 23q-64 0 -93 -28t-38 -97l-8 -58h412q32 0 47.5 -17.5t11.5 -49.5l-123 -873q-9 -59 -65 -59h-150q-32 0 -47.5 18t-11.5 50l96 686h-207l-112 -766q-30 -207 -116 -298t-237 -91 q-78 0 -157 20q-61 16 -52 72l17 116q3 29 22 43.5t47 8.5q67 -13 82 -13q59 0 85 30t38 116l107 762h-205l-102 -691q-30 -208 -116 -300.5t-237 -92.5q-67 0 -157 23q-58 15 -52 71l17 117q9 64 69 49q52 -10 82 -10q60 0 85.5 29t37.5 114l97 691h-64q-66 0 -57 63l12 96 q5 30 17 43t42 19l82 14l11 78q53 344 376 344q132 0 262 -47q89 59 230 59zM594 1176q-59 0 -87.5 -27.5t-37.5 -97.5l-8 -52h205l10 72q4 33 20 90q-62 15 -102 15z" />
<glyph unicode="&#xfb04;" horiz-adv-x="1449" d="M1053 1423q102 0 219 -37l110 5q66 3 66 -62q-7 -230 -47 -516l-107 -754q-9 -59 -65 -59h-150q-32 0 -47.5 18t-11.5 50l104 741q32 230 41 356q-53 17 -100 17q-53 0 -79.5 -27.5t-35.5 -97.5l-8 -58h41q47 0 37 -67l-16 -119q-9 -59 -54 -59h-43l-114 -766 q-30 -207 -115.5 -298t-237.5 -91q-78 0 -157 20q-59 15 -50 72l15 116q0 11 4 19q-87 -156 -283 -156q-68 0 -155 23q-61 15 -52 71l17 117q6 64 69 49q48 -10 80 -10q60 0 86.5 29.5t38.5 113.5l94 691h-63q-66 0 -57 63l12 96q5 30 17 43t42 19l82 14l13 78 q53 344 374 344q134 0 262 -49q92 61 224 61zM324 63q-23 -142 -62 -217q22 22 57 13q47 -13 80 -13q60 0 86.5 30t38.5 116l107 762h-207zM594 1176q-60 0 -88.5 -27.5t-38.5 -97.5l-6 -52h205l8 72q9 51 20 90q-62 15 -100 15z" />
</font>
</defs>
</svg>
