<?xml version="1.0" standalone="no"?>
<!DOCTYPE svg PUBLIC "-//W3C//DTD SVG 1.1//EN" "http://www.w3.org/Graphics/SVG/1.1/DTD/svg11.dtd" >
<svg xmlns="http://www.w3.org/2000/svg">
<metadata></metadata>
<defs>
<font id="ropa_soft_prolight_italic" horiz-adv-x="808" >
<font-face units-per-em="2048" ascent="1638" descent="-410" />
<missing-glyph horiz-adv-x="444" />
<glyph horiz-adv-x="0" />
<glyph horiz-adv-x="0" />
<glyph unicode="&#xd;" horiz-adv-x="444" />
<glyph unicode=" "  horiz-adv-x="444" />
<glyph unicode="&#x09;" horiz-adv-x="444" />
<glyph unicode="&#xa0;" horiz-adv-x="444" />
<glyph unicode="!" horiz-adv-x="409" d="M287 1423h63q36 0 33 -39l-141 -942q-6 -32 -37 -32h-43q-39 0 -33 39l121 942q6 32 37 32zM139 160q42 0 64.5 -21.5t17.5 -56.5l-6 -41q-9 -66 -90 -66q-42 0 -63.5 21.5t-16.5 54.5l4 35q5 38 26 56t64 18z" />
<glyph unicode="&#x22;" horiz-adv-x="614" d="M252 1399h49q39 0 33 -39l-62 -449q-6 -32 -36 -32h-50q-38 0 -32 39l61 448q3 33 37 33zM532 1399h52q38 0 32 -39l-63 -449q-3 -32 -35 -32h-51q-39 0 -33 39l64 448q3 33 34 33z" />
<glyph unicode="#" horiz-adv-x="1110" d="M887 1255h49q41 0 35 -38l-33 -218h137q39 0 33 -38l-4 -29q-7 -33 -37 -33h-143l-76 -543h137q39 0 33 -39l-4 -28q-6 -33 -37 -33h-143l-31 -223q-3 -33 -35 -33h-51q-39 0 -33 39l31 217h-406l-30 -223q-3 -33 -35 -33h-51q-39 0 -33 39l30 217h-137q-39 0 -33 39 l5 29q3 32 36 32h142l78 543h-138q-38 0 -32 39l4 29q6 32 37 32h143l33 224q3 32 34 32h52q38 0 32 -38l-32 -218h405l33 224q3 32 35 32zM805 899h-406l-75 -543h403z" />
<glyph unicode="$" horiz-adv-x="919" d="M567 1423h39q39 0 33 -39l-18 -133q86 -9 190 -39q33 -6 27 -41l-7 -38q-6 -39 -43 -27q-124 34 -192 43q-25 2 -68 2q-118 0 -180 -46t-76 -140l-4 -21q-27 -181 158 -246l145 -51q137 -51 193 -138t39 -218l-2 -17q-19 -141 -104 -214.5t-255 -82.5l-20 -137 q-6 -33 -37 -33h-37q-19 0 -28 10.5t-5 28.5l19 134q-117 13 -228 53q-30 13 -24 43l6 41q3 39 41 26q105 -39 217 -59q20 -2 62 -2q129 0 194.5 47.5t77.5 144.5l4 33q18 168 -160 230l-153 57q-263 95 -219 369l2 12q21 138 107 207t253 73l18 136q3 32 35 32z" />
<glyph unicode="%" horiz-adv-x="1767" d="M502 1280q150 0 222 -86t50 -244l-10 -82q-43 -305 -340 -305q-153 0 -226 91t-48 247l10 80q25 155 107.5 227t234.5 72zM1294 1255h54q22 0 28 -12t-6 -31l-817 -1189q-16 -23 -41 -23h-51q-23 0 -29 12t6 31l815 1190q14 22 41 22zM489 1174q-94 0 -146 -49t-67 -154 l-10 -80q-15 -106 28.5 -163.5t139.5 -57.5q95 0 145.5 48t65.5 156l10 80q29 220 -166 220zM1382 692q151 0 224 -86t51 -244l-10 -81q-43 -306 -342 -306q-152 0 -226 91t-49 247l12 80q25 155 106.5 227t233.5 72zM1372 586q-95 0 -146.5 -48.5t-66.5 -154.5l-10 -80 q-15 -107 27.5 -164t140.5 -57q95 0 145.5 48.5t65.5 156.5l10 80q29 219 -166 219z" />
<glyph unicode="&#x26;" horiz-adv-x="1095" d="M592 1366q86 0 221 -27q35 -6 29 -41l-6 -34q-8 -35 -43 -27q-106 27 -209 27q-122 0 -186 -55t-76 -173l-7 -45q-12 -107 56 -183.5t188 -76.5h264l19 137q6 33 37 33h43q38 0 32 -39l-18 -131h113q38 0 32 -39l-4 -26q-6 -33 -37 -33h-118l-78 -559q-3 -20 -11.5 -30.5 t-27.5 -16.5q-113 -31 -185.5 -41.5t-162.5 -10.5q-227 0 -328 103t-72 280l6 41q18 111 99 188.5t223 108.5q-102 40 -150 127t-34 197l6 45q21 145 118.5 223t266.5 78zM809 633h-283q-145 0 -236.5 -68.5t-109.5 -179.5l-6 -41q-18 -123 59 -193.5t246 -70.5 q117 0 256 33z" />
<glyph unicode="'" horiz-adv-x="331" d="M252 1399h49q39 0 33 -39l-62 -449q-6 -32 -36 -32h-50q-38 0 -32 39l61 448q3 33 37 33z" />
<glyph unicode="(" horiz-adv-x="456" d="M590 1493q36 -6 31 -41l-5 -31q-5 -33 -41 -30q-113 12 -156.5 -27t-58.5 -158l-147 -1030q-19 -124 12 -168.5t144 -50.5q19 -2 27 -11t5 -30l-4 -31q-6 -32 -39 -32q-75 2 -124.5 13t-83.5 36t-47.5 64.5t-16 98.5t11.5 138l138 973q20 139 57 210t106 96.5t191 10.5z " />
<glyph unicode=")" horiz-adv-x="456" d="M-111 -145q-35 3 -30 39l4 32q6 32 41 29q114 -10 156.5 27.5t60.5 156.5l145 1030q19 126 -11 171t-144 49q-39 3 -33 41l4 30q6 33 39 33q76 -2 125.5 -13t83.5 -36t47 -64.5t15.5 -98.5t-11.5 -138l-137 -973q-29 -204 -102.5 -270.5t-252.5 -44.5z" />
<glyph unicode="*" horiz-adv-x="854" d="M492 1423h32q35 0 35 -37l-14 -212l192 83q36 12 47 -20l13 -31q9 -36 -25 -45l-205 -59l138 -158q21 -27 -7 -49l-30 -23q-28 -21 -47 11l-113 178l-115 -178q-16 -32 -47 -11l-29 23q-29 20 -6 49l140 160l-207 57q-35 9 -23 45l12 31q9 33 46 20l194 -83l-16 212 q-3 37 35 37z" />
<glyph unicode="+" d="M440 999h37q39 0 33 -38l-41 -287h258q39 0 33 -39l-4 -31q-3 -33 -37 -33h-264l-43 -295q-3 -32 -35 -32h-37q-19 0 -28 10.5t-5 28.5l41 288h-260q-36 0 -33 37l4 33q7 33 37 33h266l41 293q3 32 37 32z" />
<glyph unicode="," horiz-adv-x="423" d="M143 160q43 0 65.5 -24t16.5 -66l-4 -33q-4 -29 -22 -74l-86 -194q-13 -25 -39 -25h-27q-18 0 -24.5 11t0.5 26l73 199q-24 7 -36 29t-7 50l4 39q9 62 86 62z" />
<glyph unicode="-" horiz-adv-x="716" d="M188 653h353q38 0 32 -37l-4 -26q-6 -33 -37 -33h-352q-39 0 -33 39l5 27q6 30 36 30z" />
<glyph unicode="." horiz-adv-x="423" d="M145 160q42 0 63.5 -21t16.5 -57l-4 -41q-9 -66 -90 -66q-43 0 -64 21.5t-16 54.5l4 35q5 38 26 56t64 18z" />
<glyph unicode="/" horiz-adv-x="534" d="M555 1399h43q20 0 27.5 -11t-0.5 -30l-584 -1331q-12 -27 -41 -27h-43q-20 0 -27.5 11t0.5 30l584 1331q12 27 41 27z" />
<glyph unicode="0" horiz-adv-x="1026" d="M590 1255q180 0 267 -106t58 -313l-65 -455q-54 -406 -408 -406q-179 0 -264.5 109t-56.5 309l63 457q30 212 131.5 308.5t274.5 96.5zM580 1151q-116 0 -184 -68t-91 -223l-67 -477q-21 -150 37.5 -226.5t177.5 -76.5q117 0 187 70t91 223l68 475q21 152 -38 227.5 t-181 75.5z" />
<glyph unicode="1" horiz-adv-x="600" d="M440 1231h45q39 0 33 -39l-164 -1159q-3 -33 -35 -33h-49q-38 0 -32 39l149 1073h-4l-268 -113q-35 -15 -41 27l-4 35q-3 31 24 43l297 117q30 10 49 10z" />
<glyph unicode="2" horiz-adv-x="802" d="M434 1255q168 0 247 -82.5t56 -230.5l-4 -29q-14 -94 -64.5 -180.5t-172.5 -212.5l-398 -418h492q39 0 33 -39l-5 -30q-3 -33 -36 -33h-607q-36 0 -30 39l4 27q3 22 18 40l486 521q139 148 161 284l4 29q37 215 -198 215q-101 0 -252 -51q-20 -6 -30.5 2.5t-8.5 28.5 l4 36q3 17 11.5 26t27.5 15q148 43 262 43z" />
<glyph unicode="3" horiz-adv-x="794" d="M428 1255q156 0 234 -83t59 -230l-2 -16q-13 -103 -73 -179t-152 -110q89 -34 135 -116t33 -185l-3 -23q-22 -166 -117.5 -252t-262.5 -86q-125 0 -267 48q-31 9 -26 43l4 34q6 40 41 25q140 -51 252 -51q220 0 256 233l4 35q17 113 -40 179.5t-163 66.5h-166 q-37 0 -31 37l4 28q3 29 35 29h170q100 0 166.5 65.5t81.5 180.5l2 14q29 219 -188 219q-94 0 -226 -35q-19 -5 -29 4.5t-7 30.5l4 29q3 18 11.5 26t29.5 13q118 26 231 26z" />
<glyph unicode="4" horiz-adv-x="847" d="M676 1231h65q18 0 27 -10.5t6 -28.5l-119 -825h88q36 0 33 -39l-4 -31q-6 -33 -37 -33h-92l-33 -231q-3 -33 -35 -33h-47q-38 0 -32 39l30 225h-544q-39 0 -33 39l4 23q2 24 16 43l664 841q16 21 43 21zM643 1079l-555 -712h453l6 34z" />
<glyph unicode="5" horiz-adv-x="911" d="M252 1237h530q39 0 33 -39l-6 -33q-3 -32 -35 -32h-452l-74 -490q71 66 155.5 102.5t161.5 36.5q287 0 238 -379l-6 -38q-26 -194 -128.5 -292t-275.5 -98q-142 0 -301 50q-29 12 -26 43l6 41q9 37 43 26q153 -55 282 -55q117 0 190 71t91 211l6 46q21 145 -17.5 208.5 t-127.5 63.5q-156 0 -318 -158q-18 -18 -41 -18h-30q-35 0 -29 39l94 661q3 33 37 33z" />
<glyph unicode="6" horiz-adv-x="976" d="M602 1253q126 0 242 -34q31 -9 26 -41l-4 -37q-7 -39 -43 -27q-124 39 -229 39q-126 0 -202.5 -92t-106.5 -309l-19 -121q80 78 165.5 122t160.5 44q142 0 212 -94t46 -275l-10 -68q-26 -195 -122.5 -290t-266.5 -95q-184 0 -274 115.5t-58 333.5l47 332 q37 265 145.5 381t290.5 116zM563 690q-71 0 -152.5 -45t-158.5 -121l-19 -141q-21 -144 40 -223.5t178 -79.5q114 0 181 64t87 206l12 84q20 127 -26 191.5t-142 64.5z" />
<glyph unicode="7" horiz-adv-x="768" d="M139 1229h643q39 0 33 -39l-4 -27q-7 -31 -16 -47l-592 -1091q-16 -25 -41 -25h-53q-22 0 -29 12t4 31l594 1077v4h-549q-18 0 -27 10.5t-6 28.5l6 33q3 33 37 33z" />
<glyph unicode="8" horiz-adv-x="942" d="M549 1255q155 0 240.5 -92.5t62.5 -240.5l-2 -15q-29 -188 -201 -254q98 -37 144.5 -120.5t31.5 -192.5l-4 -31q-22 -160 -127 -247t-282 -87q-186 0 -284 101.5t-73 267.5l4 29q15 110 82.5 187t184.5 112q-74 39 -109.5 115t-23.5 165l2 15q20 142 111 215t243 73z M539 1159q-195 0 -228 -203l-2 -14q-15 -108 39 -174t154 -66t157 50.5t76 158.5l2 13q18 112 -35.5 173.5t-162.5 61.5zM469 610q-120 0 -198 -66t-93 -173l-2 -23q-19 -126 47 -198t195 -72q122 0 193 61t89 172l7 35q17 116 -49 190t-189 74z" />
<glyph unicode="9" horiz-adv-x="972" d="M545 1253q177 0 265.5 -109t61.5 -304l-59 -412q-33 -245 -130.5 -349t-283.5 -104q-127 0 -258 43q-29 9 -26 43l6 39q3 39 41 27q136 -47 244 -47q124 0 191.5 76t94.5 268l27 174q-84 -76 -172.5 -121t-161.5 -45q-138 0 -206.5 98.5t-41.5 286.5l10 64 q27 194 124 283t274 89zM535 1149q-117 0 -182.5 -61t-86.5 -197l-12 -80q-21 -134 25.5 -203t140.5 -69q66 0 149 46.5t164 119.5l25 157q20 137 -42 212t-181 75z" />
<glyph unicode=":" horiz-adv-x="423" d="M203 565q42 0 63.5 -21t16.5 -57l-2 -8v-14l-7 -41q-9 -66 -88 -66q-43 0 -65 21.5t-17 54.5l2 10v13l5 35q6 39 27 56t65 17z" />
<glyph unicode=";" horiz-adv-x="425" d="M139 160q43 0 65.5 -24t16.5 -66l-4 -33q-4 -29 -22 -74l-86 -194q-13 -25 -39 -25h-27q-18 0 -24.5 10.5t-0.5 26.5l74 199q-24 7 -36 29t-7 50l4 39q9 62 86 62zM252 948q42 0 63.5 -21t16.5 -57l-4 -41q-9 -65 -90 -65q-43 0 -64 21.5t-16 54.5l4 34q5 38 26 56t64 18 z" />
<glyph unicode="&#x3c;" d="M723 317l-8 -43q-6 -39 -43 -24l-602 297q-29 12 -23 45l6 49q3 29 29 41l690 295q20 8 31 -0.5t8 -30.5l-6 -43q-5 -27 -31 -37l-608 -254l532 -250q27 -15 25 -45z" />
<glyph unicode="=" d="M125 850h627q38 0 32 -39l-4 -29q-6 -30 -37 -30h-626q-39 0 -33 36l4 29q6 33 37 33zM74 483h626q39 0 33 -39l-4 -28q-6 -33 -37 -33h-626q-39 0 -33 39l4 27q5 34 37 34z" />
<glyph unicode="&#x3e;" d="M90 909l8 45q6 41 43 23l602 -295q28 -14 23 -45l-6 -51q-3 -27 -29 -39l-690 -295q-19 -8 -30.5 0.5t-8.5 28.5l6 43q4 25 31 38l608 252l-532 252q-28 12 -25 43z" />
<glyph unicode="?" d="M459 1423q172 0 243 -80.5t52 -228.5l-2 -24q-11 -84 -54.5 -157.5t-136.5 -160.5l-100 -98q-46 -46 -67 -88t-34 -121l-2 -23q-5 -32 -36 -32h-39q-36 0 -33 39l4 22q11 88 40 148t95 126l123 119q62 61 89 113t36 123l2 18q11 103 -37 155t-166 52q-97 0 -229 -47 q-19 -6 -30 3.5t-9 29.5l6 37q3 27 39 36q142 39 246 39zM264 160q42 0 64.5 -21.5t17.5 -56.5l-6 -41q-9 -66 -90 -66q-42 0 -63.5 21.5t-16.5 54.5l4 35q5 38 26 56t64 18z" />
<glyph unicode="@" horiz-adv-x="1933" d="M961 1423q416 0 621.5 -192.5t205.5 -579.5v-102q0 -247 -101.5 -382.5t-281.5 -135.5q-99 0 -168 47.5t-84 132.5q-7 31 8 86l37 149l-4 5l-6 -2q-65 -214 -164 -315t-223 -101q-122 0 -180.5 90.5t-36.5 277.5l30 236q22 181 110 270.5t216 89.5q78 0 150 -42t122 -105 l13 90q3 33 37 33h38q39 0 33 -37l-78 -602q-11 -80 33 -138.5t117 -58.5q120 0 193 106.5t73 305.5v102q0 332 -179 498t-531 166q-324 0 -504.5 -189t-180.5 -536v-205q0 -324 173 -489.5t503 -165.5h244q33 0 33 -35v-39q0 -35 -35 -35h-242q-399 0 -595.5 194.5 t-196.5 569.5v205q0 191 51 344.5t150 262.5t251.5 167.5t348.5 58.5zM952 893q-86 0 -143.5 -64.5t-75.5 -195.5l-28 -217q-19 -153 13 -215t116 -62q121 0 213.5 131t132.5 361l16 125q-49 62 -113.5 99.5t-130.5 37.5z" />
<glyph unicode="A" horiz-adv-x="1064" d="M569 1341h93q30 0 36 -32l256 -1270q6 -39 -30 -39h-58q-33 0 -39 33q-20 122 -55 303h-543q-106 -246 -133 -309q-12 -27 -43 -27h-53q-42 0 -29 41l557 1274q12 26 41 26zM602 1229q-177 -439 -328 -785h480q-89 477 -152 785z" />
<glyph unicode="B" horiz-adv-x="1081" d="M96 29l160 1294q3 32 37 35q180 8 287 8q217 0 323 -93.5t88 -250.5l-2 -27q-29 -234 -252 -305q117 -27 179 -115.5t47 -214.5l-5 -34q-44 -351 -493 -351q-132 0 -332 15q-23 1 -31 10.5t-6 28.5zM301 729h272q122 0 201 69t94 181l2 22q18 130 -57 195.5t-252 65.5 q-47 0 -196 -9zM287 631l-66 -537q127 -12 244 -12q183 0 273 65.5t106 190.5l2 24q15 129 -58 199t-227 70h-274z" />
<glyph unicode="C" horiz-adv-x="980" d="M614 1366q130 0 279 -47q33 -9 27 -39l-7 -43q-6 -40 -43 -27q-148 50 -264 50q-129 0 -199 -71.5t-90 -242.5l-67 -553q-20 -160 39 -233.5t198 -73.5q123 0 256 55q20 7 31.5 -0.5t9.5 -27.5l-4 -43q-3 -30 -30 -41q-137 -54 -279 -54q-392 0 -338 441l64 522 q29 232 128 330t289 98z" />
<glyph unicode="D" horiz-adv-x="1171" d="M594 1366q248 0 366.5 -144.5t86.5 -410.5l-43 -346q-62 -490 -566 -490q-104 0 -307 15q-36 3 -33 41l160 1290q3 32 39 35q160 10 297 10zM586 1262q-12 0 -219 -7l-144 -1161q137 -14 226 -14q185 0 299 97.5t137 281.5l45 358q27 223 -63.5 334t-280.5 111z" />
<glyph unicode="E" horiz-adv-x="983" d="M293 1341h596q39 0 33 -38l-4 -37q-6 -33 -37 -33h-519l-61 -498h471q42 0 33 -37l-4 -36q-6 -33 -37 -33h-477l-64 -520h514q36 0 33 -37l-6 -37q-3 -35 -35 -35h-596q-38 0 -35 37l156 1272q3 32 39 32z" />
<glyph unicode="F" horiz-adv-x="942" d="M293 1341h596q39 0 33 -38l-4 -37q-6 -33 -37 -33h-519l-61 -498h377q41 0 35 -37l-6 -36q-3 -33 -37 -33h-383l-70 -596q-3 -33 -39 -33h-45q-38 0 -35 37l156 1272q3 32 39 32z" />
<glyph unicode="G" horiz-adv-x="1142" d="M510 -25q-211 0 -307 111t-70 326l66 546q26 218 130 313t316 95q66 0 161.5 -14.5t168.5 -36.5q29 -6 26 -39l-4 -41q-9 -36 -43 -27q-179 54 -321 54q-147 0 -221.5 -67t-94.5 -224l-69 -582q-40 -307 266 -307q133 0 287 55l61 504h-227q-38 0 -35 39l6 41 q3 19 11.5 26t25.5 7h313q38 0 35 -37l-76 -604q-3 -25 -12.5 -36.5t-36.5 -21.5q-205 -80 -356 -80z" />
<glyph unicode="H" horiz-adv-x="1187" d="M1024 1341h47q39 0 33 -36l-154 -1272q-6 -33 -39 -33h-47q-39 0 -33 37l72 602h-614l-72 -606q-3 -33 -39 -33h-45q-38 0 -35 37l156 1272q3 32 39 32h45q38 0 35 -36l-70 -557h612l70 561q6 32 39 32z" />
<glyph unicode="I" horiz-adv-x="454" d="M293 1341h45q38 0 35 -36l-156 -1272q-3 -33 -39 -33h-45q-38 0 -35 37l156 1272q3 32 39 32z" />
<glyph unicode="J" horiz-adv-x="575" d="M412 1341h49q36 0 33 -36l-132 -1057q-20 -150 -79 -211.5t-177 -61.5q-56 0 -145 21q-34 8 -31 41l4 39q3 37 43 28q68 -22 127 -22q62 0 96 36t44 128l131 1063q3 32 37 32z" />
<glyph unicode="K" horiz-adv-x="1042" d="M965 1341h61q24 0 30 -13t-12 -30l-616 -608l514 -647q12 -19 6.5 -31t-28.5 -12h-72q-29 0 -43 23q-251 345 -510 651l-78 -641q-3 -33 -39 -33h-45q-38 0 -35 37l156 1272q3 32 39 32h45q38 0 35 -36l-74 -596q342 318 623 612q17 20 43 20z" />
<glyph unicode="L" horiz-adv-x="913" d="M293 1341h45q38 0 35 -36l-150 -1199h522q37 0 31 -36l-4 -35q-3 -35 -35 -35h-600q-22 0 -31.5 9t-7.5 28l156 1272q3 32 39 32z" />
<glyph unicode="M" horiz-adv-x="1431" d="M1192 1341h123q36 0 33 -36l-144 -1270q-6 -35 -39 -35h-47q-39 0 -33 37l127 1134l-471 -1005q-12 -27 -41 -27h-90q-31 0 -37 33l-219 997l-147 -1136q-6 -33 -37 -33h-47q-38 0 -35 39l166 1270q6 32 39 32h104q33 0 39 -30q155 -652 228 -1059q242 492 487 1063 q12 26 41 26z" />
<glyph unicode="N" horiz-adv-x="1191" d="M1030 1341h45q38 0 35 -36l-156 -1272q-3 -33 -39 -33h-104q-31 0 -41 29l-412 1173l-141 -1169q-6 -33 -39 -33h-45q-38 0 -35 37l156 1272q3 32 39 32h108q29 0 41 -28q250 -677 408 -1168l141 1164q6 32 39 32z" />
<glyph unicode="O" horiz-adv-x="1179" d="M664 1366q215 0 319 -116t78 -326l-64 -523q-26 -216 -140 -321t-327 -105q-217 0 -320 116t-77 331l64 518q28 225 138.5 325.5t328.5 100.5zM653 1260q-154 0 -236 -73.5t-102 -236.5l-65 -544q-19 -159 56 -241.5t231 -82.5q154 0 237 75.5t103 235.5l67 545 q20 161 -54.5 241.5t-236.5 80.5z" />
<glyph unicode="P" horiz-adv-x="1038" d="M578 1366q229 0 342.5 -109t87.5 -299l-2 -24q-23 -187 -145.5 -287t-334.5 -100q-90 0 -243 35l-66 -549q-3 -33 -39 -33h-45q-38 0 -35 37l158 1284q3 30 33 33q160 12 289 12zM571 1264q-87 0 -206 -9l-70 -577q125 -29 231 -29q162 0 249.5 71.5t109.5 217.5l4 20 q22 143 -60 224.5t-258 81.5z" />
<glyph unicode="Q" horiz-adv-x="1179" d="M664 1366q216 0 319.5 -117t77.5 -325l-64 -523q-38 -283 -219 -374l187 -60q31 -9 26 -41l-4 -43q-1 -24 -17 -29t-48 7l-306 123q-40 -9 -86 -9q-219 0 -321 117t-76 330l64 518q28 224 139 325t328 101zM653 1260q-153 0 -235.5 -74t-102.5 -236l-65 -544 q-19 -159 56 -241.5t231 -82.5q154 0 237 75.5t103 235.5l67 545q20 162 -55 242t-236 80z" />
<glyph unicode="R" horiz-adv-x="1103" d="M586 1366q220 0 332 -107.5t90 -281.5l-7 -31q-15 -127 -93.5 -217t-205.5 -127l263 -561q9 -19 2 -30t-27 -11h-61q-29 0 -41 27q-122 294 -254 557q-139 -9 -299 20l-68 -571q-3 -33 -39 -33h-45q-38 0 -35 37l158 1284q3 30 37 33q126 12 293 12zM575 1264 q-82 0 -210 -9l-68 -557q112 -20 227 -20q319 0 361 274l2 15q20 141 -61 219t-251 78z" />
<glyph unicode="S" horiz-adv-x="940" d="M442 768l170 -68q128 -51 180.5 -144t32.5 -237l-4 -22q-22 -165 -115.5 -243.5t-267.5 -78.5q-66 0 -157.5 21.5t-169.5 52.5q-28 11 -25 41l6 51q7 41 43 25q122 -56 236 -78q54 -4 75 -4q119 0 180 51.5t76 163.5l5 31q14 102 -22 165.5t-128 100.5l-190 76 q-125 50 -179 154t-28 243l4 16q26 143 119.5 212t265.5 69q118 0 266 -37q20 -6 27 -16t4 -29l-4 -41q-6 -38 -43 -29q-128 34 -185 41q-27 2 -79 2q-115 0 -176.5 -47.5t-75.5 -144.5l-4 -27q-28 -194 163 -270z" />
<glyph unicode="T" horiz-adv-x="1067" d="M195 1341h854q40 0 34 -38l-6 -37q-6 -33 -37 -33h-370l-146 -1200q-6 -33 -39 -33h-47q-38 0 -32 37l145 1196h-365q-40 0 -34 37l6 39q3 32 37 32z" />
<glyph unicode="U" horiz-adv-x="1181" d="M1018 1341h47q38 0 35 -36l-113 -904q-28 -217 -137.5 -321.5t-310.5 -104.5q-214 0 -318 113t-78 328l111 893q3 32 39 32h47q39 0 33 -36l-113 -904q-19 -153 57 -234t230 -81q141 0 220 73.5t99 231.5l113 918q6 32 39 32z" />
<glyph unicode="V" horiz-adv-x="1062" d="M1014 1341h61q19 0 26.5 -11t0.5 -30l-553 -1273q-9 -27 -41 -27h-96q-18 0 -27 7.5t-14 25.5l-240 1270q-6 38 31 38h51q31 0 37 -32q139 -706 213 -1192q281 613 510 1198q12 26 41 26z" />
<glyph unicode="W" horiz-adv-x="1718" d="M1649 1341h61q19 0 27 -11t2 -30l-463 -1273q-9 -27 -39 -27h-102q-33 0 -39 33l-164 1173l-451 -1179q-9 -27 -39 -27h-102q-32 0 -39 33l-151 1272q-3 36 32 36h54q17 0 25 -7.5t11 -24.5q89 -675 131 -1178q243 601 447 1182q12 28 41 28h102q34 0 37 -32 q97 -602 160 -1178q188 487 420 1182q6 28 39 28z" />
<glyph unicode="X" horiz-adv-x="1028" d="M948 1341h64q23 0 28.5 -12t-6.5 -31l-434 -610l303 -647q16 -41 -26 -41h-66q-29 0 -41 27q-122 287 -258 563q-283 -414 -393 -567q-17 -23 -43 -23h-64q-23 0 -29.5 12t7.5 31l459 649l-283 608q-9 19 -1.5 30t28.5 11h59q29 0 41 -26q135 -287 237 -529 q178 239 375 533q14 22 43 22z" />
<glyph unicode="Y" horiz-adv-x="970" d="M913 1341h68q20 0 26.5 -12t-3.5 -31l-478 -837l-51 -428q-3 -33 -37 -33h-47q-38 0 -35 37l52 424l-273 842q-5 17 3.5 27.5t27.5 10.5h55q32 0 41 -28q128 -406 215 -723q231 398 397 727q12 24 39 24z" />
<glyph unicode="Z" horiz-adv-x="972" d="M227 1341h697q35 0 32 -38l-4 -31q-6 -26 -18 -43q-367 -512 -758 -1120h596q36 0 33 -37l-4 -37q-3 -19 -11.5 -27t-25.5 -8h-709q-35 0 -32 35l2 37q4 26 16 41l760 1120h-582q-41 0 -35 37l6 39q3 32 37 32z" />
<glyph unicode="[" horiz-adv-x="493" d="M317 1487h306q38 0 32 -39l-4 -29q-3 -33 -37 -33h-225l-203 -1431h220q41 0 32 -39l-4 -29q-3 -32 -37 -32h-303q-41 0 -35 41l222 1558q3 33 36 33z" />
<glyph unicode="\" horiz-adv-x="616" d="M70 1399h47q30 0 39 -29l399 -1331q12 -39 -29 -39h-45q-29 0 -39 29l-401 1331q-9 39 29 39z" />
<glyph unicode="]" horiz-adv-x="493" d="M201 -145h-307q-39 0 -33 39l4 28q6 33 37 33h225l203 1431h-219q-39 0 -33 39l4 29q6 33 37 33h305q41 0 35 -41l-221 -1559q-6 -32 -37 -32z" />
<glyph unicode="^" horiz-adv-x="985" d="M578 1399h49q30 0 39 -27l188 -506q8 -19 0.5 -30t-27.5 -11h-39q-28 0 -38 29l-158 436l-279 -440q-13 -25 -41 -25h-43q-20 0 -26.5 12t4.5 31l330 508q14 23 41 23z" />
<glyph unicode="_" horiz-adv-x="1249" d="M57 -283h885q36 0 33 -39l-4 -24q-6 -33 -39 -33h-883q-39 0 -33 39l4 25q3 32 37 32z" />
<glyph unicode="`" horiz-adv-x="430" d="M252 1137l-162 206q-12 15 -7.5 25t23.5 10h66q24 0 37 -18l135 -207q11 -15 6 -25t-24 -10h-37q-23 0 -37 19z" />
<glyph unicode="a" horiz-adv-x="985" d="M479 1024q74 0 145.5 -40t127.5 -107l12 90q3 32 37 32h41q38 0 32 -38l-131 -928q-3 -33 -34 -33h-43q-39 0 -33 39q8 59 14 82l70 278l-4 4l-6 -4q-65 -214 -166.5 -319t-221.5 -105q-125 0 -186 93.5t-31 277.5l52 320q28 181 113.5 269.5t211.5 88.5zM494 920 q-178 0 -222 -258l-49 -302q-25 -150 9.5 -213t119.5 -63q123 0 219.5 142.5t133.5 371.5l26 186q-114 136 -237 136z" />
<glyph unicode="b" horiz-adv-x="974" d="M276 1399h50q35 0 32 -35q-6 -184 -30 -358q-7 -57 -15 -99l-90 -391l4 -4l6 4q70 252 175.5 380t230.5 128q126 0 184 -100.5t21 -296.5l-51 -285q-35 -191 -125 -279t-240 -88q-177 0 -256 98.5t-53 288.5l82 576q29 201 39 426q3 35 36 35zM612 915q-79 0 -156 -85.5 t-134 -225.5t-86 -305q-10 -110 40.5 -165.5t149.5 -55.5q202 0 246 250l53 288q29 152 -5 225.5t-108 73.5z" />
<glyph unicode="c" horiz-adv-x="815" d="M379 -25q-154 0 -226.5 96t-46.5 277l46 324q27 183 115 267.5t235 84.5q87 0 200 -29q33 -8 27 -43l-6 -37q-6 -38 -41 -26q-98 31 -184 31q-91 0 -150 -59t-76 -181l-45 -330q-37 -268 168 -268q83 0 191 43q20 8 31 0t8 -29l-4 -37q-3 -30 -35 -41q-115 -43 -207 -43z " />
<glyph unicode="d" horiz-adv-x="985" d="M846 1399h51q36 0 33 -39l-187 -1327q-3 -33 -34 -33h-43q-39 0 -33 39q8 59 14 82l70 278l-4 4l-6 -4q-65 -214 -166.5 -319t-221.5 -105q-125 0 -186 93.5t-31 277.5l52 324q30 180 113.5 267t209.5 87q71 0 142 -37.5t124 -101.5l68 481q3 33 35 33zM494 915 q-88 0 -143.5 -60.5t-78.5 -192.5l-49 -302q-25 -150 9.5 -213t119.5 -63q123 0 219.5 141.5t133.5 368.5l24 192q-107 129 -235 129z" />
<glyph unicode="e" horiz-adv-x="905" d="M553 1024q128 0 200 -65.5t70 -178.5q-3 -165 -152 -278.5t-444 -134.5l-2 -29q-20 -138 24.5 -197t156.5 -59q115 0 241 63q20 9 31 1.5t8 -29.5l-6 -37q-6 -30 -31 -41q-64 -30 -136 -47t-126 -17q-170 0 -237.5 96.5t-38.5 301.5l24 178q33 234 145 353.5t273 119.5z M547 922q-104 0 -185 -94.5t-106 -272.5l-16 -111q136 16 268 62q197 117 197 264q0 71 -42.5 111.5t-115.5 40.5z" />
<glyph unicode="f" horiz-adv-x="600" d="M594 1423q49 0 115 -16q31 -8 28 -43l-4 -29q-5 -34 -41 -28q-59 16 -106 16q-69 0 -107.5 -42t-52.5 -146l-20 -136h147q39 0 33 -38l-4 -29q-7 -33 -39 -33h-150l-145 -1032q-20 -145 -79 -207.5t-171 -62.5q-58 0 -125 18q-32 10 -29 41l6 35q6 35 41 26 q59 -16 105 -16q58 0 89.5 35.5t43.5 122.5l145 1040h-118q-34 0 -31 33l2 14q3 16 10 23t23 8l127 14l18 133q23 159 93 229t196 70z" />
<glyph unicode="g" horiz-adv-x="989" d="M485 1024q73 0 144 -40t127 -107l14 90q3 32 35 32h41q39 0 33 -38l-148 -1055q-23 -168 -101.5 -238.5t-244.5 -70.5q-123 0 -276 41q-33 10 -27 40l4 39q7 41 43 29q144 -45 262 -45q107 0 156.5 44t64.5 151q16 120 33 194l78 309l-4 4l-6 -4q-67 -215 -167.5 -319.5 t-221.5 -104.5q-124 0 -184.5 93t-30.5 278l49 320q30 181 115.5 269.5t211.5 88.5zM498 920q-178 0 -219 -258l-50 -302q-25 -151 8.5 -213.5t118.5 -62.5q126 0 223.5 149t133.5 381l22 170q-111 136 -237 136z" />
<glyph unicode="h" horiz-adv-x="995" d="M287 1399h49q35 0 35 -35q-9 -171 -31 -358q-5 -38 -16 -99l-95 -415l7 -5l6 5q71 257 187.5 394.5t240.5 137.5q59 0 99 -19.5t66.5 -63.5t30.5 -115.5t-10 -176.5l-92 -616q-3 -33 -35 -33h-49q-39 0 -33 39l92 616q22 143 -4.5 200.5t-97.5 57.5q-80 0 -164 -97 t-154 -279t-102 -408l-14 -96q-3 -33 -35 -33h-49q-39 0 -33 39l125 899q32 222 41 426q0 17 9.5 26t25.5 9z" />
<glyph unicode="i" horiz-adv-x="444" d="M166 0h-49q-39 0 -33 39l129 928q6 32 37 32h49q39 0 33 -38l-131 -928q-3 -33 -35 -33zM391 1288l-6 -39q-9 -65 -86 -65q-41 0 -62.5 20.5t-17.5 57.5l6 38q9 68 86 68q42 0 63 -21t17 -59z" />
<glyph unicode="j" horiz-adv-x="452" d="M254 999h49q39 0 33 -38l-158 -1115q-19 -133 -78 -191t-172 -58q-64 0 -127 18q-32 10 -26 41l4 37q7 39 43 26q56 -18 108 -18q58 0 88.5 29.5t40.5 105.5l160 1131q3 32 35 32zM397 1288l-6 -39q-9 -65 -86 -65q-41 0 -62.5 20.5t-17.5 57.5l6 38q9 68 86 68 q42 0 63 -21t17 -59z" />
<glyph unicode="k" horiz-adv-x="901" d="M287 1399h49q35 0 35 -35q-9 -171 -31 -358q-5 -38 -16 -99l-97 -418l6 -4l7 4q65 246 170.5 390.5t236.5 144.5q85 0 137 -53.5t52 -143.5q0 -125 -90 -231t-250 -152l215 -401q9 -20 2 -31.5t-27 -11.5h-57q-31 0 -43 27q-32 71 -207 417q-8 15 -2 27.5t24 15.5 q156 36 236 129.5t80 196.5q0 52 -27.5 80.5t-73.5 28.5q-80 0 -162 -102.5t-145 -277t-88 -374.5l-18 -135q-3 -33 -35 -33h-49q-39 0 -33 39l125 899q32 222 41 426q0 17 9.5 26t25.5 9z" />
<glyph unicode="l" horiz-adv-x="444" d="M291 1399h49q33 0 33 -35q-11 -219 -41 -414l-129 -917q-3 -33 -35 -33h-49q-39 0 -33 39l125 899q33 221 43 426q0 35 37 35z" />
<glyph unicode="m" horiz-adv-x="1544" d="M1210 1024q120 0 168.5 -87t18.5 -288l-92 -616q-3 -33 -35 -33h-49q-39 0 -33 39l92 612q22 148 -4 205t-96 57q-59 0 -121.5 -56.5t-119 -158t-103.5 -256.5t-72 -338l-10 -71q-3 -33 -35 -33h-49q-39 0 -33 39l90 612q19 103 8.5 161t-35.5 79.5t-71 21.5 q-123 0 -243.5 -222.5t-172.5 -586.5l-10 -71q-3 -33 -35 -33h-49q-39 0 -33 39l129 928q6 32 37 32h41q36 0 33 -38l-11 -72l-12 -72l-74 -325l4 -5l7 5q73 259 188 395.5t242 136.5q81 0 131 -50t51 -149q3 -22 -16 -102l-56 -231l6 -5l7 5q71 257 184.5 394.5 t232.5 137.5z" />
<glyph unicode="n" horiz-adv-x="1003" d="M670 1024q59 0 99 -19.5t66.5 -63.5t30.5 -115.5t-10 -176.5l-92 -616q-3 -33 -35 -33h-49q-39 0 -33 39l92 616q22 143 -4.5 200.5t-97.5 57.5q-127 0 -250.5 -224.5t-175.5 -598.5l-8 -57q-3 -33 -35 -33h-49q-39 0 -33 39l129 928q6 32 37 32h41q36 0 33 -38l-11 -72 l-12 -72l-74 -325l7 -5l6 5q71 257 187.5 394.5t240.5 137.5z" />
<glyph unicode="o" horiz-adv-x="976" d="M844 647l-41 -301q-50 -371 -381 -371q-177 0 -259 98.5t-57 278.5l44 307q26 184 119.5 274.5t260.5 90.5q173 0 256.5 -101t57.5 -276zM680 328l47 329q18 126 -37 195.5t-166 69.5q-113 0 -174 -60t-80 -190l-45 -330q-18 -126 36.5 -195t164.5 -69q220 0 254 250z " />
<glyph unicode="p" horiz-adv-x="980" d="M647 1024q126 0 183 -100t22 -297l-57 -322q-32 -170 -109 -250t-201 -80q-65 0 -142 34t-132 85q-43 -245 -90 -444q-10 -29 -39 -29h-47q-40 0 -31 39q57 233 100 524l111 783q6 32 37 32h39q36 0 33 -38l-9 -56l-12 -71l-72 -318l5 -4l6 4q72 254 176 381t229 127z M621 915q-119 0 -233 -187.5t-157 -481.5l-8 -64q47 -43 114 -71.5t120 -28.5q89 0 143.5 56t77.5 184l55 294q29 152 -5 225.5t-107 73.5z" />
<glyph unicode="q" horiz-adv-x="985" d="M479 1024q74 0 145.5 -40t127.5 -107l12 90q3 32 37 32h41q38 0 32 -38l-184 -1307q-6 -33 -37 -33h-49q-39 0 -33 39l35 236q22 153 37 208l74 295l-4 4l-6 -4q-65 -214 -166.5 -319t-221.5 -105q-125 0 -186 93.5t-31 277.5l52 320q28 181 113.5 269.5t211.5 88.5z M494 920q-178 0 -222 -258l-49 -302q-25 -150 9.5 -213t119.5 -63q123 0 219.5 141.5t133.5 368.5l26 190q-111 136 -237 136z" />
<glyph unicode="r" horiz-adv-x="669" d="M639 1024q25 0 31.5 -8t3.5 -31l-12 -84q-2 -27 -25 -24q-18 2 -33 2q-80 0 -158 -95t-139.5 -270t-91.5 -397l-12 -84q-3 -33 -35 -33h-49q-39 0 -33 39l129 928q6 32 37 32h41q36 0 33 -38l-11 -72l-12 -72l-74 -325l4 -5l7 5q72 259 180.5 395.5t218.5 136.5z" />
<glyph unicode="s" horiz-adv-x="806" d="M449 1024q84 0 206 -33q31 -9 25 -41l-6 -43q-6 -38 -41 -26q-68 28 -119 39q-46 4 -80 4q-165 0 -184 -125l-2 -13q-22 -123 102 -182l172 -84q87 -42 125.5 -112t26.5 -160l-4 -29q-15 -114 -93.5 -179t-209.5 -65q-138 0 -275 64q-27 13 -24 45l8 41q6 38 43 22 q74 -36 157 -61q49 -6 89 -6q166 0 190 151l2 13q19 125 -100 182l-172 84q-92 43 -131 119t-21 168l4 26q40 201 312 201z" />
<glyph unicode="t" horiz-adv-x="696" d="M360 1266h19q30 0 24 -39l-30 -228h248q38 0 32 -36l-4 -31q-7 -33 -39 -33h-252l-88 -625q-15 -109 13 -151.5t104 -42.5q67 0 143 31q20 9 30 0.5t7 -29.5l-4 -33q-3 -31 -28 -39q-86 -35 -166 -35q-133 0 -186.5 72t-30.5 238l90 614h-113q-37 0 -31 33l2 14 q2 15 9 22.5t24 8.5l127 16l68 244q10 29 32 29z" />
<glyph unicode="u" horiz-adv-x="1005" d="M813 999h49q39 0 33 -38l-131 -928q-3 -33 -35 -33h-47q-37 0 -31 37q4 35 8 47l80 315l-4 4l-6 -4q-64 -213 -165 -318.5t-222 -105.5q-127 0 -185.5 91.5t-31.5 279.5l90 621q6 32 37 32h49q39 0 33 -38l-88 -601q-19 -106 -5 -167t45 -85t85 -24q89 0 165 78.5 t125 205.5t70 283l45 316q6 32 37 32z" />
<glyph unicode="v" horiz-adv-x="874" d="M803 999h53q22 0 29 -11t-2 -30l-439 -927q-13 -31 -43 -31h-90q-33 0 -39 33l-178 928q-6 38 31 38h47q31 0 37 -32q94 -491 147 -863l4 -4l7 4q242 493 393 869q12 26 43 26z" />
<glyph unicode="w" horiz-adv-x="1374" d="M1284 999h53q41 0 29 -41l-348 -929q-10 -29 -39 -29h-92q-32 0 -35 33l-123 856l-364 -860q-13 -29 -43 -29h-89q-33 0 -36 35l-86 928q-3 36 32 36h54q33 0 36 -34q37 -415 52 -852l6 -4l4 4q161 361 356 860q12 26 41 26h96q31 0 37 -32q60 -375 111 -854l6 -4l4 4 q159 426 299 858q6 28 39 28z" />
<glyph unicode="x" horiz-adv-x="827" d="M723 999h65q22 0 28 -12t-7 -31l-332 -440l230 -475q16 -41 -27 -41h-55q-28 0 -43 27q-75 183 -181 403l-4 4l-6 -4q-123 -179 -291 -410q-17 -20 -43 -20h-65q-22 0 -29 12t6 31l359 473l-209 442q-9 19 -2.5 30t28.5 11h56q31 0 43 -26q125 -275 164 -367l4 -4l6 4 q114 152 262 371q16 22 43 22z" />
<glyph unicode="y" horiz-adv-x="1003" d="M662 90l77 309l-4 4l-6 -4q-65 -214 -166 -319t-221 -105q-127 0 -186 91.5t-31 279.5l90 621q3 32 35 32h49q39 0 33 -38l-88 -601q-18 -106 -4 -167t45 -85t86 -24q88 0 164 78.5t125 205.5t71 283l45 316q3 32 35 32h51q39 0 33 -38l-150 -1055 q-23 -168 -101.5 -238.5t-244.5 -70.5q-121 0 -274 41q-32 8 -29 40l6 39q2 19 13 27t28 2q148 -45 263 -45q107 0 156.5 44t64.5 151q17 126 35 194z" />
<glyph unicode="z" horiz-adv-x="823" d="M180 999h565q39 0 33 -38l-4 -29q-3 -25 -18 -43q-299 -360 -586 -780h461q37 0 31 -37l-5 -39q-7 -33 -39 -33h-577q-37 0 -31 37l4 31q3 26 17 43l583 782h-444q-36 0 -33 37l6 37q3 32 37 32z" />
<glyph unicode="{" horiz-adv-x="503" d="M635 1493q36 -6 33 -41l-4 -31q-6 -33 -41 -30q-115 12 -158 -28t-62 -173l-38 -277q-15 -103 -52 -159t-102 -76q60 -22 80 -76.5t6 -159.5l-37 -266q-19 -127 12 -171.5t144 -47.5q19 -3 26.5 -12t6.5 -27l-5 -31q-6 -32 -38 -32q-182 4 -235.5 77t-25.5 273l33 237 q12 97 -10 141t-92 44h-19q-38 0 -32 39l4 30q6 33 37 33h18q73 0 110.5 44t51.5 140l37 256q31 210 102.5 277.5t249.5 46.5z" />
<glyph unicode="|" horiz-adv-x="434" d="M326 1552h49q39 0 33 -39l-232 -1656q-6 -33 -37 -33h-49q-39 0 -33 39l232 1657q6 32 37 32z" />
<glyph unicode="}" horiz-adv-x="503" d="M121 1487q183 -4 236.5 -76.5t25.5 -273.5l-33 -224q-14 -94 10 -138.5t93 -45.5h18q40 0 31 -39l-4 -31q-3 -32 -37 -32h-19q-73 0 -110 -44t-49 -141l-37 -270q-20 -143 -56.5 -215t-105 -98t-190.5 -11q-39 6 -33 41l4 31q5 34 41 31q114 -12 156.5 27.5t62.5 173.5 l39 290q13 103 50.5 159t102.5 77q-60 22 -80.5 76.5t-5.5 158.5l37 252q17 127 -13.5 171.5t-143.5 47.5q-19 3 -26.5 12t-6.5 27l4 31q6 33 39 33z" />
<glyph unicode="~" d="M723 674q40 13 37 -31l-4 -31q-5 -27 -29 -39q-97 -41 -182 -41q-71 0 -148.5 32t-144.5 32q-52 0 -160 -35q-19 -6 -29 2.5t-8 28.5l4 33q3 26 29 39q97 41 184 41q70 0 148 -32t143 -32q42 0 160 33z" />
<glyph unicode="&#xa1;" horiz-adv-x="409" d="M98 -377h-63q-36 0 -33 39l141 942q6 33 37 33h43q39 0 33 -39l-121 -942q-6 -33 -37 -33zM246 887q-42 0 -64.5 21.5t-17.5 56.5l6 41q9 65 90 65q42 0 63.5 -21.5t16.5 -54.5l-4 -34q-5 -38 -26 -56t-64 -18z" />
<glyph unicode="&#xa2;" horiz-adv-x="792" d="M688 995q32 -10 27 -43l-6 -37q-6 -38 -43 -26q-95 31 -183 31q-191 0 -227 -240l-43 -330q-37 -268 168 -268q82 0 190 43q42 16 39 -29l-4 -37q-6 -31 -37 -41q-81 -32 -157 -41l-19 -124q-6 -33 -37 -33h-37q-38 0 -32 39l18 121q-124 17 -180 111.5t-33 256.5l45 324 q47 334 316 350l16 125q3 33 37 33h35q38 0 32 -37l-16 -123q62 -6 131 -25z" />
<glyph unicode="&#xa3;" horiz-adv-x="800" d="M545 1255q97 0 192 -30q33 -8 27 -43l-4 -33q-6 -36 -41 -27q-84 31 -174 31q-93 0 -140.5 -43.5t-60.5 -148.5l-27 -213h185q39 0 33 -39l-5 -31q-3 -33 -36 -33h-191l-37 -272q-14 -106 -38.5 -164.5t-75.5 -102.5h534q36 0 33 -38l-4 -35q-6 -33 -37 -33h-623 q-36 0 -30 39l2 22q3 23 22 45q77 100 94 228l41 311h-106q-18 0 -27 10.5t-6 28.5l4 31q6 33 39 33h111l26 206q23 161 99.5 231t220.5 70z" />
<glyph unicode="&#xa4;" horiz-adv-x="972" d="M758 928l112 98q26 26 50 -2l20 -27q23 -26 -4 -47l-121 -108q24 -72 12 -168l-12 -82q-14 -100 -67 -178l90 -103q22 -26 -4 -49l-33 -31q-28 -22 -49 2l-86 101q-85 -64 -224 -64q-135 0 -209 68l-120 -107q-26 -23 -50 5l-22 24q-23 26 4 49l127 109q-37 78 -22 190 l12 82q11 93 55 164l-80 92q-21 27 4 49l35 31q28 25 49 -2l74 -86q89 74 236 74q145 0 223 -84zM520 907q-107 0 -168 -57t-76 -162l-12 -82q-15 -108 33.5 -170.5t159.5 -62.5q211 0 243 221l13 82q14 106 -35 168.5t-158 62.5z" />
<glyph unicode="&#xa5;" horiz-adv-x="860" d="M836 1231h65q22 0 28.5 -12t-5.5 -31l-416 -672h139q39 0 33 -37l-4 -30q-3 -31 -37 -31h-176l-17 -115h170q39 0 33 -39l-4 -28q-3 -33 -37 -33h-174l-22 -170q-6 -33 -37 -33h-49q-18 0 -27 10.5t-6 28.5l22 164h-168q-38 0 -32 39l4 28q3 33 37 33h172l16 115h-166 q-39 0 -33 39l5 28q3 31 36 31h142l-226 674q-6 19 2 30t27 11h55q32 0 41 -29q112 -359 189 -653q212 351 379 657q16 25 41 25z" />
<glyph unicode="&#xa6;" horiz-adv-x="434" d="M326 1556h49q39 0 33 -38l-93 -666q-5 -31 -36 -31h-50q-38 0 -32 37l92 666q6 32 37 32zM186 555h50q38 0 32 -37l-94 -665q-6 -33 -37 -33h-49q-39 0 -33 39l95 665q5 31 36 31z" />
<glyph unicode="&#xa7;" horiz-adv-x="915" d="M549 1423q78 0 217 -32q30 -9 27 -43l-7 -37q-6 -37 -43 -27q-115 32 -133 35q-40 4 -73 4q-85 0 -128.5 -36.5t-54.5 -112.5l-2 -15q-11 -75 15.5 -123.5t93.5 -79.5l205 -90q189 -84 165 -280l-4 -31q-12 -93 -85 -157.5t-199 -88.5q171 -89 145 -286l-4 -31 q-32 -234 -315 -234q-86 0 -222 35q-33 8 -26 41l6 39q6 39 41 27q94 -29 139 -37q40 -4 74 -4q89 0 134.5 36.5t57.5 114.5l2 15q9 74 -16 121.5t-92 76.5l-205 90q-193 84 -166 289l4 31q15 93 87.5 155t191.5 84q-171 89 -139 289l4 31q32 231 305 231zM606 770l-100 43 q-119 -2 -197.5 -53t-93.5 -142l-2 -16q-22 -134 109 -192l94 -41q126 8 204 59t93 139l2 19q21 128 -109 184z" />
<glyph unicode="&#xa8;" horiz-adv-x="585" d="M227 1286l-6 -37q-9 -63 -80 -63q-40 0 -62 20t-18 54l7 36q9 66 84 66q40 0 59.5 -19.5t15.5 -56.5zM524 1286l-6 -37q-9 -63 -80 -63q-40 0 -62 20t-18 54l7 36q9 66 84 66q39 0 59 -20t16 -56z" />
<glyph unicode="&#xa9;" horiz-adv-x="1323" d="M729 1262q256 0 375 -121t92 -338l-57 -414q-30 -217 -157 -318.5t-382 -101.5q-261 0 -378.5 123.5t-88.5 335.5l57 414q29 220 158 320t381 100zM725 1165q-198 0 -302 -77t-126 -232l-61 -450q-22 -159 74.5 -249.5t297.5 -90.5q381 0 426 309l62 450q22 158 -75 249 t-296 91zM719 983q78 0 139 -20q33 -10 27 -43l-6 -25q-10 -40 -43 -29q-68 21 -115 21q-72 0 -112 -39t-52 -129l-22 -168q-25 -189 112 -189q64 0 129 21q20 6 29 -0.5t8 -26.5l-4 -32q-1 -17 -8 -25t-25 -14q-67 -21 -141 -21q-123 0 -179.5 74t-35.5 217l22 168 q20 139 86 199.5t191 60.5z" />
<glyph unicode="&#xaa;" horiz-adv-x="950" d="M502 1366q74 0 147 -41.5t123 -103.5l14 88q6 32 35 32h43q39 0 33 -38l-113 -809q-3 -31 -34 -31h-43q-39 0 -33 37q6 50 14 71l66 273l-4 4l-7 -4q-63 -205 -164 -305.5t-217 -100.5q-125 0 -185 95t-30 278l33 201q30 179 112.5 266.5t209.5 87.5zM518 1257 q-87 0 -141 -58.5t-78 -194.5l-31 -179q-25 -151 9 -215.5t118 -64.5q122 0 217 142t131 370l11 69q-51 62 -113.5 96.5t-122.5 34.5zM96 102h596q36 0 33 -36l-4 -33q-6 -33 -37 -33h-596q-36 0 -33 37l4 35q6 30 37 30z" />
<glyph unicode="&#xab;" horiz-adv-x="907" d="M428 897h47q21 0 27 -11t-6 -30l-213 -307l125 -309q8 -17 1 -28t-26 -11h-51q-29 0 -41 24l-131 299q-12 23 4 45l223 308q14 20 41 20zM715 897h47q21 0 27 -11t-5 -30l-213 -307l125 -309q7 -17 0 -28t-26 -11h-52q-26 0 -38 24l-131 299q-13 25 4 45l223 308 q14 20 39 20z" />
<glyph unicode="&#xac;" d="M90 672h643q39 0 33 -39l-51 -357q-3 -32 -35 -32h-37q-19 0 -28 10.5t-5 28.5l41 288h-569q-38 0 -33 39l4 27q6 35 37 35z" />
<glyph unicode="&#xad;" horiz-adv-x="716" d="M188 653h353q38 0 32 -37l-4 -26q-6 -33 -37 -33h-352q-39 0 -33 39l5 27q6 30 36 30z" />
<glyph unicode="&#xae;" horiz-adv-x="1089" d="M631 1423q202 0 293.5 -103.5t66.5 -293.5l-10 -68q-27 -186 -120 -267t-294 -81q-197 0 -288 106t-66 292l10 69q27 185 118 265.5t290 80.5zM627 1350q-159 0 -231 -58.5t-91 -199.5l-14 -107q-20 -142 52.5 -221.5t227.5 -79.5q159 0 234.5 58.5t95.5 199.5l14 109 q19 142 -55.5 220.5t-232.5 78.5zM631 1255q82 0 123.5 -39.5t33.5 -105.5l-2 -18q-10 -91 -110 -121l78 -158q6 -12 1 -20.5t-20 -8.5h-37q-16 0 -22 15q-34 88 -72 159q-48 0 -82 7l-22 -162q-4 -19 -21 -19h-35q-20 0 -16 21l59 418q3 26 31 26q70 6 113 6zM627 1190 q-40 0 -72 -4l-25 -160q35 -4 74 -4q49 0 76.5 19t32.5 51l4 16q6 39 -17 60.5t-73 21.5z" />
<glyph unicode="&#xaf;" horiz-adv-x="548" d="M446 1227h-354q-29 0 -26 33l8 51q3 26 30 26h353q15 0 22 -8t4 -22l-6 -52q-6 -28 -31 -28z" />
<glyph unicode="&#xb0;" d="M502 1423q158 0 235 -94.5t54 -261.5l-7 -59q-25 -170 -108 -248t-238 -78q-157 0 -235.5 95.5t-55.5 262.5l9 60q23 167 106 245t240 78zM498 1323q-103 0 -159 -54t-71 -175l-8 -60q-17 -118 30 -185t152 -67q103 0 159 56.5t71 173.5l8 59q17 124 -31.5 188t-150.5 64 z" />
<glyph unicode="&#xb1;" d="M440 999h37q39 0 33 -38l-41 -287h258q39 0 33 -39l-4 -31q-3 -33 -37 -33h-264l-43 -295q-3 -32 -35 -32h-37q-19 0 -28 10.5t-5 28.5l41 288h-260q-36 0 -33 37l4 33q7 33 37 33h266l41 293q3 32 37 32zM16 102h629q38 0 35 -39l-4 -30q-6 -33 -37 -33h-631 q-38 0 -35 39l4 31q6 32 39 32z" />
<glyph unicode="&#xb2;" horiz-adv-x="819" d="M530 1556q123 0 180 -62t42 -171l-2 -14q-9 -69 -47.5 -133t-122.5 -146l-265 -260h344q15 0 23.5 -8t5.5 -23l-4 -34q-7 -27 -33 -27h-450q-15 0 -22.5 8.5t-4.5 22.5l4 28q2 22 17 37l342 350q93 93 106 185l2 16q9 68 -26.5 103.5t-114.5 35.5q-70 0 -172 -32 q-17 -6 -25.5 1.5t-5.5 24.5l4 35q2 15 9 23t24 12q103 28 192 28z" />
<glyph unicode="&#xb3;" horiz-adv-x="819" d="M502 1556q122 0 178 -60t41 -167l-2 -14q-8 -65 -48 -116t-106 -75q66 -25 99 -83t22 -130l-2 -14q-15 -113 -87.5 -174t-201.5 -61q-80 0 -186 28q-28 9 -25 35l4 31q7 34 37 22q89 -28 176 -28q151 0 172 151l2 17q11 74 -27 117.5t-122 43.5h-107q-31 0 -28 33l4 27 q7 26 33 26h110q79 0 123.5 38t52.5 110l2 18q18 139 -133 139q-75 0 -159 -24q-15 -4 -24 5t-7 24l6 28q3 27 33 33q98 20 170 20z" />
<glyph unicode="&#xb4;" horiz-adv-x="430" d="M340 1343l-162 -206q-14 -19 -35 -19h-39q-19 0 -24 10t6 25l137 207q10 18 37 18h64q19 0 23.5 -10t-7.5 -25z" />
<glyph unicode="&#xb5;" horiz-adv-x="1001" d="M655 84l82 315l-4 4l-6 -4q-65 -213 -166.5 -318.5t-220.5 -105.5q-99 0 -143 74q-20 -151 -80 -399q-6 -29 -39 -29h-47q-37 0 -31 41q53 213 106 574l107 731q3 32 35 32h49q39 0 33 -38l-88 -601q-18 -106 -4 -167t45 -85t86 -24q88 0 164 78.5t125 205.5t71 283 l45 316q3 32 35 32h51q39 0 33 -38l-131 -928q-6 -33 -37 -33h-45q-36 0 -33 37q1 8 2.5 16.5t3 17.5t2.5 13z" />
<glyph unicode="&#xb6;" horiz-adv-x="1118" d="M414 1399h194q39 0 33 -39l-240 -1706q-6 -33 -36 -33h-50q-38 0 -32 39l137 975h-103q-123 0 -180.5 74t-38.5 215l35 241q17 121 84 177.5t197 56.5zM975 1399h49q39 0 33 -39l-240 -1706q-3 -33 -37 -33h-49q-39 0 -33 39l240 1706q6 33 37 33zM512 1294h-100 q-81 0 -118 -35.5t-50 -132.5l-27 -192q-12 -106 17 -148.5t104 -42.5h96z" />
<glyph unicode="&#xb7;" horiz-adv-x="423" d="M141 571q42 0 63.5 -20.5t16.5 -56.5l-4 -41q-9 -66 -90 -66q-43 0 -64 21.5t-16 54.5l4 35q5 38 26 55.5t64 17.5z" />
<glyph unicode="&#xb8;" horiz-adv-x="425" d="M223 43h21q17 0 23 -9.5t-1 -23.5l-43 -96h13q66 0 100.5 -43.5t25.5 -112.5l-2 -14q-21 -147 -174 -147q-55 0 -104 14q-28 11 -23 35l4 24q3 33 35 23q49 -15 84 -15q68 0 80 68l2 14q15 90 -86 90h-22q-22 0 -29 14t4 36l57 120q13 23 35 23z" />
<glyph unicode="&#xb9;" horiz-adv-x="819" d="M551 1540h43q15 0 23 -8.5t6 -22.5l-105 -739h144q31 0 28 -31l-4 -34q-6 -27 -33 -27h-430q-31 0 -28 31l4 34q6 27 32 27h172l95 664l-197 -78q-32 -13 -35 20l-4 37q-3 28 23 37l227 82q19 8 39 8z" />
<glyph unicode="&#xba;" horiz-adv-x="999" d="M899 983l-25 -178q-27 -186 -116.5 -275.5t-261.5 -89.5q-178 0 -258 99.5t-54 283.5l27 181q28 187 116.5 274.5t264.5 87.5q173 0 253 -100.5t54 -282.5zM752 793l30 208q19 126 -33.5 194.5t-162.5 68.5q-112 0 -173.5 -60.5t-80.5 -189.5l-31 -207 q-20 -128 33.5 -196t163.5 -68q225 0 254 250zM725 0h-610q-39 0 -33 37l4 33q6 32 37 32h612q36 0 33 -36l-4 -35q-6 -31 -39 -31z" />
<glyph unicode="&#xbb;" horiz-adv-x="907" d="M195 201h-48q-20 0 -26 11t6 30l213 307l-125 309q-8 17 -1 28t26 11h51q29 0 41 -25l131 -299q12 -23 -4 -45l-223 -307q-14 -20 -41 -20zM483 201h-47q-20 0 -26 11t6 30l211 307l-123 309q-8 17 -1.5 28t25.5 11h52q28 0 41 -25l131 -299q12 -23 -7 -45l-221 -307 q-14 -20 -41 -20z" />
<glyph unicode="&#xbc;" horiz-adv-x="2007" d="M506 1233h43q17 0 24.5 -8.5t4.5 -22.5l-105 -739h143q35 0 29 -31l-4 -35q-3 -26 -33 -26h-428q-35 0 -28 30l4 35q3 27 32 27h172l95 663l-197 -77q-15 -6 -25.5 -0.5t-11.5 20.5l-4 37q-3 28 23 37l229 82q19 8 37 8zM1362 1231h39q22 0 28 -12t-6 -31l-753 -1165 q-16 -23 -41 -23h-39q-22 0 -29 11.5t6 31.5l754 1165q14 23 41 23zM1548 862h47q17 0 23 -10t0 -25l-258 -553h285l2 15l4 30l32 240q6 27 33 27h47q15 0 23 -8.5t6 -22.5l-39 -281h82q32 0 29 -30l-4 -33q-7 -27 -33 -27h-86l-23 -157q-3 -27 -30 -27h-52q-31 0 -28 31 l22 153h-352q-23 0 -33 23l-6 18q-6 22 2 39l272 576q13 22 35 22z" />
<glyph unicode="&#xbd;" horiz-adv-x="1978" d="M506 1233h43q17 0 24.5 -8.5t4.5 -22.5l-105 -739h143q35 0 29 -31l-4 -35q-3 -26 -33 -26h-428q-35 0 -28 30l4 35q3 27 32 27h172l95 663l-197 -77q-15 -6 -25.5 -0.5t-11.5 20.5l-4 37q-3 28 23 37l229 82q19 8 37 8zM1366 1231h39q22 0 28 -12t-6 -31l-753 -1165 q-16 -23 -41 -23h-39q-22 0 -29 11.5t6 31.5l754 1165q14 23 41 23zM1595 879q123 0 180 -62.5t42 -171.5l-2 -14q-9 -69 -47.5 -133t-122.5 -146l-265 -260h344q16 0 24 -8t5 -23l-4 -34q-7 -27 -33 -27h-450q-15 0 -22.5 8.5t-4.5 22.5l4 28q3 23 17 37l342 350 q93 93 106 185l2 16q9 68 -26.5 103.5t-114.5 35.5q-70 0 -172 -32q-17 -6 -25.5 1.5t-5.5 24.5l4 35q2 15 9 23t24 12q106 29 192 29z" />
<glyph unicode="&#xbe;" horiz-adv-x="2220" d="M1407 1231h39q22 0 28 -12t-6 -31l-753 -1165q-16 -23 -41 -23h-39q-22 0 -29 11.5t6 31.5l754 1165q14 23 41 23zM1597 862h48q17 0 22.5 -10t-0.5 -25l-258 -553h285l2 15l4 30l33 240q6 27 32 27h47q15 0 23 -8.5t6 -22.5l-39 -281h82q32 0 29 -30l-4 -33 q-7 -27 -33 -27h-86l-23 -157q-3 -27 -30 -27h-51q-15 0 -23 8.5t-6 22.5l22 153h-352q-23 0 -33 23l-6 18q-6 22 2 39l273 576q13 22 34 22zM432 1249q122 0 178 -60t41 -167l-2 -14q-8 -65 -47.5 -116t-105.5 -75q66 -25 98.5 -83t21.5 -130l-2 -14q-15 -113 -87 -174.5 t-201 -61.5q-77 0 -187 29q-27 9 -24 35l4 31q7 34 37 22q92 -29 176 -29q151 0 172 152l2 16q11 74 -27.5 118t-122.5 44h-106q-32 0 -29 33l4 26q7 27 33 27h111q79 0 123.5 38t52.5 110l2 18q18 139 -133 139q-76 0 -160 -24q-15 -4 -24 4.5t-7 23.5l6 29q3 27 33 33 q98 20 170 20z" />
<glyph unicode="&#xbf;" d="M324 -403q-172 0 -243 80.5t-52 228.5l2 24q11 84 54 157.5t136 160.5l101 98q46 46 66.5 87.5t33.5 121.5l2 23q5 32 37 32h39q35 0 32 -39l-4 -22q-11 -88 -40.5 -149t-94.5 -126l-123 -118q-62 -61 -89 -113t-36 -123l-2 -18q-11 -103 37 -155t166 -52q97 0 229 47 q19 6 30 -3.5t9 -29.5l-6 -37q-3 -28 -39 -37q-139 -38 -245 -38zM518 860q-42 0 -64.5 21.5t-17.5 56.5l6 41q9 65 90 65q42 0 63.5 -21t16.5 -54l-4 -35q-5 -38 -26 -56t-64 -18z" />
<glyph unicode="&#xc0;" horiz-adv-x="1064" d="M565 1341h92q31 0 37 -32l256 -1270q6 -39 -30 -39h-58q-33 0 -39 33q-20 122 -55 303h-543l-133 -309q-12 -27 -43 -27h-53q-42 0 -29 41l557 1274q12 26 41 26zM598 1229q-177 -439 -328 -785h480q-89 477 -152 785zM432 1683h62q21 0 36 -18l121 -180q10 -15 4.5 -25 t-22.5 -10h-37q-22 0 -35 16l-145 183q-12 13 -7.5 23.5t23.5 10.5z" />
<glyph unicode="&#xc1;" horiz-adv-x="1064" d="M565 1341h92q31 0 37 -32l256 -1270q6 -39 -30 -39h-58q-33 0 -39 33q-20 122 -55 303h-543l-133 -309q-12 -27 -43 -27h-53q-42 0 -29 41l557 1274q12 26 41 26zM598 1229q-177 -439 -328 -785h480q-89 477 -152 785zM750 1683h61q19 0 23.5 -10.5t-7.5 -23.5l-145 -183 q-13 -16 -35 -16h-37q-19 0 -24 10t6 25l121 180q12 18 37 18z" />
<glyph unicode="&#xc2;" horiz-adv-x="1064" d="M565 1341h92q31 0 37 -32l256 -1270q6 -39 -30 -39h-58q-33 0 -39 33q-20 122 -55 303h-543l-133 -309q-12 -27 -43 -27h-53q-42 0 -29 41l557 1274q12 26 41 26zM598 1229q-177 -439 -328 -785h480q-89 477 -152 785zM397 1577l238 102q21 9 39 0l207 -102 q23 -11 20 -37l-4 -37q-3 -34 -37 -24l-219 92l-242 -92q-15 -5 -23 2.5t-7 25.5l4 35q3 26 24 35z" />
<glyph unicode="&#xc3;" horiz-adv-x="1064" d="M565 1341h92q31 0 37 -32l256 -1270q6 -39 -30 -39h-58q-33 0 -39 33q-20 122 -55 303h-543l-133 -309q-12 -27 -43 -27h-53q-42 0 -29 41l557 1274q12 26 41 26zM598 1229q-177 -439 -328 -785h480q-89 477 -152 785zM907 1587l-4 -39q-3 -28 -26 -39q-64 -39 -140 -39 q-40 0 -115 26t-110 26q-46 0 -121 -29q-36 -12 -33 27l4 34q3 27 23 37q73 41 141 41q53 0 126 -25.5t102 -25.5q45 0 120 29q17 7 26 1t7 -24z" />
<glyph unicode="&#xc4;" horiz-adv-x="1064" d="M565 1341h92q31 0 37 -32l256 -1270q6 -39 -30 -39h-58q-33 0 -39 33q-20 122 -55 303h-543l-133 -309q-12 -27 -43 -27h-53q-42 0 -29 41l557 1274q12 26 41 26zM598 1229q-177 -439 -328 -785h480q-89 477 -152 785zM862 1581l-6 -39q-6 -63 -78 -63q-40 0 -63 20 t-19 53l6 37q5 35 23.5 50.5t58.5 15.5q39 0 60 -19t18 -55zM565 1581l-6 -39q-6 -63 -78 -63q-40 0 -63 20t-19 53l7 37q4 35 23.5 50.5t57.5 15.5q39 0 60 -19t18 -55z" />
<glyph unicode="&#xc5;" horiz-adv-x="1064" d="M651 1634q89 0 142 -45.5t53 -122.5q0 -69 -36.5 -119.5t-104.5 -68.5l249 -1239q6 -39 -30 -39h-58q-33 0 -39 33q-20 122 -55 303h-545q-25 -60 -71.5 -168.5t-59.5 -140.5q-12 -27 -43 -27h-53q-42 0 -29 41l547 1253q-88 37 -88 146q0 88 59 141t162 53zM649 1559 q-129 0 -129 -115q0 -47 28.5 -74.5t84.5 -28.5q123 0 123 123q0 45 -28 70t-79 25zM602 1229q-177 -439 -328 -785h480q-63 348 -152 785z" />
<glyph unicode="&#xc6;" horiz-adv-x="1572" d="M803 1341h676q38 0 32 -38l-4 -37q-6 -33 -37 -33h-518l-61 -498h471q41 0 35 -37l-6 -36q-6 -33 -37 -33h-477l-64 -520h514q36 0 33 -37l-4 -37q-3 -19 -11.5 -27t-25.5 -8h-596q-38 0 -35 37l35 299h-461q-191 -295 -203 -313q-14 -23 -41 -23h-53q-22 0 -28 12t6 31 l817 1276q14 22 43 22zM737 444l99 809q-181 -300 -506 -809h407z" />
<glyph unicode="&#xc7;" horiz-adv-x="980" d="M893 1319q33 -9 27 -39l-7 -43q-6 -40 -43 -27q-148 50 -264 50q-129 0 -199 -71.5t-90 -242.5l-67 -553q-20 -160 39 -233.5t198 -73.5q123 0 256 55q20 7 31.5 -0.5t9.5 -27.5l-4 -43q-3 -30 -30 -41q-108 -40 -224 -49l-26 -66h10q66 0 101 -43.5t26 -112.5l-2 -14 q-21 -147 -174 -147q-57 0 -103 14q-27 9 -24 35l4 24q3 33 35 23q49 -15 84 -15q68 0 80 68l2 14q15 90 -86 90h-23q-22 0 -28.5 14t4.5 36l36 75q-360 15 -309 441l64 522q29 232 128 330t289 98q130 0 279 -47z" />
<glyph unicode="&#xc8;" horiz-adv-x="983" d="M291 1341h596q39 0 33 -38l-5 -37q-6 -33 -36 -33h-519l-61 -498h471q42 0 33 -37l-4 -36q-6 -33 -37 -33h-477l-64 -520h514q36 0 33 -37l-6 -37q-3 -35 -35 -35h-596q-38 0 -35 37l156 1272q3 32 39 32zM406 1683h61q22 0 37 -18l121 -180q10 -15 4.5 -25t-23.5 -10 h-37q-21 0 -34 16l-146 183q-12 13 -7 23.5t24 10.5z" />
<glyph unicode="&#xc9;" horiz-adv-x="983" d="M291 1341h596q39 0 33 -38l-5 -37q-6 -33 -36 -33h-519l-61 -498h471q42 0 33 -37l-4 -36q-6 -33 -37 -33h-477l-64 -520h514q36 0 33 -37l-6 -37q-3 -35 -35 -35h-596q-38 0 -35 37l156 1272q3 32 39 32zM723 1683h61q19 0 24 -10.5t-7 -23.5l-146 -183q-13 -16 -34 -16 h-37q-19 0 -24.5 10t5.5 25l121 180q12 18 37 18z" />
<glyph unicode="&#xca;" horiz-adv-x="983" d="M291 1341h596q39 0 33 -38l-5 -37q-6 -33 -36 -33h-519l-61 -498h471q42 0 33 -37l-4 -36q-6 -33 -37 -33h-477l-64 -520h514q36 0 33 -37l-6 -37q-3 -35 -35 -35h-596q-38 0 -35 37l156 1272q3 32 39 32zM369 1577l237 102q21 9 39 0l207 -102q23 -11 20 -37l-4 -37 q-3 -34 -37 -24l-219 92l-241 -92q-15 -5 -23.5 2.5t-7.5 25.5l4 35q3 26 25 35z" />
<glyph unicode="&#xcb;" horiz-adv-x="983" d="M291 1341h596q39 0 33 -38l-5 -37q-6 -33 -36 -33h-519l-61 -498h471q42 0 33 -37l-4 -36q-6 -33 -37 -33h-477l-64 -520h514q36 0 33 -37l-6 -37q-3 -35 -35 -35h-596q-38 0 -35 37l156 1272q3 32 39 32zM537 1581l-7 -39q-6 -63 -77 -63q-40 0 -63 20t-19 53l6 37 q4 35 23.5 50.5t58.5 15.5t60 -19t18 -55zM834 1581l-7 -39q-6 -63 -77 -63q-40 0 -63 20t-19 53l6 37q5 35 23.5 50.5t58.5 15.5q39 0 60 -19t18 -55z" />
<glyph unicode="&#xcc;" horiz-adv-x="454" d="M291 1341h45q38 0 35 -36l-156 -1272q-3 -33 -39 -33h-45q-38 0 -35 37l156 1272q3 32 39 32zM135 1683h62q21 0 36 -18l121 -180q10 -15 4.5 -25t-22.5 -10h-37q-22 0 -35 16l-145 183q-12 13 -7.5 23.5t23.5 10.5z" />
<glyph unicode="&#xcd;" horiz-adv-x="454" d="M291 1341h45q38 0 35 -36l-156 -1272q-3 -33 -39 -33h-45q-38 0 -35 37l156 1272q3 32 39 32zM453 1683h61q19 0 23.5 -10.5t-7.5 -23.5l-145 -183q-13 -16 -35 -16h-37q-19 0 -24 10t6 25l121 180q12 18 37 18z" />
<glyph unicode="&#xce;" horiz-adv-x="454" d="M291 1341h45q38 0 35 -36l-156 -1272q-3 -33 -39 -33h-45q-38 0 -35 37l156 1272q3 32 39 32zM100 1577l238 102q21 9 39 0l207 -102q23 -11 20 -37l-4 -37q-3 -34 -37 -24l-219 92l-242 -92q-15 -5 -23 2.5t-7 25.5l4 35q3 26 24 35z" />
<glyph unicode="&#xcf;" horiz-adv-x="454" d="M291 1341h45q38 0 35 -36l-156 -1272q-3 -33 -39 -33h-45q-38 0 -35 37l156 1272q3 32 39 32zM268 1581l-6 -39q-6 -63 -78 -63q-40 0 -63 20t-19 53l7 37q4 35 23.5 50.5t57.5 15.5q39 0 60 -19t18 -55zM565 1581l-6 -39q-6 -63 -78 -63q-40 0 -63 20t-19 53l7 37 q5 35 23.5 50.5t57.5 15.5t60 -19t18 -55z" />
<glyph unicode="&#xd0;" horiz-adv-x="1179" d="M602 1366q248 0 365.5 -144t85.5 -411l-43 -346q-62 -490 -564 -490q-108 0 -307 15q-39 3 -33 41l74 612h-117q-38 0 -32 37l4 31q3 32 37 32h123l69 578q6 32 39 35q160 10 299 10zM592 1262q-18 0 -217 -7l-64 -512h254q19 0 28 -9.5t5 -26.5l-4 -31q-3 -33 -37 -33 h-258l-68 -549q134 -14 226 -14q184 0 297.5 97.5t136.5 281.5l45 358q27 224 -63 334.5t-281 110.5z" />
<glyph unicode="&#xd1;" horiz-adv-x="1191" d="M1028 1341h45q38 0 35 -36l-156 -1272q-3 -33 -39 -33h-104q-31 0 -41 29l-412 1173l-141 -1169q-6 -33 -39 -33h-45q-38 0 -35 37l156 1272q3 32 39 32h108q29 0 41 -28q250 -677 408 -1168l141 1164q6 32 39 32zM989 1587l-4 -39q-3 -27 -27 -39q-64 -39 -139 -39 q-40 0 -115 26t-110 26q-46 0 -121 -29q-36 -12 -33 27l4 34q3 27 23 37q73 41 141 41q53 0 126 -25.5t102 -25.5q45 0 120 29q17 7 26 1t7 -24z" />
<glyph unicode="&#xd2;" horiz-adv-x="1179" d="M664 1366q215 0 319 -116t78 -326l-64 -523q-26 -216 -140 -321t-327 -105q-217 0 -320 116t-77 331l64 518q28 225 138.5 325.5t328.5 100.5zM653 1260q-154 0 -236 -73.5t-102 -236.5l-65 -544q-19 -159 56 -241.5t231 -82.5q154 0 237 75.5t103 235.5l67 545 q20 161 -54.5 241.5t-236.5 80.5zM481 1683h62q22 0 37 -18l120 -180q10 -15 4.5 -25t-22.5 -10h-37q-22 0 -35 16l-145 183q-12 13 -7.5 23.5t23.5 10.5z" />
<glyph unicode="&#xd3;" horiz-adv-x="1179" d="M664 1366q215 0 319 -116t78 -326l-64 -523q-26 -216 -140 -321t-327 -105q-217 0 -320 116t-77 331l64 518q28 225 138.5 325.5t328.5 100.5zM653 1260q-154 0 -236 -73.5t-102 -236.5l-65 -544q-19 -159 56 -241.5t231 -82.5q154 0 237 75.5t103 235.5l67 545 q20 161 -54.5 241.5t-236.5 80.5zM799 1683h61q19 0 24 -10.5t-7 -23.5l-146 -183q-13 -16 -35 -16h-37q-19 0 -24 10t6 25l121 180q12 18 37 18z" />
<glyph unicode="&#xd4;" horiz-adv-x="1179" d="M664 1366q215 0 319 -116t78 -326l-64 -523q-26 -216 -140 -321t-327 -105q-217 0 -320 116t-77 331l64 518q28 225 138.5 325.5t328.5 100.5zM653 1260q-154 0 -236 -73.5t-102 -236.5l-65 -544q-19 -159 56 -241.5t231 -82.5q154 0 237 75.5t103 235.5l67 545 q20 161 -54.5 241.5t-236.5 80.5zM446 1577l238 102q21 9 39 0l207 -102q23 -11 20 -37l-4 -37q-3 -34 -37 -24l-219 92l-241 -92q-15 -5 -23.5 2.5t-7.5 25.5l4 35q3 26 24 35z" />
<glyph unicode="&#xd5;" horiz-adv-x="1179" d="M664 1366q215 0 319 -116t78 -326l-64 -523q-26 -216 -140 -321t-327 -105q-217 0 -320 116t-77 331l64 518q28 225 138.5 325.5t328.5 100.5zM653 1260q-154 0 -236 -73.5t-102 -236.5l-65 -544q-19 -159 56 -241.5t231 -82.5q154 0 237 75.5t103 235.5l67 545 q20 161 -54.5 241.5t-236.5 80.5zM956 1587l-4 -39q-3 -28 -26 -39q-64 -39 -140 -39q-40 0 -115 26t-110 26q-46 0 -121 -29q-35 -12 -32 27l4 34q3 28 22 37q73 41 141 41q53 0 126 -25.5t102 -25.5q46 0 121 29q35 15 32 -23z" />
<glyph unicode="&#xd6;" horiz-adv-x="1179" d="M664 1366q215 0 319 -116t78 -326l-64 -523q-26 -216 -140 -321t-327 -105q-217 0 -320 116t-77 331l64 518q28 225 138.5 325.5t328.5 100.5zM653 1260q-154 0 -236 -73.5t-102 -236.5l-65 -544q-19 -159 56 -241.5t231 -82.5q154 0 237 75.5t103 235.5l67 545 q20 161 -54.5 241.5t-236.5 80.5zM614 1581l-6 -39q-6 -63 -78 -63q-40 0 -62.5 20t-18.5 53l6 37q4 35 23.5 50.5t58.5 15.5t59.5 -19t17.5 -55zM911 1581l-6 -39q-6 -63 -78 -63q-40 0 -63 20t-19 53l7 37q5 35 23.5 50.5t58.5 15.5q39 0 59.5 -19t17.5 -55z" />
<glyph unicode="&#xd7;" d="M418 694l237 209q26 23 50 -4l18 -18q21 -29 -6 -50l-236 -208l176 -205q21 -27 -4 -49l-35 -31q-27 -21 -49 4l-176 205l-233 -205q-27 -24 -49 4l-17 19q-23 26 4 49l234 204l-176 205q-21 27 4 49l33 31q27 21 49 -4z" />
<glyph unicode="&#xd8;" horiz-adv-x="1179" d="M1098 1444h45q22 0 28 -12t-6 -31l-145 -205q59 -107 41 -283l-64 -507q-28 -219 -140.5 -325t-328.5 -106q-182 0 -284 82l-101 -139q-17 -20 -43 -20h-45q-22 0 -28 12t6 31l141 196q-62 111 -41 291l64 510q29 228 138.5 328t328.5 100q186 0 290 -90l103 145 q16 23 41 23zM653 1260q-153 0 -235.5 -74t-102.5 -236l-65 -547q-12 -92 12 -151l629 924q-69 84 -238 84zM932 1077l-627 -917q72 -78 230 -78q155 0 238.5 75.5t103.5 235.5l67 545q9 83 -12 139z" />
<glyph unicode="&#xd9;" horiz-adv-x="1181" d="M1018 1341h47q38 0 35 -36l-113 -904q-28 -217 -137.5 -321.5t-310.5 -104.5q-214 0 -318 113t-78 328l111 893q3 32 39 32h47q39 0 33 -36l-113 -904q-19 -153 57 -234t230 -81q141 0 220 73.5t99 231.5l113 918q6 32 39 32zM492 1683h61q22 0 37 -18l121 -180 q10 -15 4.5 -25t-23.5 -10h-37q-21 0 -34 16l-146 183q-12 13 -7 23.5t24 10.5z" />
<glyph unicode="&#xda;" horiz-adv-x="1181" d="M1018 1341h47q38 0 35 -36l-113 -904q-28 -217 -137.5 -321.5t-310.5 -104.5q-214 0 -318 113t-78 328l111 893q3 32 39 32h47q39 0 33 -36l-113 -904q-19 -153 57 -234t230 -81q141 0 220 73.5t99 231.5l113 918q6 32 39 32zM809 1683h61q19 0 24 -10.5t-7 -23.5 l-146 -183q-13 -16 -34 -16h-37q-19 0 -24.5 10t5.5 25l121 180q12 18 37 18z" />
<glyph unicode="&#xdb;" horiz-adv-x="1181" d="M1018 1341h47q38 0 35 -36l-113 -904q-28 -217 -137.5 -321.5t-310.5 -104.5q-214 0 -318 113t-78 328l111 893q3 32 39 32h47q39 0 33 -36l-113 -904q-19 -153 57 -234t230 -81q141 0 220 73.5t99 231.5l113 918q6 32 39 32zM457 1577l237 102q21 9 39 0l207 -102 q24 -12 21 -37l-5 -37q-3 -34 -36 -24l-220 92l-241 -92q-15 -5 -23.5 2.5t-7.5 25.5l4 35q3 26 25 35z" />
<glyph unicode="&#xdc;" horiz-adv-x="1181" d="M1018 1341h47q38 0 35 -36l-113 -904q-28 -217 -137.5 -321.5t-310.5 -104.5q-214 0 -318 113t-78 328l111 893q3 32 39 32h47q39 0 33 -36l-113 -904q-19 -153 57 -234t230 -81q141 0 220 73.5t99 231.5l113 918q6 32 39 32zM625 1581l-7 -39q-6 -63 -77 -63 q-40 0 -63 20t-19 53l6 37q4 35 23.5 50.5t58.5 15.5t60 -19t18 -55zM922 1581l-7 -39q-6 -63 -77 -63q-40 0 -63 20t-19 53l6 37q5 35 23.5 50.5t58.5 15.5q39 0 60 -19t18 -55z" />
<glyph unicode="&#xdd;" horiz-adv-x="970" d="M913 1341h68q20 0 26.5 -12t-3.5 -31l-478 -837l-51 -428q-3 -33 -37 -33h-47q-38 0 -35 37l52 424l-273 842q-5 17 3.5 27.5t27.5 10.5h55q32 0 41 -28q128 -406 215 -723q231 398 397 727q12 24 39 24zM698 1683h62q19 0 23.5 -10.5t-7.5 -23.5l-145 -183 q-13 -16 -35 -16h-37q-19 0 -24 10t6 25l121 180q12 18 36 18z" />
<glyph unicode="&#xde;" horiz-adv-x="1019" d="M293 1341h45q38 0 35 -36l-27 -209q102 6 207 6q229 0 341 -108t89 -298l-2 -24q-23 -188 -145 -287.5t-334 -99.5q-110 0 -250 32l-35 -284q-3 -33 -39 -33h-45q-38 0 -35 37l156 1272q3 32 39 32zM547 999q-103 0 -205 -8l-74 -577q142 -29 234 -29q161 0 248.5 72.5 t109.5 218.5l4 18q21 145 -60 225t-257 80z" />
<glyph unicode="&#xdf;" horiz-adv-x="1011" d="M604 1423q145 0 225 -77.5t66 -196.5l-4 -25q-7 -56 -31 -99t-53.5 -69t-58.5 -48.5t-52 -51t-28 -63.5l-4 -29q-9 -79 51 -125l88 -66q74 -56 101.5 -127.5t15.5 -169.5l-5 -30q-35 -271 -262 -271q-106 0 -211 45q-27 9 -24 41l8 39q6 37 41 25q64 -30 131 -45 q23 -2 53 -2q120 0 146 166l6 43q17 126 -76 196l-92 66q-100 73 -88 207l4 35q6 43 24 78t40.5 56.5t49 44t48.5 41t39 47.5t22 64l2 25q11 75 -38 124.5t-142 49.5q-96 0 -143.5 -50.5t-65.5 -180.5l-147 -1057q-6 -33 -37 -33h-47q-39 0 -33 39l119 860h-115 q-37 0 -31 33l2 14q2 15 9 22.5t24 8.5l125 14l8 62q27 202 107 286t233 84z" />
<glyph unicode="&#xe0;" horiz-adv-x="985" d="M479 1024q74 0 145.5 -40t127.5 -107l12 90q3 32 37 32h41q38 0 32 -38l-131 -928q-3 -33 -34 -33h-43q-39 0 -33 39q8 59 14 82l70 278l-4 4l-6 -4q-65 -214 -166.5 -319t-221.5 -105q-125 0 -186 93.5t-31 277.5l52 320q28 181 113.5 269.5t211.5 88.5zM494 920 q-178 0 -222 -258l-49 -302q-25 -150 9.5 -213t119.5 -63q123 0 219.5 142.5t133.5 371.5l26 186q-114 136 -237 136zM481 1137l-162 206q-12 15 -7 25t24 10h65q24 0 37 -18l135 -207q11 -15 6 -25t-24 -10h-37q-23 0 -37 19z" />
<glyph unicode="&#xe1;" horiz-adv-x="985" d="M479 1024q74 0 145.5 -40t127.5 -107l12 90q3 32 37 32h41q38 0 32 -38l-131 -928q-3 -33 -34 -33h-43q-39 0 -33 39q8 59 14 82l70 278l-4 4l-6 -4q-65 -214 -166.5 -319t-221.5 -105q-125 0 -186 93.5t-31 277.5l52 320q28 181 113.5 269.5t211.5 88.5zM494 920 q-178 0 -222 -258l-49 -302q-25 -150 9.5 -213t119.5 -63q123 0 219.5 142.5t133.5 371.5l26 186q-114 136 -237 136zM766 1343l-162 -206q-14 -19 -35 -19h-39q-19 0 -24 10t6 25l137 207q10 18 37 18h64q19 0 23.5 -10t-7.5 -25z" />
<glyph unicode="&#xe2;" horiz-adv-x="985" d="M479 1024q74 0 145.5 -40t127.5 -107l12 90q3 32 37 32h41q38 0 32 -38l-131 -928q-3 -33 -34 -33h-43q-39 0 -33 39q8 59 14 82l70 278l-4 4l-6 -4q-65 -214 -166.5 -319t-221.5 -105q-125 0 -186 93.5t-31 277.5l52 320q28 181 113.5 269.5t211.5 88.5zM494 920 q-178 0 -222 -258l-49 -302q-25 -150 9.5 -213t119.5 -63q123 0 219.5 142.5t133.5 371.5l26 186q-114 136 -237 136zM334 1253l227 119q22 9 41 -4l186 -119q24 -14 19 -39l-6 -34q-2 -17 -12 -22.5t-25 3.5l-193 111l-231 -111q-17 -9 -26.5 -2t-6.5 25l4 39q5 24 23 34z " />
<glyph unicode="&#xe3;" horiz-adv-x="985" d="M479 1024q74 0 145.5 -40t127.5 -107l12 90q3 32 37 32h41q38 0 32 -38l-131 -928q-3 -33 -34 -33h-43q-39 0 -33 39q8 59 14 82l70 278l-4 4l-6 -4q-65 -214 -166.5 -319t-221.5 -105q-125 0 -186 93.5t-31 277.5l52 320q28 181 113.5 269.5t211.5 88.5zM494 920 q-178 0 -222 -258l-49 -302q-25 -150 9.5 -213t119.5 -63q123 0 219.5 142.5t133.5 371.5l26 186q-114 136 -237 136zM805 1305l-4 -39q-6 -25 -23 -35q-64 -41 -137 -41q-37 0 -94 25.5t-90 25.5q-43 0 -113 -29q-36 -13 -33 25l6 33q3 25 21 35q70 45 137 45q51 0 104 -26 t78 -26q45 0 115 29q17 8 26.5 1.5t6.5 -23.5z" />
<glyph unicode="&#xe4;" horiz-adv-x="985" d="M479 1024q74 0 145.5 -40t127.5 -107l12 90q3 32 37 32h41q38 0 32 -38l-131 -928q-3 -33 -34 -33h-43q-39 0 -33 39q8 59 14 82l70 278l-4 4l-6 -4q-65 -214 -166.5 -319t-221.5 -105q-125 0 -186 93.5t-31 277.5l52 320q28 181 113.5 269.5t211.5 88.5zM494 920 q-178 0 -222 -258l-49 -302q-25 -150 9.5 -213t119.5 -63q123 0 219.5 142.5t133.5 371.5l26 186q-114 136 -237 136zM489 1286l-6 -37q-9 -63 -80 -63q-40 0 -61.5 20t-17.5 54l6 36q9 66 84 66q40 0 59.5 -19.5t15.5 -56.5zM786 1286l-6 -37q-9 -63 -80 -63 q-40 0 -61.5 20t-17.5 54l6 36q9 66 84 66q39 0 59 -20t16 -56z" />
<glyph unicode="&#xe5;" horiz-adv-x="985" d="M479 1024q74 0 145.5 -40t127.5 -107l12 90q3 32 37 32h41q38 0 32 -38l-131 -928q-3 -33 -34 -33h-43q-39 0 -33 39q8 59 14 82l70 278l-4 4l-6 -4q-65 -214 -166.5 -319t-221.5 -105q-125 0 -186 93.5t-31 277.5l52 320q28 181 113.5 269.5t211.5 88.5zM494 920 q-178 0 -222 -258l-49 -302q-25 -150 9.5 -213t119.5 -63q123 0 219.5 142.5t133.5 371.5l26 186q-114 136 -237 136zM571 1464q90 0 144.5 -44.5t54.5 -121.5q0 -89 -58 -144.5t-161 -55.5q-90 0 -144.5 44.5t-54.5 125.5q0 89 58 142.5t161 53.5zM569 1391 q-127 0 -127 -117q0 -46 30 -73t83 -27q67 0 96 30.5t29 89.5q0 45 -29.5 71t-81.5 26z" />
<glyph unicode="&#xe6;" horiz-adv-x="1468" d="M1116 1024q128 0 199 -65.5t71 -178.5q-2 -165 -150 -278.5t-443 -134.5l-7 -35q-20 -133 24.5 -191.5t158.5 -58.5q115 0 241 63q22 9 32 1.5t7 -29.5l-6 -37q-3 -28 -31 -41q-64 -30 -136 -47t-126 -17q-152 0 -220.5 76t-59.5 238q-64 -157 -155.5 -235.5 t-195.5 -78.5q-135 0 -189.5 102.5t-27.5 268.5l52 324q29 179 113 266.5t214 87.5q87 0 170.5 -54.5t136.5 -138.5q58 95 142.5 144t185.5 49zM1112 922q-104 0 -186 -94.5t-107 -272.5l-14 -111q135 16 266 62q197 117 197 264q0 71 -42.5 111.5t-113.5 40.5zM504 915 q-95 0 -152 -60t-80 -193l-49 -302q-21 -136 8.5 -206t120.5 -70q120 0 218.5 140t129.5 329q14 107 52 203q-42 71 -111.5 115t-136.5 44z" />
<glyph unicode="&#xe7;" horiz-adv-x="815" d="M702 995q33 -8 27 -43l-6 -37q-6 -38 -41 -26q-98 31 -184 31q-91 0 -150 -59t-76 -181l-45 -330q-37 -268 168 -268q83 0 191 43q20 8 31 0t8 -29l-4 -37q-3 -30 -35 -41q-109 -40 -197 -43l-27 -61h11q67 0 101.5 -43t25.5 -113l-2 -14q-21 -147 -174 -147 q-57 0 -103 14q-27 9 -24 35l4 24q6 32 35 23q50 -15 83 -15q68 0 80 68l2 14q15 90 -86 90h-22q-21 0 -28 14t5 36l39 82q-120 21 -173 114t-30 252l46 324q27 183 115 267.5t235 84.5q87 0 200 -29z" />
<glyph unicode="&#xe8;" horiz-adv-x="905" d="M553 1024q128 0 200 -65.5t70 -178.5q-3 -165 -152 -278.5t-444 -134.5l-2 -29q-20 -138 24.5 -197t156.5 -59q115 0 241 63q20 9 31 1.5t8 -29.5l-6 -37q-6 -30 -31 -41q-64 -30 -136 -47t-126 -17q-170 0 -237.5 96.5t-38.5 301.5l24 178q33 234 145 353.5t273 119.5z M547 922q-104 0 -185 -94.5t-106 -272.5l-16 -111q136 16 268 62q197 117 197 264q0 71 -42.5 111.5t-115.5 40.5zM487 1137l-161 206q-12 15 -7.5 25t23.5 10h66q23 0 36 -18l136 -207q11 -15 5.5 -25t-24.5 -10h-37q-23 0 -37 19z" />
<glyph unicode="&#xe9;" horiz-adv-x="905" d="M553 1024q128 0 200 -65.5t70 -178.5q-3 -165 -152 -278.5t-444 -134.5l-2 -29q-20 -138 24.5 -197t156.5 -59q115 0 241 63q20 9 31 1.5t8 -29.5l-6 -37q-6 -30 -31 -41q-64 -30 -136 -47t-126 -17q-170 0 -237.5 96.5t-38.5 301.5l24 178q33 234 145 353.5t273 119.5z M547 922q-104 0 -185 -94.5t-106 -272.5l-16 -111q136 16 268 62q197 117 197 264q0 71 -42.5 111.5t-115.5 40.5zM770 1343l-162 -206q-14 -19 -35 -19h-38q-19 0 -24.5 10t5.5 25l137 207q10 18 37 18h64q19 0 23.5 -10t-7.5 -25z" />
<glyph unicode="&#xea;" horiz-adv-x="905" d="M553 1024q128 0 200 -65.5t70 -178.5q-3 -165 -152 -278.5t-444 -134.5l-2 -29q-20 -138 24.5 -197t156.5 -59q115 0 241 63q20 9 31 1.5t8 -29.5l-6 -37q-6 -30 -31 -41q-64 -30 -136 -47t-126 -17q-170 0 -237.5 96.5t-38.5 301.5l24 178q33 234 145 353.5t273 119.5z M547 922q-104 0 -185 -94.5t-106 -272.5l-16 -111q136 16 268 62q197 117 197 264q0 71 -42.5 111.5t-115.5 40.5zM338 1253l227 119q22 9 41 -4l187 -119q23 -13 18 -39l-6 -34q-2 -17 -12 -22.5t-25 3.5l-193 111l-231 -111q-17 -9 -26.5 -2t-6.5 25l4 39q5 24 23 34z" />
<glyph unicode="&#xeb;" horiz-adv-x="905" d="M553 1024q128 0 200 -65.5t70 -178.5q-3 -165 -152 -278.5t-444 -134.5l-2 -29q-20 -138 24.5 -197t156.5 -59q115 0 241 63q20 9 31 1.5t8 -29.5l-6 -37q-6 -30 -31 -41q-64 -30 -136 -47t-126 -17q-170 0 -237.5 96.5t-38.5 301.5l24 178q33 234 145 353.5t273 119.5z M547 922q-104 0 -185 -94.5t-106 -272.5l-16 -111q136 16 268 62q197 117 197 264q0 71 -42.5 111.5t-115.5 40.5zM494 1286l-7 -37q-9 -63 -79 -63q-40 0 -62 20t-18 54l6 36q9 66 84 66q40 0 60 -20t16 -56zM791 1286l-7 -37q-9 -63 -79 -63q-40 0 -62 20t-18 54l6 36 q9 66 84 66q39 0 59.5 -20t16.5 -56z" />
<glyph unicode="&#xec;" horiz-adv-x="444" d="M166 0h-49q-39 0 -33 39l129 928q6 32 37 32h49q39 0 33 -38l-131 -928q-3 -33 -35 -33zM233 1137l-161 206q-12 15 -7.5 25t23.5 10h66q23 0 36 -18l136 -207q11 -15 5.5 -25t-24.5 -10h-37q-23 0 -37 19z" />
<glyph unicode="&#xed;" horiz-adv-x="444" d="M166 0h-49q-39 0 -33 39l129 928q6 32 37 32h49q39 0 33 -38l-131 -928q-3 -33 -35 -33zM516 1343l-162 -206q-14 -19 -35 -19h-38q-19 0 -24.5 10t5.5 25l137 207q10 18 37 18h64q19 0 23.5 -10t-7.5 -25z" />
<glyph unicode="&#xee;" horiz-adv-x="444" d="M166 0h-49q-39 0 -33 39l129 928q6 32 37 32h49q39 0 33 -38l-131 -928q-3 -33 -35 -33zM84 1253l227 119q22 9 41 -4l187 -119q23 -13 18 -39l-6 -34q-2 -17 -12 -22.5t-25 3.5l-192 111l-232 -111q-17 -9 -26.5 -2t-6.5 25l4 39q5 24 23 34z" />
<glyph unicode="&#xef;" horiz-adv-x="444" d="M166 0h-49q-39 0 -33 39l129 928q6 32 37 32h49q39 0 33 -38l-131 -928q-3 -33 -35 -33zM240 1286l-7 -37q-9 -63 -79 -63q-40 0 -62 20t-18 54l6 36q9 66 84 66q40 0 60 -20t16 -56zM537 1286l-7 -37q-9 -63 -79 -63q-40 0 -62 20t-18 54l6 36q9 66 84 66q39 0 59.5 -20 t16.5 -56z" />
<glyph unicode="&#xf0;" horiz-adv-x="1005" d="M354 1366l2 25q6 33 39 30q255 -9 375 -178l150 43q20 5 29.5 -3t6.5 -28l-2 -20q-3 -18 -9.5 -25t-20.5 -10l-109 -33q82 -186 39 -491l-49 -354q-50 -347 -363 -347q-170 0 -253.5 97.5t-57.5 279.5l29 215q44 332 299 332q87 0 161 -56.5t119 -146.5l9 62 q30 236 -43 379l-224 -64q-21 -5 -30.5 3.5t-6.5 29.5l5 20q3 29 30 37l168 47q-93 110 -262 119q-37 0 -31 37zM475 791q-83 0 -131.5 -56.5t-69.5 -197.5l-28 -203q-17 -119 38 -187.5t160 -68.5q208 0 238 221l39 276q-38 89 -106 152.5t-140 63.5z" />
<glyph unicode="&#xf1;" horiz-adv-x="1003" d="M668 1024q59 0 99 -19.5t66.5 -63.5t30.5 -115.5t-10 -176.5l-92 -616q-3 -33 -35 -33h-49q-39 0 -33 39l92 616q22 143 -4.5 200.5t-97.5 57.5q-127 0 -250.5 -224.5t-175.5 -598.5l-8 -57q-3 -33 -35 -33h-49q-39 0 -33 39l129 928q6 32 37 32h41q36 0 33 -38l-11 -72 l-12 -72l-74 -325l6 -5l7 5q71 257 187.5 394.5t240.5 137.5zM827 1305l-4 -39q-6 -26 -22 -35q-64 -41 -137 -41q-36 0 -94 25.5t-91 25.5q-42 0 -112 -29q-36 -13 -33 25l6 33q3 25 20 35q70 45 138 45q51 0 104 -26t78 -26q45 0 115 29q17 7 26 1t6 -23z" />
<glyph unicode="&#xf2;" horiz-adv-x="976" d="M844 647l-41 -301q-50 -371 -381 -371q-177 0 -259 98.5t-57 278.5l44 307q26 184 119.5 274.5t260.5 90.5q173 0 256.5 -101t57.5 -276zM680 328l47 329q18 126 -37 195.5t-166 69.5q-113 0 -174 -60t-80 -190l-45 -330q-18 -126 36.5 -195t164.5 -69q220 0 254 250z M481 1137l-162 206q-12 15 -7 25t24 10h65q24 0 37 -18l135 -207q11 -15 6 -25t-24 -10h-37q-23 0 -37 19z" />
<glyph unicode="&#xf3;" horiz-adv-x="976" d="M844 647l-41 -301q-50 -371 -381 -371q-177 0 -259 98.5t-57 278.5l44 307q26 184 119.5 274.5t260.5 90.5q173 0 256.5 -101t57.5 -276zM680 328l47 329q18 126 -37 195.5t-166 69.5q-113 0 -174 -60t-80 -190l-45 -330q-18 -126 36.5 -195t164.5 -69q220 0 254 250z M764 1343l-162 -206q-14 -19 -35 -19h-39q-19 0 -24 10t6 25l137 207q10 18 37 18h64q19 0 23.5 -10t-7.5 -25z" />
<glyph unicode="&#xf4;" horiz-adv-x="976" d="M844 647l-41 -301q-50 -371 -381 -371q-177 0 -259 98.5t-57 278.5l44 307q26 184 119.5 274.5t260.5 90.5q173 0 256.5 -101t57.5 -276zM680 328l47 329q18 126 -37 195.5t-166 69.5q-113 0 -174 -60t-80 -190l-45 -330q-18 -126 36.5 -195t164.5 -69q220 0 254 250z M332 1253l227 119q22 9 41 -4l186 -119q24 -14 19 -39l-6 -34q-2 -17 -12 -22.5t-25 3.5l-193 111l-231 -111q-17 -9 -26.5 -2t-6.5 25l4 39q5 24 23 34z" />
<glyph unicode="&#xf5;" horiz-adv-x="976" d="M844 647l-41 -301q-50 -371 -381 -371q-177 0 -259 98.5t-57 278.5l44 307q26 184 119.5 274.5t260.5 90.5q173 0 256.5 -101t57.5 -276zM680 328l47 329q18 126 -37 195.5t-166 69.5q-113 0 -174 -60t-80 -190l-45 -330q-18 -126 36.5 -195t164.5 -69q220 0 254 250z M803 1305l-4 -39q-6 -25 -23 -35q-64 -41 -137 -41q-36 0 -93.5 25.5t-90.5 25.5q-43 0 -113 -29q-36 -13 -33 25l6 33q3 25 21 35q70 45 137 45q51 0 104 -26t78 -26q45 0 115 29q17 8 26.5 1.5t6.5 -23.5z" />
<glyph unicode="&#xf6;" horiz-adv-x="976" d="M844 647l-41 -301q-50 -371 -381 -371q-177 0 -259 98.5t-57 278.5l44 307q26 184 119.5 274.5t260.5 90.5q173 0 256.5 -101t57.5 -276zM680 328l47 329q18 126 -37 195.5t-166 69.5q-113 0 -174 -60t-80 -190l-45 -330q-18 -126 36.5 -195t164.5 -69q220 0 254 250z M487 1286l-6 -37q-9 -63 -80 -63q-40 0 -61.5 20t-17.5 54l6 36q9 66 84 66q40 0 59.5 -19.5t15.5 -56.5zM784 1286l-6 -37q-9 -63 -80 -63q-40 0 -62 20t-18 54l7 36q9 66 84 66q39 0 59 -20t16 -56z" />
<glyph unicode="&#xf7;" d="M459 1001q39 0 56.5 -19t12.5 -54l-2 -27q-13 -67 -86 -67q-39 0 -56.5 19t-12.5 52l4 27q9 69 84 69zM98 672h629q39 0 33 -39l-4 -29q-6 -33 -37 -33h-629q-39 0 -33 37l4 31q3 33 37 33zM377 408q39 0 56.5 -19.5t12.5 -52.5l-4 -29q-10 -65 -86 -65q-79 0 -69 69 l4 27q12 70 86 70z" />
<glyph unicode="&#xf8;" horiz-adv-x="976" d="M918 1102h40q23 0 29 -12t-8 -31l-154 -199q37 -85 19 -213l-41 -301q-50 -371 -381 -371q-154 0 -234 74l-102 -133q-17 -20 -43 -20h-41q-23 0 -29 12t9 31l147 190q-41 89 -23 223l44 307q26 184 119.5 274.5t260.5 90.5q154 0 236 -82l106 139q21 21 46 21zM524 922 q-111 0 -173 -60.5t-81 -189.5l-43 -316q-8 -64 4 -112l465 598q-53 80 -172 80zM721 743l-461 -593q54 -72 166 -72q110 0 172.5 61t81.5 189l43 313q9 61 -2 102z" />
<glyph unicode="&#xf9;" horiz-adv-x="1005" d="M813 999h49q39 0 33 -38l-131 -928q-3 -33 -35 -33h-47q-37 0 -31 37q4 35 8 47l80 315l-4 4l-6 -4q-64 -213 -165 -318.5t-222 -105.5q-127 0 -185.5 91.5t-31.5 279.5l90 621q6 32 37 32h49q39 0 33 -38l-88 -601q-19 -106 -5 -167t45 -85t85 -24q89 0 165 78.5 t125 205.5t70 283l45 316q6 32 37 32zM508 1137l-162 206q-12 15 -7.5 25t23.5 10h66q24 0 37 -18l135 -207q11 -15 6 -25t-24 -10h-37q-23 0 -37 19z" />
<glyph unicode="&#xfa;" horiz-adv-x="1005" d="M813 999h49q39 0 33 -38l-131 -928q-3 -33 -35 -33h-47q-37 0 -31 37q4 35 8 47l80 315l-4 4l-6 -4q-64 -213 -165 -318.5t-222 -105.5q-127 0 -185.5 91.5t-31.5 279.5l90 621q6 32 37 32h49q39 0 33 -38l-88 -601q-19 -106 -5 -167t45 -85t85 -24q89 0 165 78.5 t125 205.5t70 283l45 316q6 32 37 32zM793 1343l-162 -206q-14 -19 -35 -19h-39q-19 0 -24 10t6 25l137 207q10 18 37 18h63q19 0 24 -10t-7 -25z" />
<glyph unicode="&#xfb;" horiz-adv-x="1005" d="M813 999h49q39 0 33 -38l-131 -928q-3 -33 -35 -33h-47q-37 0 -31 37q4 35 8 47l80 315l-4 4l-6 -4q-64 -213 -165 -318.5t-222 -105.5q-127 0 -185.5 91.5t-31.5 279.5l90 621q6 32 37 32h49q39 0 33 -38l-88 -601q-19 -106 -5 -167t45 -85t85 -24q89 0 165 78.5 t125 205.5t70 283l45 316q6 32 37 32zM358 1253l228 119q22 9 41 -4l186 -119q23 -13 18 -39l-6 -34q-2 -17 -12 -22.5t-25 3.5l-192 111l-231 -111q-17 -9 -26.5 -2t-6.5 25l4 39q5 25 22 34z" />
<glyph unicode="&#xfc;" horiz-adv-x="1005" d="M813 999h49q39 0 33 -38l-131 -928q-3 -33 -35 -33h-47q-37 0 -31 37q4 35 8 47l80 315l-4 4l-6 -4q-64 -213 -165 -318.5t-222 -105.5q-127 0 -185.5 91.5t-31.5 279.5l90 621q6 32 37 32h49q39 0 33 -38l-88 -601q-19 -106 -5 -167t45 -85t85 -24q89 0 165 78.5 t125 205.5t70 283l45 316q6 32 37 32zM516 1286l-6 -37q-9 -63 -80 -63q-40 0 -62 20t-18 54l6 36q9 66 84 66q40 0 60 -20t16 -56zM813 1286l-6 -37q-9 -63 -80 -63q-40 0 -62 20t-18 54l6 36q9 66 84 66q39 0 59.5 -20t16.5 -56z" />
<glyph unicode="&#xfd;" horiz-adv-x="1003" d="M657 90l78 309l-4 4l-6 -4q-65 -214 -166 -319t-221 -105q-127 0 -186 91.5t-31 279.5l90 621q3 32 35 32h49q39 0 33 -38l-88 -601q-18 -106 -4 -167t45 -85t86 -24q88 0 164 78.5t125 205.5t71 283l45 316q3 32 35 32h51q39 0 33 -38l-150 -1055 q-23 -168 -101.5 -238.5t-244.5 -70.5q-121 0 -274 41q-32 8 -29 40l6 39q2 19 13 27t28 2q148 -45 262 -45q107 0 157 44t65 151q18 134 34 194zM797 1343l-162 -206q-14 -19 -35 -19h-39q-19 0 -24 10t6 25l137 207q10 18 37 18h63q19 0 24 -10t-7 -25z" />
<glyph unicode="&#xfe;" horiz-adv-x="983" d="M307 1399h49q39 0 33 -39l-57 -412q-6 -42 -10 -61l-91 -371l5 -4l6 4q72 254 176 381t229 127q126 0 183 -100t22 -297l-57 -322q-59 -330 -310 -330q-65 0 -142 34t-132 85l-64 -440q-6 -33 -36 -33h-50q-38 0 -32 39l241 1706q6 33 37 33zM621 915q-121 0 -233 -185 t-155 -478l-10 -70q47 -43 114 -71.5t120 -28.5q90 0 144 56.5t77 183.5l55 294q29 152 -5 225.5t-107 73.5z" />
<glyph unicode="&#xff;" horiz-adv-x="1003" d="M657 90l78 309l-4 4l-6 -4q-65 -214 -166 -319t-221 -105q-127 0 -186 91.5t-31 279.5l90 621q3 32 35 32h49q39 0 33 -38l-88 -601q-18 -106 -4 -167t45 -85t86 -24q88 0 164 78.5t125 205.5t71 283l45 316q3 32 35 32h51q39 0 33 -38l-150 -1055 q-23 -168 -101.5 -238.5t-244.5 -70.5q-121 0 -274 41q-32 8 -29 40l6 39q2 19 13 27t28 2q148 -45 262 -45q107 0 157 44t65 151q18 134 34 194zM520 1286l-6 -37q-9 -63 -80 -63q-40 0 -62 20t-18 54l6 36q9 66 84 66q40 0 60 -20t16 -56zM817 1286l-6 -37q-9 -63 -80 -63 q-40 0 -62 20t-18 54l6 36q9 66 84 66q39 0 59.5 -20t16.5 -56z" />
<glyph unicode="&#x152;" horiz-adv-x="1574" d="M1354 629h-475l-64 -520h512q36 0 33 -37l-4 -37q-3 -19 -11.5 -27t-25.5 -8h-633q-92 -25 -182 -25q-217 0 -308 119.5t-61 343.5l70 508q29 218 137.5 319t316.5 101q95 0 197 -25h623q40 0 34 -38l-6 -37q-3 -33 -37 -33h-516l-61 -498h469q41 0 35 -37l-6 -36 q-3 -33 -37 -33zM657 1262q-150 0 -230.5 -71.5t-102.5 -227.5l-72 -549q-20 -164 48 -248t218 -84q95 0 178 27l138 1126q-79 27 -177 27z" />
<glyph unicode="&#x153;" horiz-adv-x="1480" d="M1128 1024q128 0 199.5 -65.5t71.5 -178.5q-2 -164 -151 -278t-443 -135l-6 -48q-17 -124 30 -180.5t154 -56.5q114 0 242 61q22 10 32 2t7 -30l-7 -35q-3 -29 -30 -41q-137 -64 -271 -64q-84 0 -148 39t-97 117q-96 -156 -291 -156q-176 0 -257.5 99t-56.5 280l46 312 q25 183 114 270.5t262 87.5q109 0 183.5 -52t99.5 -141q57 93 139.5 143t177.5 50zM524 922q-112 0 -173.5 -60.5t-80.5 -189.5l-45 -330q-18 -128 36 -196t165 -68q220 0 254 250l47 331q18 125 -37 194t-166 69zM1122 922q-99 0 -178.5 -88t-107.5 -254l-21 -136 q136 16 268 62q197 117 197 264q0 71 -42.5 111.5t-115.5 40.5z" />
<glyph unicode="&#x178;" horiz-adv-x="970" d="M913 1341h68q20 0 26.5 -12t-3.5 -31l-478 -837l-51 -428q-3 -33 -37 -33h-47q-38 0 -35 37l52 424l-273 842q-5 17 3.5 27.5t27.5 10.5h55q32 0 41 -28q128 -406 215 -723q231 398 397 727q12 24 39 24zM514 1581l-6 -39q-6 -63 -78 -63q-40 0 -63 20t-19 53l6 37 q4 35 23.5 50.5t58.5 15.5t60 -19t18 -55zM811 1581l-6 -39q-6 -63 -78 -63q-40 0 -63 20t-19 53l6 37q5 35 23.5 50.5t58.5 15.5q39 0 60 -19t18 -55z" />
<glyph unicode="&#x2c6;" horiz-adv-x="632" d="M94 1253l228 119q22 9 40 -4l187 -119q23 -13 18 -39l-6 -34q-2 -17 -12 -22.5t-25 3.5l-192 111l-232 -111q-17 -9 -26 -2t-6 25l4 39q5 25 22 34z" />
<glyph unicode="&#x2dc;" horiz-adv-x="628" d="M561 1305l-4 -39q-6 -26 -22 -35q-64 -41 -138 -41q-37 0 -94 25.5t-90 25.5q-43 0 -113 -29q-35 -12 -32 25l6 33q3 25 20 35q70 45 137 45q51 0 104.5 -26t78.5 -26q44 0 114 29q17 8 26.5 1.5t6.5 -23.5z" />
<glyph unicode="&#x2000;" horiz-adv-x="841" />
<glyph unicode="&#x2001;" horiz-adv-x="1683" />
<glyph unicode="&#x2002;" horiz-adv-x="841" />
<glyph unicode="&#x2003;" horiz-adv-x="1683" />
<glyph unicode="&#x2004;" horiz-adv-x="561" />
<glyph unicode="&#x2005;" horiz-adv-x="420" />
<glyph unicode="&#x2006;" horiz-adv-x="280" />
<glyph unicode="&#x2007;" horiz-adv-x="280" />
<glyph unicode="&#x2008;" horiz-adv-x="210" />
<glyph unicode="&#x2009;" horiz-adv-x="336" />
<glyph unicode="&#x200a;" horiz-adv-x="93" />
<glyph unicode="&#x2010;" horiz-adv-x="716" d="M188 653h353q38 0 32 -37l-4 -26q-6 -33 -37 -33h-352q-39 0 -33 39l5 27q6 30 36 30z" />
<glyph unicode="&#x2011;" horiz-adv-x="716" d="M188 653h353q38 0 32 -37l-4 -26q-6 -33 -37 -33h-352q-39 0 -33 39l5 27q6 30 36 30z" />
<glyph unicode="&#x2012;" horiz-adv-x="716" d="M188 653h353q38 0 32 -37l-4 -26q-6 -33 -37 -33h-352q-39 0 -33 39l5 27q6 30 36 30z" />
<glyph unicode="&#x2013;" horiz-adv-x="1249" d="M188 653h885q39 0 33 -37l-4 -26q-6 -33 -37 -33h-885q-39 0 -33 39l5 27q6 30 36 30z" />
<glyph unicode="&#x2014;" horiz-adv-x="1454" d="M188 653h1090q39 0 33 -37l-4 -26q-6 -33 -37 -33h-1090q-39 0 -33 39l5 27q6 30 36 30z" />
<glyph unicode="&#x2018;" horiz-adv-x="419" d="M330 1417h24q19 0 26 -10t1 -27l-43 -116q23 -8 34 -28t7 -48l-4 -37q-8 -64 -88 -64q-42 0 -62.5 21.5t-15.5 60.5l6 39q6 38 23 74l53 111q12 24 39 24z" />
<glyph unicode="&#x2019;" horiz-adv-x="419" d="M322 1417q42 0 62 -21.5t15 -60.5l-6 -39q-6 -39 -22 -73l-54 -111q-11 -25 -38 -25h-25q-19 0 -26 10t-1 27l43 115q-50 16 -41 78l4 37q11 63 89 63z" />
<glyph unicode="&#x201a;" horiz-adv-x="419" d="M143 158q43 0 63.5 -22t14.5 -60l-4 -39q-10 -45 -24 -74l-54 -110q-8 -25 -39 -25h-22q-19 0 -26 10t-1 27l43 115q-49 15 -43 77l6 37q9 64 86 64z" />
<glyph unicode="&#x201c;" horiz-adv-x="663" d="M330 1417h24q19 0 26 -10t1 -27l-43 -116q23 -8 34 -28t7 -48l-4 -37q-8 -64 -88 -64q-42 0 -62.5 21.5t-15.5 60.5l6 39q6 38 23 74l53 111q12 24 39 24zM571 1417h23q19 0 26.5 -10t0.5 -27l-43 -116q25 -7 36.5 -27.5t6.5 -48.5l-7 -37q-8 -64 -86 -64q-43 0 -63 22 t-14 60l6 39q6 41 22 74l53 111q9 24 39 24z" />
<glyph unicode="&#x201d;" horiz-adv-x="663" d="M324 1417q41 0 61 -22t14 -60l-4 -39q-4 -29 -22 -73l-56 -111q-8 -25 -38 -25h-23q-19 0 -26 10t-1 27l43 115q-49 16 -43 78l7 37q8 63 88 63zM563 1417q43 0 63.5 -22t14.5 -60l-4 -39q-4 -30 -25 -73l-53 -111q-8 -25 -39 -25h-22q-19 0 -26 10t-1 27l43 115 q-49 15 -43 78l6 37q8 63 86 63z" />
<glyph unicode="&#x201e;" horiz-adv-x="663" d="M145 158q41 0 62 -22t16 -60l-6 -39q-6 -41 -22 -74l-54 -110q-11 -25 -39 -25h-24q-19 0 -26 10t-1 27l43 115q-50 16 -41 77l4 37q9 64 88 64zM387 158q41 0 61.5 -22t14.5 -60l-4 -39q-4 -26 -23 -74l-55 -110q-11 -25 -39 -25h-23q-39 0 -26 37l43 115q-49 16 -43 77 l6 37q9 64 88 64z" />
<glyph unicode="&#x2022;" horiz-adv-x="458" d="M229 664q52 0 79.5 -26.5t21.5 -68.5l-8 -55q-6 -42 -31 -61t-76 -19t-78 25.5t-20 66.5l8 56q12 82 104 82z" />
<glyph unicode="&#x2026;" horiz-adv-x="1017" d="M438 160q42 0 63.5 -21t16.5 -57l-4 -41q-9 -66 -90 -66q-43 0 -64 21.5t-16 54.5l4 35q5 38 26 56t64 18zM141 160q42 0 63.5 -21t16.5 -57l-4 -41q-9 -66 -90 -66q-43 0 -64 21.5t-16 54.5l4 35q5 38 26 56t64 18zM735 160q42 0 63.5 -21t16.5 -57l-4 -41 q-9 -66 -90 -66q-43 0 -64 21.5t-16 54.5l4 35q5 38 26 56t64 18z" />
<glyph unicode="&#x202f;" horiz-adv-x="336" />
<glyph unicode="&#x2039;" horiz-adv-x="620" d="M428 897h47q21 0 27 -11t-6 -30l-213 -307l125 -309q8 -17 1 -28t-26 -11h-51q-29 0 -41 24l-131 299q-12 23 4 45l223 308q14 20 41 20z" />
<glyph unicode="&#x203a;" horiz-adv-x="620" d="M195 201h-48q-20 0 -26 11t6 30l213 307l-125 309q-8 17 -1 28t26 11h51q29 0 41 -25l131 -299q12 -23 -4 -45l-223 -307q-14 -20 -41 -20z" />
<glyph unicode="&#x205f;" horiz-adv-x="420" />
<glyph unicode="&#x20ac;" horiz-adv-x="915" d="M623 1260q127 0 270 -46q33 -11 27 -40l-9 -41q-6 -37 -43 -25q-144 45 -254 45q-122 0 -185.5 -70t-86.5 -243l-6 -47h364q20 0 27.5 -12t-0.5 -29l-14 -33q-9 -29 -41 -29h-350l-25 -168h367q20 0 27 -12t-1 -29l-14 -35q-12 -26 -41 -26h-350l-4 -35 q-21 -157 35.5 -228t187.5 -71q104 0 246 49q19 6 29 -2t9 -29l-4 -41q-1 -17 -8.5 -25t-23.5 -13q-148 -50 -265 -50q-373 0 -325 416l2 29h-103q-40 0 -24 41l14 35q12 26 41 26h86l25 168h-103q-42 0 -26 41l14 35q12 27 41 27h86l6 41q35 235 127.5 330.5t274.5 95.5z " />
<glyph unicode="&#x2122;" horiz-adv-x="1593" d="M252 1399h512q35 0 29 -39l-2 -17q-6 -32 -33 -32h-205l-78 -561q-6 -33 -37 -33h-35q-38 0 -32 39l75 555h-200q-32 0 -29 39l2 16q6 33 33 33zM1485 1399h63q39 0 33 -37l-78 -612q-3 -33 -37 -33h-30q-39 0 -33 39l65 471l-231 -422q-13 -25 -41 -25h-41q-31 0 -37 31 l-110 416l-76 -477q-6 -33 -37 -33h-33q-36 0 -33 39l101 610q6 33 37 33h59q29 0 39 -29q80 -302 123 -485q113 200 256 487q12 27 41 27z" />
<glyph unicode="&#x25fc;" horiz-adv-x="1003" d="M0 1004h1004v-1004h-1004v1004z" />
<glyph unicode="&#xfb01;" horiz-adv-x="1038" d="M625 1423q88 0 215 -30q32 -10 26 -43l-4 -35q-6 -35 -43 -25q-122 33 -201 33q-94 0 -138.5 -44.5t-61.5 -156.5l-17 -123h494q39 0 33 -38l-131 -928q-3 -33 -35 -33h-49q-39 0 -33 39l121 860h-414l-143 -1032q-22 -145 -80.5 -207.5t-169.5 -62.5q-57 0 -127 18 q-33 10 -27 41l4 35q9 35 43 26q59 -16 103 -16q59 0 90 35.5t43 122.5l145 1040h-118q-34 0 -31 33l2 14q6 28 33 31l127 14l16 119q23 167 101.5 240t226.5 73z" />
<glyph unicode="&#xfb02;" horiz-adv-x="1038" d="M625 1423q104 0 252 -37l55 3q38 3 35 -35q-11 -204 -41 -404l-129 -917q-3 -33 -35 -33h-49q-39 0 -33 39l125 899q28 190 39 348q-112 37 -226 37q-94 0 -138.5 -44.5t-61.5 -156.5l-17 -123h146q39 0 33 -36l-5 -31q-2 -15 -11.5 -24t-24.5 -9h-152l-143 -1032 q-22 -145 -80.5 -207.5t-169.5 -62.5q-57 0 -127 18q-33 10 -27 41l4 35q9 35 43 26q59 -16 103 -16q59 0 90 35.5t43 122.5l145 1040h-118q-34 0 -31 33l2 14q6 28 33 31l127 14l16 119q23 166 101 239.5t227 73.5z" />
<glyph unicode="&#xfb03;" horiz-adv-x="1486" d="M1133 1423q88 0 215 -30q32 -10 26 -43l-4 -35q-6 -36 -41 -25q-125 33 -203 33q-92 0 -136.5 -44.5t-61.5 -156.5l-17 -123h494q39 0 33 -38l-129 -928q-6 -33 -37 -33h-49q-39 0 -33 39l121 860h-414l-145 -1032q-20 -145 -78.5 -207.5t-169.5 -62.5q-60 0 -127 18 q-33 10 -27 41l4 35q3 17 14.5 24t26.5 2q59 -16 105 -16q58 0 89.5 35.5t43.5 122.5l145 1040h-411l-121 -868q-20 -145 -79.5 -208t-170.5 -63q-55 0 -125 19q-35 9 -29 41l6 35q6 35 41 26q59 -16 103 -16q59 0 90 35.5t43 122.5l121 876h-117q-34 0 -31 33l2 14 q3 16 10 23t23 8l125 14l16 111q23 167 101 240t231 73t309 -59q76 67 218 67zM606 1315q-103 0 -148.5 -44t-62.5 -159l-16 -113h414l14 111q11 90 45 160q-140 45 -246 45z" />
<glyph unicode="&#xfb04;" horiz-adv-x="1546" d="M1133 1423q101 0 249 -37l58 5q38 0 35 -35q-10 -200 -39 -406l-129 -917q-6 -33 -37 -33h-49q-39 0 -33 39l127 899q27 209 37 348q-115 37 -226 37q-93 0 -138 -44.5t-62 -156.5l-17 -123h146q38 0 32 -36l-4 -31q-2 -15 -11.5 -24t-24.5 -9h-152l-145 -1032 q-20 -145 -78.5 -207.5t-169.5 -62.5q-60 0 -127 18q-33 10 -27 41l4 35q3 17 14.5 24t26.5 2q59 -16 105 -16q58 0 89.5 35.5t43.5 122.5l145 1040h-411l-121 -868q-22 -145 -80.5 -208t-169.5 -63q-53 0 -127 19q-33 10 -27 41l4 35q9 35 43 26q59 -16 103 -16 q59 0 90 35.5t43 122.5l121 876h-117q-37 0 -31 33l2 14q3 16 10 23t23 8l125 14l16 111q23 167 101 240t231 73t309 -59q76 67 220 67zM604 1315q-103 0 -148.5 -44t-62.5 -159l-16 -113h411l17 111q11 90 45 160q-140 45 -246 45z" />
</font>
</defs>
</svg>
