<svg xmlns="http://www.w3.org/2000/svg" style="display: none;">

	<symbol id="wsc-icon-none" viewBox="0 0 32 32">
		<path d="M16 0.5c-8.563 0-15.5 6.938-15.5 15.5s6.938 15.5 15.5 15.5 15.5-6.938 15.5-15.5-6.938-15.5-15.5-15.5zM16 28.5c-6.906 0-12.5-5.594-12.5-12.5s5.594-12.5 12.5-12.5 12.5 5.594 12.5 12.5-5.594 12.5-12.5 12.5zM22.363 12.113l-3.887 3.887 3.887 3.887c0.294 0.294 0.294 0.769 0 1.063l-1.413 1.413c-0.294 0.294-0.769 0.294-1.063 0l-3.887-3.887-3.887 3.887c-0.294 0.294-0.769 0.294-1.063 0l-1.412-1.413c-0.294-0.294-0.294-0.769 0-1.063l3.888-3.887-3.887-3.887c-0.294-0.294-0.294-0.769 0-1.063l1.412-1.412c0.294-0.294 0.769-0.294 1.063 0l3.888 3.888 3.887-3.887c0.294-0.294 0.769-0.294 1.063 0l1.413 1.412c0.294 0.294 0.294 0.769 0 1.063z"></path>
	</symbol>

	<symbol id="wsc-flex-horizontal-space-between" viewBox="0 0 16 16">
		<g>
			<path fill="#ddd" d="M15 0h1v16h-1zM0 0h1v16H0z"></path>
			<path fill="currentColor" stroke="currentColor" d="M10.5 4.5h3v7h-3zm-8 0h3v7h-3z"></path>
		</g>
	</symbol>
	<symbol id="wsc-flex-horizontal-space-around" viewBox="0 0 16 16">
		<g>
			<path fill="#ddd" d="M15 0h1v16h-1zM0 0h1v16H0z"></path>
			<path fill="currentColor" stroke="currentColor" d="M9.5 4.5h3v7h-3zm-6 0h3v7h-3z"></path>
		</g>
	</symbol>
	<symbol id="wsc-flex-vertical-start" viewBox="0 0 16 16">
		<path fill="currentColor" stroke="currentColor" d="M4.5 2.5h7v3h-7zm0 5h7v3h-7z"></path>
		<path fill="currentColor" d="M0 0h16v1H0z"></path>
	</symbol>
	<symbol id="wsc-flex-vertical-center" viewBox="0 0 16 16">
		<path fill="currentColor" stroke="currentColor" d="M4.5 2.5h7v3h-7zm0 7h7v3h-7z"></path>
		<path fill="currentColor" d="M0 7h16v1H0z"></path>
	</symbol>
	<symbol id="wsc-flex-vertical-end" viewBox="0 0 16 16">
		<path fill="currentColor" stroke="currentColor" d="M4.5 5.5h7v3h-7zm0 5h7v3h-7z"></path>
		<path fill="currentColor" d="M0 15h16v1H0z"></path>
	</symbol>
	<symbol id="wsc-flex-vertical-space-between" viewBox="0 0 16 16">
		<path fill="currentColor" stroke="currentColor" d="M4.5 2.5h7v3h-7zm0 8h7v3h-7z"></path>
		<path fill="currentColor" d="M0 0h16v1H0zm0 15h16v1H0z"></path>
	</symbol>
	<symbol id="wsc-flex-vertical-space-around" viewBox="0 0 16 16">
		<path fill="currentColor" stroke="currentColor" d="M4.5 3.5h7v3h-7zm0 6h7v3h-7z"></path>
		<path fill="currentColor" d="M0 0h16v1H0zm0 15h16v1H0z"></path>
	</symbol>
	<symbol id="wsc-full-height" viewBox="0 0 16 16">
		<path d="M12 5l-3-.01V8H7V4.99H4L8 1l4 4zm0 6l-3 .01V8H7v3.01H4L8 15l4-4zM2 16v-1h12v1zM2 1V0h12v1z" fill="currentColor"></path>
	</symbol>
	<symbol id="wsc-square-left" viewBox="0 0 16 16">
		<g>
			<g fill="#ddd">
				<g stroke="none" stroke-width="1" fill="none" fill-rule="evenodd">
					<path fill="#ddd" d="M3 1h10v2H3z"/>
					<path fill="#ddd" d="M3 13h10v2H3z"/>
					<path fill="currentColor" transform="rotate(-90 1 8)" d="M-3 7h8v2h-8z"/>
					<path fill="#ddd" transform="rotate(-90 15 8)" d="M11 7h8v2h-8z"/>
				</g>
			</g>
		</g>
	</symbol>
	<symbol id="wsc-square-bottom" viewBox="0 0 16 16">
		<g>
			<g fill="#ddd">
				<g stroke="none" stroke-width="1" fill="none" fill-rule="evenodd">
					<path fill="#ddd" d="M3 1h10v2H3z"/>
					<path fill="currentColor" d="M3 13h10v2H3z"/>
					<path fill="#ddd" transform="rotate(-90 1 8)" d="M-3 7h8v2h-8z"/>
					<path fill="#ddd" transform="rotate(-90 15 8)" d="M11 7h8v2h-8z"/>
				</g>
			</g>
		</g>
	</symbol>
	<symbol id="wsc-square-right" viewBox="0 0 16 16">
		<g>
			<g fill="#ddd">
				<g stroke="none" stroke-width="1" fill="none" fill-rule="evenodd">
					<path fill="#ddd" d="M3 1h10v2H3z"/>
					<path fill="#ddd" d="M3 13h10v2H3z"/>
					<path fill="#ddd" transform="rotate(-90 1 8)" d="M-3 7h8v2h-8z"/>
					<path fill="currentColor" transform="rotate(-90 15 8)" d="M11 7h8v2h-8z"/>
				</g>
			</g>
		</g>
	</symbol>
	<symbol id="wsc-square-top" viewBox="0 0 16 16">
		<g>
			<g fill="#ddd">
				<g stroke="none" stroke-width="1" fill="none" fill-rule="evenodd">
					<path fill="currentColor" d="M3 1h10v2H3z"/>
					<path fill="#ddd" d="M3 13h10v2H3z"/>
					<path fill="#ddd" transform="rotate(-90 1 8)" d="M-3 7h8v2h-8z"/>
					<path fill="#ddd" transform="rotate(-90 15 8)" d="M11 7h8v2h-8z"/>
				</g>
			</g>
		</g>
	</symbol>
	<symbol id="wsc-square-top-left" viewBox="0 0 16 16">
		<g>
			<g fill="currentColor">
				<g stroke="none" stroke-width="1" fill="none" fill-rule="evenodd">
					<path d="M0 6V4c0-2 1.5-3 3-3h2v2H3.5C2.5 3 2 3.5 2 4.5V6H0z" fill="currentColor"></path>
					<path d="M11 6V4c0-2 1.5-3 3-3h2v2h-1.5c-1 0-1.5.5-1.5 1.5V6h-2z" fill="#ddd" transform="matrix(-1 0 0 1 27 0)"></path>
					<path d="M0 15v-2c0-2 1.5-3 3-3h2v2H3.5c-1 0-1.5.5-1.5 1.5V15H0z" fill="#ddd" transform="matrix(1 0 0 -1 0 25)"></path>
					<path d="M11 15v-2c0-2 1.5-3 3-3h2v2h-1.5c-1 0-1.5.5-1.5 1.5V15h-2z" fill="#ddd" transform="rotate(180 13.5 12.5)"></path>
				</g>
			</g>
		</g>
	</symbol>
	<symbol id="wsc-square-top-right" viewBox="0 0 16 16">
		<g>
			<g fill="currentColor">
				<g stroke="none" stroke-width="1" fill="none" fill-rule="evenodd">
					<path d="M0 6V4c0-2 1.5-3 3-3h2v2H3.5C2.5 3 2 3.5 2 4.5V6H0z" fill="#ddd"></path>
					<path d="M11 6V4c0-2 1.5-3 3-3h2v2h-1.5c-1 0-1.5.5-1.5 1.5V6h-2z" fill="currentColor" transform="matrix(-1 0 0 1 27 0)"></path>
					<path d="M0 15v-2c0-2 1.5-3 3-3h2v2H3.5c-1 0-1.5.5-1.5 1.5V15H0z" fill="#ddd" transform="matrix(1 0 0 -1 0 25)"></path>
					<path d="M11 15v-2c0-2 1.5-3 3-3h2v2h-1.5c-1 0-1.5.5-1.5 1.5V15h-2z" fill="#ddd" transform="rotate(180 13.5 12.5)"></path>
				</g>
			</g>
		</g>
	</symbol>
	<svg id="wsc-square-bottom-right" viewBox="0 0 16 16">
		<g>
			<g fill="currentColor">
				<g stroke="none" stroke-width="1" fill="none" fill-rule="evenodd">
					<path d="M0 6V4c0-2 1.5-3 3-3h2v2H3.5C2.5 3 2 3.5 2 4.5V6H0z" fill="#ddd"></path>
					<path d="M11 6V4c0-2 1.5-3 3-3h2v2h-1.5c-1 0-1.5.5-1.5 1.5V6h-2z" fill="#ddd" transform="matrix(-1 0 0 1 27 0)"></path>
					<path d="M0 15v-2c0-2 1.5-3 3-3h2v2H3.5c-1 0-1.5.5-1.5 1.5V15H0z" fill="#ddd" transform="matrix(1 0 0 -1 0 25)"></path>
					<path d="M11 15v-2c0-2 1.5-3 3-3h2v2h-1.5c-1 0-1.5.5-1.5 1.5V15h-2z" fill="currentColor" transform="rotate(180 13.5 12.5)"></path>
				</g>
			</g>
		</g>
	</svg>
	<svg id="wsc-square-bottom-left" viewBox="0 0 16 16">
		<g>
			<g fill="currentColor">
				<g stroke="none" stroke-width="1" fill="none" fill-rule="evenodd">
					<path d="M0 6V4c0-2 1.5-3 3-3h2v2H3.5C2.5 3 2 3.5 2 4.5V6H0z" fill="#ddd"></path>
					<path d="M11 6V4c0-2 1.5-3 3-3h2v2h-1.5c-1 0-1.5.5-1.5 1.5V6h-2z" fill="#ddd" transform="matrix(-1 0 0 1 27 0)"></path>
					<path d="M0 15v-2c0-2 1.5-3 3-3h2v2H3.5c-1 0-1.5.5-1.5 1.5V15H0z" fill="currentColor" transform="matrix(1 0 0 -1 0 25)"></path>
					<path d="M11 15v-2c0-2 1.5-3 3-3h2v2h-1.5c-1 0-1.5.5-1.5 1.5V15h-2z" fill="#ddd" transform="rotate(180 13.5 12.5)"></path>
				</g>
			</g>
		</g>
	</svg>
	<symbol id="wsc-hor-align-left" viewBox="0 0 28 28 ">
		<g>
			<path d="M16 20H8a1 1 0 0 1 0-2h8a1 1 0 0 1 0 2zm0-10H8a1 1 0 1 1 0-2h8a1 1 0 0 1 0 2zm4 5H8a1 1 0 0 1 0-2h12a1 1 0 0 1 0 2z" fill-rule="evenodd"></path>
		</g>
	</symbol>
	<symbol id="wsc-hor-align-center" viewBox="0 0 28 28">
		<g>
			<path d="M18 10h-8a1 1 0 1 1 0-2h8a1 1 0 0 1 0 2zm2 5H8a1 1 0 0 1 0-2h12a1 1 0 0 1 0 2zm-2 5h-8a1 1 0 0 1 0-2h8a1 1 0 0 1 0 2z" fill-rule="evenodd"></path>
		</g>
	</symbol>
	<symbol id="wsc-hor-align-right" viewBox="0 0 28 28">
		<g>
			<path d="M20 15H8a1 1 0 0 1 0-2h12a1 1 0 0 1 0 2zm0-5h-8a1 1 0 0 1 0-2h8a1 1 0 0 1 0 2zm0 10h-8a1 1 0 0 1 0-2h8a1 1 0 0 1 0 2z" fill-rule="evenodd"></path>
		</g>
	</symbol>
	<symbol id="wsc-hor-align-justify" viewBox="0 0 28 28">
		<g>
			<path d="M20 20H8a1 1 0 0 1 0-2h12a1 1 0 0 1 0 2zm0-10H8a1 1 0 1 1 0-2h12a1 1 0 0 1 0 2zM8 15a1 1 0 0 1 0-2h12a1 1 0 0 1 0 2H8z" fill-rule="evenodd"></path>
		</g>
	</symbol>
	<symbol id="wsc-block-align-left" viewBox="0 0 28 28">
		<g>
			<path d="M5 13h2v2H5zM5 21h2v2H5zM5 17h2v2H5zM5 9h2v2H5zM5 5h2v2H5z"></path>
			<path d="M7.339 13.25a1 1 0 0 0 0 1.501l4.642 4.09a.6.6 0 0 0 1.007-.442V16h9a1 1 0 0 0 1-1v-2a1 1 0 0 0-1-1h-9V9.602a.601.601 0 0 0-1.002-.446L7.339 13.25z"></path>
		</g>
	</symbol>
	<symbol id="wsc-block-align-center" viewBox="0 0 28 28">
		<g>
			<path d="M5 13h2v2H5zM5 9h2v2H5zM5 17h2v2H5zM5 5h2v2H5zM5 21h2v2H5zM21 9h2v2h-2zM21 5h2v2h-2zM21 13h2v2h-2zM15 8h-2a1 1 0 0 0-1 1v10a1 1 0 0 0 1 1h2a1 1 0 0 0 1-1V9a1 1 0 0 0-1-1zM21 17h2v2h-2zM21 21h2v2h-2z"></path>
		</g>
	</symbol>
	<symbol id="wsc-block-align-right" viewBox="0 0 28 28">
		<g>
			<path d="M21 21h2v2h-2zM21 17h2v2h-2zM21 9h2v2h-2zM21 5h2v2h-2zM21 13h2v2h-2z"></path>
			<path d="M20.649 13.249l-4.642-4.09A.6.6 0 0 0 15 9.602V12H6a1 1 0 0 0-1 1v2a1 1 0 0 0 1 1h9v2.398a.601.601 0 0 0 1.002.446l4.647-4.094a1 1 0 0 0 0-1.501z"></path>
		</g>
	</symbol>

	<symbol id="wsc-background-color" viewBox="0 0 36 32">
		<path d="M32 20s-4 5.791-4 8c0 2.209 1.791 4 4 4s4-1.791 4-4-4-8-4-8zM31.414 13.566l-12.981-12.981c-0.391-0.391-0.902-0.586-1.414-0.586s-1.024 0.195-1.414 0.586l-5.099 5.099-5.386-5.387c-0.391-0.391-1.024-0.391-1.414 0l-1.414 1.414c-0.39 0.391-0.39 1.024 0 1.414l5.387 5.386-5.923 5.922c-2.343 2.343-2.343 6.141 0 8.484l7.324 7.324c1.171 1.171 2.707 1.758 4.242 1.758s3.071-0.586 4.242-1.758l13.848-13.848c0.781-0.781 0.781-2.047 0.001-2.828zM24.151 18.002h-20.030c0.085-0.24 0.223-0.499 0.464-0.739l5.922-5.922 3.662 3.662c0.781 0.781 2.047 0.781 2.827 0s0.781-2.047 0-2.828l-3.662-3.662 3.684-3.684 10.152 10.152-3.021 3.021z"></path>
	</symbol>

	<symbol id="wsc-background-gradient" viewBox="0 0 28 28">
		<g>
			<path d="M22.9 7.5c-0.1-0.3-0.5-0.6-0.8-0.6H5.9c-0.4 0-0.7 0.2-0.8 0.6C5.1 7.6 5 7.7 5 7.9v12.2c0 0.1 0 0.2 0.1 0.4 0.1 0.3 0.5 0.5 0.8 0.6h16.2c0.4 0 0.7-0.2 0.8-0.6 0-0.1 0.1-0.2 0.1-0.4V7.9C23 7.7 23 7.6 22.9 7.5zM21 18.9L7 8.9h14V18.9z" fill-rule="evenodd"></path>
		</g>
	</symbol>

	<symbol id="wsc-background-image" viewBox="0 0 32 32">
		<path d="M29 4h-26c-1.657 0-3 1.343-3 3v18c0 1.657 1.343 3 3 3h26c1.657 0 3-1.343 3-3v-18c0-1.657-1.343-3-3-3zM28.625 25h-25.25c-0.207 0-0.375-0.168-0.375-0.375v0-17.25c0-0.207 0.168-0.375 0.375-0.375v0h25.25c0.207 0 0.375 0.168 0.375 0.375v0 17.25c0 0.207-0.168 0.375-0.375 0.375v0zM8 9.5c-1.381 0-2.5 1.119-2.5 2.5s1.119 2.5 2.5 2.5 2.5-1.119 2.5-2.5-1.119-2.5-2.5-2.5zM6 22h20v-5l-5.47-5.47c-0.293-0.293-0.768-0.293-1.061 0l-7.47 7.47-2.47-2.47c-0.293-0.293-0.768-0.293-1.061 0l-2.47 2.47v3z"></path>
	</symbol>

	<symbol id="wsc-background-video" viewBox="0 0 32 32">
		<path d="M30.5 4h-0.5v1.25c0 0.412-0.337 0.75-0.75 0.75h-2.5c-0.413 0-0.75-0.338-0.75-0.75v-1.25h-20v1.25c0 0.412-0.338 0.75-0.75 0.75h-2.5c-0.413 0-0.75-0.338-0.75-0.75v-1.25h-0.5c-0.831 0-1.5 0.669-1.5 1.5v21c0 0.831 0.669 1.5 1.5 1.5h0.5v-1.25c0-0.413 0.337-0.75 0.75-0.75h2.5c0.412 0 0.75 0.337 0.75 0.75v1.25h20v-1.25c0-0.413 0.337-0.75 0.75-0.75h2.5c0.413 0 0.75 0.337 0.75 0.75v1.25h0.5c0.831 0 1.5-0.669 1.5-1.5v-21c0-0.831-0.669-1.5-1.5-1.5zM6 23.25c0 0.413-0.338 0.75-0.75 0.75h-2.5c-0.413 0-0.75-0.337-0.75-0.75v-2.5c0-0.413 0.337-0.75 0.75-0.75h2.5c0.412 0 0.75 0.337 0.75 0.75v2.5zM6 17.25c0 0.413-0.338 0.75-0.75 0.75h-2.5c-0.413 0-0.75-0.337-0.75-0.75v-2.5c0-0.412 0.337-0.75 0.75-0.75h2.5c0.412 0 0.75 0.338 0.75 0.75v2.5zM6 11.25c0 0.412-0.338 0.75-0.75 0.75h-2.5c-0.413 0-0.75-0.338-0.75-0.75v-2.5c0-0.412 0.337-0.75 0.75-0.75h2.5c0.412 0 0.75 0.338 0.75 0.75v2.5zM23 24.25c0 0.413-0.337 0.75-0.75 0.75h-12.5c-0.412 0-0.75-0.337-0.75-0.75v-6c0-0.413 0.338-0.75 0.75-0.75h12.5c0.413 0 0.75 0.337 0.75 0.75v6zM23 13.75c0 0.412-0.337 0.75-0.75 0.75h-12.5c-0.412 0-0.75-0.338-0.75-0.75v-6c0-0.412 0.338-0.75 0.75-0.75h12.5c0.413 0 0.75 0.338 0.75 0.75v6zM30 23.25c0 0.413-0.337 0.75-0.75 0.75h-2.5c-0.413 0-0.75-0.337-0.75-0.75v-2.5c0-0.413 0.337-0.75 0.75-0.75h2.5c0.413 0 0.75 0.337 0.75 0.75v2.5zM30 17.25c0 0.413-0.337 0.75-0.75 0.75h-2.5c-0.413 0-0.75-0.337-0.75-0.75v-2.5c0-0.412 0.337-0.75 0.75-0.75h2.5c0.413 0 0.75 0.338 0.75 0.75v2.5zM30 11.25c0 0.412-0.337 0.75-0.75 0.75h-2.5c-0.413 0-0.75-0.338-0.75-0.75v-2.5c0-0.412 0.337-0.75 0.75-0.75h2.5c0.413 0 0.75 0.338 0.75 0.75v2.5z"></path>
	</symbol>

	<symbol id="wsc-pen-solid" viewBox="0 0 32 32">
		<path d="M18.171 5.827l8.001 8.001-17.374 17.374-7.134 0.788c-0.955 0.106-1.762-0.702-1.656-1.657l0.794-7.139 17.369-17.367zM31.121 4.636l-3.757-3.757c-1.172-1.172-3.073-1.172-4.244 0l-3.534 3.534 8.001 8.001 3.534-3.534c1.172-1.173 1.172-3.072 0-4.244z"></path>
	</symbol>
	<symbol id="wsc-pen-regular" viewBox="0 0 32 32">
		<path d="M31.119 8.881l-2.881 2.881c-0.294 0.294-0.769 0.294-1.063 0l-6.938-6.938c-0.294-0.294-0.294-0.769 0-1.063l2.881-2.881c1.169-1.169 3.069-1.169 4.244 0l3.756 3.756c1.175 1.169 1.175 3.069 0 4.244zM17.762 6.237l-16.413 16.413-1.325 7.594c-0.181 1.025 0.713 1.912 1.738 1.738l7.594-1.331 16.413-16.413c0.294-0.294 0.294-0.769 0-1.063l-6.938-6.938c-0.3-0.294-0.775-0.294-1.069 0zM7.756 21.244c-0.344-0.344-0.344-0.894 0-1.238l9.625-9.625c0.344-0.344 0.894-0.344 1.238 0s0.344 0.894 0 1.238l-9.625 9.625c-0.344 0.344-0.894 0.344-1.237 0zM5.5 26.5h3v2.269l-4.031 0.706-1.944-1.944 0.706-4.031h2.269v3z"></path>
	</symbol>
	<symbol id="wsc-settings-cog" viewBox="0 0 32 32">
		<path d="M30.462 19.731l-2.663-1.538c0.269-1.45 0.269-2.938 0-4.387l2.663-1.537c0.306-0.175 0.444-0.537 0.344-0.875-0.694-2.225-1.875-4.237-3.419-5.912-0.238-0.256-0.625-0.319-0.925-0.144l-2.663 1.538c-1.119-0.963-2.406-1.706-3.8-2.194v-3.069c0-0.35-0.244-0.656-0.587-0.731-2.294-0.512-4.644-0.487-6.825 0-0.344 0.075-0.588 0.381-0.588 0.731v3.075c-1.387 0.494-2.675 1.237-3.8 2.194l-2.656-1.537c-0.306-0.175-0.688-0.119-0.925 0.144-1.544 1.669-2.725 3.681-3.419 5.912-0.106 0.338 0.038 0.7 0.344 0.875l2.662 1.537c-0.269 1.45-0.269 2.938 0 4.388l-2.663 1.538c-0.306 0.175-0.444 0.538-0.344 0.875 0.694 2.225 1.875 4.238 3.419 5.912 0.237 0.256 0.625 0.319 0.925 0.144l2.663-1.538c1.119 0.962 2.406 1.706 3.8 2.194v3.075c0 0.35 0.244 0.656 0.588 0.731 2.294 0.512 4.644 0.488 6.825 0 0.344-0.075 0.587-0.381 0.587-0.731v-3.075c1.387-0.494 2.675-1.238 3.8-2.194l2.663 1.538c0.306 0.175 0.688 0.119 0.925-0.144 1.544-1.669 2.725-3.681 3.419-5.913 0.094-0.344-0.044-0.706-0.35-0.881zM16 21c-2.756 0-5-2.244-5-5s2.244-5 5-5 5 2.244 5 5-2.244 5-5 5z"></path>
	</symbol>
	<symbol id="wsc-copy" viewBox="0 0 32 32">
		<path d="M29 0h-20c-1.657 0-3 1.343-3 3v3h-3c-1.657 0-3 1.343-3 3v20c0 1.657 1.343 3 3 3h20c1.657 0 3-1.343 3-3v-3h3c1.657 0 3-1.343 3-3v-20c0-1.657-1.343-3-3-3zM22.625 29h-19.25c-0.207 0-0.375-0.168-0.375-0.375v0-19.25c0-0.207 0.168-0.375 0.375-0.375v0h2.625v14c0 1.657 1.343 3 3 3h14v2.625c0 0.207-0.168 0.375-0.375 0.375v0zM28.625 23h-19.25c-0.207 0-0.375-0.168-0.375-0.375v0-19.25c0-0.207 0.168-0.375 0.375-0.375v0h19.25c0.207 0 0.375 0.168 0.375 0.375v0 19.25c0 0.207-0.168 0.375-0.375 0.375v0z"></path>
	</symbol>
	<symbol id="wsc-copy-solid" viewBox="0 0 32 32">
		<path d="M29 0c1.657 0 3 1.343 3 3v18c0 1.657-1.343 3-3 3h-18c-1.657 0-3-1.343-3-3v-18c0-1.657 1.343-3 3-3h18zM11 26c-2.757 0-5-2.243-5-5v-13h-3c-1.657 0-3 1.343-3 3v18c0 1.657 1.343 3 3 3h18c1.657 0 3-1.343 3-3v-3h-13z"></path>
	</symbol>
	<symbol id="wsc-trash" viewBox="0 0 28 32">
		<path d="M16.75 26h1.5c0.414 0 0.75-0.336 0.75-0.75v0-13.5c0-0.414-0.336-0.75-0.75-0.75v0h-1.5c-0.414 0-0.75 0.336-0.75 0.75v0 13.5c0 0.414 0.336 0.75 0.75 0.75v0zM27 5h-5.151l-2.125-3.544c-0.534-0.878-1.486-1.456-2.572-1.456-0 0-0.001 0-0.002 0h-6.301c-0 0-0 0-0 0-1.087 0-2.038 0.578-2.565 1.443l-0.008 0.013-2.126 3.544h-5.151c-0.552 0-1 0.448-1 1v0 1c0 0.552 0.448 1 1 1v0h1v21c0 1.657 1.343 3 3 3v0h18c1.657 0 3-1.343 3-3v0-21h1c0.552 0 1-0.448 1-1v0-1c0-0.552-0.448-1-1-1v0zM10.74 3.182c0.067-0.11 0.186-0.182 0.321-0.182 0 0 0.001 0 0.001 0h5.875c0 0 0 0 0 0 0.136 0 0.255 0.072 0.32 0.18l0.001 0.002 1.091 1.818h-8.701zM23 29h-18v-21h18zM9.75 26h1.5c0.414 0 0.75-0.336 0.75-0.75v0-13.5c0-0.414-0.336-0.75-0.75-0.75v0h-1.5c-0.414 0-0.75 0.336-0.75 0.75v0 13.5c0 0.414 0.336 0.75 0.75 0.75v0z"></path>
	</symbol>
	<symbol id="wsc-trash-solid" viewBox="0 0 28 32">
		<path d="M2 29c0 1.657 1.343 3 3 3v0h18c1.657 0 3-1.343 3-3v0-21h-24zM19 13c0-0.552 0.448-1 1-1s1 0.448 1 1v0 14c0 0.552-0.448 1-1 1s-1-0.448-1-1v0zM13 13c0-0.552 0.448-1 1-1s1 0.448 1 1v0 14c0 0.552-0.448 1-1 1s-1-0.448-1-1v0zM7 13c0-0.552 0.448-1 1-1s1 0.448 1 1v0 14c0 0.552-0.448 1-1 1s-1-0.448-1-1v0zM27 2h-7.5l-0.587-1.169c-0.251-0.497-0.758-0.831-1.343-0.831-0 0-0.001 0-0.001 0h-7.144c-0.002 0-0.004 0-0.006 0-0.582 0-1.085 0.335-1.328 0.823l-0.004 0.009-0.588 1.169h-7.5c-0.552 0-1 0.448-1 1v0 2c0 0.552 0.448 1 1 1v0h26c0.552 0 1-0.448 1-1v0-2c0-0.552-0.448-1-1-1v0z"></path>
	</symbol>
	<symbol id="wsc-save" viewBox="0 0 28 32">
		<path d="M27.121 8.121l-5.243-5.243c-0.543-0.543-1.293-0.879-2.121-0.879h-16.757c-1.657 0-3 1.343-3 3v22c0 1.657 1.343 3 3 3h22c1.657 0 3-1.343 3-3v-16.757c0-0.828-0.336-1.578-0.879-2.121v0zM14 26c-2.209 0-4-1.791-4-4s1.791-4 4-4 4 1.791 4 4c0 2.209-1.791 4-4 4zM20 6.968v6.282c0 0.414-0.336 0.75-0.75 0.75h-14.5c-0.414 0-0.75-0.336-0.75-0.75v-6.5c0-0.414 0.336-0.75 0.75-0.75h14.282c0.199 0 0.39 0.079 0.53 0.22l0.218 0.218c0.136 0.136 0.22 0.323 0.22 0.53 0 0 0 0 0 0v0z"></path>
	</symbol>
	<symbol id="wsc-download" viewBox="0 0 32 32">
		<path d="M13.5 0h5c0.831 0 1.5 0.669 1.5 1.5v10.5h5.481c1.113 0 1.669 1.344 0.881 2.131l-9.506 9.512c-0.469 0.469-1.238 0.469-1.706 0l-9.519-9.512c-0.787-0.787-0.231-2.131 0.881-2.131h5.487v-10.5c0-0.831 0.669-1.5 1.5-1.5zM32 23.5v7c0 0.831-0.669 1.5-1.5 1.5h-29c-0.831 0-1.5-0.669-1.5-1.5v-7c0-0.831 0.669-1.5 1.5-1.5h9.169l3.063 3.063c1.256 1.256 3.281 1.256 4.537 0l3.063-3.063h9.169c0.831 0 1.5 0.669 1.5 1.5zM24.25 29c0-0.688-0.563-1.25-1.25-1.25s-1.25 0.563-1.25 1.25 0.563 1.25 1.25 1.25 1.25-0.563 1.25-1.25zM28.25 29c0-0.688-0.563-1.25-1.25-1.25s-1.25 0.563-1.25 1.25 0.563 1.25 1.25 1.25 1.25-0.563 1.25-1.25z"></path>
	</symbol>
	<symbol id="wsc-fa-plus" viewBox="0 0 28 32">
		<path d="M26 13h-9v-9c0-1.104-0.896-2-2-2h-2c-1.104 0-2 0.896-2 2v9h-9c-1.104 0-2 0.896-2 2v2c0 1.104 0.896 2 2 2h9v9c0 1.104 0.896 2 2 2h2c1.104 0 2-0.896 2-2v-9h9c1.104 0 2-0.896 2-2v-2c0-1.104-0.896-2-2-2z"></path>
	</symbol>
	<symbol id="wsc-fa-arrows-alt-solid" viewBox="0 0 512 512">
		<path d="M352.201 425.775l-79.196 79.196c-9.373 9.373-24.568 9.373-33.941 0l-79.196-79.196c-15.119-15.119-4.411-40.971 16.971-40.97h51.162L228 284H127.196v51.162c0 21.382-25.851 32.09-40.971 16.971L7.029 272.937c-9.373-9.373-9.373-24.569 0-33.941L86.225 159.8c15.119-15.119 40.971-4.411 40.971 16.971V228H228V127.196h-51.23c-21.382 0-32.09-25.851-16.971-40.971l79.196-79.196c9.373-9.373 24.568-9.373 33.941 0l79.196 79.196c15.119 15.119 4.411 40.971-16.971 40.971h-51.162V228h100.804v-51.162c0-21.382 25.851-32.09 40.97-16.971l79.196 79.196c9.373 9.373 9.373 24.569 0 33.941L425.773 352.2c-15.119 15.119-40.971 4.411-40.97-16.971V284H284v100.804h51.23c21.382 0 32.09 25.851 16.971 40.971z"></path>
	</symbol>
	<symbol id="wsc-close" viewBox="0 0 32 32">
		<path d="M18.56 16.672l5.056-5.056c0.512-0.512 0.512-1.376 0-1.888-0.544-0.512-1.376-0.512-1.888 0l-5.056 5.056-5.056-5.056c-0.512-0.544-1.376-0.544-1.888 0-0.256 0.256-0.384 0.576-0.384 0.928s0.128 0.704 0.384 0.96l5.056 5.056-5.056 5.056c-0.512 0.512-0.512 1.344 0 1.856 0.288 0.288 0.608 0.416 0.96 0.416s0.672-0.16 0.928-0.416l5.056-5.024 5.056 5.024c0.288 0.288 0.608 0.416 0.96 0.416s0.672-0.16 0.928-0.416c0.288-0.256 0.384-0.576 0.384-0.928s-0.128-0.672-0.384-0.96l-5.056-5.024z"></path>
	</symbol>
	<symbol id="wsc-plus" viewBox="0 0 28 28">
		<g>
			<path d="M18 13h-3v-3a1 1 0 0 0-2 0v3h-3a1 1 0 0 0 0 2h3v3a1 1 0 0 0 2 0v-3h3a1 1 0 0 0 0-2z" fill-rule="evenodd"></path>
		</g>
	</symbol>
	<symbol id="wsc-move" viewBox="0 0 28 28">
		<g>
			<path d="M12.968 17.968a.747.747 0 0 0-1.057 0 .747.747 0 0 0 0 1.057l1.835 1.835a.308.308 0 0 0 .437 0l1.836-1.835a.749.749 0 0 0 0-1.057.752.752 0 0 0-1.06 0v-2.994h3a.747.747 0 0 0 0 1.057.747.747 0 0 0 1.056 0l1.836-1.835a.31.31 0 0 0 0-.437l-1.836-1.835a.747.747 0 0 0-1.057 0 .747.747 0 0 0 0 1.057h-3V9.987a1.28 1.28 0 0 0 1.057 0 .749.749 0 0 0 0-1.057l-1.827-1.84a.308.308 0 0 0-.437 0l-1.835 1.836a.747.747 0 0 0 0 1.057.747.747 0 0 0 1.057 0v2.994h-2.99a.747.747 0 0 0 0-1.057.747.747 0 0 0-1.058 0L7.09 13.755a.31.31 0 0 0 0 .437l1.835 1.835a.747.747 0 0 0 1.057 0 .747.747 0 0 0 0-1.057h2.991l-.005 2.998z" fill-rule="evenodd"></path>
		</g>
	</symbol>
	<symbol id="wsc-column" viewBox="0 0 28 28">
		<g>
			<path d="M20 8H8a1 1 0 0 0-1 1v10a1 1 0 0 0 1 1h12a1 1 0 0 0 1-1V9a1 1 0 0 0-1-.999V8zm-7 2h2v8h-2v-8zm-2 8H9v-8h2v8zm6-8h2v8h-2v-8z" fill-rule="evenodd"></path>
		</g>
	</symbol>
	<symbol id="wsc-export" viewBox="0 0 28 28">
		<g>
			<path d="M18.95 9.051a1 1 0 1 0-1.414 1.414 5 5 0 1 1-7.07 0A1 1 0 0 0 9.05 9.051a7 7 0 1 0 9.9.001v-.001zm-5.378 8.235a.5.5 0 0 0 .857 0l2.117-3.528a.5.5 0 0 0-.429-.758H15V8a1 1 0 0 0-2 0v5h-1.117a.5.5 0 0 0-.428.758l2.117 3.528z" fill-rule="evenodd"></path>
		</g>
	</symbol>
	<symbol id="wsc-square-blue-dark" viewBox="0 0 16 16">
		<g>
			<rect width="16" height="16" fill="#253993" />
		</g>
	</symbol>
	<symbol id="wsc-square-blue" viewBox="0 0 16 16">
		<g>
			<rect width="16" height="16" fill="#26B8F3" />
		</g>
	</symbol>
	<symbol id="wsc-square-brown-light" viewBox="0 0 16 16">
		<g>
			<rect width="16" height="16" fill="#cdad96" />
		</g>
	</symbol>
	<symbol id="wsc-square-brown" viewBox="0 0 16 16">
		<g>
			<rect width="16" height="16" fill="#48190d" />
		</g>
	</symbol>
	<symbol id="wsc-square-green-light" viewBox="0 0 16 16">
		<g>
			<rect width="16" height="16" fill="#1abc9c" />
		</g>
	</symbol>
	<symbol id="wsc-square-green" viewBox="0 0 16 16">
		<g>
			<rect width="16" height="16" fill="#81B441" />
		</g>
	</symbol>
	<symbol id="wsc-square-orange" viewBox="0 0 16 16">
		<g>
			<rect width="16" height="16" fill="#FCC43F" />
		</g>
	</symbol>
	<symbol id="wsc-square-pink" viewBox="0 0 16 16">
		<g>
			<rect width="16" height="16" fill="#f07677" />
		</g>
	</symbol>
	<symbol id="wsc-square-purple" viewBox="0 0 16 16">
		<g>
			<rect width="16" height="16" fill="#7266BA" />
		</g>
	</symbol>
	<symbol id="wsc-square-red" viewBox="0 0 16 16">
		<g>
			<rect width="16" height="16" fill="#dc143c" />
		</g>
	</symbol>
	<symbol id="wsc-square-yellow" viewBox="0 0 16 16">
		<g>
			<rect width="16" height="16" fill="#fcd808" />
		</g>
	</symbol>
	<symbol id="wsc-color-wheel" viewBox="0 0 540 540">
		<g>
			<path d="m 511.48146,205.29524 c 11.90567,44.43259 11.90567,84.97693 0,129.40952 L 487.31476,349.3424 270,270 490.20449,192.09986 z" id="path16" style="fill:#fefe33" />
			<path d="m 334.70476,28.518543 c 44.43259,11.905676 79.54502,32.17785 112.07193,64.704761 L 447.40047,118.09589 270,270 313.06484,40.508134 z" id="path20" style="fill:#fb9902" />
			<path d="m 446.77669,93.223304 c 32.52692,32.526916 52.79909,67.639346 64.70477,112.071936 L 270,270 z" id="path18" style="fill:#fabc02" />
			<path d="M 93.223305,93.223305 C 125.75022,60.696393 160.86265,40.42422 205.29524,28.518543 L 231.20546,44.501656 270,270 92.739568,120.0571 z" id="path28" style="fill:#fe2712" />
			<path d="m 205.29524,28.518543 c 44.43259,-11.905676 84.97693,-11.905676 129.40952,0 L 270,270 z" id="path22" style="fill:#fd5308" />
			<path d="m 28.518543,334.70476 c -11.905676,-44.43259 -11.905676,-84.97693 0,-129.40952 L 56.311276,186.62718 270,270 55.854788,349.40527 z" id="path26" style="fill:#8601af" />
			<path d="M 28.518543,205.29524 C 40.424219,160.86265 60.696393,125.75022 93.223305,93.223305 L 270,270 z" id="path30" style="fill:#a7194b" />
			<path d="M 205.29524,511.48146 C 160.86265,499.57578 125.75022,479.30361 93.223305,446.7767 L 95.307837,418.58874 270,270 231.0453,499.70648 z" id="path8" style="fill:#0247fe" />
			<path d="M 93.223305,446.7767 C 60.696393,414.24978 40.42422,379.13735 28.518543,334.70476 L 270,270 z" id="path24" style="fill:#3d01a4" />
			<path d="m 446.7767,446.7767 c -32.52692,32.52691 -67.63935,52.79908 -112.07194,64.70476 L 310.45335,496.38826 270,270 446.04632,421.15701 z" id="path12" style="fill:#66b032" />
			<path d="m 334.70476,511.48146 c -44.43259,11.90567 -84.97693,11.90567 -129.40952,0 L 270,270 z" id="path10" style="fill:#0391ce" />
			<path d="M 511.48146,334.70476 C 499.57578,379.13735 479.30361,414.24978 446.7767,446.7767 L 270,270 511.48146,334.70476 z" id="path14" style="fill:#d0ea2b" />
			<circle cx="270" cy="270" r="153.79581" id="circle32" style="fill:#ffffff" />
		</g>
	</symbol>
	<symbol id="wsc-align-self-stretch" viewBox="0 0 16 16">
		<path fill="currentColor" d="M0 15h16v1H0zM0 0h16v1H0zm6 2h4v12H6z"></path>
	</symbol>
	<symbol id="wsc-align-self-end" viewBox="0 0 16 16">
		<path fill="currentColor" d="M0 15h16v1H0zm6-9h4v8H6z"></path>
	</symbol>
	<symbol id="wsc-align-self-center" viewBox="0 0 16 16">
		<path fill="currentColor" d="M0 7h16v1H0z"></path>
		<path fill="currentColor" d="M6 3h4v9H6z"></path>
	</symbol>
	<symbol id="wsc-align-self-start" viewBox="0 0 16 16">
		<path fill="currentColor" d="M0 0h16v1H0zm6 2h4v8H6z"></path>
	</symbol>
	<symbol id="wsc-imagegallery-module" viewBox="0 0 36 32">
		<path d="M30 26v1c0 1.657-1.343 3-3 3h-24c-1.657 0-3-1.343-3-3v-16c0-1.657 1.343-3 3-3h1v3h-0.625c-0.207 0-0.375 0.168-0.375 0.375v0 15.25c0 0.207 0.168 0.375 0.375 0.375v0h23.25c0.207 0 0.375-0.168 0.375-0.375v0-0.625h3zM32.625 5h-23.25c-0.207 0-0.375 0.168-0.375 0.375v0 15.25c0 0.207 0.168 0.375 0.375 0.375v0h23.25c0.207 0 0.375-0.168 0.375-0.375v0-15.25c0-0.207-0.168-0.375-0.375-0.375v0zM33 2c1.657 0 3 1.343 3 3v16c0 1.657-1.343 3-3 3h-24c-1.657 0-3-1.343-3-3v-16c0-1.657 1.343-3 3-3h24zM16.5 9c0 1.381-1.119 2.5-2.5 2.5s-2.5-1.119-2.5-2.5 1.119-2.5 2.5-2.5 2.5 1.119 2.5 2.5zM12 15l2.47-2.47c0.293-0.293 0.768-0.293 1.061 0l2.47 2.47 6.47-6.47c0.293-0.293 0.768-0.293 1.061 0l4.47 4.47v5h-18v-3z"></path>
	</symbol>
	<symbol id="wsc-title-module" viewBox="0 0 32 32">
		<path d="M28 6v20h2c0.552 0 1 0.448 1 1v0 2c0 0.552-0.448 1-1 1v0h-10c-0.552 0-1-0.448-1-1v0-2c0-0.552 0.448-1 1-1v0h2v-8h-12v8h2c0.552 0 1 0.448 1 1v0 2c0 0.552-0.448 1-1 1v0h-10c-0.552 0-1-0.448-1-1v0-2c0-0.552 0.448-1 1-1v0h2v-20h-2c-0.552 0-1-0.448-1-1v0-2c0-0.552 0.448-1 1-1v0h10c0.552 0 1 0.448 1 1v0 2c0 0.552-0.448 1-1 1v0h-2v8h12v-8h-2c-0.552 0-1-0.448-1-1v0-2c0-0.552 0.448-1 1-1v0h10c0.552 0 1 0.448 1 1v0 2c0 0.552-0.448 1-1 1v0z"></path>
	</symbol>
	<symbol id="wsc-texthtml-module" viewBox="0 0 28 32">
		<path d="M0.802 22h16.396c0 0 0 0 0.001 0 0.443 0 0.801-0.359 0.801-0.801 0-0 0-0 0-0.001v0-2.396c0-0 0-0 0-0.001 0-0.443-0.359-0.801-0.801-0.801-0 0-0 0-0.001 0h-16.396c-0 0-0 0-0.001 0-0.443 0-0.801 0.359-0.801 0.801 0 0 0 0 0 0.001v-0 2.396c0 0 0 0 0 0.001 0 0.443 0.359 0.801 0.801 0.801 0 0 0 0 0.001 0h-0zM0.802 6h16.396c0 0 0 0 0.001 0 0.443 0 0.801-0.359 0.801-0.801 0-0 0-0 0-0.001v0-2.396c0-0 0-0 0-0.001 0-0.443-0.359-0.801-0.801-0.801-0 0-0 0-0.001 0h-16.396c-0 0-0 0-0.001 0-0.443 0-0.801 0.359-0.801 0.801 0 0 0 0 0 0.001v-0 2.396c0 0 0 0 0 0.001 0 0.443 0.359 0.801 0.801 0.801 0 0 0 0 0.001 0h-0zM27 10h-26c-0.552 0-1 0.448-1 1v0 2c0 0.552 0.448 1 1 1v0h26c0.552 0 1-0.448 1-1v0-2c0-0.552-0.448-1-1-1v0zM27 26h-26c-0.552 0-1 0.448-1 1v0 2c0 0.552 0.448 1 1 1v0h26c0.552 0 1-0.448 1-1v0-2c0-0.552-0.448-1-1-1v0z"></path>
	</symbol>
	<symbol id="wsc-image-module" viewBox="0 0 32 32">
		<path d="M29 4h-26c-1.657 0-3 1.343-3 3v18c0 1.657 1.343 3 3 3h26c1.657 0 3-1.343 3-3v-18c0-1.657-1.343-3-3-3zM28.625 25h-25.25c-0.207 0-0.375-0.168-0.375-0.375v0-17.25c0-0.207 0.168-0.375 0.375-0.375v0h25.25c0.207 0 0.375 0.168 0.375 0.375v0 17.25c0 0.207-0.168 0.375-0.375 0.375v0zM8 9.5c-1.381 0-2.5 1.119-2.5 2.5s1.119 2.5 2.5 2.5 2.5-1.119 2.5-2.5-1.119-2.5-2.5-2.5zM6 22h20v-5l-5.47-5.47c-0.293-0.293-0.768-0.293-1.061 0l-7.47 7.47-2.47-2.47c-0.293-0.293-0.768-0.293-1.061 0l-2.47 2.47v3z"></path>
	</symbol>
	<symbol id="wsc-button-module" viewBox="0 0 28 32">
		<path d="M6.6 5.2v5.386c-0.419-0.086-0.901-0.136-1.395-0.136-0.002 0-0.004 0-0.005 0h0c-2.995 0-5.2 2.192-5.2 5.75 0 2.832 3.034 3.563 4.924 4.732 0.776 0.483 1.457 1.062 2.078 1.616l0.009 0.008 0.009 0.008c1.092 0.957 1.479 1.451 1.479 1.886v0.167c-0.309 0.359-0.5 0.846-0.5 1.383v4c0 1.105 0.806 2 1.8 2h14.4c0.994 0 1.8-0.895 1.8-2v-4c0-0.537-0.191-1.023-0.5-1.383v-0.167c0-1.793 2.5-4.196 2.5-7.95v-1.331c0-3.909-2.416-6.175-5.697-6.246-1.113-0.78-2.549-1.156-3.924-0.999-0.397-0.207-0.857-0.378-1.34-0.488l-0.039-0.008v-2.228c0-2.84-2.349-5.2-5.2-5.2-2.819 0-5.2 2.381-5.2 5.2zM14 5.2v5.689c0.917-0.802 2.677-0.901 3.816 0.309 1.228-0.702 2.852-0.105 3.352 0.808 2.445-0.408 3.833 0.63 3.833 3.162v1.331c0 2.843-2.245 4.826-2.48 7.5h-11.047c-0.185-1.577-1.326-2.685-2.475-3.692-0.791-0.705-1.581-1.358-2.492-1.925-1.462-0.905-3.506-1.633-3.506-2.183 0-1.461 0.55-2.75 2.2-2.75 2.2 0 3.317 1.65 4.4 1.65v-9.9c0-1.152 1.031-2.2 2.2-2.2 1.186 0 2.2 1.014 2.2 2.2zM22 26.5c0.828 0 1.5 0.672 1.5 1.5s-0.672 1.5-1.5 1.5-1.5-0.672-1.5-1.5 0.672-1.5 1.5-1.5z"></path>
	</symbol>
	<symbol id="wsc-checkoutbutton-module" viewBox="0 0 576 512">
		<path fill="currentColor" d="M504.717 320H211.572l6.545 32h268.418c15.401 0 26.816 14.301 23.403 29.319l-5.517 24.276C523.112 414.668 536 433.828 536 456c0 31.202-25.519 56.444-56.824 55.994-29.823-.429-54.35-24.631-55.155-54.447-.44-16.287 6.085-31.049 16.803-41.548H231.176C241.553 426.165 248 440.326 248 456c0 31.813-26.528 57.431-58.67 55.938-28.54-1.325-51.751-24.385-53.251-52.917-1.158-22.034 10.436-41.455 28.051-51.586L93.883 64H24C10.745 64 0 53.255 0 40V24C0 10.745 10.745 0 24 0h102.529c11.401 0 21.228 8.021 23.513 19.19L159.208 64H551.99c15.401 0 26.816 14.301 23.403 29.319l-47.273 208C525.637 312.246 515.923 320 504.717 320zM408 168h-48v-40c0-8.837-7.163-16-16-16h-16c-8.837 0-16 7.163-16 16v40h-48c-8.837 0-16 7.163-16 16v16c0 8.837 7.163 16 16 16h48v40c0 8.837 7.163 16 16 16h16c8.837 0 16-7.163 16-16v-40h48c8.837 0 16-7.163 16-16v-16c0-8.837-7.163-16-16-16z"></path>
	</symbol>
	<symbol id="wsc-spacer-module" viewBox="0 0 28 32">
		<path d="M0 11.25v-7.75c0-0.831 0.669-1.5 1.5-1.5h7.75c0.412 0 0.75 0.337 0.75 0.75v2.5c0 0.412-0.338 0.75-0.75 0.75h-5.25v5.25c0 0.412-0.337 0.75-0.75 0.75h-2.5c-0.412 0-0.75-0.338-0.75-0.75zM18 2.75v2.5c0 0.412 0.337 0.75 0.75 0.75h5.25v5.25c0 0.412 0.337 0.75 0.75 0.75h2.5c0.413 0 0.75-0.338 0.75-0.75v-7.75c0-0.831-0.669-1.5-1.5-1.5h-7.75c-0.413 0-0.75 0.337-0.75 0.75zM27.25 20h-2.5c-0.413 0-0.75 0.337-0.75 0.75v5.25h-5.25c-0.413 0-0.75 0.337-0.75 0.75v2.5c0 0.413 0.337 0.75 0.75 0.75h7.75c0.831 0 1.5-0.669 1.5-1.5v-7.75c0-0.413-0.337-0.75-0.75-0.75zM10 29.25v-2.5c0-0.413-0.338-0.75-0.75-0.75h-5.25v-5.25c0-0.413-0.337-0.75-0.75-0.75h-2.5c-0.412 0-0.75 0.337-0.75 0.75v7.75c0 0.831 0.669 1.5 1.5 1.5h7.75c0.412 0 0.75-0.337 0.75-0.75z"></path>
	</symbol>
	<symbol id="wsc-maps-module" viewBox="0 0 36 32">
		<path d="M35.001 2c-0.123 0-0.249 0.023-0.373 0.072l-10.629 3.928-10.75-3.795c-0.377-0.13-0.812-0.205-1.265-0.205h-0c-0.418 0-0.836 0.066-1.238 0.196l-9.489 3.301c-0.743 0.303-1.257 1.020-1.258 1.857v21.645c0 0.574 0.471 1.001 0.999 1.001 0.122 0 0.248-0.023 0.372-0.073l10.628-3.927 10.75 3.794c0.378 0.13 0.813 0.206 1.266 0.206 0.442 0 0.868-0.072 1.266-0.204l-0.028 0.008 9.489-3.301c0.743-0.303 1.258-1.020 1.258-1.857v0-21.645c0-0.574-0.471-1.001-0.999-1.001zM14 5.651l8 2.824v17.873l-8-2.824v-17.873zM3 26.128v-18.061l8-2.783v17.888l-0.040 0.014-7.96 2.942zM33 23.933l-8 2.783v-17.887l0.040-0.015 7.96-2.942v18.061z"></path>
	</symbol>
	<symbol id="wsc-video-module" viewBox="0 0 32 32">
		<path d="M23.231 14.875l-11-6.688c-0.988-0.55-2.231 0.156-2.231 1.313v13c0 1.15 1.238 1.863 2.231 1.313l11-6.313c1.025-0.569 1.025-2.050 0-2.625zM31.5 16c0-8.563-6.938-15.5-15.5-15.5s-15.5 6.938-15.5 15.5 6.938 15.5 15.5 15.5 15.5-6.938 15.5-15.5zM3.5 16c0-6.906 5.594-12.5 12.5-12.5s12.5 5.594 12.5 12.5-5.594 12.5-12.5 12.5-12.5-5.594-12.5-12.5z"></path>
	</symbol>
	<svg id="wsc-icon-module"
		xmlns="http://www.w3.org/2000/svg" viewBox="0 0 512 512">
		<path fill="currentColor" d="M116.65 219.35a15.68 15.68 0 0 0 22.65 0l96.75-99.83c28.15-29 26.5-77.1-4.91-103.88C203.75-7.7 163-3.5 137.86 22.44L128 32.58l-9.85-10.14C93.05-3.5 52.25-7.7 24.86 15.64c-31.41 26.78-33 74.85-5 103.88zm143.92 100.49h-48l-7.08-14.24a27.39 27.39 0 0 0-25.66-17.78h-71.71a27.39 27.39 0 0 0-25.66 17.78l-7 14.24h-48A27.45 27.45 0 0 0 0 347.3v137.25A27.44 27.44 0 0 0 27.43 512h233.14A27.45 27.45 0 0 0 288 484.55V347.3a27.45 27.45 0 0 0-27.43-27.46zM144 468a52 52 0 1 1 52-52 52 52 0 0 1-52 52zm355.4-115.9h-60.58l22.36-50.75c2.1-6.65-3.93-13.21-12.18-13.21h-75.59c-6.3 0-11.66 3.9-12.5 9.1l-16.8 106.93c-1 6.3 4.88 11.89 12.5 11.89h62.31l-24.2 83c-1.89 6.65 4.2 12.9 12.23 12.9a13.26 13.26 0 0 0 10.92-5.25l92.4-138.91c4.88-6.91-1.16-15.7-10.87-15.7zM478.08.33L329.51 23.17C314.87 25.42 304 38.92 304 54.83V161.6a83.25 83.25 0 0 0-16-1.7c-35.35 0-64 21.48-64 48s28.65 48 64 48c35.2 0 63.73-21.32 64-47.66V99.66l112-17.22v47.18a83.25 83.25 0 0 0-16-1.7c-35.35 0-64 21.48-64 48s28.65 48 64 48c35.2 0 63.73-21.32 64-47.66V32c0-19.48-16-34.42-33.92-31.67z"></path>
	</svg>
	<symbol id="wsc-iconboxes-module" viewBox="0 0 36 32">
		<path d="M33.006 10.719l-9.131-1.331-4.081-8.275c-0.731-1.475-2.85-1.494-3.587 0l-4.081 8.275-9.131 1.331c-1.637 0.238-2.294 2.256-1.106 3.412l6.606 6.438-1.563 9.094c-0.281 1.644 1.45 2.875 2.9 2.106l8.169-4.294 8.169 4.294c1.45 0.762 3.181-0.462 2.9-2.106l-1.563-9.094 6.606-6.438c1.188-1.156 0.531-3.175-1.106-3.412zM24.288 19.519l1.481 8.65-7.769-4.081-7.769 4.081 1.481-8.65-6.287-6.125 8.688-1.262 3.888-7.875 3.887 7.875 8.688 1.262-6.287 6.125z"></path>
	</symbol>
	<symbol id="wsc-audio-module" viewBox="0 0 32 32">
		<path d="M10 18h-1c-2.209 0-4 1.794-4 4.008v3.985c0 2.213 1.791 4.008 4 4.008h1c1.104 0 2-0.898 2-2.004v-7.992c0-1.107-0.896-2.004-2-2.004zM23 18h-1c-1.104 0-2 0.897-2 2.004v7.992c0 1.106 0.896 2.004 2 2.004h1c2.209 0 4-1.794 4-4.008v-3.985c0-2.213-1.791-4.008-4-4.008zM16 2c-8.943 0-15.714 7.446-16 16v7c0 0.552 0.448 1 1 1h1c0.553 0 1-0.448 1-1v-7c0-7.167 5.833-12.988 13-12.989 7.167 0.001 13 5.822 13 12.989v7c0 0.552 0.448 1 1 1h1c0.552 0 1-0.448 1-1v-7c-0.286-8.554-7.057-16-16-16z"></path>
	</symbol>
	<symbol id="wsc-carousel-module" viewBox="0 0 32 32">
		<path d="M20.5 16c0 2.488-2.012 4.5-4.5 4.5s-4.5-2.012-4.5-4.5 2.012-4.5 4.5-4.5 4.5 2.012 4.5 4.5zM27 11.5c-2.488 0-4.5 2.012-4.5 4.5s2.012 4.5 4.5 4.5 4.5-2.012 4.5-4.5-2.012-4.5-4.5-4.5zM5 11.5c-2.487 0-4.5 2.012-4.5 4.5s2.013 4.5 4.5 4.5 4.5-2.012 4.5-4.5-2.013-4.5-4.5-4.5z"></path>
	</symbol>
	<symbol id="wsc-clients-module" viewBox="0 0 28 32">
		<path d="M14 16c4.419 0 8-3.581 8-8s-3.581-8-8-8-8 3.581-8 8 3.581 8 8 8zM19.988 18.038l-2.988 11.962-2-8.5 2-3.5h-6l2 3.5-2 8.5-2.988-11.962c-4.456 0.212-8.012 3.856-8.012 8.363v2.6c0 1.656 1.344 3 3 3h22c1.656 0 3-1.344 3-3v-2.6c0-4.506-3.556-8.15-8.012-8.363z"></path>
	</symbol>
	<symbol id="wsc-portfoliogallery-module" viewBox="0 0 36 32">
		<path d="M30 26v1c0 1.657-1.343 3-3 3h-24c-1.657 0-3-1.343-3-3v-16c0-1.657 1.343-3 3-3h1v3h-0.625c-0.207 0-0.375 0.168-0.375 0.375v0 15.25c0 0.207 0.168 0.375 0.375 0.375v0h23.25c0.207 0 0.375-0.168 0.375-0.375v0-0.625h3zM32.625 5h-23.25c-0.207 0-0.375 0.168-0.375 0.375v0 15.25c0 0.207 0.168 0.375 0.375 0.375v0h23.25c0.207 0 0.375-0.168 0.375-0.375v0-15.25c0-0.207-0.168-0.375-0.375-0.375v0zM33 2c1.657 0 3 1.343 3 3v16c0 1.657-1.343 3-3 3h-24c-1.657 0-3-1.343-3-3v-16c0-1.657 1.343-3 3-3h24zM16.5 9c0 1.381-1.119 2.5-2.5 2.5s-2.5-1.119-2.5-2.5 1.119-2.5 2.5-2.5 2.5 1.119 2.5 2.5zM12 15l2.47-2.47c0.293-0.293 0.768-0.293 1.061 0l2.47 2.47 6.47-6.47c0.293-0.293 0.768-0.293 1.061 0l4.47 4.47v5h-18v-3z"></path>
	</symbol>
	<symbol id="wsc-contactform-module" viewBox="0 0 32 32">
		<path d="M29 4h-26c-1.657 0-3 1.343-3 3v18c0 1.657 1.343 3 3 3h26c1.657 0 3-1.343 3-3v-18c0-1.657-1.343-3-3-3zM29 7v2.55c-1.401 1.141-3.636 2.916-8.412 6.656-1.053 0.828-3.138 2.817-4.588 2.794-1.45 0.023-3.536-1.966-4.588-2.794-4.775-3.739-7.010-5.514-8.412-6.656v-2.55h26zM3 25v-11.6c1.432 1.141 3.463 2.741 6.559 5.165 1.366 1.075 3.758 3.449 6.441 3.435 2.67 0.014 5.032-2.325 6.441-3.434 3.096-2.424 5.127-4.025 6.559-5.166v11.6h-26z"></path>
	</symbol>
	<symbol id="wsc-optinformv2-module" viewBox="0 0 32 32">
		<path d="M29 4h-26c-1.657 0-3 1.343-3 3v18c0 1.657 1.343 3 3 3h26c1.657 0 3-1.343 3-3v-18c0-1.657-1.343-3-3-3zM29 7v2.55c-1.401 1.141-3.636 2.916-8.412 6.656-1.053 0.828-3.138 2.817-4.588 2.794-1.45 0.023-3.536-1.966-4.588-2.794-4.775-3.739-7.010-5.514-8.412-6.656v-2.55h26zM3 25v-11.6c1.432 1.141 3.463 2.741 6.559 5.165 1.366 1.075 3.758 3.449 6.441 3.435 2.67 0.014 5.032-2.325 6.441-3.434 3.096-2.424 5.127-4.025 6.559-5.166v11.6h-26z"></path>
	</symbol>
	<symbol id="wsc-countdowntimers-module" viewBox="0 0 24 32">
		<path d="M23 3h0.25c0.414 0 0.75-0.336 0.75-0.75v-1.5c0-0.414-0.336-0.75-0.75-0.75h-22.5c-0.414 0-0.75 0.336-0.75 0.75v1.5c0 0.414 0.336 0.75 0.75 0.75h0.25c0 5.035 2.012 10.363 6.074 13-4.080 2.649-6.074 7.994-6.074 13h-0.25c-0.414 0-0.75 0.336-0.75 0.75v1.5c0 0.414 0.336 0.75 0.75 0.75h22.5c0.414 0 0.75-0.336 0.75-0.75v-1.5c0-0.414-0.336-0.75-0.75-0.75h-0.25c0-5.035-2.012-10.363-6.074-13 4.080-2.649 6.074-7.994 6.074-13zM4 3h16c0 6.351-3.582 11.5-8 11.5s-8-5.149-8-11.5zM20 29h-16c0-6.351 3.582-11.5 8-11.5s8 5.149 8 11.5z"></path>
	</symbol>
	<symbol id="wsc-counters-module" viewBox="0 0 28 32">
		<path d="M20.636 16.182c-1.661 0.465-2.947 1.735-3.429 3.351l-0.009 0.035c-0.892 3.191 1.324 6.111 4.302 6.408-0.375 0.318-0.805 0.589-1.27 0.794l-0.034 0.013c-0.473 0.212-0.675 0.779-0.511 1.271l0.619 1.25c0.179 0.539 0.783 0.843 1.306 0.619 3.625-1.547 5.391-3.851 5.391-8.25v-0.673c-0.001-3.201-3.025-5.709-6.366-4.818zM22 22.25c-0.69 0-1.25-0.56-1.25-1.25s0.56-1.25 1.25-1.25c0.69 0 1.25 0.56 1.25 1.25v0c0 0.69-0.56 1.25-1.25 1.25v0zM19 6h1v4h-1c-0.552 0-1 0.448-1 1v0 2c0 0.552 0.448 1 1 1v0h6c0.552 0 1-0.448 1-1v0-2c0-0.552-0.448-1-1-1v0h-1v-7c0-0.552-0.448-1-1-1v0h-3c-0.389 0-0.725 0.222-0.89 0.546l-0.003 0.006-1 2c-0.067 0.131-0.106 0.285-0.106 0.448 0 0.552 0.447 1 0.999 1h0zM6.707 2.293c-0.181-0.181-0.431-0.293-0.707-0.293s-0.526 0.112-0.707 0.293v0l-5 6c-0.627 0.628-0.182 1.707 0.707 1.707h3v19c0 0.552 0.448 1 1 1v0h2c0.552 0 1-0.448 1-1v0-19h3c0.888 0 1.336-1.078 0.707-1.707z"></path>
	</symbol>
	<symbol id="wsc-facebook-module" viewBox="0 0 20 32">
		<path d="M17.446 18l0.889-5.791h-5.557v-3.758c0-1.584 0.776-3.129 3.265-3.129h2.526v-4.931s-2.293-0.391-4.484-0.391c-4.576 0-7.567 2.774-7.567 7.795v4.414h-5.087v5.791h5.087v14h6.261v-14z"></path>
	</symbol>
	<symbol id="wsc-flickr-module" viewBox="0 0 28 32">
		<path d="M25 2h-22c-1.656 0-3 1.344-3 3v22c0 1.656 1.344 3 3 3h22c1.656 0 3-1.344 3-3v-22c0-1.656-1.344-3-3-3zM9.031 19.938c-2.194 0-3.969-1.775-3.969-3.969s1.775-3.969 3.969-3.969 3.969 1.775 3.969 3.969-1.775 3.969-3.969 3.969zM18.969 19.938c-2.194 0-3.969-1.775-3.969-3.969s1.775-3.969 3.969-3.969 3.969 1.775 3.969 3.969-1.775 3.969-3.969 3.969z"></path>
	</symbol>
	<symbol id="wsc-html-module" viewBox="0 0 40 32">
		<path d="M17.431 31.969l-3.813-1.106c-0.4-0.113-0.625-0.531-0.512-0.931l8.531-29.387c0.113-0.4 0.531-0.625 0.931-0.512l3.813 1.106c0.4 0.113 0.625 0.531 0.512 0.931l-8.531 29.387c-0.119 0.4-0.531 0.631-0.931 0.512zM10.306 24.956l2.719-2.9c0.287-0.306 0.269-0.794-0.050-1.075l-5.662-4.981 5.662-4.981c0.319-0.281 0.344-0.769 0.050-1.075l-2.719-2.9c-0.281-0.3-0.756-0.319-1.063-0.031l-9.006 8.438c-0.319 0.294-0.319 0.8 0 1.094l9.006 8.444c0.306 0.288 0.781 0.275 1.063-0.031zM30.756 24.994l9.006-8.444c0.319-0.294 0.319-0.8 0-1.094l-9.006-8.45c-0.3-0.281-0.775-0.269-1.063 0.031l-2.719 2.9c-0.288 0.306-0.269 0.794 0.050 1.075l5.662 4.987-5.663 4.981c-0.319 0.281-0.344 0.769-0.050 1.075l2.719 2.9c0.281 0.306 0.756 0.319 1.063 0.038z"></path>
	</symbol>
	<symbol id="wsc-instagram-module" viewBox="0 0 28 32">
		<path d="M14.006 8.813c-3.975 0-7.181 3.206-7.181 7.181s3.206 7.181 7.181 7.181 7.181-3.206 7.181-7.181-3.206-7.181-7.181-7.181zM14.006 20.663c-2.569 0-4.669-2.094-4.669-4.669s2.094-4.669 4.669-4.669 4.669 2.094 4.669 4.669-2.1 4.669-4.669 4.669zM23.156 8.519c0 0.931-0.75 1.675-1.675 1.675-0.931 0-1.675-0.75-1.675-1.675s0.75-1.675 1.675-1.675 1.675 0.75 1.675 1.675zM27.913 10.219c-0.106-2.244-0.619-4.231-2.262-5.869-1.637-1.638-3.625-2.15-5.869-2.263-2.313-0.131-9.244-0.131-11.556 0-2.237 0.106-4.225 0.619-5.869 2.256s-2.15 3.625-2.263 5.869c-0.131 2.313-0.131 9.244 0 11.556 0.106 2.244 0.619 4.231 2.263 5.869s3.625 2.15 5.869 2.262c2.313 0.131 9.244 0.131 11.556 0 2.244-0.106 4.231-0.619 5.869-2.262 1.637-1.637 2.15-3.625 2.262-5.869 0.131-2.313 0.131-9.238 0-11.55zM24.925 24.25c-0.488 1.225-1.431 2.169-2.663 2.663-1.844 0.731-6.219 0.563-8.256 0.563s-6.419 0.163-8.256-0.563c-1.225-0.488-2.169-1.431-2.663-2.663-0.731-1.844-0.563-6.219-0.563-8.256s-0.163-6.419 0.563-8.256c0.487-1.225 1.431-2.169 2.663-2.662 1.844-0.731 6.219-0.563 8.256-0.563s6.419-0.162 8.256 0.563c1.225 0.487 2.169 1.431 2.663 2.662 0.731 1.844 0.563 6.219 0.563 8.256s0.169 6.419-0.563 8.256z"></path>
	</symbol>
	<symbol id="wsc-lists-module" viewBox="0 0 32 32">
		<path d="M3 3c-1.657 0-3 1.343-3 3s1.343 3 3 3c1.657 0 3-1.343 3-3v0c0-1.657-1.343-3-3-3v0zM3 13c-1.657 0-3 1.343-3 3s1.343 3 3 3c1.657 0 3-1.343 3-3v0c0-1.657-1.343-3-3-3v0zM3 23c-1.657 0-3 1.343-3 3s1.343 3 3 3c1.657 0 3-1.343 3-3v0c0-1.657-1.343-3-3-3v0zM31 24h-20c-0.552 0-1 0.448-1 1v0 2c0 0.552 0.448 1 1 1v0h20c0.552 0 1-0.448 1-1v0-2c0-0.552-0.448-1-1-1v0zM31 4h-20c-0.552 0-1 0.448-1 1v0 2c0 0.552 0.448 1 1 1v0h20c0.552 0 1-0.448 1-1v0-2c0-0.552-0.448-1-1-1v0zM31 14h-20c-0.552 0-1 0.448-1 1v0 2c0 0.552 0.448 1 1 1v0h20c0.552 0 1-0.448 1-1v0-2c0-0.552-0.448-1-1-1v0z"></path>
	</symbol>
	<symbol id="wsc-menu-module" viewBox="0 0 28 32">
		<path d="M1 8.25h26c0.552 0 1-0.448 1-1v-2.5c0-0.552-0.448-1-1-1h-26c-0.552 0-1 0.448-1 1v2.5c0 0.552 0.448 1 1 1zM1 18.25h26c0.552 0 1-0.448 1-1v-2.5c0-0.552-0.448-1-1-1h-26c-0.552 0-1 0.448-1 1v2.5c0 0.552 0.448 1 1 1zM1 28.25h26c0.552 0 1-0.448 1-1v-2.5c0-0.552-0.448-1-1-1h-26c-0.552 0-1 0.448-1 1v2.5c0 0.552 0.448 1 1 1z"></path>
	</symbol>
	<symbol id="wsc-testimonials2-module" viewBox="0 0 32 32">
		<path d="M29 2h-8c-1.656 0-3 1.344-3 3v8c0 1.656 1.344 3 3 3h5v4c0 2.206-1.794 4-4 4h-0.5c-0.831 0-1.5 0.669-1.5 1.5v3c0 0.831 0.669 1.5 1.5 1.5h0.5c5.525 0 10-4.475 10-10v-15c0-1.656-1.344-3-3-3zM11 2h-8c-1.656 0-3 1.344-3 3v8c0 1.656 1.344 3 3 3h5v4c0 2.206-1.794 4-4 4h-0.5c-0.831 0-1.5 0.669-1.5 1.5v3c0 0.831 0.669 1.5 1.5 1.5h0.5c5.525 0 10-4.475 10-10v-15c0-1.656-1.344-3-3-3z"></path>
	</symbol>
	<symbol id="wsc-minitestimonials2-module" viewBox="0 0 32 32">
		<path d="M29 2h-8c-1.656 0-3 1.344-3 3v8c0 1.656 1.344 3 3 3h5v4c0 2.206-1.794 4-4 4h-0.5c-0.831 0-1.5 0.669-1.5 1.5v3c0 0.831 0.669 1.5 1.5 1.5h0.5c5.525 0 10-4.475 10-10v-15c0-1.656-1.344-3-3-3zM11 2h-8c-1.656 0-3 1.344-3 3v8c0 1.656 1.344 3 3 3h5v4c0 2.206-1.794 4-4 4h-0.5c-0.831 0-1.5 0.669-1.5 1.5v3c0 0.831 0.669 1.5 1.5 1.5h0.5c5.525 0 10-4.475 10-10v-15c0-1.656-1.344-3-3-3z"></path>
	</symbol>
	<symbol id="wsc-testimonials-module" viewBox="0 0 32 32">
		<path d="M29 2h-8c-1.656 0-3 1.344-3 3v8c0 1.656 1.344 3 3 3h5v4c0 2.206-1.794 4-4 4h-0.5c-0.831 0-1.5 0.669-1.5 1.5v3c0 0.831 0.669 1.5 1.5 1.5h0.5c5.525 0 10-4.475 10-10v-15c0-1.656-1.344-3-3-3zM11 2h-8c-1.656 0-3 1.344-3 3v8c0 1.656 1.344 3 3 3h5v4c0 2.206-1.794 4-4 4h-0.5c-0.831 0-1.5 0.669-1.5 1.5v3c0 0.831 0.669 1.5 1.5 1.5h0.5c5.525 0 10-4.475 10-10v-15c0-1.656-1.344-3-3-3z"></path>
	</symbol>
	<symbol id="wsc-minitestimonials-module" viewBox="0 0 32 32">
		<path d="M29 2h-8c-1.656 0-3 1.344-3 3v8c0 1.656 1.344 3 3 3h5v4c0 2.206-1.794 4-4 4h-0.5c-0.831 0-1.5 0.669-1.5 1.5v3c0 0.831 0.669 1.5 1.5 1.5h0.5c5.525 0 10-4.475 10-10v-15c0-1.656-1.344-3-3-3zM11 2h-8c-1.656 0-3 1.344-3 3v8c0 1.656 1.344 3 3 3h5v4c0 2.206-1.794 4-4 4h-0.5c-0.831 0-1.5 0.669-1.5 1.5v3c0 0.831 0.669 1.5 1.5 1.5h0.5c5.525 0 10-4.475 10-10v-15c0-1.656-1.344-3-3-3z"></path>
	</symbol>
	<symbol id="wsc-testimonialscarousel-module" viewBox="0 0 32 32">
		<path d="M29 2h-8c-1.656 0-3 1.344-3 3v8c0 1.656 1.344 3 3 3h5v4c0 2.206-1.794 4-4 4h-0.5c-0.831 0-1.5 0.669-1.5 1.5v3c0 0.831 0.669 1.5 1.5 1.5h0.5c5.525 0 10-4.475 10-10v-15c0-1.656-1.344-3-3-3zM11 2h-8c-1.656 0-3 1.344-3 3v8c0 1.656 1.344 3 3 3h5v4c0 2.206-1.794 4-4 4h-0.5c-0.831 0-1.5 0.669-1.5 1.5v3c0 0.831 0.669 1.5 1.5 1.5h0.5c5.525 0 10-4.475 10-10v-15c0-1.656-1.344-3-3-3z"></path>
	</symbol>
	<symbol id="wsc-photocards-module" viewBox="0 0 36 32">
		<path d="M30 26v1c0 1.657-1.343 3-3 3h-24c-1.657 0-3-1.343-3-3v-16c0-1.657 1.343-3 3-3h1v3h-0.625c-0.207 0-0.375 0.168-0.375 0.375v0 15.25c0 0.207 0.168 0.375 0.375 0.375v0h23.25c0.207 0 0.375-0.168 0.375-0.375v0-0.625h3zM32.625 5h-23.25c-0.207 0-0.375 0.168-0.375 0.375v0 15.25c0 0.207 0.168 0.375 0.375 0.375v0h23.25c0.207 0 0.375-0.168 0.375-0.375v0-15.25c0-0.207-0.168-0.375-0.375-0.375v0zM33 2c1.657 0 3 1.343 3 3v16c0 1.657-1.343 3-3 3h-24c-1.657 0-3-1.343-3-3v-16c0-1.657 1.343-3 3-3h24zM16.5 9c0 1.381-1.119 2.5-2.5 2.5s-2.5-1.119-2.5-2.5 1.119-2.5 2.5-2.5 2.5 1.119 2.5 2.5zM12 15l2.47-2.47c0.293-0.293 0.768-0.293 1.061 0l2.47 2.47 6.47-6.47c0.293-0.293 0.768-0.293 1.061 0l4.47 4.47v5h-18v-3z"></path>
	</symbol>
	<symbol id="wsc-piecharts-module" viewBox="0 0 34 32">
		<path d="M32.987 18h-14.831l9.877 9.877c0.378 0.378 0.999 0.408 1.387 0.043 2.419-2.279 4.082-5.351 4.571-8.804 0.084-0.591-0.407-1.116-1.004-1.116zM31.997 13.95c-0.515-7.466-6.481-13.432-13.948-13.947-0.57-0.039-1.050 0.441-1.050 1.012v13.985h13.986c0.571 0 1.051-0.48 1.012-1.050zM14 18v-14.831c0-0.597-0.524-1.087-1.115-1.004-7.448 1.053-13.141 7.559-12.876 15.357 0.273 8.009 7.168 14.576 15.181 14.476 3.15-0.039 6.061-1.054 8.454-2.752 0.494-0.35 0.526-1.077 0.098-1.505l-9.741-9.742z"></path>
	</symbol>
	<symbol id="wsc-pricingtables-module" viewBox="0 0 18 32">
		<path d="M13.075 14.588l-6.75-1.975c-0.781-0.225-1.325-0.956-1.325-1.769 0-1.019 0.825-1.844 1.844-1.844h4.144c0.762 0 1.512 0.231 2.138 0.656 0.381 0.256 0.894 0.194 1.219-0.125l2.175-2.125c0.444-0.431 0.381-1.15-0.113-1.531-1.531-1.2-3.444-1.869-5.406-1.875v-3c0-0.55-0.45-1-1-1h-2c-0.55 0-1 0.45-1 1v3h-0.156c-3.981 0-7.181 3.419-6.813 7.475 0.263 2.881 2.462 5.225 5.237 6.037l6.406 1.875c0.781 0.231 1.325 0.956 1.325 1.769 0 1.019-0.825 1.844-1.844 1.844h-4.144c-0.763 0-1.513-0.231-2.138-0.656-0.381-0.256-0.894-0.194-1.219 0.125l-2.175 2.125c-0.444 0.431-0.381 1.15 0.113 1.531 1.531 1.2 3.444 1.869 5.406 1.875v3c0 0.55 0.45 1 1 1h2c0.55 0 1-0.45 1-1v-3.012c2.912-0.056 5.644-1.788 6.606-4.544 1.344-3.85-0.913-7.8-4.531-8.856z"></path>
	</symbol>
	<symbol id="wsc-productlist-module" viewBox="0 0 36 32">
		<path d="M33.008 18.832l2.955-13c0.213-0.939-0.5-1.832-1.463-1.832h-24.549l-0.573-2.801c-0.143-0.698-0.757-1.199-1.47-1.199h-6.408c-0.828 0-1.5 0.672-1.5 1.5v1c0 0.828 0.672 1.5 1.5 1.5h4.368l4.391 21.465c-1.050 0.604-1.758 1.737-1.758 3.035 0 1.933 1.567 3.5 3.5 3.5s3.5-1.567 3.5-3.5c0-0.98-0.403-1.865-1.052-2.5h13.103c-0.648 0.635-1.051 1.52-1.051 2.5 0 1.933 1.567 3.5 3.5 3.5s3.5-1.567 3.5-3.5c0-1.386-0.806-2.583-1.974-3.15l0.345-1.517c0.213-0.939-0.5-1.832-1.463-1.832h-16.776l-0.409-2h18.322c0.7 0 1.307-0.485 1.463-1.168z"></path>
	</symbol>
	<symbol id="wsc-progressbars-module" viewBox="0 0 32 32">
		<path d="M8.726 2.219c-0.136-0.136-0.324-0.221-0.531-0.221s-0.395 0.084-0.531 0.221l-0 0-3.98 3.957-1.419-1.383c-0.136-0.136-0.324-0.221-0.531-0.221s-0.395 0.084-0.531 0.221l-0 0-0.981 0.982c-0.136 0.136-0.221 0.324-0.221 0.531s0.084 0.395 0.221 0.531l2.974 2.963c0.143 0.136 0.337 0.22 0.55 0.22s0.407-0.084 0.551-0.22l-0 0 0.974-0.976 4.513-4.512c0.137-0.137 0.221-0.326 0.221-0.534 0-0.206-0.082-0.392-0.216-0.529l0 0zM8.726 12.168c-0.136-0.136-0.324-0.221-0.531-0.221s-0.395 0.084-0.531 0.221l-3.98 3.983-1.419-1.381c-0.136-0.136-0.324-0.221-0.531-0.221s-0.395 0.084-0.531 0.221l-0.981 0.981c-0.136 0.136-0.221 0.324-0.221 0.531s0.084 0.395 0.221 0.531l2.967 2.969c0.143 0.136 0.337 0.22 0.55 0.22s0.407-0.084 0.55-0.22l5.493-5.494c0.136-0.136 0.22-0.324 0.22-0.531 0-0.205-0.082-0.39-0.215-0.525l0 0zM4 23c-1.656 0-3.037 1.344-3.037 3s1.383 3 3.037 3c1.657 0 3-1.343 3-3s-1.343-3-3-3v0zM31 24h-18c-0.552 0-1 0.448-1 1v0 2c0 0.552 0.448 1 1 1v0h18c0.552 0 1-0.448 1-1v0-2c0-0.552-0.448-1-1-1v0zM31 4h-18c-0.552 0-1 0.448-1 1v0 2c0 0.552 0.448 1 1 1v0h18c0.552 0 1-0.448 1-1v0-2c0-0.552-0.448-1-1-1v0zM31 14h-18c-0.552 0-1 0.448-1 1v0 2c0 0.552 0.448 1 1 1v0h18c0.552 0 1-0.448 1-1v0-2c0-0.552-0.448-1-1-1v0z"></path>
	</symbol>
	<symbol id="wsc-separators-module" viewBox="0 0 28 32">
		<path d="M14 22c-2.209 0-4 1.791-4 4s1.791 4 4 4 4-1.791 4-4-1.791-4-4-4zM14 10c2.209 0 4-1.791 4-4s-1.791-4-4-4-4 1.791-4 4 1.791 4 4 4zM26 13h-24c-1.104 0-2 0.896-2 2v2c0 1.104 0.896 2 2 2h24c1.104 0 2-0.896 2-2v-2c0-1.104-0.896-2-2-2z"></path>
	</symbol>
	<symbol id="wsc-shopcarousel-module" viewBox="0 0 36 32">
		<path d="M33.008 18.832l2.955-13c0.213-0.939-0.5-1.832-1.463-1.832h-24.549l-0.573-2.801c-0.143-0.698-0.757-1.199-1.47-1.199h-6.408c-0.828 0-1.5 0.672-1.5 1.5v1c0 0.828 0.672 1.5 1.5 1.5h4.368l4.391 21.465c-1.050 0.604-1.758 1.737-1.758 3.035 0 1.933 1.567 3.5 3.5 3.5s3.5-1.567 3.5-3.5c0-0.98-0.403-1.865-1.052-2.5h13.103c-0.648 0.635-1.051 1.52-1.051 2.5 0 1.933 1.567 3.5 3.5 3.5s3.5-1.567 3.5-3.5c0-1.386-0.806-2.583-1.974-3.15l0.345-1.517c0.213-0.939-0.5-1.832-1.463-1.832h-16.776l-0.409-2h18.322c0.7 0 1.307-0.485 1.463-1.168z"></path>
	</symbol>
	<symbol id="wsc-shopcategories-module" viewBox="0 0 36 32">
		<path d="M33.008 18.832l2.955-13c0.213-0.939-0.5-1.832-1.463-1.832h-24.549l-0.573-2.801c-0.143-0.698-0.757-1.199-1.47-1.199h-6.408c-0.828 0-1.5 0.672-1.5 1.5v1c0 0.828 0.672 1.5 1.5 1.5h4.368l4.391 21.465c-1.050 0.604-1.758 1.737-1.758 3.035 0 1.933 1.567 3.5 3.5 3.5s3.5-1.567 3.5-3.5c0-0.98-0.403-1.865-1.052-2.5h13.103c-0.648 0.635-1.051 1.52-1.051 2.5 0 1.933 1.567 3.5 3.5 3.5s3.5-1.567 3.5-3.5c0-1.386-0.806-2.583-1.974-3.15l0.345-1.517c0.213-0.939-0.5-1.832-1.463-1.832h-16.776l-0.409-2h18.322c0.7 0 1.307-0.485 1.463-1.168z"></path>
	</symbol>
	<symbol id="wsc-shopcategoriescarousel-module" viewBox="0 0 36 32">
		<path d="M33.008 18.832l2.955-13c0.213-0.939-0.5-1.832-1.463-1.832h-24.549l-0.573-2.801c-0.143-0.698-0.757-1.199-1.47-1.199h-6.408c-0.828 0-1.5 0.672-1.5 1.5v1c0 0.828 0.672 1.5 1.5 1.5h4.368l4.391 21.465c-1.050 0.604-1.758 1.737-1.758 3.035 0 1.933 1.567 3.5 3.5 3.5s3.5-1.567 3.5-3.5c0-0.98-0.403-1.865-1.052-2.5h13.103c-0.648 0.635-1.051 1.52-1.051 2.5 0 1.933 1.567 3.5 3.5 3.5s3.5-1.567 3.5-3.5c0-1.386-0.806-2.583-1.974-3.15l0.345-1.517c0.213-0.939-0.5-1.832-1.463-1.832h-16.776l-0.409-2h18.322c0.7 0 1.307-0.485 1.463-1.168z"></path>
	</symbol>
	<symbol id="wsc-shopproducts-module" viewBox="0 0 36 32">
		<path d="M33.008 18.832l2.955-13c0.213-0.939-0.5-1.832-1.463-1.832h-24.549l-0.573-2.801c-0.143-0.698-0.757-1.199-1.47-1.199h-6.408c-0.828 0-1.5 0.672-1.5 1.5v1c0 0.828 0.672 1.5 1.5 1.5h4.368l4.391 21.465c-1.050 0.604-1.758 1.737-1.758 3.035 0 1.933 1.567 3.5 3.5 3.5s3.5-1.567 3.5-3.5c0-0.98-0.403-1.865-1.052-2.5h13.103c-0.648 0.635-1.051 1.52-1.051 2.5 0 1.933 1.567 3.5 3.5 3.5s3.5-1.567 3.5-3.5c0-1.386-0.806-2.583-1.974-3.15l0.345-1.517c0.213-0.939-0.5-1.832-1.463-1.832h-16.776l-0.409-2h18.322c0.7 0 1.307-0.485 1.463-1.168z"></path>
	</symbol>
	<symbol id="wsc-shopproductscarousel-module" viewBox="0 0 36 32">
		<path d="M33.008 18.832l2.955-13c0.213-0.939-0.5-1.832-1.463-1.832h-24.549l-0.573-2.801c-0.143-0.698-0.757-1.199-1.47-1.199h-6.408c-0.828 0-1.5 0.672-1.5 1.5v1c0 0.828 0.672 1.5 1.5 1.5h4.368l4.391 21.465c-1.050 0.604-1.758 1.737-1.758 3.035 0 1.933 1.567 3.5 3.5 3.5s3.5-1.567 3.5-3.5c0-0.98-0.403-1.865-1.052-2.5h13.103c-0.648 0.635-1.051 1.52-1.051 2.5 0 1.933 1.567 3.5 3.5 3.5s3.5-1.567 3.5-3.5c0-1.386-0.806-2.583-1.974-3.15l0.345-1.517c0.213-0.939-0.5-1.832-1.463-1.832h-16.776l-0.409-2h18.322c0.7 0 1.307-0.485 1.463-1.168z"></path>
	</symbol>
	<symbol id="wsc-slider-module" viewBox="0 0 36 32">
		<path d="M30 26v1c0 1.657-1.343 3-3 3h-24c-1.657 0-3-1.343-3-3v-16c0-1.657 1.343-3 3-3h1v3h-0.625c-0.207 0-0.375 0.168-0.375 0.375v0 15.25c0 0.207 0.168 0.375 0.375 0.375v0h23.25c0.207 0 0.375-0.168 0.375-0.375v0-0.625h3zM32.625 5h-23.25c-0.207 0-0.375 0.168-0.375 0.375v0 15.25c0 0.207 0.168 0.375 0.375 0.375v0h23.25c0.207 0 0.375-0.168 0.375-0.375v0-15.25c0-0.207-0.168-0.375-0.375-0.375v0zM33 2c1.657 0 3 1.343 3 3v16c0 1.657-1.343 3-3 3h-24c-1.657 0-3-1.343-3-3v-16c0-1.657 1.343-3 3-3h24zM16.5 9c0 1.381-1.119 2.5-2.5 2.5s-2.5-1.119-2.5-2.5 1.119-2.5 2.5-2.5 2.5 1.119 2.5 2.5zM12 15l2.47-2.47c0.293-0.293 0.768-0.293 1.061 0l2.47 2.47 6.47-6.47c0.293-0.293 0.768-0.293 1.061 0l4.47 4.47v5h-18v-3z"></path>
	</symbol>
	<symbol id="wsc-socialicons-module" viewBox="0 0 28 32">
		<path d="M22 20c-1.413 0-2.712 0.489-3.737 1.306l-6.405-4.003c0.090-0.391 0.142-0.841 0.142-1.303s-0.052-0.911-0.15-1.343l0.008 0.040 6.405-4.003c1.025 0.817 2.324 1.306 3.737 1.306 3.314 0 6-2.686 6-6s-2.686-6-6-6-6 2.686-6 6c0 0.447 0.049 0.883 0.142 1.303l-6.405 4.003c-1.025-0.817-2.324-1.306-3.737-1.306-3.314 0-6 2.686-6 6s2.686 6 6 6c1.413 0 2.712-0.489 3.737-1.306l6.405 4.003c-0.090 0.391-0.142 0.84-0.142 1.301 0 0.001 0 0.001 0 0.002v-0c0 3.314 2.686 6 6 6s6-2.686 6-6-2.686-6-6-6z"></path>
	</symbol>
	<symbol id="wsc-tabs-module" viewBox="0 0 32 32">
		<path d="M29 8h-12l-3.414-3.414c-0.375-0.375-0.884-0.586-1.414-0.586h-9.171c-1.657 0-3 1.343-3 3v18c0 1.657 1.343 3 3 3h26c1.657 0 3-1.343 3-3v-14c0-1.657-1.343-3-3-3zM29 25h-26v-18h8.758l3.414 3.414c0.375 0.375 0.884 0.586 1.414 0.586h12.414v14z"></path>
	</symbol>
	<symbol id="wsc-teammembers-module" viewBox="0 0 28 32">
		<path d="M19.6 19c-1.794 0-2.656 1-5.6 1s-3.8-1-5.6-1c-4.638 0-8.4 3.762-8.4 8.4v1.6c0 1.656 1.344 3 3 3h22c1.656 0 3-1.344 3-3v-1.6c0-4.637-3.762-8.4-8.4-8.4zM25 29h-22v-1.6c0-2.975 2.425-5.4 5.4-5.4 0.912 0 2.394 1 5.6 1 3.231 0 4.681-1 5.6-1 2.975 0 5.4 2.425 5.4 5.4v1.6zM14 18c4.969 0 9-4.031 9-9s-4.031-9-9-9-9 4.031-9 9 4.031 9 9 9zM14 3c3.306 0 6 2.694 6 6s-2.694 6-6 6-6-2.694-6-6 2.694-6 6-6z"></path>
	</symbol>
	<symbol id="wsc-teammemberscarousel-module" viewBox="0 0 28 32">
		<path d="M19.6 19c-1.794 0-2.656 1-5.6 1s-3.8-1-5.6-1c-4.638 0-8.4 3.762-8.4 8.4v1.6c0 1.656 1.344 3 3 3h22c1.656 0 3-1.344 3-3v-1.6c0-4.637-3.762-8.4-8.4-8.4zM25 29h-22v-1.6c0-2.975 2.425-5.4 5.4-5.4 0.912 0 2.394 1 5.6 1 3.231 0 4.681-1 5.6-1 2.975 0 5.4 2.425 5.4 5.4v1.6zM14 18c4.969 0 9-4.031 9-9s-4.031-9-9-9-9 4.031-9 9 4.031 9 9 9zM14 3c3.306 0 6 2.694 6 6s-2.694 6-6 6-6-2.694-6-6 2.694-6 6-6z"></path>
	</symbol>
	<symbol id="wsc-toggleaccordion-module" viewBox="0 0 28 32">
		<path d="M1 8.25h26c0.552 0 1-0.448 1-1v-2.5c0-0.552-0.448-1-1-1h-26c-0.552 0-1 0.448-1 1v2.5c0 0.552 0.448 1 1 1zM1 18.25h26c0.552 0 1-0.448 1-1v-2.5c0-0.552-0.448-1-1-1h-26c-0.552 0-1 0.448-1 1v2.5c0 0.552 0.448 1 1 1zM1 28.25h26c0.552 0 1-0.448 1-1v-2.5c0-0.552-0.448-1-1-1h-26c-0.552 0-1 0.448-1 1v2.5c0 0.552 0.448 1 1 1z"></path>
	</symbol>
	<symbol id="wsc-twitter-module" viewBox="0 0 32 32">
		<path d="M28.711 9.482c0.020 0.284 0.020 0.569 0.020 0.853 0 8.67-6.599 18.66-18.66 18.66-3.716 0-7.168-1.076-10.071-2.944 0.528 0.061 1.036 0.081 1.584 0.081 3.066 0 5.888-1.035 8.142-2.802-2.883-0.061-5.3-1.949-6.132-4.548 0.406 0.061 0.812 0.102 1.239 0.102 0.589 0 1.178-0.081 1.726-0.223-3.005-0.609-5.259-3.249-5.259-6.437v-0.081c0.873 0.487 1.888 0.792 2.964 0.832-1.766-1.178-2.924-3.188-2.924-5.462 0-1.218 0.325-2.335 0.893-3.31 3.228 3.98 8.081 6.579 13.523 6.863-0.101-0.487-0.162-0.995-0.162-1.502 0-3.614 2.924-6.558 6.558-6.558 1.888 0 3.594 0.792 4.792 2.071 1.482-0.284 2.904-0.832 4.162-1.584-0.487 1.523-1.523 2.802-2.883 3.614 1.32-0.142 2.599-0.508 3.777-1.015-0.893 1.299-2.010 2.457-3.289 3.391z"></path>
	</symbol>
	<symbol id="wsc-unsubscribe-module" viewBox="0 0 32 32">
		<path d="M29 4h-26c-1.657 0-3 1.343-3 3v18c0 1.657 1.343 3 3 3h26c1.657 0 3-1.343 3-3v-18c0-1.657-1.343-3-3-3zM29 7v2.55c-1.401 1.141-3.636 2.916-8.412 6.656-1.053 0.828-3.138 2.817-4.588 2.794-1.45 0.023-3.536-1.966-4.588-2.794-4.775-3.739-7.010-5.514-8.412-6.656v-2.55h26zM3 25v-11.6c1.432 1.141 3.463 2.741 6.559 5.165 1.366 1.075 3.758 3.449 6.441 3.435 2.67 0.014 5.032-2.325 6.441-3.434 3.096-2.424 5.127-4.025 6.559-5.166v11.6h-26z"></path>
	</symbol>
	<symbol id="wsc-videocarousel-module" viewBox="0 0 32 32">
		<path d="M23.231 14.875l-11-6.688c-0.988-0.55-2.231 0.156-2.231 1.313v13c0 1.15 1.238 1.863 2.231 1.313l11-6.313c1.025-0.569 1.025-2.050 0-2.625zM31.5 16c0-8.563-6.938-15.5-15.5-15.5s-15.5 6.938-15.5 15.5 6.938 15.5 15.5 15.5 15.5-6.938 15.5-15.5zM3.5 16c0-6.906 5.594-12.5 12.5-12.5s12.5 5.594 12.5 12.5-5.594 12.5-12.5 12.5-12.5-5.594-12.5-12.5z"></path>
	</symbol>
	<symbol id="wsc-blogdetail-module" viewBox="0 0 32 32">
		<path d="M10.762 14.175c-0.912-0.181-1.762 0.556-1.762 1.488v3.15c0 0.637 0.444 1.15 1.044 1.375 1.137 0.425 1.956 1.525 1.956 2.813 0 1.656-1.344 3-3 3s-3-1.344-3-3v-15.5c0-0.831-0.669-1.5-1.5-1.5h-3c-0.831 0-1.5 0.669-1.5 1.5v15.5c0 5.594 5.131 10.013 10.938 8.794 3.4-0.712 6.144-3.462 6.856-6.856 1.087-5.181-2.313-9.825-7.031-10.762zM13.063 0c-0.575-0.031-1.063 0.425-1.063 1v1.975c0 0.531 0.412 0.969 0.938 0.994 8.087 0.438 14.587 7 15.056 15.094 0.031 0.525 0.469 0.938 0.994 0.938h2.006c0.575 0 1.031-0.488 1-1.063-0.531-10.2-8.731-18.4-18.931-18.938zM13.081 6c-0.581-0.044-1.081 0.419-1.081 1.006v2.006c0 0.525 0.406 0.956 0.925 0.994 4.8 0.394 8.625 4.263 9.056 9.075 0.050 0.519 0.475 0.919 0.994 0.919h2.012c0.581 0 1.050-0.5 1.006-1.081-0.525-6.881-6.031-12.387-12.912-12.919z"></path>
	</symbol>
	<symbol id="wsc-bloglist-module" viewBox="0 0 32 32">
		<path d="M10.762 14.175c-0.912-0.181-1.762 0.556-1.762 1.488v3.15c0 0.637 0.444 1.15 1.044 1.375 1.137 0.425 1.956 1.525 1.956 2.813 0 1.656-1.344 3-3 3s-3-1.344-3-3v-15.5c0-0.831-0.669-1.5-1.5-1.5h-3c-0.831 0-1.5 0.669-1.5 1.5v15.5c0 5.594 5.131 10.013 10.938 8.794 3.4-0.712 6.144-3.462 6.856-6.856 1.087-5.181-2.313-9.825-7.031-10.762zM13.063 0c-0.575-0.031-1.063 0.425-1.063 1v1.975c0 0.531 0.412 0.969 0.938 0.994 8.087 0.438 14.587 7 15.056 15.094 0.031 0.525 0.469 0.938 0.994 0.938h2.006c0.575 0 1.031-0.488 1-1.063-0.531-10.2-8.731-18.4-18.931-18.938zM13.081 6c-0.581-0.044-1.081 0.419-1.081 1.006v2.006c0 0.525 0.406 0.956 0.925 0.994 4.8 0.394 8.625 4.263 9.056 9.075 0.050 0.519 0.475 0.919 0.994 0.919h2.012c0.581 0 1.050-0.5 1.006-1.081-0.525-6.881-6.031-12.387-12.912-12.919z"></path>
	</symbol>
	<symbol id="wsc-cart-light" viewBox="0 0 36 32">
		<path d="M33.008 18.832l2.955-13c0.213-0.939-0.5-1.832-1.463-1.832h-24.549l-0.573-2.801c-0.143-0.698-0.757-1.199-1.47-1.199h-6.408c-0.828 0-1.5 0.672-1.5 1.5v1c0 0.828 0.672 1.5 1.5 1.5h4.368l4.391 21.465c-1.050 0.604-1.758 1.737-1.758 3.035 0 1.933 1.567 3.5 3.5 3.5s3.5-1.567 3.5-3.5c0-0.98-0.403-1.865-1.052-2.5h13.103c-0.648 0.635-1.051 1.52-1.051 2.5 0 1.933 1.567 3.5 3.5 3.5s3.5-1.567 3.5-3.5c0-1.386-0.806-2.583-1.974-3.15l0.345-1.517c0.213-0.939-0.5-1.832-1.463-1.832h-16.776l-0.409-2h18.322c0.7 0 1.307-0.485 1.463-1.168z"></path>
	</symbol>
	<symbol id="wsc-layout-block" viewBox="0 0 28 32">
		<path d="M26 2h-24c-1.105 0-2 0.895-2 2v0 24c0 1.105 0.895 2 2 2v0h24c1.105 0 2-0.895 2-2v0-24c0-1.105-0.895-2-2-2v0zM24 6v8h-8v-8zM12 6v8h-8v-8zM4 26v-8h8v8zM16 26v-8h8v8z"></path>
	</symbol>

	<symbol id="wsc-layout-row" viewBox="0 0 32 32">
		<path opacity="0.298347" d="M14.545 2.909h2.909v26.182h-2.909v-26.182z"></path>
		<path d="M29.091 5.818v20.364h-26.182v-20.364h26.182zM32 5.091v-2.182h-32v26.182h32v-24z"></path>
	</symbol>

	<symbol id="wsc-layout-column" viewBox="0 0 32 32">
		<path d="M0 2.909h14.545v2.909h-14.545v-2.909z"></path>
		<path d="M0 26.182h14.545v2.909h-14.545v-2.909z"></path>
		<path opacity="0.302734" d="M32 4.364v24.727h-14.545v-26.182h14.545v1.455zM29.091 5.818h-8.727v20.364h8.727v-20.364z"></path>
		<path d="M0 2.909h2.909v26.182h-2.909v-26.182z"></path>
		<path d="M11.636 2.909h2.909v26.182h-2.909v-26.182z"></path>
	</symbol>

	<symbol id="wsc-vertical-grip" viewBox="0 0 320 512">
		<g>
			<path d="M96 32H32C14.33 32 0 46.33 0 64v64c0 17.67 14.33 32 32 32h64c17.67 0 32-14.33 32-32V64c0-17.67-14.33-32-32-32zm0 160H32c-17.67 0-32 14.33-32 32v64c0 17.67 14.33 32 32 32h64c17.67 0 32-14.33 32-32v-64c0-17.67-14.33-32-32-32zm0 160H32c-17.67 0-32 14.33-32 32v64c0 17.67 14.33 32 32 32h64c17.67 0 32-14.33 32-32v-64c0-17.67-14.33-32-32-32zM288 32h-64c-17.67 0-32 14.33-32 32v64c0 17.67 14.33 32 32 32h64c17.67 0 32-14.33 32-32V64c0-17.67-14.33-32-32-32zm0 160h-64c-17.67 0-32 14.33-32 32v64c0 17.67 14.33 32 32 32h64c17.67 0 32-14.33 32-32v-64c0-17.67-14.33-32-32-32zm0 160h-64c-17.67 0-32 14.33-32 32v64c0 17.67 14.33 32 32 32h64c17.67 0 32-14.33 32-32v-64c0-17.67-14.33-32-32-32z"/>
		</g>
	</symbol>
	<svg id="icon-large" viewBox="0 0 16 16">
		<g>
			<g fill="currentColor">
				<path fill-rule="nonzero" fill="currentColor" stroke="none" stroke-width="1" d="M11.392 13v-2.06H6.94V3H4.683v10z"></path>
			</g>
		</g>
	</svg>
	<svg id="icon-medium" viewBox="0 0 16 16">
		<g>
			<g fill="currentColor">
				<path fill-rule="nonzero" fill="currentColor" stroke="none" stroke-width="1" d="M13.544 13V3h-3.067L7.992 9.288 5.508 3H2.456v10h2.178V5.731L7.517 13h.95l2.884-7.269V13z"></path>
			</g>
		</g>
	</svg>
	<svg id="icon-small" viewBox="0 0 16 16">
		<g>
			<g fill="currentColor">
				<path d="M8.01 13.004c2.598 0 3.876-1.336 3.876-3.107 0-3.616-5.561-2.585-5.561-4.11 0-.58.494-.958 1.365-.958.987 0 2.032.334 2.816 1.06l1.147-1.539C10.695 3.465 9.418 3 7.88 3c-2.28 0-3.674 1.336-3.674 2.947 0 3.645 5.576 2.469 5.576 4.153 0 .566-.538 1.074-1.685 1.074a4.255 4.255 0 0 1-3.078-1.321l-1.132 1.612c.915.914 2.25 1.539 4.123 1.539z" fill-rule="nonzero" fill="currentColor" stroke="none" stroke-width="1"></path>
			</g>
		</g>
	</svg>
	<svg id="icon-more" viewBox="0 0 16 16">
		<g>
			<g fill="currentColor">
				<circle data-color="color-2" cx="8" cy="8" r="2"></circle>
				<circle fill="currentColor" cx="2" cy="8" r="2"></circle>
				<circle fill="currentColor" cx="14" cy="8" r="2"></circle>
			</g>
		</g>
	</svg>
	<svg id="icon-outline" viewBox="0 0 16 16">
		<g>
			<g fill="currentColor">
				<circle cx="8" cy="8" r="4" stroke-width="2" stroke="currentColor" fill="none" fill-rule="evenodd"></circle>
			</g>
		</g>
	</svg>
	<svg id="icon-circle-fill" viewBox="0 0 16 16">
		<g>
			<g fill="currentColor">
				<circle cx="8" cy="8" r="5" fill="currentColor" stroke="none" stroke-width="1" fill-rule="evenodd"></circle>
			</g>
		</g>
	</svg>
	<svg id="icon-corners-square" viewBox="0 0 16 16">
		<g>
			<g fill="currentColor">
				<path d="M3 3h10v10h-3V6H3z" fill="currentColor" stroke="none" stroke-width="1" fill-rule="evenodd"></path>
			</g>
		</g>
	</svg>
	<svg id="icon-corners-round" viewBox="0 0 16 16">
		<g>
			<g fill="currentColor">
				<path d="M3 3c3.333 0 5.833 1 7.5 3 1.667 2 2.5 4.333 2.5 7h-3c-.011-2.144-.644-3.844-1.9-5.1C6.844 6.644 5.144 6.011 3 6V3z" fill="currentColor" stroke="none" stroke-width="1" fill-rule="evenodd"></path>
			</g>
		</g>
	</svg>
	<symbol id="wsc-enter-arrow" viewBox="0 0 484.5 484.5">
		<g fill="currentColor">
			<polygon points="433.5,114.75 433.5,216.75 96.9,216.75 188.7,124.95 153,89.25 0,242.25 153,395.25 188.7,359.55 96.9,267.75 484.5,267.75 484.5,114.75 "/>
		</g>
	</symbol>
	<symbol id="wsc-plus-sign-thin" viewBox="0 0 24 24">
		<g fill="currentColor">
			<path d="M11 11v-11h1v11h11v1h-11v11h-1v-11h-11v-1h11z"/>
		</g>
	</symbol>
	<symbol id="wsc-plus-sign" viewBox="0 0 24 24">
		<path d="M24 10h-10v-10h-4v10h-10v4h10v10h4v-10h10z"/>
	</symbol>
	<svg id="wsc-icon-posts-grid" viewBox="0 0 32 32">
		<path d="M9.344 2.656h-8c-0.384 0-0.672 0.32-0.672 0.672v8c0 0.384 0.288 0.672 0.672 0.672h8c0.352 0 0.672-0.288 0.672-0.672v-8c0-0.352-0.32-0.672-0.672-0.672zM8.672 10.656h-6.656v-6.656h6.656v6.656zM8 14.656c0.384 0 0.672-0.288 0.672-0.672s-0.288-0.64-0.672-0.64h-5.344c-0.352 0-0.64 0.288-0.64 0.64s0.288 0.672 0.64 0.672h5.344zM20 2.656h-8c-0.352 0-0.672 0.32-0.672 0.672v8c0 0.384 0.32 0.672 0.672 0.672h8c0.384 0 0.672-0.288 0.672-0.672v-8c0-0.352-0.288-0.672-0.672-0.672zM19.328 10.656h-6.656v-6.656h6.656v6.656zM18.656 14.656c0.384 0 0.672-0.288 0.672-0.672s-0.288-0.64-0.672-0.64h-5.312c-0.384 0-0.672 0.288-0.672 0.64s0.288 0.672 0.672 0.672h5.312zM30.656 2.656h-8c-0.352 0-0.64 0.32-0.64 0.672v8c0 0.384 0.288 0.672 0.64 0.672h8c0.384 0 0.672-0.288 0.672-0.672v-8c0-0.352-0.288-0.672-0.672-0.672zM30.016 10.656h-6.688v-6.656h6.688v6.656zM29.344 14.656c0.352 0 0.672-0.288 0.672-0.672s-0.32-0.64-0.672-0.64h-5.344c-0.352 0-0.672 0.288-0.672 0.64s0.32 0.672 0.672 0.672h5.344zM9.344 17.344h-8c-0.384 0-0.672 0.288-0.672 0.64v8c0 0.384 0.288 0.672 0.672 0.672h8c0.352 0 0.672-0.288 0.672-0.672v-8c0-0.352-0.32-0.64-0.672-0.64zM8.672 25.344h-6.656v-6.688h6.656v6.688zM8 28h-5.344c-0.352 0-0.64 0.288-0.64 0.672s0.288 0.672 0.64 0.672h5.344c0.384 0 0.672-0.32 0.672-0.672s-0.288-0.672-0.672-0.672zM20 17.344h-8c-0.352 0-0.672 0.288-0.672 0.64v8c0 0.384 0.32 0.672 0.672 0.672h8c0.384 0 0.672-0.288 0.672-0.672v-8c0-0.352-0.288-0.64-0.672-0.64zM19.328 25.344h-6.656v-6.688h6.656v6.688zM18.656 28h-5.312c-0.384 0-0.672 0.288-0.672 0.672s0.288 0.672 0.672 0.672h5.312c0.384 0 0.672-0.32 0.672-0.672s-0.288-0.672-0.672-0.672zM30.656 17.344h-8c-0.352 0-0.64 0.288-0.64 0.64v8c0 0.384 0.288 0.672 0.64 0.672h8c0.384 0 0.672-0.288 0.672-0.672v-8c0-0.352-0.288-0.64-0.672-0.64zM30.016 25.344h-6.688v-6.688h6.688v6.688zM29.344 28h-5.344c-0.352 0-0.672 0.288-0.672 0.672s0.32 0.672 0.672 0.672h5.344c0.352 0 0.672-0.32 0.672-0.672s-0.32-0.672-0.672-0.672z"></path>
	</svg>
	<svg id="wsc-icon-post-details" viewBox="0 0 32 32">
		<path d="M28 0.672c0-0.384-0.288-0.672-0.672-0.672h-22.656c-0.384 0-0.672 0.288-0.672 0.672v14.656c0 0.096 0.032 0.16 0.064 0.256 0 0.032 0 0.032 0 0.032 0.032 0.064 0.064 0.128 0.128 0.192 0.128 0.128 0.32 0.192 0.48 0.192v0h22.656c0.16 0 0.288-0.064 0.384-0.128 0 0 0.032 0 0.032-0.032 0 0 0.032 0 0.032 0 0.032-0.032 0.064-0.096 0.096-0.128s0.032-0.064 0.064-0.096c0-0.032 0.032-0.064 0.032-0.128 0-0.032 0.032-0.064 0.032-0.128 0 0 0 0 0-0.032v-14.656zM26.656 1.344v12.064l-6.144-7.808c-0.096-0.16-0.288-0.256-0.48-0.256-0.224-0.032-0.384 0.064-0.512 0.224l-4.96 5.504-3.52-2.24c-0.288-0.16-0.608-0.128-0.832 0.096l-4.864 4.8v-12.384h21.312zM25.952 14.656h-19.648l4.448-4.416 3.552 2.272c0.288 0.16 0.64 0.128 0.864-0.128l4.8-5.344 5.984 7.616zM24.672 18.656h-17.344c-0.352 0-0.672 0.32-0.672 0.672s0.32 0.672 0.672 0.672h17.344c0.352 0 0.672-0.288 0.672-0.672s-0.32-0.672-0.672-0.672zM24.672 22.656h-17.344c-0.352 0-0.672 0.32-0.672 0.672s0.32 0.672 0.672 0.672h17.344c0.352 0 0.672-0.288 0.672-0.672s-0.32-0.672-0.672-0.672zM24.672 26.656h-17.344c-0.352 0-0.672 0.32-0.672 0.672s0.32 0.672 0.672 0.672h17.344c0.352 0 0.672-0.288 0.672-0.672s-0.32-0.672-0.672-0.672zM24.672 30.656h-17.344c-0.352 0-0.672 0.32-0.672 0.672s0.32 0.672 0.672 0.672h17.344c0.352 0 0.672-0.288 0.672-0.672s-0.32-0.672-0.672-0.672zM10.656 8c1.472 0 2.688-1.184 2.688-2.656s-1.216-2.688-2.688-2.688-2.656 1.216-2.656 2.688 1.184 2.656 2.656 2.656zM10.656 4c0.736 0 1.344 0.608 1.344 1.344s-0.608 1.312-1.344 1.312-1.312-0.576-1.312-1.312 0.576-1.344 1.312-1.344z"></path>
	</svg>
	<symbol id="wsc-align-top-left" viewBox="0 0 32 32">
		<path d="M0.282 28.841h31.312v3h-31.312v-3z"></path>
		<path d="M0.282 0.309h31.312v3h-31.312v-3z"></path>
		<path d="M3.296 0.34v31.312h-3v-31.312h3z"></path>
		<path d="M31.664 0.34v31.312h-3v-31.312h3z"></path>
		<path d="M0.344 0.341h15.75v15.75h-15.75v-15.75z"></path>
	</symbol>
	<symbol id="wsc-align-top-center" viewBox="0 0 32 32">
		<path d="M0.282 28.841h31.312v3h-31.312v-3z"></path>
		<path d="M0.282 0.309h31.312v3h-31.312v-3z"></path>
		<path d="M3.296 0.34v31.312h-3v-31.312h3z"></path>
		<path d="M31.664 0.34v31.312h-3v-31.312h3z"></path>
		<path d="M8.052 0.341h15.75v15.75h-15.75v-15.75z"></path>
	</symbol>
	<symbol id="wsc-align-top-right" viewBox="0 0 32 32">
		<path d="M0.282 28.841h31.312v3h-31.312v-3z"></path>
		<path d="M0.282 0.309h31.312v3h-31.312v-3z"></path>
		<path d="M3.296 0.34v31.312h-3v-31.312h3z"></path>
		<path d="M31.664 0.34v31.312h-3v-31.312h3z"></path>
		<path d="M15.683 0.341h15.75v15.75h-15.75v-15.75z"></path>
	</symbol>
	<symbol id="wsc-align-center-left" viewBox="0 0 32 32">
		<path d="M0.282 28.841h31.312v3h-31.312v-3z"></path>
		<path d="M0.282 0.309h31.312v3h-31.312v-3z"></path>
		<path d="M3.296 0.34v31.312h-3v-31.312h3z"></path>
		<path d="M31.664 0.34v31.312h-3v-31.312h3z"></path>
		<path d="M0.51 8.154h15.75v15.75h-15.75v-15.75z"></path>
	</symbol>
	<symbol id="wsc-align-center-center" viewBox="0 0 32 32">
		<path d="M0.282 28.841h31.312v3h-31.312v-3z"></path>
		<path d="M0.282 0.309h31.312v3h-31.312v-3z"></path>
		<path d="M3.296 0.34v31.312h-3v-31.312h3z"></path>
		<path d="M31.664 0.34v31.312h-3v-31.312h3z"></path>
		<path d="M8.426 8.154h15.75v15.75h-15.75v-15.75z"></path>
	</symbol>
	<symbol id="wsc-align-center-right" viewBox="0 0 32 32">
		<path d="M0.282 28.841h31.312v3h-31.312v-3z"></path>
		<path d="M0.282 0.309h31.312v3h-31.312v-3z"></path>
		<path d="M3.296 0.34v31.312h-3v-31.312h3z"></path>
		<path d="M31.664 0.34v31.312h-3v-31.312h3z"></path>
		<path d="M15.683 8.279h15.75v15.75h-15.75v-15.75z"></path>
	</symbol>
	<symbol id="wsc-align-bottom-left" viewBox="0 0 32 32">
		<path d="M0.282 28.841h31.312v3h-31.312v-3z"></path>
		<path d="M0.282 0.309h31.312v3h-31.312v-3z"></path>
		<path d="M3.296 0.34v31.312h-3v-31.312h3z"></path>
		<path d="M31.664 0.34v31.312h-3v-31.312h3z"></path>
		<path d="M0.51 15.85h15.75v15.75h-15.75v-15.75z"></path>
	</symbol>
	<symbol id="wsc-align-bottom-center" viewBox="0 0 32 32">
		<path d="M0.282 28.841h31.312v3h-31.312v-3z"></path>
		<path d="M0.282 0.309h31.312v3h-31.312v-3z"></path>
		<path d="M3.296 0.34v31.312h-3v-31.312h3z"></path>
		<path d="M31.664 0.34v31.312h-3v-31.312h3z"></path>
		<path d="M8.147 15.85h15.75v15.75h-15.75v-15.75z"></path>
	</symbol>
	<symbol id="wsc-align-bottom-right" viewBox="0 0 32 32">
		<path d="M0.282 28.841h31.312v3h-31.312v-3z"></path>
		<path d="M0.282 0.309h31.312v3h-31.312v-3z"></path>
		<path d="M3.296 0.34v31.312h-3v-31.312h3z"></path>
		<path d="M31.664 0.34v31.312h-3v-31.312h3z"></path>
		<path d="M15.847 15.975h15.75v15.75h-15.75v-15.75z"></path>
	</symbol>
	<symbol id="wsc-image-orientation-left" viewBox="0 0 43 32">
		<path d="M22.985 6.56h-20.607c-1.313 0-2.378 1.065-2.378 2.378v14.266c0 1.313 1.065 2.378 2.378 2.378h20.607c1.313 0 2.378-1.065 2.378-2.378v-14.266c0-1.313-1.065-2.378-2.378-2.378zM22.687 23.204h-20.012c-0.164 0-0.297-0.133-0.297-0.297v0-13.672c0-0.164 0.133-0.297 0.297-0.297v0h20.012c0.164 0 0.297 0.133 0.297 0.297v0 13.672c0 0.164-0.133 0.297-0.297 0.297v0zM6.341 10.919c-1.094 0-1.981 0.887-1.981 1.981s0.887 1.981 1.981 1.981 1.981-0.887 1.981-1.981-0.887-1.981-1.981-1.981zM4.755 20.826h15.851v-3.963l-4.335-4.335c-0.232-0.232-0.608-0.232-0.841 0l-5.92 5.92-1.957-1.957c-0.232-0.232-0.609-0.232-0.841 0l-1.957 1.957v2.378z"></path>
		<path d="M29.059 9.97h12.384c0.684 0 1.238 0.554 1.238 1.238s-0.554 1.238-1.238 1.238h-12.384c-0.684 0-1.238-0.554-1.238-1.238s0.554-1.238 1.238-1.238z"></path>
		<path d="M29.059 14.567h12.384c0.684 0 1.238 0.554 1.238 1.238s-0.554 1.238-1.238 1.238h-12.384c-0.684 0-1.238-0.554-1.238-1.238s0.554-1.238 1.238-1.238z"></path>
		<path d="M29.059 19.389h12.384c0.684 0 1.238 0.554 1.238 1.238s-0.554 1.238-1.238 1.238h-12.384c-0.684 0-1.238-0.554-1.238-1.238s0.554-1.238 1.238-1.238z"></path>
	</symbol>
	<symbol id="wsc-image-orientation-right" viewBox="0 0 43 32">
		<path d="M40.322 6.56h-20.607c-1.313 0-2.378 1.065-2.378 2.378v14.266c0 1.313 1.065 2.378 2.378 2.378h20.607c1.313 0 2.378-1.065 2.378-2.378v-14.266c0-1.313-1.065-2.378-2.378-2.378zM40.025 23.204h-20.012c-0.164 0-0.297-0.133-0.297-0.297v0-13.672c0-0.164 0.133-0.297 0.297-0.297v0h20.012c0.164 0 0.297 0.133 0.297 0.297v0 13.672c0 0.164-0.133 0.297-0.297 0.297v0zM23.678 10.919c-1.094 0-1.981 0.887-1.981 1.981s0.887 1.981 1.981 1.981 1.981-0.887 1.981-1.981-0.887-1.981-1.981-1.981zM22.093 20.826h15.851v-3.963l-4.335-4.335c-0.232-0.232-0.608-0.232-0.841 0l-5.92 5.92-1.957-1.957c-0.232-0.232-0.608-0.232-0.841 0l-1.957 1.957v2.378z"></path>
		<path d="M1.257 9.97h12.384c0.684 0 1.238 0.554 1.238 1.238s-0.554 1.238-1.238 1.238h-12.384c-0.684 0-1.238-0.554-1.238-1.238s0.554-1.238 1.238-1.238z"></path>
		<path d="M1.257 14.567h12.384c0.684 0 1.238 0.554 1.238 1.238s-0.554 1.238-1.238 1.238h-12.384c-0.684 0-1.238-0.554-1.238-1.238s0.554-1.238 1.238-1.238z"></path>
		<path d="M1.257 19.389h12.384c0.684 0 1.238 0.554 1.238 1.238s-0.554 1.238-1.238 1.238h-12.384c-0.684 0-1.238-0.554-1.238-1.238s0.554-1.238 1.238-1.238z"></path>
	</symbol>
	<symbol id="wsc-image-orientation-top" viewBox="0 0 24 32">
		<path d="M21.605 0.113h-19.363c-1.234 0-2.234 1-2.234 2.234v13.405c0 1.234 1 2.234 2.234 2.234h19.363c1.234 0 2.234-1 2.234-2.234v-13.405c0-1.234-1-2.234-2.234-2.234zM21.326 15.752h-18.804c-0.154 0-0.279-0.125-0.279-0.279l0-0.029-0-12.817c0-0.154 0.125-0.279 0.279-0.279v0h18.804c0.154 0 0.279 0.125 0.279 0.279v0 12.847c0 0.154-0.125 0.279-0.279 0.279v0zM5.966 4.209c-1.028 0-1.862 0.834-1.862 1.862s0.834 1.862 1.862 1.862 1.862-0.834 1.862-1.862-0.834-1.862-1.862-1.862zM4.477 13.518h14.895v-3.724l-4.073-4.073c-0.218-0.218-0.572-0.218-0.79 0l-5.563 5.563-1.839-1.839c-0.218-0.218-0.572-0.218-0.79 0l-1.839 1.839v2.234z"></path>
		<path d="M3.77 20.406h16.291c0.643 0 1.164 0.521 1.164 1.164s-0.521 1.164-1.164 1.164h-16.291c-0.643 0-1.164-0.521-1.164-1.164s0.521-1.164 1.164-1.164z"></path>
		<path d="M3.77 29.569h16.291c0.643 0 1.164 0.521 1.164 1.164s-0.521 1.164-1.164 1.164h-16.291c-0.643 0-1.164-0.521-1.164-1.164s0.521-1.164 1.164-1.164z"></path>
		<path d="M3.77 24.947h16.291c0.643 0 1.164 0.521 1.164 1.164s-0.521 1.164-1.164 1.164h-16.291c-0.643 0-1.164-0.521-1.164-1.164s0.521-1.164 1.164-1.164z"></path>
	</symbol>

	<symbol id="wsc-row-layout-1" viewBox="0 0 210 80">
		<g>
			<rect x="0" width="210" height="80" rx="5" fill="currentColor" />
		</g>
	</symbol>
	<symbol id="wsc-row-layout-1-1" viewBox="0 0 210 80">
		<g>
			<rect x="0" width="100" height="80" rx="5" fill="currentColor" />
			<rect x="105" width="100" height="80" rx="5" fill="currentColor" />
		</g>
	</symbol>
	<symbol id="wsc-row-layout-1-1-1" viewBox="0 0 210 80">
		<g>
			<rect x="0" width="65" height="80" rx="5" fill="currentColor" />
			<rect x="70" width="65" height="80" rx="5" fill="currentColor" />
			<rect x="140" width="65" height="80" rx="5" fill="currentColor" />
		</g>
	</symbol>
	<symbol id="wsc-row-layout-1-1-1-1" viewBox="0 0 210 80">
		<g>
			<rect x="0" width="47.5" height="80" rx="5" fill="currentColor" />
			<rect x="52.5" width="47.5" height="80" rx="5" fill="currentColor" />
			<rect x="105" width="47.5" height="80" rx="5" fill="currentColor" />
			<rect x="157.5" width="47.5" height="80" rx="5" fill="currentColor" />
		</g>
	</symbol>
	<symbol id="wsc-row-layout-1-1-1-1-1" viewBox="0 0 210 80">
		<g>
			<rect x="0" width="37" height="80" rx="5" fill="currentColor" />
			<rect x="42" width="37" height="80" rx="5" fill="currentColor" />
			<rect x="84" width="37" height="80" rx="5" fill="currentColor" />
			<rect x="126" width="37" height="80" rx="5" fill="currentColor" />
			<rect x="168" width="37" height="80" rx="5" fill="currentColor" />
		</g>
	</symbol>
	<symbol id="wsc-row-layout-1-1-1-1-1-1" viewBox="0 0 210 80">
		<g>
			<rect x="0" width="30" height="80" rx="5" fill="currentColor" />
			<rect x="35" width="30" height="80" rx="5" fill="currentColor" />
			<rect x="70" width="30" height="80" rx="5" fill="currentColor" />
			<rect x="105" width="30" height="80" rx="5" fill="currentColor" />
			<rect x="140" width="30" height="80" rx="5" fill="currentColor" />
			<rect x="175" width="30" height="80" rx="5" fill="currentColor" />
		</g>
	</symbol>
	<symbol id="wsc-row-layout-1-2" viewBox="0 0 210 80">
		<g>
			<rect x="0" width="65" height="80" rx="5" fill="currentColor" />
			<rect x="70" width="135" height="80" rx="5" fill="currentColor" />
		</g>
	</symbol>
	<symbol id="wsc-row-layout-2-1" viewBox="0 0 210 80">
		<g>
			<rect x="0" width="135" height="80" rx="5" fill="currentColor" />
			<rect x="140" width="65" height="80" rx="5" fill="currentColor" />
		</g>
	</symbol>
	<symbol id="wsc-row-layout-1-3" viewBox="0 0 210 80">
		<g>
			<rect x="0" width="47.5" height="80" rx="5" fill="currentColor" />
			<rect x="52.5" width="152.5" height="80" rx="5" fill="currentColor" />
		</g>
	</symbol>
	<symbol id="wsc-row-layout-3-1" viewBox="0 0 210 80">
		<g>
			<rect x="0" width="152.5" height="80" rx="5" fill="currentColor" />
			<rect x="157.5" width="47.5" height="80" rx="5" fill="currentColor" />
		</g>
	</symbol>
	<symbol id="wsc-row-layout-1-4" viewBox="0 0 210 80">
		<g>
			<rect x="0" width="37" height="80" rx="5" fill="currentColor" />
			<rect x="42" width="163" height="80" rx="5" fill="currentColor" />
		</g>
	</symbol>
	<symbol id="wsc-row-layout-4-1" viewBox="0 0 210 80">
		<g>
			<rect x="0" width="163" height="80" rx="5" fill="currentColor" />
			<rect x="168" width="37" height="80" rx="5" fill="currentColor" />
		</g>
	</symbol>
	<symbol id="wsc-row-layout-1-3-1" viewBox="0 0 210 80">
		<g>
			<rect x="0" width="37" height="80" rx="5" fill="currentColor" />
			<rect x="42" width="121" height="80" rx="5" fill="currentColor" />
			<rect x="168" width="37" height="80" rx="5" fill="currentColor" />
		</g>
	</symbol>
	<symbol id="wsc-row-layout-1-4-1" viewBox="0 0 210 80">
		<g>
			<rect x="0" width="30" height="80" rx="5" fill="currentColor" />
			<rect x="35" width="135" height="80" rx="5" fill="currentColor" />
			<rect x="175" width="30" height="80" rx="5" fill="currentColor" />
		</g>
	</symbol>
	<symbol id="wsc-row-layout-1-1-3" viewBox="0 0 210 80">
		<g>
			<rect x="0" width="37" height="80" rx="5" fill="currentColor" />
			<rect x="42" width="37" height="80" rx="5" fill="currentColor" />
			<rect x="84" width="121" height="80" rx="5" fill="currentColor" />
		</g>
	</symbol>
	<symbol id="wsc-row-layout-3-1-1" viewBox="0 0 210 80">
		<g>
			<rect x="0" width="121" height="80" rx="5" fill="currentColor" />
			<rect x="126" width="37" height="80" rx="5" fill="currentColor" />
			<rect x="168" width="37" height="80" rx="5" fill="currentColor" />
		</g>
	</symbol>
	<symbol id="wsc-row-layout-1-1-4" viewBox="0 0 210 80">
		<g>
			<rect x="0" width="30" height="80" rx="5" fill="currentColor" />
			<rect x="35" width="30" height="80" rx="5" fill="currentColor" />
			<rect x="70" width="135" height="80" rx="5" fill="currentColor" />
		</g>
	</symbol>
	<symbol id="wsc-row-layout-4-1-1" viewBox="0 0 210 80">
		<g>
			<rect x="0" width="135" height="80" rx="5" fill="currentColor" />
			<rect x="140" width="30" height="80" rx="5" fill="currentColor" />
			<rect x="175" width="30" height="80" rx="5" fill="currentColor" />
		</g>
	</symbol>
	<symbol id="wsc-row-layout-1-1-1-4" viewBox="0 0 210 80">
		<g>
			<rect x="0" width="25" height="80" rx="5" fill="currentColor" />
			<rect x="30" width="25" height="80" rx="5" fill="currentColor" />
			<rect x="60" width="25" height="80" rx="5" fill="currentColor" />
			<rect x="90" width="115" height="80" rx="5" fill="currentColor" />
		</g>
	</symbol>
	<symbol id="wsc-row-layout-4-1-1-1" viewBox="0 0 210 80">
		<g>
			<rect x="0" width="115" height="80" rx="5" fill="currentColor" />
			<rect x="120" width="25" height="80" rx="5" fill="currentColor" />
			<rect x="150" width="25" height="80" rx="5" fill="currentColor" />
			<rect x="180" width="25" height="80" rx="5" fill="currentColor" />
		</g>
	</symbol>
	<symbol id="wsc-envelope" viewBox="0 0 32 32">
		<path d="M29 4h-26c-1.657 0-3 1.343-3 3v18c0 1.657 1.343 3 3 3h26c1.657 0 3-1.343 3-3v-18c0-1.657-1.343-3-3-3zM29 7v2.55c-1.401 1.141-3.636 2.916-8.412 6.656-1.053 0.828-3.138 2.817-4.588 2.794-1.45 0.023-3.536-1.966-4.588-2.794-4.775-3.739-7.010-5.514-8.412-6.656v-2.55h26zM3 25v-11.6c1.432 1.141 3.463 2.741 6.559 5.165 1.366 1.075 3.758 3.449 6.441 3.435 2.67 0.014 5.032-2.325 6.441-3.434 3.096-2.424 5.127-4.025 6.559-5.166v11.6h-26z"></path>
	</symbol>
	<symbol id="wsc-fa-arrows-alt-h" viewBox="0 0 512 512">
		<path d="M377.941 169.941V216H134.059v-46.059c0-21.382-25.851-32.09-40.971-16.971L7.029 239.029c-9.373 9.373-9.373 24.568 0 33.941l86.059 86.059c15.119 15.119 40.971 4.411 40.971-16.971V296h243.882v46.059c0 21.382 25.851 32.09 40.971 16.971l86.059-86.059c9.373-9.373 9.373-24.568 0-33.941l-86.059-86.059c-15.119-15.12-40.971-4.412-40.971 16.97z"></path>
	</symbol>

	<symbol id="wsc-fa-mobile-alt"
		xmlns="http://www.w3.org/2000/svg" viewBox="0 0 320 512">
		<path fill="currentColor" d="M272 0H48C21.5 0 0 21.5 0 48v416c0 26.5 21.5 48 48 48h224c26.5 0 48-21.5 48-48V48c0-26.5-21.5-48-48-48zM160 480c-17.7 0-32-14.3-32-32s14.3-32 32-32 32 14.3 32 32-14.3 32-32 32zm112-108c0 6.6-5.4 12-12 12H60c-6.6 0-12-5.4-12-12V60c0-6.6 5.4-12 12-12h200c6.6 0 12 5.4 12 12v312z"></path>
	</symbol>

	<symbol id="wsc-fa-tablet-alt"
		xmlns="http://www.w3.org/2000/svg" viewBox="0 0 448 512">
		<path fill="currentColor" d="M400 0H48C21.5 0 0 21.5 0 48v416c0 26.5 21.5 48 48 48h352c26.5 0 48-21.5 48-48V48c0-26.5-21.5-48-48-48zM224 480c-17.7 0-32-14.3-32-32s14.3-32 32-32 32 14.3 32 32-14.3 32-32 32zm176-108c0 6.6-5.4 12-12 12H60c-6.6 0-12-5.4-12-12V60c0-6.6 5.4-12 12-12h328c6.6 0 12 5.4 12 12v312z"></path>
	</symbol>

	<symbol id="wsc-fa-desktop-alt"
		xmlns="http://www.w3.org/2000/svg" viewBox="0 0 576 512">
		<path fill="currentColor" d="M528 0H48C21.5 0 0 21.5 0 48v320c0 26.5 21.5 48 48 48h192l-16 48h-72c-13.3 0-24 10.7-24 24s10.7 24 24 24h272c13.3 0 24-10.7 24-24s-10.7-24-24-24h-72l-16-48h192c26.5 0 48-21.5 48-48V48c0-26.5-21.5-48-48-48zm-16 352H64V64h448v288z"></path>
	</symbol>

	<symbol id="wsc-fa-star"
		xmlns="http://www.w3.org/2000/svg" viewBox="0 0 576 512">
		<path fill="currentColor" d="M259.3 17.8L194 150.2 47.9 171.5c-26.2 3.8-36.7 36.1-17.7 54.6l105.7 103-25 145.5c-4.5 26.3 23.2 46 46.4 33.7L288 439.6l130.7 68.7c23.2 12.2 50.9-7.4 46.4-33.7l-25-145.5 105.7-103c19-18.5 8.5-50.8-17.7-54.6L382 150.2 316.7 17.8c-11.7-23.6-45.6-23.9-57.4 0z"></path>
	</symbol>

	<symbol id="wsc-fa-star-alt"
		xmlns="http://www.w3.org/2000/svg" viewBox="0 0 576 512">
		<path fill="currentColor" d="M528.1 171.5L382 150.2 316.7 17.8c-11.7-23.6-45.6-23.9-57.4 0L194 150.2 47.9 171.5c-26.2 3.8-36.7 36.1-17.7 54.6l105.7 103-25 145.5c-4.5 26.3 23.2 46 46.4 33.7L288 439.6l130.7 68.7c23.2 12.2 50.9-7.4 46.4-33.7l-25-145.5 105.7-103c19-18.5 8.5-50.8-17.7-54.6zM388.6 312.3l23.7 138.4L288 385.4l-124.3 65.3 23.7-138.4-100.6-98 139-20.2 62.2-126 62.2 126 139 20.2-100.6 98z"></path>
	</symbol>

	<symbol id="wsc-fa-undo"
		xmlns="http://www.w3.org/2000/svg" viewBox="0 0 576 512">
		<path fill="currentColor" d="M212.333 224.333H12c-6.627 0-12-5.373-12-12V12C0 5.373 5.373 0 12 0h48c6.627 0 12 5.373 12 12v78.112C117.773 39.279 184.26 7.47 258.175 8.007c136.906.994 246.448 111.623 246.157 248.532C504.041 393.258 393.12 504 256.333 504c-64.089 0-122.496-24.313-166.51-64.215-5.099-4.622-5.334-12.554-.467-17.42l33.967-33.967c4.474-4.474 11.662-4.717 16.401-.525C170.76 415.336 211.58 432 256.333 432c97.268 0 176-78.716 176-176 0-97.267-78.716-176-176-176-58.496 0-110.28 28.476-142.274 72.333h98.274c6.627 0 12 5.373 12 12v48c0 6.627-5.373 12-12 12z"></path>
	</symbol>

	<symbol id="wsc-home" viewBox="0 0 36 32">
		<path d="M17.523 9.266l-11.523 9.491v10.243c0 0.552 0.448 1 1 1v0l7.004-0.018c0.55-0.003 0.995-0.449 0.995-1 0 0 0 0 0 0v0-5.982c0-0.552 0.448-1 1-1v0h4c0.552 0 1 0.448 1 1v0 5.977c0 0.001 0 0.002 0 0.003 0 0.552 0.448 1 1 1 0 0 0 0 0 0v0l7.001 0.019c0.552 0 1-0.448 1-1v0-10.25l-11.521-9.484c-0.13-0.105-0.296-0.169-0.478-0.169s-0.349 0.064-0.48 0.17l0.001-0.001zM35.725 15.717l-5.225-4.307v-8.657c0-0.414-0.336-0.75-0.75-0.75v0h-3.5c-0.414 0-0.75 0.336-0.75 0.75v0 4.538l-5.596-4.604c-0.514-0.425-1.18-0.683-1.906-0.683s-1.392 0.258-1.911 0.688l0.005-0.004-15.821 13.029c-0.167 0.139-0.272 0.346-0.272 0.578 0 0.182 0.065 0.349 0.173 0.479l-0.001-0.001 1.594 1.938c0.139 0.168 0.347 0.274 0.579 0.274 0.182 0 0.349-0.065 0.479-0.173l-0.001 0.001 14.701-12.109c0.13-0.105 0.296-0.169 0.478-0.169s0.349 0.064 0.48 0.17l-0.001-0.001 14.702 12.109c0.129 0.107 0.296 0.172 0.478 0.172 0.232 0 0.44-0.105 0.577-0.271l0.001-0.001 1.594-1.938c0.106-0.128 0.171-0.295 0.171-0.476 0-0.234-0.107-0.443-0.276-0.581l-0.001-0.001z"></path>
	</symbol>

	<svg id="wsc-fa-swatchbook" viewBox="0 0 512 512">
		<path fill="currentColor" d="M434.66,167.71h0L344.5,77.36a31.83,31.83,0,0,0-45-.07h0l-.07.07L224,152.88V424L434.66,212.9A32,32,0,0,0,434.66,167.71ZM480,320H373.09L186.68,506.51c-2.06,2.07-4.5,3.58-6.68,5.49H480a32,32,0,0,0,32-32V352A32,32,0,0,0,480,320ZM192,32A32,32,0,0,0,160,0H32A32,32,0,0,0,0,32V416a96,96,0,0,0,192,0ZM96,440a24,24,0,1,1,24-24A24,24,0,0,1,96,440Zm32-184H64V192h64Zm0-128H64V64h64Z"></path>
	</svg>

	<symbol id="wsc-fa-sign-in-alt" viewBox="0 0 512 512">
		<path d="M416 448h-84c-6.6 0-12-5.4-12-12v-40c0-6.6 5.4-12 12-12h84c17.7 0 32-14.3 32-32V160c0-17.7-14.3-32-32-32h-84c-6.6 0-12-5.4-12-12V76c0-6.6 5.4-12 12-12h84c53 0 96 43 96 96v192c0 53-43 96-96 96zm-47-201L201 79c-15-15-41-4.5-41 17v96H24c-13.3 0-24 10.7-24 24v96c0 13.3 10.7 24 24 24h136v96c0 21.5 26 32 41 17l168-168c9.3-9.4 9.3-24.6 0-34z"></path>
	</symbol>

	<svg id="wsc-fa-user" viewBox="0 0 448 512">
		<path d="M224 256c70.7 0 128-57.3 128-128S294.7 0 224 0 96 57.3 96 128s57.3 128 128 128zm89.6 32h-16.7c-22.2 10.2-46.9 16-72.9 16s-50.6-5.8-72.9-16h-16.7C60.2 288 0 348.2 0 422.4V464c0 26.5 21.5 48 48 48h352c26.5 0 48-21.5 48-48v-41.6c0-74.2-60.2-134.4-134.4-134.4z"></path>
	</svg>

	<svg id="wsc-fa-user-plus" viewBox="0 0 640 512">
		<path fill="currentColor" d="M624 208h-64v-64c0-8.8-7.2-16-16-16h-32c-8.8 0-16 7.2-16 16v64h-64c-8.8 0-16 7.2-16 16v32c0 8.8 7.2 16 16 16h64v64c0 8.8 7.2 16 16 16h32c8.8 0 16-7.2 16-16v-64h64c8.8 0 16-7.2 16-16v-32c0-8.8-7.2-16-16-16zm-400 48c70.7 0 128-57.3 128-128S294.7 0 224 0 96 57.3 96 128s57.3 128 128 128zm89.6 32h-16.7c-22.2 10.2-46.9 16-72.9 16s-50.6-5.8-72.9-16h-16.7C60.2 288 0 348.2 0 422.4V464c0 26.5 21.5 48 48 48h352c26.5 0 48-21.5 48-48v-41.6c0-74.2-60.2-134.4-134.4-134.4z"></path>
	</svg>

	<symbol id="wsc-fa-download"
		xmlns="http://www.w3.org/2000/svg" viewBox="0 0 512 512">
		<path d="M216 0h80c13.3 0 24 10.7 24 24v168h87.7c17.8 0 26.7 21.5 14.1 34.1L269.7 378.3c-7.5 7.5-19.8 7.5-27.3 0L90.1 226.1c-12.6-12.6-3.7-34.1 14.1-34.1H192V24c0-13.3 10.7-24 24-24zm296 376v112c0 13.3-10.7 24-24 24H24c-13.3 0-24-10.7-24-24V376c0-13.3 10.7-24 24-24h146.7l49 49c20.1 20.1 52.5 20.1 72.6 0l49-49H488c13.3 0 24 10.7 24 24zm-124 88c0-11-9-20-20-20s-20 9-20 20 9 20 20 20 20-9 20-20zm64 0c0-11-9-20-20-20s-20 9-20 20 9 20 20 20 20-9 20-20z"></path>
	</symbol>

	<symbol id="wsc-fa-shopping-cart"
		xmlns="http://www.w3.org/2000/svg" viewBox="0 0 576 512">
		<path d="M528.12 301.319l47.273-208C578.806 78.301 567.391 64 551.99 64H159.208l-9.166-44.81C147.758 8.021 137.93 0 126.529 0H24C10.745 0 0 10.745 0 24v16c0 13.255 10.745 24 24 24h69.883l70.248 343.435C147.325 417.1 136 435.222 136 456c0 30.928 25.072 56 56 56s56-25.072 56-56c0-15.674-6.447-29.835-16.824-40h209.647C430.447 426.165 424 440.326 424 456c0 30.928 25.072 56 56 56s56-25.072 56-56c0-22.172-12.888-41.332-31.579-50.405l5.517-24.276c3.413-15.018-8.002-29.319-23.403-29.319H218.117l-6.545-32h293.145c11.206 0 20.92-7.754 23.403-18.681z"></path>
	</symbol>

	<symbol id="wsc-fa-barcode"
		xmlns="http://www.w3.org/2000/svg" viewBox="0 0 512 512">
		<path d="M0 448V64h18v384H0zm26.857-.273V64H36v383.727h-9.143zm27.143 0V64h8.857v383.727H54zm44.857 0V64h8.857v383.727h-8.857zm36 0V64h17.714v383.727h-17.714zm44.857 0V64h8.857v383.727h-8.857zm18 0V64h8.857v383.727h-8.857zm18 0V64h8.857v383.727h-8.857zm35.715 0V64h18v383.727h-18zm44.857 0V64h18v383.727h-18zm35.999 0V64h18.001v383.727h-18.001zm36.001 0V64h18.001v383.727h-18.001zm26.857 0V64h18v383.727h-18zm45.143 0V64h26.857v383.727h-26.857zm35.714 0V64h9.143v383.727H476zm18 .273V64h18v384h-18z"></path>
	</symbol>

	<symbol id="wsc-fa-cart-plus"
		xmlns="http://www.w3.org/2000/svg" viewBox="0 0 576 512">
		<path fill="currentColor" d="M504.717 320H211.572l6.545 32h268.418c15.401 0 26.816 14.301 23.403 29.319l-5.517 24.276C523.112 414.668 536 433.828 536 456c0 31.202-25.519 56.444-56.824 55.994-29.823-.429-54.35-24.631-55.155-54.447-.44-16.287 6.085-31.049 16.803-41.548H231.176C241.553 426.165 248 440.326 248 456c0 31.813-26.528 57.431-58.67 55.938-28.54-1.325-51.751-24.385-53.251-52.917-1.158-22.034 10.436-41.455 28.051-51.586L93.883 64H24C10.745 64 0 53.255 0 40V24C0 10.745 10.745 0 24 0h102.529c11.401 0 21.228 8.021 23.513 19.19L159.208 64H551.99c15.401 0 26.816 14.301 23.403 29.319l-47.273 208C525.637 312.246 515.923 320 504.717 320zM408 168h-48v-40c0-8.837-7.163-16-16-16h-16c-8.837 0-16 7.163-16 16v40h-48c-8.837 0-16 7.163-16 16v16c0 8.837 7.163 16 16 16h48v40c0 8.837 7.163 16 16 16h16c8.837 0 16-7.163 16-16v-40h48c8.837 0 16-7.163 16-16v-16c0-8.837-7.163-16-16-16z"></path>
	</symbol>

	<symbol id="wsc-fa-graduation-cap"
		xmlns="http://www.w3.org/2000/svg" viewBox="0 0 620 512">
		<path fill="currentColor" d="M622.34 153.2L343.4 67.5c-15.2-4.67-31.6-4.67-46.79 0L17.66 153.2c-23.54 7.23-23.54 38.36 0 45.59l48.63 14.94c-10.67 13.19-17.23 29.28-17.88 46.9C38.78 266.15 32 276.11 32 288c0 10.78 5.68 19.85 13.86 25.65L20.33 428.53C18.11 438.52 25.71 448 35.94 448h56.11c10.24 0 17.84-9.48 15.62-19.47L82.14 313.65C90.32 307.85 96 298.78 96 288c0-11.57-6.47-21.25-15.66-26.87.76-15.02 8.44-28.3 20.69-36.72L296.6 284.5c9.06 2.78 26.44 6.25 46.79 0l278.95-85.7c23.55-7.24 23.55-38.36 0-45.6zM352.79 315.09c-28.53 8.76-52.84 3.92-65.59 0l-145.02-44.55L128 384c0 35.35 85.96 64 192 64s192-28.65 192-64l-14.18-113.47-145.03 44.56z"></path>
	</symbol>

	<symbol id="wsc-fa-unlock-alt"
		xmlns="http://www.w3.org/2000/svg" viewBox="0 0 448 512">
		<path fill="currentColor" d="M400 256H152V152.9c0-39.6 31.7-72.5 71.3-72.9 40-.4 72.7 32.1 72.7 72v16c0 13.3 10.7 24 24 24h32c13.3 0 24-10.7 24-24v-16C376 68 307.5-.3 223.5 0 139.5.3 72 69.5 72 153.5V256H48c-26.5 0-48 21.5-48 48v160c0 26.5 21.5 48 48 48h352c26.5 0 48-21.5 48-48V304c0-26.5-21.5-48-48-48zM264 408c0 22.1-17.9 40-40 40s-40-17.9-40-40v-48c0-22.1 17.9-40 40-40s40 17.9 40 40v48z"></path>
	</symbol>

	<symbol id="wsc-fa-key"
		xmlns="http://www.w3.org/2000/svg" viewBox="0 0 512 512">
		<path fill="currentColor" d="M512 176.001C512 273.203 433.202 352 336 352c-11.22 0-22.19-1.062-32.827-3.069l-24.012 27.014A23.999 23.999 0 0 1 261.223 384H224v40c0 13.255-10.745 24-24 24h-40v40c0 13.255-10.745 24-24 24H24c-13.255 0-24-10.745-24-24v-78.059c0-6.365 2.529-12.47 7.029-16.971l161.802-161.802C163.108 213.814 160 195.271 160 176 160 78.798 238.797.001 335.999 0 433.488-.001 512 78.511 512 176.001zM336 128c0 26.51 21.49 48 48 48s48-21.49 48-48-21.49-48-48-48-48 21.49-48 48z"></path>
	</symbol>

	<symbol id="wsc-fa-address-card"
		xmlns="http://www.w3.org/2000/svg" viewBox="0 0 576 512">
		<path fill="currentColor" d="M528 32H48C21.5 32 0 53.5 0 80v352c0 26.5 21.5 48 48 48h480c26.5 0 48-21.5 48-48V80c0-26.5-21.5-48-48-48zm0 400H48V80h480v352zM208 256c35.3 0 64-28.7 64-64s-28.7-64-64-64-64 28.7-64 64 28.7 64 64 64zm-89.6 128h179.2c12.4 0 22.4-8.6 22.4-19.2v-19.2c0-31.8-30.1-57.6-67.2-57.6-10.8 0-18.7 8-44.8 8-26.9 0-33.4-8-44.8-8-37.1 0-67.2 25.8-67.2 57.6v19.2c0 10.6 10 19.2 22.4 19.2zM360 320h112c4.4 0 8-3.6 8-8v-16c0-4.4-3.6-8-8-8H360c-4.4 0-8 3.6-8 8v16c0 4.4 3.6 8 8 8zm0-64h112c4.4 0 8-3.6 8-8v-16c0-4.4-3.6-8-8-8H360c-4.4 0-8 3.6-8 8v16c0 4.4 3.6 8 8 8zm0-64h112c4.4 0 8-3.6 8-8v-16c0-4.4-3.6-8-8-8H360c-4.4 0-8 3.6-8 8v16c0 4.4 3.6 8 8 8z"></path>
	</symbol>
</svg>